<?xml version="1.0" standalone="no"?>
 <!DOCTYPE svg PUBLIC "-//W3C//DTD SVG 1.1//EN" 
 "http://www.w3.org/Graphics/SVG/1.1/DTD/svg11.dtd"> 
<svg
  xmlns:svg="http://www.w3.org/2000/svg"
  xmlns="http://www.w3.org/2000/svg"
  xmlns:xlink="http://www.w3.org/1999/xlink"
  version="1.1"
  width="297.0022mm" height="210.0072mm" viewBox="0.0000 0.0000 297.0022 210.0072">
<title>SVG Image created as CoCo2VideoMod-Edge_Cuts.svg date 2023/11/20 19:06:33 </title>
  <desc>Image generated by PCBNEW </desc>
<g style="fill:#000000; fill-opacity:1.0000;stroke:#000000; stroke-opacity:1.0000;
stroke-linecap:round; stroke-linejoin:round;"
 transform="translate(0 0) scale(1 1)">
</g>
<g style="fill:#000000; fill-opacity:0.0; 
stroke:#000000; stroke-width:0.0000; stroke-opacity:1; 
stroke-linecap:round; stroke-linejoin:round;">
</g>
<g style="fill:#000000; fill-opacity:0.0; 
stroke:#000000; stroke-width:0.1000; stroke-opacity:1; 
stroke-linecap:round; stroke-linejoin:round;">
<circle cx="232.0000" cy="92.7000" r="1.0000" /> 
<circle cx="232.0000" cy="90.2000" r="1.0000" /> 
<circle cx="232.0000" cy="87.6000" r="1.0000" /> 
<circle cx="232.0000" cy="80.0000" r="1.0000" /> 
<circle cx="232.0000" cy="77.5000" r="1.0000" /> 
<circle cx="232.0000" cy="69.8000" r="1.0000" /> 
<circle cx="232.0000" cy="74.9000" r="1.0000" /> 
<circle cx="232.0000" cy="72.4000" r="1.0000" /> 
<path d="M236.0000 64.0000 A1.0000 1.0000 0.0 0 0 235.0000 65.0000" />
<path d="M236.0000 64.0000
L238.0000 64.0000
" />
<path d="M235.0000 100.0000
L200.0000 100.0000
" />
<path d="M238.0000 64.0000
L238.0000 50.0000
" />
<path d="M200.0000 50.0000
L238.0000 50.0000
" />
<path d="M200.0000 100.0000
L200.0000 50.0000
" />
<path d="M235.0000 100.0000
L235.0000 65.0000
" />
<g >
</g>
<g >
</g>
<g >
</g>
<g >
</g>
<g >
</g>
<g >
</g>
<g >
</g>
<g >
</g>
<g >
</g>
<g >
</g>
<g >
</g>
<g >
</g>
<g >
</g>
<g >
</g>
<g >
</g>
<g >
</g>
<g >
</g>
<g >
</g>
<g >
</g>
<g >
</g>
<g >
</g>
<g >
</g>
<g >
</g>
<g >
</g>
<g >
</g>
<g >
</g>
<g >
</g>
<g >
</g>
<g >
</g>
<g >
</g>
<g >
</g>
<g >
</g>
<g >
</g>
<g >
</g>
<g >
</g>
<g >
</g>
<g >
</g>
<g >
</g>
<g >
</g>
</g> 
</svg>
