%TF.GenerationSoftware,KiCad,Pcbnew,7.0.7-7.0.7~ubuntu20.04.1*%
%TF.CreationDate,2023-11-20T21:06:27+01:00*%
%TF.ProjectId,CoCo2VideoMod,436f436f-3256-4696-9465-6f4d6f642e6b,rev?*%
%TF.SameCoordinates,Original*%
%TF.FileFunction,Copper,L1,Top*%
%TF.FilePolarity,Positive*%
%FSLAX46Y46*%
G04 Gerber Fmt 4.6, Leading zero omitted, Abs format (unit mm)*
G04 Created by KiCad (PCBNEW 7.0.7-7.0.7~ubuntu20.04.1) date 2023-11-20 21:06:27*
%MOMM*%
%LPD*%
G01*
G04 APERTURE LIST*
%TA.AperFunction,ComponentPad*%
%ADD10C,1.600000*%
%TD*%
%TA.AperFunction,ComponentPad*%
%ADD11O,1.600000X1.600000*%
%TD*%
%TA.AperFunction,ComponentPad*%
%ADD12R,1.600000X1.600000*%
%TD*%
%TA.AperFunction,ComponentPad*%
%ADD13R,1.500000X1.050000*%
%TD*%
%TA.AperFunction,ComponentPad*%
%ADD14O,1.500000X1.050000*%
%TD*%
%TA.AperFunction,ComponentPad*%
%ADD15R,1.050000X1.500000*%
%TD*%
%TA.AperFunction,ComponentPad*%
%ADD16O,1.050000X1.500000*%
%TD*%
%TA.AperFunction,ComponentPad*%
%ADD17R,1.700000X1.700000*%
%TD*%
%TA.AperFunction,ComponentPad*%
%ADD18O,1.700000X1.700000*%
%TD*%
%TA.AperFunction,ComponentPad*%
%ADD19O,2.000000X3.500000*%
%TD*%
%TA.AperFunction,ComponentPad*%
%ADD20O,4.000000X2.000000*%
%TD*%
%TA.AperFunction,ViaPad*%
%ADD21C,0.800000*%
%TD*%
%TA.AperFunction,Conductor*%
%ADD22C,1.000000*%
%TD*%
%TA.AperFunction,Conductor*%
%ADD23C,0.500000*%
%TD*%
G04 APERTURE END LIST*
D10*
%TO.P,C7,1*%
%TO.N,Net-(C7-Pad1)*%
X224850000Y-66040000D03*
%TO.P,C7,2*%
%TO.N,/Audio in*%
X232350000Y-66040000D03*
%TD*%
%TO.P,R12,1*%
%TO.N,GND*%
X204470000Y-88265000D03*
D11*
%TO.P,R12,2*%
%TO.N,Net-(Q1-E)*%
X201930000Y-88265000D03*
%TD*%
D10*
%TO.P,C1,1*%
%TO.N,+5V*%
X205125000Y-74930000D03*
%TO.P,C1,2*%
%TO.N,Net-(Q2-E)*%
X207625000Y-74930000D03*
%TD*%
D12*
%TO.P,C2,1*%
%TO.N,+5V*%
X217170000Y-97115000D03*
D10*
%TO.P,C2,2*%
%TO.N,GND*%
X217170000Y-94615000D03*
%TD*%
D12*
%TO.P,U1,1,CKo*%
%TO.N,unconnected-(U1-CKo-Pad1)*%
X228590000Y-89540000D03*
D11*
%TO.P,U1,2,CKi*%
%TO.N,/Clk 3.58 MHz*%
X228590000Y-87000000D03*
%TO.P,U1,3,Duty*%
%TO.N,unconnected-(U1-Duty-Pad3)*%
X228590000Y-84460000D03*
%TO.P,U1,4,GND*%
%TO.N,GND*%
X228590000Y-81920000D03*
%TO.P,U1,5,PHB*%
%TO.N,/Phase B*%
X228590000Y-79380000D03*
%TO.P,U1,6,Ref*%
%TO.N,/Color Ref*%
X228590000Y-76840000D03*
%TO.P,U1,7,PHA*%
%TO.N,/Phase A*%
X228590000Y-74300000D03*
%TO.P,U1,8,Co*%
%TO.N,Net-(Q1-B)*%
X220970000Y-74300000D03*
%TO.P,U1,9,Yi*%
%TO.N,/Luma*%
X220970000Y-76840000D03*
%TO.P,U1,10,Ci*%
%TO.N,Net-(U1-Ci)*%
X220970000Y-79380000D03*
%TO.P,U1,11,VCC*%
%TO.N,+5V*%
X220970000Y-81920000D03*
%TO.P,U1,12,RFo*%
%TO.N,Net-(Q4-B)*%
X220970000Y-84460000D03*
%TO.P,U1,13,-RFT*%
%TO.N,Net-(D1-K)*%
X220970000Y-87000000D03*
%TO.P,U1,14,+RFT*%
%TO.N,Net-(D1-A)*%
X220970000Y-89540000D03*
%TD*%
D10*
%TO.P,R15,1*%
%TO.N,GND*%
X206375000Y-55470000D03*
D11*
%TO.P,R15,2*%
%TO.N,Net-(Q2-C)*%
X206375000Y-58010000D03*
%TD*%
D10*
%TO.P,R17,1*%
%TO.N,Net-(C7-Pad1)*%
X226060000Y-70485000D03*
D11*
%TO.P,R17,2*%
%TO.N,/Audio out*%
X228600000Y-70485000D03*
%TD*%
D10*
%TO.P,L1,1,1*%
%TO.N,/+5V in*%
X232410000Y-97155000D03*
D11*
%TO.P,L1,2,2*%
%TO.N,+5V*%
X222250000Y-97155000D03*
%TD*%
D10*
%TO.P,R6,1*%
%TO.N,GND*%
X208280000Y-88265000D03*
D11*
%TO.P,R6,2*%
%TO.N,Net-(Q4-C)*%
X210820000Y-88265000D03*
%TD*%
D13*
%TO.P,Q4,1,C*%
%TO.N,Net-(Q4-C)*%
X213995000Y-85090000D03*
D14*
%TO.P,Q4,2,B*%
%TO.N,Net-(Q4-B)*%
X213995000Y-83820000D03*
%TO.P,Q4,3,E*%
%TO.N,+5V*%
X213995000Y-82550000D03*
%TD*%
D10*
%TO.P,R7,1*%
%TO.N,GND*%
X204470000Y-91440000D03*
D11*
%TO.P,R7,2*%
%TO.N,Net-(Q5-E)*%
X201930000Y-91440000D03*
%TD*%
D12*
%TO.P,D1,1,K*%
%TO.N,Net-(D1-K)*%
X217805000Y-88265000D03*
D11*
%TO.P,D1,2,A*%
%TO.N,Net-(D1-A)*%
X217805000Y-90805000D03*
%TD*%
D13*
%TO.P,Q1,1,C*%
%TO.N,+5V*%
X203200000Y-82550000D03*
D14*
%TO.P,Q1,2,B*%
%TO.N,Net-(Q1-B)*%
X203200000Y-83820000D03*
%TO.P,Q1,3,E*%
%TO.N,Net-(Q1-E)*%
X203200000Y-85090000D03*
%TD*%
D10*
%TO.P,R2,1*%
%TO.N,Net-(Q5-E)*%
X208280000Y-91440000D03*
D11*
%TO.P,R2,2*%
%TO.N,Net-(Q4-B)*%
X210820000Y-91440000D03*
%TD*%
D13*
%TO.P,Q5,1,C*%
%TO.N,+5V*%
X208280000Y-82550000D03*
D14*
%TO.P,Q5,2,B*%
%TO.N,Net-(Q4-C)*%
X208280000Y-83820000D03*
%TO.P,Q5,3,E*%
%TO.N,Net-(Q5-E)*%
X208280000Y-85090000D03*
%TD*%
D10*
%TO.P,R9,1*%
%TO.N,Net-(Q2-B)*%
X212725000Y-65405000D03*
D11*
%TO.P,R9,2*%
%TO.N,+5V*%
X205105000Y-65405000D03*
%TD*%
D10*
%TO.P,R10,1*%
%TO.N,Net-(Q2-E)*%
X207645000Y-78105000D03*
D11*
%TO.P,R10,2*%
%TO.N,+5V*%
X205105000Y-78105000D03*
%TD*%
D10*
%TO.P,C5,1*%
%TO.N,Net-(C5-Pad1)*%
X210940000Y-78740000D03*
%TO.P,C5,2*%
%TO.N,Net-(U1-Ci)*%
X218440000Y-78740000D03*
%TD*%
%TO.P,R13,1*%
%TO.N,Net-(Q3-E)*%
X216760000Y-59055000D03*
D11*
%TO.P,R13,2*%
%TO.N,/Luma_out*%
X219300000Y-59055000D03*
%TD*%
D10*
%TO.P,C8,1*%
%TO.N,GND*%
X221615000Y-70405000D03*
%TO.P,C8,2*%
%TO.N,/Audio out*%
X221615000Y-65405000D03*
%TD*%
%TO.P,C4,1*%
%TO.N,GND*%
X201930000Y-95885000D03*
%TO.P,C4,2*%
%TO.N,Net-(C4-Pad2)*%
X209430000Y-95885000D03*
%TD*%
%TO.P,R14,1*%
%TO.N,GND*%
X217580000Y-65405000D03*
D11*
%TO.P,R14,2*%
%TO.N,Net-(Q2-B)*%
X215040000Y-65405000D03*
%TD*%
D10*
%TO.P,C3,1*%
%TO.N,+5V*%
X222250000Y-93345000D03*
%TO.P,C3,2*%
%TO.N,GND*%
X227250000Y-93345000D03*
%TD*%
D15*
%TO.P,Q2,1,C*%
%TO.N,Net-(Q2-C)*%
X206375000Y-71120000D03*
D16*
%TO.P,Q2,2,B*%
%TO.N,Net-(Q2-B)*%
X207645000Y-71120000D03*
%TO.P,Q2,3,E*%
%TO.N,Net-(Q2-E)*%
X208915000Y-71120000D03*
%TD*%
D17*
%TO.P,J1,1,Pin_1*%
%TO.N,/Audio in*%
X232000000Y-69850000D03*
D18*
%TO.P,J1,2,Pin_2*%
%TO.N,/Luma*%
X232000000Y-72390000D03*
%TO.P,J1,3,Pin_3*%
%TO.N,/Phase A*%
X232000000Y-74930000D03*
%TO.P,J1,4,Pin_4*%
%TO.N,/Color Ref*%
X232000000Y-77470000D03*
%TO.P,J1,5,Pin_5*%
%TO.N,/Phase B*%
X232000000Y-80010000D03*
%TD*%
D10*
%TO.P,R16,1*%
%TO.N,GND*%
X209550000Y-55470000D03*
D11*
%TO.P,R16,2*%
%TO.N,Net-(Q3-E)*%
X209550000Y-58010000D03*
%TD*%
D10*
%TO.P,C6,1*%
%TO.N,Net-(Q2-B)*%
X212725000Y-69850000D03*
%TO.P,C6,2*%
%TO.N,/Luma*%
X217725000Y-69850000D03*
%TD*%
D12*
%TO.P,J3,1,Pin_1*%
%TO.N,/Audio out*%
X230800000Y-54350000D03*
D10*
%TO.P,J3,2,Pin_2*%
%TO.N,/Composite_out*%
X228200000Y-54350000D03*
%TO.P,J3,3,Pin_3*%
%TO.N,GND*%
X232900000Y-54350000D03*
%TO.P,J3,4,Pin_4*%
X226100000Y-54350000D03*
%TO.P,J3,5,Pin_5*%
%TO.N,/Luma_out*%
X232900000Y-51850000D03*
%TO.P,J3,6,Pin_6*%
%TO.N,/Chroma_out*%
X226100000Y-51850000D03*
D19*
%TO.P,J3,7,Pin_7*%
%TO.N,GND*%
X222750000Y-57350000D03*
D20*
X229500000Y-58150000D03*
D19*
X236250000Y-57350000D03*
%TD*%
D10*
%TO.P,R3,1*%
%TO.N,Net-(C4-Pad2)*%
X212090000Y-95250000D03*
D11*
%TO.P,R3,2*%
%TO.N,+5V*%
X212090000Y-97790000D03*
%TD*%
D17*
%TO.P,J2,1,Pin_1*%
%TO.N,/Clk 3.58 MHz*%
X232000000Y-87630000D03*
D18*
%TO.P,J2,2,Pin_2*%
%TO.N,/Ch. Switch*%
X232000000Y-90170000D03*
%TO.P,J2,3,Pin_3*%
%TO.N,/+5V in*%
X232000000Y-92710000D03*
%TD*%
D15*
%TO.P,Q3,1,C*%
%TO.N,+5V*%
X206375000Y-61955000D03*
D16*
%TO.P,Q3,2,B*%
%TO.N,Net-(Q2-C)*%
X207645000Y-61955000D03*
%TO.P,Q3,3,E*%
%TO.N,Net-(Q3-E)*%
X208915000Y-61955000D03*
%TD*%
D10*
%TO.P,R5,1*%
%TO.N,Net-(Q5-E)*%
X216760000Y-55880000D03*
D11*
%TO.P,R5,2*%
%TO.N,/Composite_out*%
X219300000Y-55880000D03*
%TD*%
D10*
%TO.P,R1,1*%
%TO.N,Net-(Q4-B)*%
X217805000Y-85090000D03*
D11*
%TO.P,R1,2*%
%TO.N,+5V*%
X217805000Y-82550000D03*
%TD*%
D10*
%TO.P,R11,1*%
%TO.N,Net-(Q1-E)*%
X216760000Y-52705000D03*
D11*
%TO.P,R11,2*%
%TO.N,/Chroma_out*%
X219300000Y-52705000D03*
%TD*%
D10*
%TO.P,R4,1*%
%TO.N,Net-(D1-A)*%
X214630000Y-88265000D03*
D11*
%TO.P,R4,2*%
%TO.N,Net-(C4-Pad2)*%
X214630000Y-90805000D03*
%TD*%
D10*
%TO.P,R8,1*%
%TO.N,Net-(C5-Pad1)*%
X210820000Y-74295000D03*
D11*
%TO.P,R8,2*%
%TO.N,Net-(Q1-B)*%
X218440000Y-74295000D03*
%TD*%
D21*
%TO.N,/Audio out*%
X228600000Y-63500000D03*
%TO.N,Net-(Q1-B)*%
X213995000Y-79375000D03*
%TD*%
D22*
%TO.N,+5V*%
X205125000Y-73045000D02*
X204470000Y-72390000D01*
X219075000Y-82550000D02*
X219705000Y-81920000D01*
X204470000Y-69850000D02*
X205105000Y-69215000D01*
X204470000Y-72390000D02*
X204470000Y-69850000D01*
X205105000Y-69215000D02*
X205105000Y-65405000D01*
X217805000Y-82550000D02*
X219075000Y-82550000D01*
X217805000Y-82550000D02*
X213995000Y-82550000D01*
X219705000Y-81920000D02*
X220970000Y-81920000D01*
X205105000Y-63225000D02*
X206375000Y-61955000D01*
X217810000Y-82555000D02*
X217805000Y-82550000D01*
X205105000Y-65405000D02*
X205105000Y-63225000D01*
X205125000Y-74930000D02*
X205125000Y-73045000D01*
X213995000Y-82550000D02*
X208280000Y-82550000D01*
X208280000Y-82550000D02*
X203200000Y-82550000D01*
D23*
%TO.N,GND*%
X228180000Y-58000000D02*
X229500000Y-58000000D01*
X230290000Y-58000000D02*
X229500000Y-58000000D01*
%TO.N,/Audio out*%
X232410000Y-59690000D02*
X228600000Y-63500000D01*
X230800000Y-54905000D02*
X232410000Y-56515000D01*
X232410000Y-56515000D02*
X232410000Y-59690000D01*
X230800000Y-54350000D02*
X230800000Y-54905000D01*
%TO.N,Net-(Q1-B)*%
X201295000Y-83185000D02*
X201930000Y-83820000D01*
X212090000Y-81280000D02*
X201930000Y-81280000D01*
X201295000Y-81915000D02*
X201295000Y-83185000D01*
X201930000Y-81280000D02*
X201295000Y-81915000D01*
X213995000Y-79375000D02*
X212090000Y-81280000D01*
X201930000Y-83820000D02*
X203200000Y-83820000D01*
%TO.N,Net-(Q2-C)*%
X206375000Y-71120000D02*
X206375000Y-66675000D01*
X206375000Y-66675000D02*
X207645000Y-65405000D01*
X207645000Y-65405000D02*
X207645000Y-61955000D01*
%TD*%
%TA.AperFunction,Conductor*%
%TO.N,GND*%
G36*
X237942539Y-50020185D02*
G01*
X237988294Y-50072989D01*
X237999500Y-50124500D01*
X237999500Y-63875500D01*
X237979815Y-63942539D01*
X237927011Y-63988294D01*
X237875500Y-63999500D01*
X235912464Y-63999500D01*
X235909442Y-63999764D01*
X235904040Y-64000000D01*
X234999999Y-64000000D01*
X234999999Y-64904050D01*
X234999764Y-64909446D01*
X234999500Y-64912469D01*
X234999500Y-99875500D01*
X234979815Y-99942539D01*
X234927011Y-99988294D01*
X234875500Y-99999500D01*
X200124500Y-99999500D01*
X200057461Y-99979815D01*
X200011706Y-99927011D01*
X200000500Y-99875500D01*
X200000500Y-95885002D01*
X200625034Y-95885002D01*
X200644858Y-96111599D01*
X200644860Y-96111610D01*
X200703730Y-96331317D01*
X200703734Y-96331326D01*
X200799865Y-96537481D01*
X200799866Y-96537483D01*
X200850973Y-96610471D01*
X200850973Y-96610472D01*
X201392580Y-96068865D01*
X201453903Y-96035380D01*
X201523594Y-96040364D01*
X201579528Y-96082235D01*
X201590742Y-96100246D01*
X201596527Y-96111599D01*
X201602358Y-96123044D01*
X201602363Y-96123050D01*
X201691949Y-96212636D01*
X201691951Y-96212637D01*
X201691955Y-96212641D01*
X201714747Y-96224254D01*
X201765542Y-96272228D01*
X201782337Y-96340049D01*
X201759799Y-96406184D01*
X201746132Y-96422419D01*
X201204526Y-96964025D01*
X201204526Y-96964026D01*
X201277512Y-97015131D01*
X201277516Y-97015133D01*
X201483673Y-97111265D01*
X201483682Y-97111269D01*
X201703389Y-97170139D01*
X201703400Y-97170141D01*
X201929998Y-97189966D01*
X201930002Y-97189966D01*
X202156599Y-97170141D01*
X202156610Y-97170139D01*
X202376317Y-97111269D01*
X202376331Y-97111264D01*
X202582478Y-97015136D01*
X202655472Y-96964025D01*
X202113866Y-96422419D01*
X202080381Y-96361096D01*
X202085365Y-96291404D01*
X202127237Y-96235471D01*
X202145245Y-96224258D01*
X202168045Y-96212641D01*
X202257641Y-96123045D01*
X202269254Y-96100252D01*
X202317225Y-96049458D01*
X202385046Y-96032661D01*
X202451181Y-96055197D01*
X202467419Y-96068866D01*
X203009025Y-96610472D01*
X203060136Y-96537478D01*
X203156264Y-96331331D01*
X203156269Y-96331317D01*
X203215139Y-96111610D01*
X203215141Y-96111599D01*
X203234966Y-95885002D01*
X203234966Y-95885001D01*
X208124532Y-95885001D01*
X208144364Y-96111686D01*
X208144366Y-96111697D01*
X208203258Y-96331488D01*
X208203261Y-96331497D01*
X208299431Y-96537732D01*
X208299432Y-96537734D01*
X208429954Y-96724141D01*
X208590858Y-96885045D01*
X208590861Y-96885047D01*
X208777266Y-97015568D01*
X208983504Y-97111739D01*
X209203308Y-97170635D01*
X209365230Y-97184801D01*
X209429998Y-97190468D01*
X209430000Y-97190468D01*
X209430002Y-97190468D01*
X209486673Y-97185509D01*
X209656692Y-97170635D01*
X209876496Y-97111739D01*
X210082734Y-97015568D01*
X210269139Y-96885047D01*
X210430047Y-96724139D01*
X210560568Y-96537734D01*
X210656739Y-96331496D01*
X210715635Y-96111692D01*
X210729316Y-95955309D01*
X210754768Y-95890242D01*
X210811359Y-95849263D01*
X210881121Y-95845385D01*
X210941905Y-95879839D01*
X210956008Y-95898521D01*
X210956327Y-95898299D01*
X210959431Y-95902732D01*
X210959432Y-95902734D01*
X210997746Y-95957452D01*
X211089954Y-96089141D01*
X211250858Y-96250045D01*
X211250861Y-96250047D01*
X211437266Y-96380568D01*
X211495275Y-96407618D01*
X211547714Y-96453791D01*
X211566866Y-96520984D01*
X211546650Y-96587865D01*
X211495275Y-96632382D01*
X211437267Y-96659431D01*
X211437265Y-96659432D01*
X211250858Y-96789954D01*
X211089954Y-96950858D01*
X210959432Y-97137265D01*
X210959431Y-97137267D01*
X210863261Y-97343502D01*
X210863258Y-97343511D01*
X210804366Y-97563302D01*
X210804364Y-97563313D01*
X210784532Y-97789998D01*
X210784532Y-97790001D01*
X210804364Y-98016686D01*
X210804366Y-98016697D01*
X210863258Y-98236488D01*
X210863261Y-98236497D01*
X210959431Y-98442732D01*
X210959432Y-98442734D01*
X211089954Y-98629141D01*
X211250858Y-98790045D01*
X211250861Y-98790047D01*
X211437266Y-98920568D01*
X211643504Y-99016739D01*
X211863308Y-99075635D01*
X212025230Y-99089801D01*
X212089998Y-99095468D01*
X212090000Y-99095468D01*
X212090002Y-99095468D01*
X212146673Y-99090509D01*
X212316692Y-99075635D01*
X212536496Y-99016739D01*
X212742734Y-98920568D01*
X212929139Y-98790047D01*
X213090047Y-98629139D01*
X213220568Y-98442734D01*
X213316739Y-98236496D01*
X213375635Y-98016692D01*
X213392634Y-97822384D01*
X213395468Y-97790001D01*
X213395468Y-97789998D01*
X213375635Y-97563313D01*
X213375635Y-97563308D01*
X213316739Y-97343504D01*
X213220568Y-97137266D01*
X213099265Y-96964026D01*
X213090045Y-96950858D01*
X212929141Y-96789954D01*
X212742734Y-96659432D01*
X212742728Y-96659429D01*
X212684725Y-96632382D01*
X212632285Y-96586210D01*
X212613133Y-96519017D01*
X212633348Y-96452135D01*
X212684725Y-96407618D01*
X212742734Y-96380568D01*
X212929139Y-96250047D01*
X213090047Y-96089139D01*
X213220568Y-95902734D01*
X213316739Y-95696496D01*
X213375635Y-95476692D01*
X213395468Y-95250000D01*
X213394304Y-95236701D01*
X213389317Y-95179689D01*
X213375635Y-95023308D01*
X213326949Y-94841610D01*
X213316741Y-94803511D01*
X213316738Y-94803502D01*
X213297693Y-94762661D01*
X213228838Y-94615002D01*
X215865034Y-94615002D01*
X215884858Y-94841599D01*
X215884860Y-94841610D01*
X215943730Y-95061317D01*
X215943734Y-95061326D01*
X216039865Y-95267481D01*
X216039866Y-95267483D01*
X216090973Y-95340471D01*
X216090973Y-95340472D01*
X216632580Y-94798865D01*
X216693903Y-94765380D01*
X216763594Y-94770364D01*
X216819528Y-94812235D01*
X216830742Y-94830246D01*
X216836527Y-94841599D01*
X216842358Y-94853044D01*
X216842363Y-94853050D01*
X216931949Y-94942636D01*
X216931951Y-94942637D01*
X216931955Y-94942641D01*
X216954747Y-94954254D01*
X217005542Y-95002228D01*
X217022337Y-95070049D01*
X216999799Y-95136184D01*
X216986132Y-95152419D01*
X216439351Y-95699200D01*
X216429505Y-95748194D01*
X216380889Y-95798376D01*
X216325367Y-95813048D01*
X216325423Y-95814099D01*
X216325429Y-95814146D01*
X216325426Y-95814146D01*
X216325436Y-95814324D01*
X216322123Y-95814501D01*
X216262516Y-95820908D01*
X216127671Y-95871202D01*
X216127664Y-95871206D01*
X216012455Y-95957452D01*
X216012452Y-95957455D01*
X215926206Y-96072664D01*
X215926202Y-96072671D01*
X215875908Y-96207517D01*
X215871336Y-96250047D01*
X215869501Y-96267123D01*
X215869500Y-96267135D01*
X215869500Y-97962870D01*
X215869501Y-97962876D01*
X215875908Y-98022483D01*
X215926202Y-98157328D01*
X215926206Y-98157335D01*
X216012452Y-98272544D01*
X216012455Y-98272547D01*
X216127664Y-98358793D01*
X216127671Y-98358797D01*
X216262517Y-98409091D01*
X216262516Y-98409091D01*
X216269444Y-98409835D01*
X216322127Y-98415500D01*
X218017872Y-98415499D01*
X218077483Y-98409091D01*
X218212331Y-98358796D01*
X218327546Y-98272546D01*
X218413796Y-98157331D01*
X218464091Y-98022483D01*
X218470500Y-97962873D01*
X218470500Y-97155001D01*
X220944532Y-97155001D01*
X220964364Y-97381686D01*
X220964366Y-97381697D01*
X221023258Y-97601488D01*
X221023261Y-97601497D01*
X221119431Y-97807732D01*
X221119432Y-97807734D01*
X221249954Y-97994141D01*
X221410858Y-98155045D01*
X221457693Y-98187839D01*
X221597266Y-98285568D01*
X221803504Y-98381739D01*
X222023308Y-98440635D01*
X222185230Y-98454801D01*
X222249998Y-98460468D01*
X222250000Y-98460468D01*
X222250002Y-98460468D01*
X222306672Y-98455509D01*
X222476692Y-98440635D01*
X222696496Y-98381739D01*
X222902734Y-98285568D01*
X223089139Y-98155047D01*
X223250047Y-97994139D01*
X223380568Y-97807734D01*
X223476739Y-97601496D01*
X223535635Y-97381692D01*
X223555468Y-97155001D01*
X231104532Y-97155001D01*
X231124364Y-97381686D01*
X231124366Y-97381697D01*
X231183258Y-97601488D01*
X231183261Y-97601497D01*
X231279431Y-97807732D01*
X231279432Y-97807734D01*
X231409954Y-97994141D01*
X231570858Y-98155045D01*
X231617693Y-98187839D01*
X231757266Y-98285568D01*
X231963504Y-98381739D01*
X232183308Y-98440635D01*
X232345230Y-98454801D01*
X232409998Y-98460468D01*
X232410000Y-98460468D01*
X232410002Y-98460468D01*
X232466673Y-98455509D01*
X232636692Y-98440635D01*
X232856496Y-98381739D01*
X233062734Y-98285568D01*
X233249139Y-98155047D01*
X233410047Y-97994139D01*
X233540568Y-97807734D01*
X233636739Y-97601496D01*
X233695635Y-97381692D01*
X233715468Y-97155000D01*
X233713916Y-97137266D01*
X233698760Y-96964026D01*
X233695635Y-96928308D01*
X233636739Y-96708504D01*
X233540568Y-96502266D01*
X233441721Y-96361096D01*
X233410045Y-96315858D01*
X233249141Y-96154954D01*
X233062734Y-96024432D01*
X233062732Y-96024431D01*
X232856497Y-95928261D01*
X232856488Y-95928258D01*
X232636697Y-95869366D01*
X232636693Y-95869365D01*
X232636692Y-95869365D01*
X232636691Y-95869364D01*
X232636686Y-95869364D01*
X232410002Y-95849532D01*
X232409998Y-95849532D01*
X232183313Y-95869364D01*
X232183302Y-95869366D01*
X231963511Y-95928258D01*
X231963502Y-95928261D01*
X231757267Y-96024431D01*
X231757265Y-96024432D01*
X231570858Y-96154954D01*
X231409954Y-96315858D01*
X231279432Y-96502265D01*
X231279431Y-96502267D01*
X231183261Y-96708502D01*
X231183258Y-96708511D01*
X231124366Y-96928302D01*
X231124364Y-96928313D01*
X231104532Y-97154998D01*
X231104532Y-97155001D01*
X223555468Y-97155001D01*
X223555468Y-97155000D01*
X223553916Y-97137266D01*
X223538760Y-96964026D01*
X223535635Y-96928308D01*
X223476739Y-96708504D01*
X223380568Y-96502266D01*
X223281721Y-96361096D01*
X223250045Y-96315858D01*
X223089141Y-96154954D01*
X222902734Y-96024432D01*
X222902732Y-96024431D01*
X222696497Y-95928261D01*
X222696488Y-95928258D01*
X222476697Y-95869366D01*
X222476693Y-95869365D01*
X222476692Y-95869365D01*
X222476691Y-95869364D01*
X222476686Y-95869364D01*
X222250002Y-95849532D01*
X222249998Y-95849532D01*
X222023313Y-95869364D01*
X222023302Y-95869366D01*
X221803511Y-95928258D01*
X221803502Y-95928261D01*
X221597267Y-96024431D01*
X221597265Y-96024432D01*
X221410858Y-96154954D01*
X221249954Y-96315858D01*
X221119432Y-96502265D01*
X221119431Y-96502267D01*
X221023261Y-96708502D01*
X221023258Y-96708511D01*
X220964366Y-96928302D01*
X220964364Y-96928313D01*
X220944532Y-97154998D01*
X220944532Y-97155001D01*
X218470500Y-97155001D01*
X218470499Y-96267128D01*
X218464091Y-96207517D01*
X218444486Y-96154954D01*
X218413797Y-96072671D01*
X218413793Y-96072664D01*
X218327547Y-95957455D01*
X218327544Y-95957452D01*
X218212335Y-95871206D01*
X218212328Y-95871202D01*
X218077482Y-95820908D01*
X218077483Y-95820908D01*
X218017883Y-95814501D01*
X218017881Y-95814500D01*
X218017873Y-95814500D01*
X218017864Y-95814500D01*
X218014548Y-95814322D01*
X218014627Y-95812847D01*
X217953215Y-95794815D01*
X217907460Y-95742011D01*
X217899969Y-95698522D01*
X217353866Y-95152419D01*
X217320381Y-95091096D01*
X217325365Y-95021404D01*
X217367237Y-94965471D01*
X217385245Y-94954258D01*
X217408045Y-94942641D01*
X217497641Y-94853045D01*
X217509254Y-94830252D01*
X217557225Y-94779458D01*
X217625046Y-94762661D01*
X217691181Y-94785197D01*
X217707419Y-94798866D01*
X218249025Y-95340472D01*
X218300136Y-95267478D01*
X218396264Y-95061331D01*
X218396269Y-95061317D01*
X218455139Y-94841610D01*
X218455141Y-94841599D01*
X218474966Y-94615002D01*
X218474966Y-94614997D01*
X218455141Y-94388400D01*
X218455139Y-94388389D01*
X218396269Y-94168682D01*
X218396265Y-94168673D01*
X218300133Y-93962516D01*
X218300131Y-93962512D01*
X218249026Y-93889526D01*
X218249025Y-93889526D01*
X217707419Y-94431132D01*
X217646096Y-94464617D01*
X217576404Y-94459633D01*
X217520471Y-94417761D01*
X217509256Y-94399751D01*
X217497641Y-94376955D01*
X217497637Y-94376951D01*
X217497636Y-94376949D01*
X217408050Y-94287363D01*
X217408044Y-94287358D01*
X217398109Y-94282296D01*
X217385250Y-94275744D01*
X217334456Y-94227773D01*
X217317660Y-94159952D01*
X217340197Y-94093817D01*
X217353865Y-94077580D01*
X217895472Y-93535973D01*
X217822483Y-93484866D01*
X217822481Y-93484865D01*
X217616326Y-93388734D01*
X217616317Y-93388730D01*
X217453117Y-93345001D01*
X220944532Y-93345001D01*
X220964364Y-93571686D01*
X220964366Y-93571697D01*
X221023258Y-93791488D01*
X221023261Y-93791497D01*
X221119431Y-93997732D01*
X221119432Y-93997734D01*
X221249954Y-94184141D01*
X221410858Y-94345045D01*
X221410861Y-94345047D01*
X221597266Y-94475568D01*
X221803504Y-94571739D01*
X221803509Y-94571740D01*
X221803511Y-94571741D01*
X221856415Y-94585916D01*
X222023308Y-94630635D01*
X222185230Y-94644801D01*
X222249998Y-94650468D01*
X222250000Y-94650468D01*
X222250002Y-94650468D01*
X222306673Y-94645509D01*
X222476692Y-94630635D01*
X222696496Y-94571739D01*
X222902734Y-94475568D01*
X223089139Y-94345047D01*
X223250047Y-94184139D01*
X223380568Y-93997734D01*
X223476739Y-93791496D01*
X223535635Y-93571692D01*
X223555468Y-93345002D01*
X225945034Y-93345002D01*
X225964858Y-93571599D01*
X225964860Y-93571610D01*
X226023730Y-93791317D01*
X226023734Y-93791326D01*
X226119865Y-93997481D01*
X226119866Y-93997483D01*
X226170973Y-94070471D01*
X226170973Y-94070472D01*
X226712580Y-93528865D01*
X226773903Y-93495380D01*
X226843594Y-93500364D01*
X226899528Y-93542235D01*
X226910742Y-93560246D01*
X226916527Y-93571599D01*
X226922358Y-93583044D01*
X226922363Y-93583050D01*
X227011949Y-93672636D01*
X227011951Y-93672637D01*
X227011955Y-93672641D01*
X227034747Y-93684254D01*
X227085542Y-93732228D01*
X227102337Y-93800049D01*
X227079799Y-93866184D01*
X227066132Y-93882419D01*
X226524526Y-94424025D01*
X226524526Y-94424026D01*
X226597512Y-94475131D01*
X226597516Y-94475133D01*
X226803673Y-94571265D01*
X226803682Y-94571269D01*
X227023389Y-94630139D01*
X227023400Y-94630141D01*
X227249998Y-94649966D01*
X227250002Y-94649966D01*
X227476599Y-94630141D01*
X227476610Y-94630139D01*
X227696317Y-94571269D01*
X227696331Y-94571264D01*
X227902478Y-94475136D01*
X227975472Y-94424025D01*
X227433866Y-93882419D01*
X227400381Y-93821096D01*
X227405365Y-93751404D01*
X227447237Y-93695471D01*
X227465245Y-93684258D01*
X227488045Y-93672641D01*
X227577641Y-93583045D01*
X227589254Y-93560252D01*
X227637225Y-93509458D01*
X227705046Y-93492661D01*
X227771181Y-93515197D01*
X227787419Y-93528866D01*
X228329025Y-94070472D01*
X228380136Y-93997478D01*
X228476264Y-93791331D01*
X228476269Y-93791317D01*
X228535139Y-93571610D01*
X228535141Y-93571599D01*
X228554966Y-93345002D01*
X228554966Y-93344997D01*
X228535141Y-93118400D01*
X228535139Y-93118389D01*
X228476269Y-92898682D01*
X228476265Y-92898673D01*
X228388286Y-92710000D01*
X230644341Y-92710000D01*
X230664936Y-92945403D01*
X230664938Y-92945413D01*
X230726094Y-93173655D01*
X230726096Y-93173659D01*
X230726097Y-93173663D01*
X230805994Y-93345002D01*
X230825965Y-93387830D01*
X230825967Y-93387834D01*
X230929696Y-93535973D01*
X230961505Y-93581401D01*
X231128599Y-93748495D01*
X231190011Y-93791496D01*
X231322165Y-93884032D01*
X231322167Y-93884033D01*
X231322170Y-93884035D01*
X231536337Y-93983903D01*
X231764592Y-94045063D01*
X231952918Y-94061539D01*
X231999999Y-94065659D01*
X232000000Y-94065659D01*
X232000001Y-94065659D01*
X232039234Y-94062226D01*
X232235408Y-94045063D01*
X232463663Y-93983903D01*
X232677830Y-93884035D01*
X232871401Y-93748495D01*
X233038495Y-93581401D01*
X233174035Y-93387830D01*
X233273903Y-93173663D01*
X233335063Y-92945408D01*
X233355659Y-92710000D01*
X233335063Y-92474592D01*
X233273903Y-92246337D01*
X233174035Y-92032171D01*
X233138692Y-91981695D01*
X233038494Y-91838597D01*
X232871402Y-91671506D01*
X232871396Y-91671501D01*
X232685842Y-91541575D01*
X232642217Y-91486998D01*
X232635023Y-91417500D01*
X232666546Y-91355145D01*
X232685842Y-91338425D01*
X232803368Y-91256132D01*
X232871401Y-91208495D01*
X233038495Y-91041401D01*
X233174035Y-90847830D01*
X233273903Y-90633663D01*
X233335063Y-90405408D01*
X233355659Y-90170000D01*
X233335063Y-89934592D01*
X233273903Y-89706337D01*
X233174035Y-89492171D01*
X233173403Y-89491269D01*
X233038496Y-89298600D01*
X233004941Y-89265045D01*
X232916567Y-89176671D01*
X232883084Y-89115351D01*
X232888068Y-89045659D01*
X232929939Y-88989725D01*
X232960915Y-88972810D01*
X233092331Y-88923796D01*
X233207546Y-88837546D01*
X233293796Y-88722331D01*
X233344091Y-88587483D01*
X233350500Y-88527873D01*
X233350499Y-86732128D01*
X233344091Y-86672517D01*
X233299701Y-86553502D01*
X233293797Y-86537671D01*
X233293793Y-86537664D01*
X233207547Y-86422455D01*
X233207544Y-86422452D01*
X233092335Y-86336206D01*
X233092328Y-86336202D01*
X232957482Y-86285908D01*
X232957483Y-86285908D01*
X232897883Y-86279501D01*
X232897881Y-86279500D01*
X232897873Y-86279500D01*
X232897864Y-86279500D01*
X231102129Y-86279500D01*
X231102123Y-86279501D01*
X231042516Y-86285908D01*
X230907671Y-86336202D01*
X230907664Y-86336206D01*
X230792455Y-86422452D01*
X230792452Y-86422455D01*
X230706206Y-86537664D01*
X230706202Y-86537671D01*
X230655908Y-86672517D01*
X230649501Y-86732116D01*
X230649501Y-86732123D01*
X230649500Y-86732135D01*
X230649500Y-88527870D01*
X230649501Y-88527876D01*
X230655908Y-88587483D01*
X230706202Y-88722328D01*
X230706206Y-88722335D01*
X230792452Y-88837544D01*
X230792455Y-88837547D01*
X230907664Y-88923793D01*
X230907671Y-88923797D01*
X231039081Y-88972810D01*
X231095015Y-89014681D01*
X231119432Y-89080145D01*
X231104580Y-89148418D01*
X231083430Y-89176673D01*
X230961503Y-89298600D01*
X230825965Y-89492169D01*
X230825964Y-89492171D01*
X230726098Y-89706335D01*
X230726094Y-89706344D01*
X230664938Y-89934586D01*
X230664936Y-89934596D01*
X230644341Y-90169999D01*
X230644341Y-90170000D01*
X230664936Y-90405403D01*
X230664938Y-90405413D01*
X230726094Y-90633655D01*
X230726096Y-90633659D01*
X230726097Y-90633663D01*
X230822547Y-90840500D01*
X230825965Y-90847830D01*
X230825967Y-90847834D01*
X230907240Y-90963903D01*
X230954702Y-91031686D01*
X230961501Y-91041395D01*
X230961506Y-91041402D01*
X231128597Y-91208493D01*
X231128603Y-91208498D01*
X231314158Y-91338425D01*
X231357783Y-91393002D01*
X231364977Y-91462500D01*
X231333454Y-91524855D01*
X231314158Y-91541575D01*
X231128597Y-91671505D01*
X230961505Y-91838597D01*
X230825965Y-92032169D01*
X230825964Y-92032171D01*
X230726098Y-92246335D01*
X230726094Y-92246344D01*
X230664938Y-92474586D01*
X230664936Y-92474596D01*
X230644341Y-92709999D01*
X230644341Y-92710000D01*
X228388286Y-92710000D01*
X228380133Y-92692516D01*
X228380131Y-92692512D01*
X228329026Y-92619526D01*
X228329025Y-92619526D01*
X227787419Y-93161132D01*
X227726096Y-93194617D01*
X227656404Y-93189633D01*
X227600471Y-93147761D01*
X227589256Y-93129751D01*
X227577641Y-93106955D01*
X227577637Y-93106951D01*
X227577636Y-93106949D01*
X227488050Y-93017363D01*
X227488044Y-93017358D01*
X227478109Y-93012296D01*
X227465250Y-93005744D01*
X227414456Y-92957773D01*
X227397660Y-92889952D01*
X227420197Y-92823817D01*
X227433865Y-92807580D01*
X227975472Y-92265973D01*
X227902483Y-92214866D01*
X227902481Y-92214865D01*
X227696326Y-92118734D01*
X227696317Y-92118730D01*
X227476610Y-92059860D01*
X227476599Y-92059858D01*
X227250002Y-92040034D01*
X227249998Y-92040034D01*
X227023400Y-92059858D01*
X227023389Y-92059860D01*
X226803682Y-92118730D01*
X226803673Y-92118734D01*
X226597513Y-92214868D01*
X226524526Y-92265973D01*
X227066133Y-92807580D01*
X227099618Y-92868903D01*
X227094634Y-92938595D01*
X227052762Y-92994528D01*
X227034748Y-93005745D01*
X227011956Y-93017358D01*
X227011949Y-93017363D01*
X226922363Y-93106949D01*
X226922358Y-93106956D01*
X226910745Y-93129748D01*
X226862770Y-93180544D01*
X226794949Y-93197338D01*
X226728814Y-93174800D01*
X226712580Y-93161133D01*
X226170973Y-92619526D01*
X226119868Y-92692513D01*
X226023734Y-92898673D01*
X226023730Y-92898682D01*
X225964860Y-93118389D01*
X225964858Y-93118400D01*
X225945034Y-93344997D01*
X225945034Y-93345002D01*
X223555468Y-93345002D01*
X223555468Y-93345000D01*
X223554143Y-93329860D01*
X223540477Y-93173655D01*
X223535635Y-93118308D01*
X223476739Y-92898504D01*
X223380568Y-92692266D01*
X223259265Y-92519026D01*
X223250045Y-92505858D01*
X223089141Y-92344954D01*
X222902734Y-92214432D01*
X222902732Y-92214431D01*
X222696497Y-92118261D01*
X222696488Y-92118258D01*
X222476697Y-92059366D01*
X222476693Y-92059365D01*
X222476692Y-92059365D01*
X222476691Y-92059364D01*
X222476686Y-92059364D01*
X222250002Y-92039532D01*
X222249998Y-92039532D01*
X222023313Y-92059364D01*
X222023302Y-92059366D01*
X221803511Y-92118258D01*
X221803502Y-92118261D01*
X221597267Y-92214431D01*
X221597265Y-92214432D01*
X221410858Y-92344954D01*
X221249954Y-92505858D01*
X221119432Y-92692265D01*
X221119431Y-92692267D01*
X221023261Y-92898502D01*
X221023258Y-92898511D01*
X220964366Y-93118302D01*
X220964364Y-93118313D01*
X220944532Y-93344998D01*
X220944532Y-93345001D01*
X217453117Y-93345001D01*
X217396610Y-93329860D01*
X217396599Y-93329858D01*
X217170002Y-93310034D01*
X217169998Y-93310034D01*
X216943400Y-93329858D01*
X216943389Y-93329860D01*
X216723682Y-93388730D01*
X216723673Y-93388734D01*
X216517513Y-93484868D01*
X216444526Y-93535973D01*
X216986133Y-94077580D01*
X217019618Y-94138903D01*
X217014634Y-94208595D01*
X216972762Y-94264528D01*
X216954748Y-94275745D01*
X216931956Y-94287358D01*
X216931949Y-94287363D01*
X216842363Y-94376949D01*
X216842358Y-94376956D01*
X216830745Y-94399748D01*
X216782770Y-94450544D01*
X216714949Y-94467338D01*
X216648814Y-94444800D01*
X216632580Y-94431133D01*
X216090973Y-93889526D01*
X216039868Y-93962513D01*
X215943734Y-94168673D01*
X215943730Y-94168682D01*
X215884860Y-94388389D01*
X215884858Y-94388400D01*
X215865034Y-94614997D01*
X215865034Y-94615002D01*
X213228838Y-94615002D01*
X213220568Y-94597266D01*
X213113811Y-94444800D01*
X213090045Y-94410858D01*
X212929141Y-94249954D01*
X212742734Y-94119432D01*
X212742732Y-94119431D01*
X212536497Y-94023261D01*
X212536488Y-94023258D01*
X212316697Y-93964366D01*
X212316693Y-93964365D01*
X212316692Y-93964365D01*
X212316691Y-93964364D01*
X212316686Y-93964364D01*
X212090002Y-93944532D01*
X212089998Y-93944532D01*
X211863313Y-93964364D01*
X211863302Y-93964366D01*
X211643511Y-94023258D01*
X211643502Y-94023261D01*
X211437267Y-94119431D01*
X211437265Y-94119432D01*
X211250858Y-94249954D01*
X211089954Y-94410858D01*
X210959432Y-94597265D01*
X210959431Y-94597267D01*
X210863261Y-94803502D01*
X210863258Y-94803511D01*
X210804366Y-95023302D01*
X210804364Y-95023312D01*
X210790683Y-95179689D01*
X210765230Y-95244757D01*
X210708639Y-95285736D01*
X210638877Y-95289614D01*
X210578093Y-95255160D01*
X210563992Y-95236477D01*
X210563673Y-95236701D01*
X210523753Y-95179689D01*
X210457323Y-95084816D01*
X210430045Y-95045858D01*
X210269141Y-94884954D01*
X210082734Y-94754432D01*
X210082732Y-94754431D01*
X209876497Y-94658261D01*
X209876488Y-94658258D01*
X209656697Y-94599366D01*
X209656693Y-94599365D01*
X209656692Y-94599365D01*
X209656691Y-94599364D01*
X209656686Y-94599364D01*
X209430002Y-94579532D01*
X209429998Y-94579532D01*
X209203313Y-94599364D01*
X209203302Y-94599366D01*
X208983511Y-94658258D01*
X208983502Y-94658261D01*
X208777267Y-94754431D01*
X208777265Y-94754432D01*
X208590858Y-94884954D01*
X208429954Y-95045858D01*
X208299432Y-95232265D01*
X208299431Y-95232267D01*
X208203261Y-95438502D01*
X208203258Y-95438511D01*
X208144366Y-95658302D01*
X208144364Y-95658313D01*
X208124532Y-95884998D01*
X208124532Y-95885001D01*
X203234966Y-95885001D01*
X203234966Y-95884997D01*
X203215141Y-95658400D01*
X203215139Y-95658389D01*
X203156269Y-95438682D01*
X203156265Y-95438673D01*
X203060133Y-95232516D01*
X203060131Y-95232512D01*
X203009026Y-95159526D01*
X203009025Y-95159526D01*
X202467419Y-95701132D01*
X202406096Y-95734617D01*
X202336404Y-95729633D01*
X202280471Y-95687761D01*
X202269256Y-95669751D01*
X202257641Y-95646955D01*
X202257637Y-95646951D01*
X202257636Y-95646949D01*
X202168050Y-95557363D01*
X202168044Y-95557358D01*
X202158109Y-95552296D01*
X202145250Y-95545744D01*
X202094456Y-95497773D01*
X202077660Y-95429952D01*
X202100197Y-95363817D01*
X202113865Y-95347580D01*
X202655472Y-94805973D01*
X202582483Y-94754866D01*
X202582481Y-94754865D01*
X202376326Y-94658734D01*
X202376317Y-94658730D01*
X202156610Y-94599860D01*
X202156599Y-94599858D01*
X201930002Y-94580034D01*
X201929998Y-94580034D01*
X201703400Y-94599858D01*
X201703389Y-94599860D01*
X201483682Y-94658730D01*
X201483673Y-94658734D01*
X201277513Y-94754868D01*
X201204526Y-94805973D01*
X201746133Y-95347580D01*
X201779618Y-95408903D01*
X201774634Y-95478595D01*
X201732762Y-95534528D01*
X201714748Y-95545745D01*
X201691956Y-95557358D01*
X201691949Y-95557363D01*
X201602363Y-95646949D01*
X201602358Y-95646956D01*
X201590745Y-95669748D01*
X201542770Y-95720544D01*
X201474949Y-95737338D01*
X201408814Y-95714800D01*
X201392580Y-95701133D01*
X200850973Y-95159526D01*
X200799868Y-95232513D01*
X200703734Y-95438673D01*
X200703730Y-95438682D01*
X200644860Y-95658389D01*
X200644858Y-95658400D01*
X200625034Y-95884997D01*
X200625034Y-95885002D01*
X200000500Y-95885002D01*
X200000500Y-91440001D01*
X200624532Y-91440001D01*
X200644364Y-91666686D01*
X200644366Y-91666697D01*
X200703258Y-91886488D01*
X200703261Y-91886497D01*
X200799431Y-92092732D01*
X200799432Y-92092734D01*
X200929954Y-92279141D01*
X201090858Y-92440045D01*
X201090861Y-92440047D01*
X201277266Y-92570568D01*
X201483504Y-92666739D01*
X201703308Y-92725635D01*
X201865230Y-92739801D01*
X201929998Y-92745468D01*
X201930000Y-92745468D01*
X201930002Y-92745468D01*
X201986672Y-92740509D01*
X202156692Y-92725635D01*
X202376496Y-92666739D01*
X202582734Y-92570568D01*
X202769139Y-92440047D01*
X202930047Y-92279139D01*
X203060568Y-92092734D01*
X203087895Y-92034129D01*
X203134064Y-91981695D01*
X203201257Y-91962542D01*
X203268139Y-91982757D01*
X203312657Y-92034133D01*
X203339865Y-92092481D01*
X203339866Y-92092483D01*
X203390973Y-92165471D01*
X203390973Y-92165472D01*
X203932580Y-91623865D01*
X203993903Y-91590380D01*
X204063594Y-91595364D01*
X204119528Y-91637235D01*
X204130742Y-91655246D01*
X204136527Y-91666599D01*
X204142358Y-91678044D01*
X204142363Y-91678050D01*
X204231949Y-91767636D01*
X204231951Y-91767637D01*
X204231955Y-91767641D01*
X204254747Y-91779254D01*
X204305542Y-91827228D01*
X204322337Y-91895049D01*
X204299799Y-91961184D01*
X204286132Y-91977419D01*
X203744526Y-92519025D01*
X203744526Y-92519026D01*
X203817512Y-92570131D01*
X203817516Y-92570133D01*
X204023673Y-92666265D01*
X204023682Y-92666269D01*
X204243389Y-92725139D01*
X204243400Y-92725141D01*
X204469998Y-92744966D01*
X204470002Y-92744966D01*
X204696599Y-92725141D01*
X204696610Y-92725139D01*
X204916317Y-92666269D01*
X204916331Y-92666264D01*
X205122478Y-92570136D01*
X205195472Y-92519025D01*
X204653866Y-91977419D01*
X204620381Y-91916096D01*
X204625365Y-91846404D01*
X204667237Y-91790471D01*
X204685245Y-91779258D01*
X204708045Y-91767641D01*
X204797641Y-91678045D01*
X204809254Y-91655252D01*
X204857225Y-91604458D01*
X204925046Y-91587661D01*
X204991181Y-91610197D01*
X205007419Y-91623866D01*
X205549025Y-92165472D01*
X205600136Y-92092478D01*
X205696264Y-91886331D01*
X205696269Y-91886317D01*
X205755139Y-91666610D01*
X205755141Y-91666599D01*
X205774966Y-91440002D01*
X205774966Y-91440001D01*
X206974532Y-91440001D01*
X206994364Y-91666686D01*
X206994366Y-91666697D01*
X207053258Y-91886488D01*
X207053261Y-91886497D01*
X207149431Y-92092732D01*
X207149432Y-92092734D01*
X207279954Y-92279141D01*
X207440858Y-92440045D01*
X207440861Y-92440047D01*
X207627266Y-92570568D01*
X207833504Y-92666739D01*
X208053308Y-92725635D01*
X208215230Y-92739801D01*
X208279998Y-92745468D01*
X208280000Y-92745468D01*
X208280002Y-92745468D01*
X208336673Y-92740509D01*
X208506692Y-92725635D01*
X208726496Y-92666739D01*
X208932734Y-92570568D01*
X209119139Y-92440047D01*
X209280047Y-92279139D01*
X209410568Y-92092734D01*
X209437618Y-92034724D01*
X209483790Y-91982285D01*
X209550983Y-91963133D01*
X209617865Y-91983348D01*
X209662381Y-92034724D01*
X209676517Y-92065038D01*
X209689429Y-92092728D01*
X209689432Y-92092734D01*
X209819954Y-92279141D01*
X209980858Y-92440045D01*
X209980861Y-92440047D01*
X210167266Y-92570568D01*
X210373504Y-92666739D01*
X210593308Y-92725635D01*
X210755230Y-92739801D01*
X210819998Y-92745468D01*
X210820000Y-92745468D01*
X210820002Y-92745468D01*
X210876673Y-92740509D01*
X211046692Y-92725635D01*
X211266496Y-92666739D01*
X211472734Y-92570568D01*
X211659139Y-92440047D01*
X211820047Y-92279139D01*
X211950568Y-92092734D01*
X212046739Y-91886496D01*
X212105635Y-91666692D01*
X212123500Y-91462500D01*
X212125468Y-91440001D01*
X212125468Y-91439998D01*
X212110577Y-91269800D01*
X212105635Y-91213308D01*
X212046739Y-90993504D01*
X211958838Y-90805001D01*
X213324532Y-90805001D01*
X213344364Y-91031686D01*
X213344366Y-91031697D01*
X213403258Y-91251488D01*
X213403261Y-91251497D01*
X213499431Y-91457732D01*
X213499432Y-91457734D01*
X213629954Y-91644141D01*
X213790858Y-91805045D01*
X213790861Y-91805047D01*
X213977266Y-91935568D01*
X214183504Y-92031739D01*
X214183509Y-92031740D01*
X214183511Y-92031741D01*
X214236415Y-92045916D01*
X214403308Y-92090635D01*
X214565230Y-92104801D01*
X214629998Y-92110468D01*
X214630000Y-92110468D01*
X214630002Y-92110468D01*
X214686673Y-92105509D01*
X214856692Y-92090635D01*
X215076496Y-92031739D01*
X215282734Y-91935568D01*
X215469139Y-91805047D01*
X215630047Y-91644139D01*
X215760568Y-91457734D01*
X215856739Y-91251496D01*
X215915635Y-91031692D01*
X215935468Y-90805001D01*
X216499532Y-90805001D01*
X216519364Y-91031686D01*
X216519366Y-91031697D01*
X216578258Y-91251488D01*
X216578261Y-91251497D01*
X216674431Y-91457732D01*
X216674432Y-91457734D01*
X216804954Y-91644141D01*
X216965858Y-91805045D01*
X216965861Y-91805047D01*
X217152266Y-91935568D01*
X217358504Y-92031739D01*
X217358509Y-92031740D01*
X217358511Y-92031741D01*
X217411415Y-92045916D01*
X217578308Y-92090635D01*
X217740230Y-92104801D01*
X217804998Y-92110468D01*
X217805000Y-92110468D01*
X217805002Y-92110468D01*
X217861673Y-92105509D01*
X218031692Y-92090635D01*
X218251496Y-92031739D01*
X218457734Y-91935568D01*
X218644139Y-91805047D01*
X218805047Y-91644139D01*
X218935568Y-91457734D01*
X219031739Y-91251496D01*
X219090635Y-91031692D01*
X219110468Y-90805000D01*
X219108916Y-90787266D01*
X219104801Y-90740230D01*
X219090635Y-90578308D01*
X219031739Y-90358504D01*
X218935568Y-90152266D01*
X218805047Y-89965861D01*
X218805045Y-89965858D01*
X218644143Y-89804956D01*
X218619536Y-89787726D01*
X218575912Y-89733149D01*
X218568719Y-89663650D01*
X218600241Y-89601296D01*
X218660471Y-89565882D01*
X218677404Y-89562861D01*
X218712483Y-89559091D01*
X218847331Y-89508796D01*
X218962546Y-89422546D01*
X219048796Y-89307331D01*
X219099091Y-89172483D01*
X219105500Y-89112873D01*
X219105499Y-87417128D01*
X219099091Y-87357517D01*
X219064567Y-87264954D01*
X219048797Y-87222671D01*
X219048793Y-87222664D01*
X218962547Y-87107455D01*
X218962544Y-87107452D01*
X218847335Y-87021206D01*
X218847328Y-87021202D01*
X218712482Y-86970908D01*
X218712483Y-86970908D01*
X218652883Y-86964501D01*
X218652881Y-86964500D01*
X218652873Y-86964500D01*
X218652864Y-86964500D01*
X216957129Y-86964500D01*
X216957123Y-86964501D01*
X216897516Y-86970908D01*
X216762671Y-87021202D01*
X216762664Y-87021206D01*
X216647455Y-87107452D01*
X216647452Y-87107455D01*
X216561206Y-87222664D01*
X216561202Y-87222671D01*
X216510908Y-87357517D01*
X216504501Y-87417116D01*
X216504501Y-87417123D01*
X216504500Y-87417135D01*
X216504500Y-89112870D01*
X216504501Y-89112876D01*
X216510908Y-89172483D01*
X216561202Y-89307328D01*
X216561206Y-89307335D01*
X216647452Y-89422544D01*
X216647455Y-89422547D01*
X216762664Y-89508793D01*
X216762671Y-89508797D01*
X216807618Y-89525561D01*
X216897517Y-89559091D01*
X216932596Y-89562862D01*
X216997144Y-89589599D01*
X217036993Y-89646991D01*
X217039488Y-89716816D01*
X217003836Y-89776905D01*
X216990464Y-89787725D01*
X216965858Y-89804954D01*
X216804954Y-89965858D01*
X216674432Y-90152265D01*
X216674431Y-90152267D01*
X216578261Y-90358502D01*
X216578258Y-90358511D01*
X216519366Y-90578302D01*
X216519364Y-90578313D01*
X216499532Y-90804998D01*
X216499532Y-90805001D01*
X215935468Y-90805001D01*
X215935468Y-90805000D01*
X215933916Y-90787266D01*
X215929801Y-90740230D01*
X215915635Y-90578308D01*
X215856739Y-90358504D01*
X215760568Y-90152266D01*
X215630047Y-89965861D01*
X215630045Y-89965858D01*
X215469141Y-89804954D01*
X215282734Y-89674432D01*
X215282728Y-89674429D01*
X215224725Y-89647382D01*
X215172285Y-89601210D01*
X215153133Y-89534017D01*
X215173348Y-89467135D01*
X215224725Y-89422618D01*
X215282734Y-89395568D01*
X215469139Y-89265047D01*
X215630047Y-89104139D01*
X215760568Y-88917734D01*
X215856739Y-88711496D01*
X215915635Y-88491692D01*
X215932738Y-88296202D01*
X215935468Y-88265001D01*
X215935468Y-88264998D01*
X215923707Y-88130568D01*
X215915635Y-88038308D01*
X215856739Y-87818504D01*
X215760568Y-87612266D01*
X215630047Y-87425861D01*
X215630045Y-87425858D01*
X215469141Y-87264954D01*
X215282734Y-87134432D01*
X215282732Y-87134431D01*
X215076497Y-87038261D01*
X215076488Y-87038258D01*
X214856697Y-86979366D01*
X214856693Y-86979365D01*
X214856692Y-86979365D01*
X214856691Y-86979364D01*
X214856686Y-86979364D01*
X214630002Y-86959532D01*
X214629998Y-86959532D01*
X214403313Y-86979364D01*
X214403302Y-86979366D01*
X214183511Y-87038258D01*
X214183502Y-87038261D01*
X213977267Y-87134431D01*
X213977265Y-87134432D01*
X213790858Y-87264954D01*
X213629954Y-87425858D01*
X213499432Y-87612265D01*
X213499431Y-87612267D01*
X213403261Y-87818502D01*
X213403258Y-87818511D01*
X213344366Y-88038302D01*
X213344364Y-88038313D01*
X213324532Y-88264998D01*
X213324532Y-88265001D01*
X213344364Y-88491686D01*
X213344366Y-88491697D01*
X213403258Y-88711488D01*
X213403261Y-88711497D01*
X213499431Y-88917732D01*
X213499432Y-88917734D01*
X213629954Y-89104141D01*
X213790858Y-89265045D01*
X213790861Y-89265047D01*
X213977266Y-89395568D01*
X214035275Y-89422618D01*
X214087714Y-89468791D01*
X214106866Y-89535984D01*
X214086650Y-89602865D01*
X214035275Y-89647382D01*
X213977267Y-89674431D01*
X213977265Y-89674432D01*
X213790858Y-89804954D01*
X213629954Y-89965858D01*
X213499432Y-90152265D01*
X213499431Y-90152267D01*
X213403261Y-90358502D01*
X213403258Y-90358511D01*
X213344366Y-90578302D01*
X213344364Y-90578313D01*
X213324532Y-90804998D01*
X213324532Y-90805001D01*
X211958838Y-90805001D01*
X211950568Y-90787266D01*
X211820047Y-90600861D01*
X211820045Y-90600858D01*
X211659141Y-90439954D01*
X211472734Y-90309432D01*
X211472732Y-90309431D01*
X211266497Y-90213261D01*
X211266488Y-90213258D01*
X211046697Y-90154366D01*
X211046693Y-90154365D01*
X211046692Y-90154365D01*
X211046691Y-90154364D01*
X211046686Y-90154364D01*
X210820002Y-90134532D01*
X210819998Y-90134532D01*
X210593313Y-90154364D01*
X210593302Y-90154366D01*
X210373511Y-90213258D01*
X210373502Y-90213261D01*
X210167267Y-90309431D01*
X210167265Y-90309432D01*
X209980858Y-90439954D01*
X209819954Y-90600858D01*
X209689432Y-90787265D01*
X209689431Y-90787267D01*
X209689317Y-90787512D01*
X209664609Y-90840500D01*
X209662382Y-90845275D01*
X209616209Y-90897714D01*
X209549016Y-90916866D01*
X209482135Y-90896650D01*
X209437618Y-90845275D01*
X209410568Y-90787266D01*
X209280047Y-90600861D01*
X209280045Y-90600858D01*
X209119141Y-90439954D01*
X208932734Y-90309432D01*
X208932732Y-90309431D01*
X208726497Y-90213261D01*
X208726488Y-90213258D01*
X208506697Y-90154366D01*
X208506693Y-90154365D01*
X208506692Y-90154365D01*
X208506691Y-90154364D01*
X208506686Y-90154364D01*
X208280002Y-90134532D01*
X208279998Y-90134532D01*
X208053313Y-90154364D01*
X208053302Y-90154366D01*
X207833511Y-90213258D01*
X207833502Y-90213261D01*
X207627267Y-90309431D01*
X207627265Y-90309432D01*
X207440858Y-90439954D01*
X207279954Y-90600858D01*
X207149432Y-90787265D01*
X207149431Y-90787267D01*
X207053261Y-90993502D01*
X207053258Y-90993511D01*
X206994366Y-91213302D01*
X206994364Y-91213313D01*
X206974532Y-91439998D01*
X206974532Y-91440001D01*
X205774966Y-91440001D01*
X205774966Y-91439997D01*
X205755141Y-91213400D01*
X205755139Y-91213389D01*
X205696269Y-90993682D01*
X205696265Y-90993673D01*
X205600133Y-90787516D01*
X205600131Y-90787512D01*
X205549026Y-90714526D01*
X205549025Y-90714526D01*
X205007419Y-91256132D01*
X204946096Y-91289617D01*
X204876404Y-91284633D01*
X204820471Y-91242761D01*
X204809256Y-91224751D01*
X204797641Y-91201955D01*
X204797637Y-91201951D01*
X204797636Y-91201949D01*
X204708050Y-91112363D01*
X204708044Y-91112358D01*
X204698109Y-91107296D01*
X204685250Y-91100744D01*
X204634456Y-91052773D01*
X204617660Y-90984952D01*
X204640197Y-90918817D01*
X204653865Y-90902580D01*
X205195472Y-90360973D01*
X205122483Y-90309866D01*
X205122481Y-90309865D01*
X204916326Y-90213734D01*
X204916317Y-90213730D01*
X204696610Y-90154860D01*
X204696599Y-90154858D01*
X204470002Y-90135034D01*
X204469998Y-90135034D01*
X204243400Y-90154858D01*
X204243389Y-90154860D01*
X204023682Y-90213730D01*
X204023673Y-90213734D01*
X203817513Y-90309868D01*
X203744526Y-90360973D01*
X204286133Y-90902580D01*
X204319618Y-90963903D01*
X204314634Y-91033595D01*
X204272762Y-91089528D01*
X204254748Y-91100745D01*
X204231956Y-91112358D01*
X204231949Y-91112363D01*
X204142363Y-91201949D01*
X204142358Y-91201956D01*
X204130745Y-91224748D01*
X204082770Y-91275544D01*
X204014949Y-91292338D01*
X203948814Y-91269800D01*
X203932580Y-91256133D01*
X203390973Y-90714526D01*
X203339869Y-90787511D01*
X203312657Y-90845867D01*
X203266484Y-90898306D01*
X203199290Y-90917457D01*
X203132409Y-90897241D01*
X203087893Y-90845865D01*
X203085391Y-90840500D01*
X203060568Y-90787266D01*
X202930047Y-90600861D01*
X202930045Y-90600858D01*
X202769141Y-90439954D01*
X202582734Y-90309432D01*
X202582732Y-90309431D01*
X202376497Y-90213261D01*
X202376488Y-90213258D01*
X202156697Y-90154366D01*
X202156693Y-90154365D01*
X202156692Y-90154365D01*
X202156691Y-90154364D01*
X202156686Y-90154364D01*
X201930002Y-90134532D01*
X201929998Y-90134532D01*
X201703313Y-90154364D01*
X201703302Y-90154366D01*
X201483511Y-90213258D01*
X201483502Y-90213261D01*
X201277267Y-90309431D01*
X201277265Y-90309432D01*
X201090858Y-90439954D01*
X200929954Y-90600858D01*
X200799432Y-90787265D01*
X200799431Y-90787267D01*
X200703261Y-90993502D01*
X200703258Y-90993511D01*
X200644366Y-91213302D01*
X200644364Y-91213313D01*
X200624532Y-91439998D01*
X200624532Y-91440001D01*
X200000500Y-91440001D01*
X200000500Y-88265001D01*
X200624532Y-88265001D01*
X200644364Y-88491686D01*
X200644366Y-88491697D01*
X200703258Y-88711488D01*
X200703261Y-88711497D01*
X200799431Y-88917732D01*
X200799432Y-88917734D01*
X200929954Y-89104141D01*
X201090858Y-89265045D01*
X201090861Y-89265047D01*
X201277266Y-89395568D01*
X201483504Y-89491739D01*
X201483509Y-89491740D01*
X201483511Y-89491741D01*
X201485116Y-89492171D01*
X201703308Y-89550635D01*
X201843052Y-89562861D01*
X201929998Y-89570468D01*
X201930000Y-89570468D01*
X201930002Y-89570468D01*
X201986796Y-89565499D01*
X202156692Y-89550635D01*
X202376496Y-89491739D01*
X202582734Y-89395568D01*
X202769139Y-89265047D01*
X202930047Y-89104139D01*
X203060568Y-88917734D01*
X203087895Y-88859129D01*
X203134064Y-88806695D01*
X203201257Y-88787542D01*
X203268139Y-88807757D01*
X203312657Y-88859133D01*
X203339865Y-88917481D01*
X203339866Y-88917483D01*
X203390973Y-88990471D01*
X203390973Y-88990472D01*
X203932580Y-88448865D01*
X203993903Y-88415380D01*
X204063594Y-88420364D01*
X204119528Y-88462235D01*
X204130742Y-88480246D01*
X204136527Y-88491599D01*
X204142358Y-88503044D01*
X204142363Y-88503050D01*
X204231949Y-88592636D01*
X204231951Y-88592637D01*
X204231955Y-88592641D01*
X204254747Y-88604254D01*
X204305542Y-88652228D01*
X204322337Y-88720049D01*
X204299799Y-88786184D01*
X204286132Y-88802419D01*
X203744526Y-89344025D01*
X203744526Y-89344026D01*
X203817512Y-89395131D01*
X203817516Y-89395133D01*
X204023673Y-89491265D01*
X204023682Y-89491269D01*
X204243389Y-89550139D01*
X204243400Y-89550141D01*
X204469998Y-89569966D01*
X204470002Y-89569966D01*
X204696599Y-89550141D01*
X204696610Y-89550139D01*
X204916317Y-89491269D01*
X204916331Y-89491264D01*
X205122478Y-89395136D01*
X205195472Y-89344025D01*
X204653866Y-88802419D01*
X204620381Y-88741096D01*
X204625365Y-88671404D01*
X204667237Y-88615471D01*
X204685245Y-88604258D01*
X204708045Y-88592641D01*
X204797641Y-88503045D01*
X204809254Y-88480252D01*
X204857225Y-88429458D01*
X204925046Y-88412661D01*
X204991181Y-88435197D01*
X205007419Y-88448866D01*
X205549025Y-88990472D01*
X205600136Y-88917478D01*
X205696264Y-88711331D01*
X205696269Y-88711317D01*
X205755139Y-88491610D01*
X205755141Y-88491599D01*
X205774966Y-88265002D01*
X206975034Y-88265002D01*
X206994858Y-88491599D01*
X206994860Y-88491610D01*
X207053730Y-88711317D01*
X207053734Y-88711326D01*
X207149865Y-88917481D01*
X207149866Y-88917483D01*
X207200973Y-88990471D01*
X207200973Y-88990472D01*
X207742580Y-88448865D01*
X207803903Y-88415380D01*
X207873594Y-88420364D01*
X207929528Y-88462235D01*
X207940742Y-88480246D01*
X207946527Y-88491599D01*
X207952358Y-88503044D01*
X207952363Y-88503050D01*
X208041949Y-88592636D01*
X208041951Y-88592637D01*
X208041955Y-88592641D01*
X208064747Y-88604254D01*
X208115542Y-88652228D01*
X208132337Y-88720049D01*
X208109799Y-88786184D01*
X208096132Y-88802419D01*
X207554526Y-89344025D01*
X207554526Y-89344026D01*
X207627512Y-89395131D01*
X207627516Y-89395133D01*
X207833673Y-89491265D01*
X207833682Y-89491269D01*
X208053389Y-89550139D01*
X208053400Y-89550141D01*
X208279998Y-89569966D01*
X208280002Y-89569966D01*
X208506599Y-89550141D01*
X208506610Y-89550139D01*
X208726317Y-89491269D01*
X208726331Y-89491264D01*
X208932478Y-89395136D01*
X209005472Y-89344025D01*
X208463866Y-88802419D01*
X208430381Y-88741096D01*
X208435365Y-88671404D01*
X208477237Y-88615471D01*
X208495245Y-88604258D01*
X208518045Y-88592641D01*
X208607641Y-88503045D01*
X208619254Y-88480252D01*
X208667225Y-88429458D01*
X208735046Y-88412661D01*
X208801181Y-88435197D01*
X208817419Y-88448866D01*
X209359025Y-88990472D01*
X209410133Y-88917482D01*
X209437341Y-88859135D01*
X209483513Y-88806696D01*
X209550707Y-88787543D01*
X209617588Y-88807758D01*
X209662105Y-88859132D01*
X209689432Y-88917734D01*
X209727996Y-88972810D01*
X209819954Y-89104141D01*
X209980858Y-89265045D01*
X209980861Y-89265047D01*
X210167266Y-89395568D01*
X210373504Y-89491739D01*
X210373509Y-89491740D01*
X210373511Y-89491741D01*
X210375116Y-89492171D01*
X210593308Y-89550635D01*
X210733052Y-89562861D01*
X210819998Y-89570468D01*
X210820000Y-89570468D01*
X210820002Y-89570468D01*
X210876796Y-89565499D01*
X211046692Y-89550635D01*
X211266496Y-89491739D01*
X211472734Y-89395568D01*
X211659139Y-89265047D01*
X211820047Y-89104139D01*
X211950568Y-88917734D01*
X212046739Y-88711496D01*
X212105635Y-88491692D01*
X212122738Y-88296202D01*
X212125468Y-88265001D01*
X212125468Y-88264998D01*
X212113707Y-88130568D01*
X212105635Y-88038308D01*
X212046739Y-87818504D01*
X211950568Y-87612266D01*
X211820047Y-87425861D01*
X211820045Y-87425858D01*
X211659141Y-87264954D01*
X211472734Y-87134432D01*
X211472732Y-87134431D01*
X211266497Y-87038261D01*
X211266488Y-87038258D01*
X211046697Y-86979366D01*
X211046693Y-86979365D01*
X211046692Y-86979365D01*
X211046691Y-86979364D01*
X211046686Y-86979364D01*
X210820002Y-86959532D01*
X210819998Y-86959532D01*
X210593313Y-86979364D01*
X210593302Y-86979366D01*
X210373511Y-87038258D01*
X210373502Y-87038261D01*
X210167267Y-87134431D01*
X210167265Y-87134432D01*
X209980858Y-87264954D01*
X209819954Y-87425858D01*
X209689433Y-87612264D01*
X209689432Y-87612266D01*
X209670562Y-87652734D01*
X209662106Y-87670867D01*
X209615933Y-87723306D01*
X209548739Y-87742457D01*
X209481858Y-87722241D01*
X209437342Y-87670865D01*
X209410135Y-87612520D01*
X209410131Y-87612512D01*
X209359026Y-87539526D01*
X209359025Y-87539526D01*
X208817419Y-88081132D01*
X208756096Y-88114617D01*
X208686404Y-88109633D01*
X208630471Y-88067761D01*
X208619256Y-88049751D01*
X208607641Y-88026955D01*
X208607637Y-88026951D01*
X208607636Y-88026949D01*
X208518050Y-87937363D01*
X208518044Y-87937358D01*
X208508109Y-87932296D01*
X208495250Y-87925744D01*
X208444456Y-87877773D01*
X208427660Y-87809952D01*
X208450197Y-87743817D01*
X208463865Y-87727580D01*
X209005472Y-87185973D01*
X208932483Y-87134866D01*
X208932481Y-87134865D01*
X208726326Y-87038734D01*
X208726317Y-87038730D01*
X208506610Y-86979860D01*
X208506599Y-86979858D01*
X208280002Y-86960034D01*
X208279998Y-86960034D01*
X208053400Y-86979858D01*
X208053389Y-86979860D01*
X207833682Y-87038730D01*
X207833673Y-87038734D01*
X207627513Y-87134868D01*
X207554526Y-87185973D01*
X208096133Y-87727580D01*
X208129618Y-87788903D01*
X208124634Y-87858595D01*
X208082762Y-87914528D01*
X208064748Y-87925745D01*
X208041956Y-87937358D01*
X208041949Y-87937363D01*
X207952363Y-88026949D01*
X207952358Y-88026956D01*
X207940745Y-88049748D01*
X207892770Y-88100544D01*
X207824949Y-88117338D01*
X207758814Y-88094800D01*
X207742580Y-88081133D01*
X207200973Y-87539526D01*
X207149868Y-87612513D01*
X207053734Y-87818673D01*
X207053730Y-87818682D01*
X206994860Y-88038389D01*
X206994858Y-88038400D01*
X206975034Y-88264997D01*
X206975034Y-88265002D01*
X205774966Y-88265002D01*
X205774966Y-88264997D01*
X205755141Y-88038400D01*
X205755139Y-88038389D01*
X205696269Y-87818682D01*
X205696265Y-87818673D01*
X205600133Y-87612516D01*
X205600131Y-87612512D01*
X205549026Y-87539526D01*
X205549025Y-87539526D01*
X205007419Y-88081132D01*
X204946096Y-88114617D01*
X204876404Y-88109633D01*
X204820471Y-88067761D01*
X204809256Y-88049751D01*
X204797641Y-88026955D01*
X204797637Y-88026951D01*
X204797636Y-88026949D01*
X204708050Y-87937363D01*
X204708044Y-87937358D01*
X204698109Y-87932296D01*
X204685250Y-87925744D01*
X204634456Y-87877773D01*
X204617660Y-87809952D01*
X204640197Y-87743817D01*
X204653865Y-87727580D01*
X205195472Y-87185973D01*
X205122483Y-87134866D01*
X205122481Y-87134865D01*
X204916326Y-87038734D01*
X204916317Y-87038730D01*
X204696610Y-86979860D01*
X204696599Y-86979858D01*
X204470002Y-86960034D01*
X204469998Y-86960034D01*
X204243400Y-86979858D01*
X204243389Y-86979860D01*
X204023682Y-87038730D01*
X204023673Y-87038734D01*
X203817513Y-87134868D01*
X203744526Y-87185973D01*
X204286133Y-87727580D01*
X204319618Y-87788903D01*
X204314634Y-87858595D01*
X204272762Y-87914528D01*
X204254748Y-87925745D01*
X204231956Y-87937358D01*
X204231949Y-87937363D01*
X204142363Y-88026949D01*
X204142358Y-88026956D01*
X204130745Y-88049748D01*
X204082770Y-88100544D01*
X204014949Y-88117338D01*
X203948814Y-88094800D01*
X203932580Y-88081133D01*
X203390973Y-87539526D01*
X203339869Y-87612511D01*
X203312657Y-87670867D01*
X203266484Y-87723306D01*
X203199290Y-87742457D01*
X203132409Y-87722241D01*
X203087893Y-87670865D01*
X203079438Y-87652734D01*
X203060568Y-87612266D01*
X202930047Y-87425861D01*
X202930045Y-87425858D01*
X202769141Y-87264954D01*
X202582734Y-87134432D01*
X202582732Y-87134431D01*
X202376497Y-87038261D01*
X202376488Y-87038258D01*
X202156697Y-86979366D01*
X202156693Y-86979365D01*
X202156692Y-86979365D01*
X202156691Y-86979364D01*
X202156686Y-86979364D01*
X201930002Y-86959532D01*
X201929998Y-86959532D01*
X201703313Y-86979364D01*
X201703302Y-86979366D01*
X201483511Y-87038258D01*
X201483502Y-87038261D01*
X201277267Y-87134431D01*
X201277265Y-87134432D01*
X201090858Y-87264954D01*
X200929954Y-87425858D01*
X200799432Y-87612265D01*
X200799431Y-87612267D01*
X200703261Y-87818502D01*
X200703258Y-87818511D01*
X200644366Y-88038302D01*
X200644364Y-88038313D01*
X200624532Y-88264998D01*
X200624532Y-88265001D01*
X200000500Y-88265001D01*
X200000500Y-83163025D01*
X200539710Y-83163025D01*
X200544264Y-83215064D01*
X200544500Y-83220470D01*
X200544500Y-83228709D01*
X200547907Y-83257865D01*
X200548306Y-83261274D01*
X200555000Y-83337791D01*
X200556461Y-83344867D01*
X200556403Y-83344878D01*
X200558034Y-83352237D01*
X200558092Y-83352224D01*
X200559757Y-83359250D01*
X200586025Y-83431424D01*
X200610185Y-83504331D01*
X200613236Y-83510874D01*
X200613182Y-83510898D01*
X200616470Y-83517688D01*
X200616521Y-83517663D01*
X200619761Y-83524113D01*
X200619762Y-83524114D01*
X200619763Y-83524117D01*
X200637115Y-83550500D01*
X200661965Y-83588283D01*
X200702287Y-83653655D01*
X200706766Y-83659319D01*
X200706719Y-83659356D01*
X200711482Y-83665202D01*
X200711528Y-83665164D01*
X200716173Y-83670700D01*
X200772019Y-83723387D01*
X201354268Y-84305635D01*
X201366049Y-84319267D01*
X201380390Y-84338530D01*
X201420420Y-84372119D01*
X201424392Y-84375759D01*
X201430224Y-84381591D01*
X201430227Y-84381594D01*
X201455947Y-84401931D01*
X201514788Y-84451304D01*
X201520818Y-84455270D01*
X201520785Y-84455319D01*
X201527143Y-84459369D01*
X201527175Y-84459319D01*
X201533320Y-84463109D01*
X201533323Y-84463111D01*
X201602936Y-84495572D01*
X201671567Y-84530040D01*
X201671572Y-84530041D01*
X201678361Y-84532513D01*
X201678340Y-84532570D01*
X201685455Y-84535043D01*
X201685475Y-84534986D01*
X201692330Y-84537258D01*
X201767558Y-84552790D01*
X201842279Y-84570500D01*
X201842289Y-84570500D01*
X201849452Y-84571338D01*
X201849444Y-84571397D01*
X201856945Y-84572164D01*
X201856951Y-84572105D01*
X201864145Y-84572734D01*
X201889702Y-84571990D01*
X201957285Y-84589714D01*
X202004558Y-84641163D01*
X202016512Y-84710002D01*
X202011973Y-84731931D01*
X201964337Y-84888966D01*
X201944538Y-85090000D01*
X201964337Y-85291031D01*
X202022978Y-85484345D01*
X202118198Y-85662488D01*
X202118201Y-85662492D01*
X202118202Y-85662494D01*
X202137688Y-85686238D01*
X202246352Y-85818647D01*
X202355016Y-85907824D01*
X202402506Y-85946798D01*
X202402509Y-85946799D01*
X202402511Y-85946801D01*
X202580654Y-86042021D01*
X202580656Y-86042021D01*
X202580659Y-86042023D01*
X202773967Y-86100662D01*
X202924620Y-86115500D01*
X202924623Y-86115500D01*
X203475377Y-86115500D01*
X203475380Y-86115500D01*
X203626033Y-86100662D01*
X203819341Y-86042023D01*
X203997494Y-85946798D01*
X204153647Y-85818647D01*
X204281798Y-85662494D01*
X204377023Y-85484341D01*
X204435662Y-85291033D01*
X204455462Y-85090000D01*
X204435662Y-84888967D01*
X204377023Y-84695659D01*
X204377021Y-84695656D01*
X204377021Y-84695654D01*
X204279632Y-84513452D01*
X204265390Y-84445049D01*
X204279632Y-84396545D01*
X204281796Y-84392496D01*
X204281798Y-84392494D01*
X204377023Y-84214341D01*
X204435662Y-84021033D01*
X204455462Y-83820000D01*
X204446501Y-83729025D01*
X204442329Y-83686654D01*
X204455348Y-83618008D01*
X204503413Y-83567298D01*
X204565732Y-83550500D01*
X206914268Y-83550500D01*
X206981307Y-83570185D01*
X207027062Y-83622989D01*
X207037671Y-83686654D01*
X207024538Y-83819999D01*
X207044337Y-84021031D01*
X207102978Y-84214345D01*
X207200367Y-84396546D01*
X207214609Y-84464949D01*
X207200367Y-84513452D01*
X207102978Y-84695654D01*
X207044337Y-84888968D01*
X207024538Y-85089999D01*
X207044337Y-85291031D01*
X207102978Y-85484345D01*
X207198198Y-85662488D01*
X207198201Y-85662492D01*
X207198202Y-85662494D01*
X207217688Y-85686238D01*
X207326352Y-85818647D01*
X207435016Y-85907824D01*
X207482506Y-85946798D01*
X207482509Y-85946799D01*
X207482511Y-85946801D01*
X207660654Y-86042021D01*
X207660656Y-86042021D01*
X207660659Y-86042023D01*
X207853967Y-86100662D01*
X208004620Y-86115500D01*
X208004623Y-86115500D01*
X208555377Y-86115500D01*
X208555380Y-86115500D01*
X208706033Y-86100662D01*
X208899341Y-86042023D01*
X209077494Y-85946798D01*
X209233647Y-85818647D01*
X209361798Y-85662494D01*
X209457023Y-85484341D01*
X209515662Y-85291033D01*
X209535462Y-85090000D01*
X209515662Y-84888967D01*
X209457023Y-84695659D01*
X209457021Y-84695656D01*
X209457021Y-84695654D01*
X209359632Y-84513452D01*
X209345390Y-84445049D01*
X209359632Y-84396545D01*
X209361796Y-84392496D01*
X209361798Y-84392494D01*
X209457023Y-84214341D01*
X209515662Y-84021033D01*
X209535462Y-83820000D01*
X209526501Y-83729025D01*
X209522329Y-83686654D01*
X209535348Y-83618008D01*
X209583413Y-83567298D01*
X209645732Y-83550500D01*
X212629268Y-83550500D01*
X212696307Y-83570185D01*
X212742062Y-83622989D01*
X212752671Y-83686654D01*
X212739538Y-83819999D01*
X212759337Y-84021031D01*
X212818306Y-84215424D01*
X212818929Y-84285291D01*
X212804530Y-84314386D01*
X212805452Y-84314890D01*
X212801202Y-84322671D01*
X212750908Y-84457517D01*
X212746817Y-84495572D01*
X212744501Y-84517123D01*
X212744500Y-84517135D01*
X212744500Y-85662870D01*
X212744501Y-85662876D01*
X212750908Y-85722483D01*
X212801202Y-85857328D01*
X212801206Y-85857335D01*
X212887452Y-85972544D01*
X212887455Y-85972547D01*
X213002664Y-86058793D01*
X213002671Y-86058797D01*
X213137517Y-86109091D01*
X213137516Y-86109091D01*
X213144444Y-86109835D01*
X213197127Y-86115500D01*
X214792872Y-86115499D01*
X214852483Y-86109091D01*
X214987331Y-86058796D01*
X215102546Y-85972546D01*
X215188796Y-85857331D01*
X215239091Y-85722483D01*
X215245500Y-85662873D01*
X215245499Y-84517128D01*
X215239091Y-84457517D01*
X215238622Y-84456260D01*
X215188797Y-84322671D01*
X215184546Y-84314886D01*
X215186621Y-84313752D01*
X215166671Y-84260274D01*
X215171694Y-84215423D01*
X215172022Y-84214343D01*
X215172023Y-84214341D01*
X215230662Y-84021033D01*
X215250462Y-83820000D01*
X215241501Y-83729025D01*
X215237329Y-83686654D01*
X215250348Y-83618008D01*
X215298413Y-83567298D01*
X215360732Y-83550500D01*
X216927412Y-83550500D01*
X216994451Y-83570185D01*
X216998523Y-83572917D01*
X217152266Y-83680568D01*
X217210275Y-83707618D01*
X217262714Y-83753791D01*
X217281866Y-83820984D01*
X217261650Y-83887865D01*
X217210275Y-83932382D01*
X217152267Y-83959431D01*
X217152265Y-83959432D01*
X216965858Y-84089954D01*
X216804954Y-84250858D01*
X216674432Y-84437265D01*
X216674431Y-84437267D01*
X216578261Y-84643502D01*
X216578258Y-84643511D01*
X216519366Y-84863302D01*
X216519364Y-84863313D01*
X216499532Y-85089998D01*
X216499532Y-85090001D01*
X216519364Y-85316686D01*
X216519366Y-85316697D01*
X216578258Y-85536488D01*
X216578261Y-85536497D01*
X216674431Y-85742732D01*
X216674432Y-85742734D01*
X216804954Y-85929141D01*
X216965858Y-86090045D01*
X216965861Y-86090047D01*
X217152266Y-86220568D01*
X217358504Y-86316739D01*
X217578308Y-86375635D01*
X217740230Y-86389801D01*
X217804998Y-86395468D01*
X217805000Y-86395468D01*
X217805002Y-86395468D01*
X217861673Y-86390509D01*
X218031692Y-86375635D01*
X218251496Y-86316739D01*
X218457734Y-86220568D01*
X218644139Y-86090047D01*
X218805047Y-85929139D01*
X218935568Y-85742734D01*
X219031739Y-85536496D01*
X219090635Y-85316692D01*
X219110468Y-85090000D01*
X219090635Y-84863308D01*
X219031739Y-84643504D01*
X218935568Y-84437266D01*
X218805047Y-84250861D01*
X218805045Y-84250858D01*
X218644141Y-84089954D01*
X218457734Y-83959432D01*
X218457728Y-83959429D01*
X218399725Y-83932382D01*
X218347285Y-83886210D01*
X218328133Y-83819017D01*
X218348348Y-83752135D01*
X218399725Y-83707618D01*
X218457734Y-83680568D01*
X218611465Y-83572924D01*
X218677671Y-83550598D01*
X218682588Y-83550500D01*
X219062284Y-83550500D01*
X219151358Y-83552757D01*
X219151358Y-83552756D01*
X219151363Y-83552757D01*
X219211753Y-83541932D01*
X219216412Y-83541280D01*
X219258607Y-83536988D01*
X219277438Y-83535074D01*
X219310227Y-83524786D01*
X219317840Y-83522918D01*
X219351653Y-83516858D01*
X219408621Y-83494101D01*
X219413053Y-83492524D01*
X219471588Y-83474159D01*
X219501627Y-83457484D01*
X219508708Y-83454122D01*
X219540617Y-83441377D01*
X219591854Y-83407608D01*
X219595851Y-83405187D01*
X219649502Y-83375409D01*
X219675568Y-83353030D01*
X219681843Y-83348300D01*
X219681864Y-83348286D01*
X219710519Y-83329402D01*
X219753917Y-83286002D01*
X219757336Y-83282834D01*
X219803895Y-83242866D01*
X219824931Y-83215688D01*
X219830101Y-83209818D01*
X220050828Y-82989091D01*
X220112148Y-82955609D01*
X220181840Y-82960593D01*
X220209626Y-82975198D01*
X220317266Y-83050568D01*
X220374681Y-83077341D01*
X220375275Y-83077618D01*
X220427714Y-83123791D01*
X220446866Y-83190984D01*
X220426650Y-83257865D01*
X220375275Y-83302382D01*
X220317267Y-83329431D01*
X220317265Y-83329432D01*
X220130858Y-83459954D01*
X219969954Y-83620858D01*
X219839432Y-83807265D01*
X219839431Y-83807267D01*
X219743261Y-84013502D01*
X219743258Y-84013511D01*
X219684366Y-84233302D01*
X219684364Y-84233313D01*
X219664532Y-84459998D01*
X219664532Y-84460001D01*
X219684364Y-84686686D01*
X219684366Y-84686697D01*
X219743258Y-84906488D01*
X219743261Y-84906497D01*
X219839431Y-85112732D01*
X219839432Y-85112734D01*
X219969954Y-85299141D01*
X220130858Y-85460045D01*
X220130861Y-85460047D01*
X220317266Y-85590568D01*
X220375275Y-85617618D01*
X220427714Y-85663791D01*
X220446866Y-85730984D01*
X220426650Y-85797865D01*
X220375275Y-85842382D01*
X220317267Y-85869431D01*
X220317265Y-85869432D01*
X220130858Y-85999954D01*
X219969954Y-86160858D01*
X219839432Y-86347265D01*
X219839431Y-86347267D01*
X219743261Y-86553502D01*
X219743258Y-86553511D01*
X219684366Y-86773302D01*
X219684364Y-86773313D01*
X219664532Y-86999998D01*
X219664532Y-87000001D01*
X219684364Y-87226686D01*
X219684366Y-87226697D01*
X219743258Y-87446488D01*
X219743261Y-87446497D01*
X219839431Y-87652732D01*
X219839432Y-87652734D01*
X219969954Y-87839141D01*
X220130858Y-88000045D01*
X220169281Y-88026949D01*
X220317266Y-88130568D01*
X220340384Y-88141348D01*
X220375275Y-88157618D01*
X220427714Y-88203791D01*
X220446866Y-88270984D01*
X220426650Y-88337865D01*
X220375275Y-88382381D01*
X220375118Y-88382455D01*
X220317267Y-88409431D01*
X220317265Y-88409432D01*
X220130858Y-88539954D01*
X219969954Y-88700858D01*
X219839432Y-88887265D01*
X219839431Y-88887267D01*
X219743261Y-89093502D01*
X219743258Y-89093511D01*
X219684366Y-89313302D01*
X219684364Y-89313313D01*
X219664532Y-89539998D01*
X219664532Y-89540001D01*
X219684364Y-89766686D01*
X219684366Y-89766697D01*
X219743258Y-89986488D01*
X219743261Y-89986497D01*
X219839431Y-90192732D01*
X219839432Y-90192734D01*
X219969954Y-90379141D01*
X220130858Y-90540045D01*
X220130861Y-90540047D01*
X220317266Y-90670568D01*
X220523504Y-90766739D01*
X220743308Y-90825635D01*
X220905230Y-90839801D01*
X220969998Y-90845468D01*
X220970000Y-90845468D01*
X220970002Y-90845468D01*
X221026807Y-90840498D01*
X221196692Y-90825635D01*
X221416496Y-90766739D01*
X221622734Y-90670568D01*
X221809139Y-90540047D01*
X221970047Y-90379139D01*
X222100568Y-90192734D01*
X222196739Y-89986496D01*
X222255635Y-89766692D01*
X222275468Y-89540000D01*
X222255635Y-89313308D01*
X222201928Y-89112870D01*
X222196741Y-89093511D01*
X222196738Y-89093502D01*
X222100568Y-88887266D01*
X221985078Y-88722328D01*
X221970045Y-88700858D01*
X221809141Y-88539954D01*
X221622734Y-88409432D01*
X221622728Y-88409429D01*
X221595038Y-88396517D01*
X221564724Y-88382381D01*
X221512285Y-88336210D01*
X221493133Y-88269017D01*
X221513348Y-88202135D01*
X221564725Y-88157618D01*
X221622734Y-88130568D01*
X221809139Y-88000047D01*
X221970047Y-87839139D01*
X222100568Y-87652734D01*
X222196739Y-87446496D01*
X222255635Y-87226692D01*
X222275468Y-87000001D01*
X227284532Y-87000001D01*
X227304364Y-87226686D01*
X227304366Y-87226697D01*
X227363258Y-87446488D01*
X227363261Y-87446497D01*
X227459431Y-87652732D01*
X227459432Y-87652734D01*
X227589954Y-87839141D01*
X227750858Y-88000045D01*
X227775462Y-88017273D01*
X227819087Y-88071849D01*
X227826281Y-88141348D01*
X227794758Y-88203703D01*
X227734529Y-88239117D01*
X227717593Y-88242138D01*
X227682516Y-88245908D01*
X227547671Y-88296202D01*
X227547664Y-88296206D01*
X227432455Y-88382452D01*
X227432452Y-88382455D01*
X227346206Y-88497664D01*
X227346202Y-88497671D01*
X227295908Y-88632517D01*
X227291728Y-88671404D01*
X227289501Y-88692123D01*
X227289500Y-88692135D01*
X227289500Y-90387870D01*
X227289501Y-90387876D01*
X227295908Y-90447483D01*
X227346202Y-90582328D01*
X227346206Y-90582335D01*
X227432452Y-90697544D01*
X227432455Y-90697547D01*
X227547664Y-90783793D01*
X227547671Y-90783797D01*
X227682517Y-90834091D01*
X227682516Y-90834091D01*
X227689444Y-90834835D01*
X227742127Y-90840500D01*
X229437872Y-90840499D01*
X229497483Y-90834091D01*
X229632331Y-90783796D01*
X229747546Y-90697546D01*
X229833796Y-90582331D01*
X229884091Y-90447483D01*
X229890500Y-90387873D01*
X229890499Y-88692128D01*
X229884091Y-88632517D01*
X229877733Y-88615471D01*
X229833797Y-88497671D01*
X229833793Y-88497664D01*
X229747547Y-88382455D01*
X229747544Y-88382452D01*
X229632335Y-88296206D01*
X229632328Y-88296202D01*
X229497482Y-88245908D01*
X229497483Y-88245908D01*
X229462404Y-88242137D01*
X229397853Y-88215399D01*
X229358005Y-88158006D01*
X229355512Y-88088181D01*
X229391165Y-88028092D01*
X229404539Y-88017272D01*
X229429140Y-88000046D01*
X229590045Y-87839141D01*
X229590044Y-87839141D01*
X229590047Y-87839139D01*
X229720568Y-87652734D01*
X229816739Y-87446496D01*
X229875635Y-87226692D01*
X229895468Y-87000000D01*
X229875635Y-86773308D01*
X229816739Y-86553504D01*
X229720568Y-86347266D01*
X229590047Y-86160861D01*
X229590045Y-86160858D01*
X229429141Y-85999954D01*
X229242734Y-85869432D01*
X229242728Y-85869429D01*
X229184725Y-85842382D01*
X229132285Y-85796210D01*
X229113133Y-85729017D01*
X229133348Y-85662135D01*
X229184725Y-85617618D01*
X229242734Y-85590568D01*
X229429139Y-85460047D01*
X229590047Y-85299139D01*
X229720568Y-85112734D01*
X229816739Y-84906496D01*
X229875635Y-84686692D01*
X229895468Y-84460000D01*
X229895408Y-84459319D01*
X229883453Y-84322669D01*
X229875635Y-84233308D01*
X229816739Y-84013504D01*
X229720568Y-83807266D01*
X229590047Y-83620861D01*
X229590045Y-83620858D01*
X229429141Y-83459954D01*
X229242734Y-83329432D01*
X229242732Y-83329431D01*
X229184725Y-83302382D01*
X229184132Y-83302105D01*
X229131694Y-83255934D01*
X229112542Y-83188740D01*
X229132758Y-83121859D01*
X229184134Y-83077341D01*
X229242484Y-83050132D01*
X229428820Y-82919657D01*
X229589657Y-82758820D01*
X229720134Y-82572482D01*
X229816265Y-82366326D01*
X229816269Y-82366317D01*
X229868872Y-82170000D01*
X229100576Y-82170000D01*
X229033537Y-82150315D01*
X228987782Y-82097511D01*
X228977838Y-82028353D01*
X228978103Y-82026603D01*
X228994986Y-81920003D01*
X228994986Y-81919996D01*
X228978103Y-81813397D01*
X228987058Y-81744104D01*
X229032054Y-81690652D01*
X229098806Y-81670013D01*
X229100576Y-81670000D01*
X229868872Y-81670000D01*
X229868872Y-81669999D01*
X229816269Y-81473682D01*
X229816265Y-81473673D01*
X229720134Y-81267517D01*
X229589657Y-81081179D01*
X229428820Y-80920342D01*
X229242482Y-80789865D01*
X229184133Y-80762657D01*
X229131694Y-80716484D01*
X229112542Y-80649291D01*
X229132758Y-80582410D01*
X229184129Y-80537895D01*
X229242734Y-80510568D01*
X229429139Y-80380047D01*
X229590047Y-80219139D01*
X229720568Y-80032734D01*
X229731169Y-80010000D01*
X230644341Y-80010000D01*
X230664936Y-80245403D01*
X230664938Y-80245413D01*
X230726094Y-80473655D01*
X230726096Y-80473659D01*
X230726097Y-80473663D01*
X230785695Y-80601471D01*
X230825965Y-80687830D01*
X230825967Y-80687834D01*
X230897412Y-80789867D01*
X230961505Y-80881401D01*
X231128599Y-81048495D01*
X231194431Y-81094591D01*
X231322165Y-81184032D01*
X231322167Y-81184033D01*
X231322170Y-81184035D01*
X231536337Y-81283903D01*
X231764592Y-81345063D01*
X231952918Y-81361539D01*
X231999999Y-81365659D01*
X232000000Y-81365659D01*
X232000001Y-81365659D01*
X232039234Y-81362226D01*
X232235408Y-81345063D01*
X232463663Y-81283903D01*
X232677830Y-81184035D01*
X232871401Y-81048495D01*
X233038495Y-80881401D01*
X233174035Y-80687830D01*
X233273903Y-80473663D01*
X233335063Y-80245408D01*
X233355659Y-80010000D01*
X233335063Y-79774592D01*
X233273903Y-79546337D01*
X233174035Y-79332171D01*
X233106394Y-79235568D01*
X233038494Y-79138597D01*
X232871402Y-78971506D01*
X232871396Y-78971501D01*
X232685842Y-78841575D01*
X232642217Y-78786998D01*
X232635023Y-78717500D01*
X232666546Y-78655145D01*
X232685842Y-78638425D01*
X232722839Y-78612519D01*
X232871401Y-78508495D01*
X233038495Y-78341401D01*
X233174035Y-78147830D01*
X233273903Y-77933663D01*
X233335063Y-77705408D01*
X233355659Y-77470000D01*
X233335063Y-77234592D01*
X233273903Y-77006337D01*
X233174035Y-76792171D01*
X233048795Y-76613308D01*
X233038494Y-76598597D01*
X232871402Y-76431506D01*
X232871396Y-76431501D01*
X232685842Y-76301575D01*
X232642217Y-76246998D01*
X232635023Y-76177500D01*
X232666546Y-76115145D01*
X232685842Y-76098425D01*
X232739909Y-76060567D01*
X232871401Y-75968495D01*
X233038495Y-75801401D01*
X233174035Y-75607830D01*
X233273903Y-75393663D01*
X233335063Y-75165408D01*
X233355659Y-74930000D01*
X233335063Y-74694592D01*
X233273903Y-74466337D01*
X233174035Y-74252171D01*
X233083962Y-74123532D01*
X233038494Y-74058597D01*
X232871402Y-73891506D01*
X232871396Y-73891501D01*
X232685842Y-73761575D01*
X232642217Y-73706998D01*
X232635023Y-73637500D01*
X232666546Y-73575145D01*
X232685842Y-73558425D01*
X232791526Y-73484424D01*
X232871401Y-73428495D01*
X233038495Y-73261401D01*
X233174035Y-73067830D01*
X233273903Y-72853663D01*
X233335063Y-72625408D01*
X233355659Y-72390000D01*
X233354546Y-72377284D01*
X233335063Y-72154596D01*
X233335063Y-72154592D01*
X233273903Y-71926337D01*
X233174035Y-71712171D01*
X233158609Y-71690141D01*
X233038496Y-71518600D01*
X233003921Y-71484025D01*
X232916567Y-71396671D01*
X232883084Y-71335351D01*
X232888068Y-71265659D01*
X232929939Y-71209725D01*
X232960915Y-71192810D01*
X233092331Y-71143796D01*
X233207546Y-71057546D01*
X233293796Y-70942331D01*
X233344091Y-70807483D01*
X233350500Y-70747873D01*
X233350499Y-68952128D01*
X233344091Y-68892517D01*
X233323346Y-68836898D01*
X233293797Y-68757671D01*
X233293793Y-68757664D01*
X233207547Y-68642455D01*
X233207544Y-68642452D01*
X233092335Y-68556206D01*
X233092328Y-68556202D01*
X232957482Y-68505908D01*
X232957483Y-68505908D01*
X232897883Y-68499501D01*
X232897881Y-68499500D01*
X232897873Y-68499500D01*
X232897864Y-68499500D01*
X231102129Y-68499500D01*
X231102123Y-68499501D01*
X231042516Y-68505908D01*
X230907671Y-68556202D01*
X230907664Y-68556206D01*
X230792455Y-68642452D01*
X230792452Y-68642455D01*
X230706206Y-68757664D01*
X230706202Y-68757671D01*
X230655908Y-68892517D01*
X230649501Y-68952116D01*
X230649501Y-68952123D01*
X230649500Y-68952135D01*
X230649500Y-70747870D01*
X230649501Y-70747876D01*
X230655908Y-70807483D01*
X230706202Y-70942328D01*
X230706206Y-70942335D01*
X230792452Y-71057544D01*
X230792455Y-71057547D01*
X230907664Y-71143793D01*
X230907671Y-71143797D01*
X231039081Y-71192810D01*
X231095015Y-71234681D01*
X231119432Y-71300145D01*
X231104580Y-71368418D01*
X231083430Y-71396673D01*
X230961503Y-71518600D01*
X230825965Y-71712169D01*
X230825964Y-71712171D01*
X230726098Y-71926335D01*
X230726094Y-71926344D01*
X230664938Y-72154586D01*
X230664936Y-72154596D01*
X230644341Y-72389999D01*
X230644341Y-72390000D01*
X230664936Y-72625403D01*
X230664938Y-72625413D01*
X230726094Y-72853655D01*
X230726096Y-72853659D01*
X230726097Y-72853663D01*
X230821248Y-73057715D01*
X230825965Y-73067830D01*
X230825967Y-73067834D01*
X230961501Y-73261395D01*
X230961506Y-73261402D01*
X231128597Y-73428493D01*
X231128603Y-73428498D01*
X231314158Y-73558425D01*
X231357783Y-73613002D01*
X231364977Y-73682500D01*
X231333454Y-73744855D01*
X231314158Y-73761575D01*
X231128597Y-73891505D01*
X230961505Y-74058597D01*
X230825965Y-74252169D01*
X230825964Y-74252171D01*
X230726098Y-74466335D01*
X230726094Y-74466344D01*
X230664938Y-74694586D01*
X230664936Y-74694596D01*
X230644341Y-74929999D01*
X230644341Y-74930000D01*
X230664936Y-75165403D01*
X230664938Y-75165413D01*
X230726094Y-75393655D01*
X230726096Y-75393659D01*
X230726097Y-75393663D01*
X230777451Y-75503791D01*
X230825965Y-75607830D01*
X230825967Y-75607834D01*
X230961501Y-75801395D01*
X230961506Y-75801402D01*
X231128597Y-75968493D01*
X231128603Y-75968498D01*
X231314158Y-76098425D01*
X231357783Y-76153002D01*
X231364977Y-76222500D01*
X231333454Y-76284855D01*
X231314158Y-76301575D01*
X231128597Y-76431505D01*
X230961505Y-76598597D01*
X230825965Y-76792169D01*
X230825964Y-76792171D01*
X230726098Y-77006335D01*
X230726094Y-77006344D01*
X230664938Y-77234586D01*
X230664936Y-77234596D01*
X230644341Y-77469999D01*
X230644341Y-77470000D01*
X230664936Y-77705403D01*
X230664938Y-77705413D01*
X230726094Y-77933655D01*
X230726096Y-77933659D01*
X230726097Y-77933663D01*
X230807866Y-78109017D01*
X230825965Y-78147830D01*
X230825967Y-78147834D01*
X230927966Y-78293502D01*
X230954702Y-78331686D01*
X230961501Y-78341395D01*
X230961506Y-78341402D01*
X231128597Y-78508493D01*
X231128603Y-78508498D01*
X231314158Y-78638425D01*
X231357783Y-78693002D01*
X231364977Y-78762500D01*
X231333454Y-78824855D01*
X231314158Y-78841575D01*
X231128597Y-78971505D01*
X230961505Y-79138597D01*
X230825965Y-79332169D01*
X230825964Y-79332171D01*
X230726098Y-79546335D01*
X230726094Y-79546344D01*
X230664938Y-79774586D01*
X230664936Y-79774596D01*
X230644341Y-80009999D01*
X230644341Y-80010000D01*
X229731169Y-80010000D01*
X229816739Y-79826496D01*
X229875635Y-79606692D01*
X229895468Y-79380000D01*
X229875635Y-79153308D01*
X229816739Y-78933504D01*
X229720568Y-78727266D01*
X229590047Y-78540861D01*
X229590046Y-78540860D01*
X229590045Y-78540858D01*
X229429141Y-78379954D01*
X229242734Y-78249432D01*
X229242728Y-78249429D01*
X229184725Y-78222382D01*
X229132285Y-78176210D01*
X229113133Y-78109017D01*
X229133348Y-78042135D01*
X229184725Y-77997618D01*
X229242734Y-77970568D01*
X229429139Y-77840047D01*
X229590047Y-77679139D01*
X229720568Y-77492734D01*
X229816739Y-77286496D01*
X229875635Y-77066692D01*
X229895468Y-76840000D01*
X229875635Y-76613308D01*
X229816739Y-76393504D01*
X229720568Y-76187266D01*
X229590047Y-76000861D01*
X229590045Y-76000858D01*
X229429141Y-75839954D01*
X229242734Y-75709432D01*
X229242728Y-75709429D01*
X229184725Y-75682382D01*
X229132285Y-75636210D01*
X229113133Y-75569017D01*
X229133348Y-75502135D01*
X229184725Y-75457618D01*
X229242734Y-75430568D01*
X229429139Y-75300047D01*
X229590047Y-75139139D01*
X229720568Y-74952734D01*
X229816739Y-74746496D01*
X229875635Y-74526692D01*
X229895468Y-74300000D01*
X229895030Y-74294998D01*
X229877227Y-74091507D01*
X229875635Y-74073308D01*
X229816739Y-73853504D01*
X229720568Y-73647266D01*
X229590047Y-73460861D01*
X229590045Y-73460858D01*
X229429141Y-73299954D01*
X229242734Y-73169432D01*
X229242732Y-73169431D01*
X229036497Y-73073261D01*
X229036488Y-73073258D01*
X228816697Y-73014366D01*
X228816693Y-73014365D01*
X228816692Y-73014365D01*
X228816691Y-73014364D01*
X228816686Y-73014364D01*
X228590002Y-72994532D01*
X228589998Y-72994532D01*
X228363313Y-73014364D01*
X228363302Y-73014366D01*
X228143511Y-73073258D01*
X228143502Y-73073261D01*
X227937267Y-73169431D01*
X227937265Y-73169432D01*
X227750858Y-73299954D01*
X227589954Y-73460858D01*
X227459432Y-73647265D01*
X227459431Y-73647267D01*
X227363261Y-73853502D01*
X227363258Y-73853511D01*
X227304366Y-74073302D01*
X227304364Y-74073313D01*
X227284532Y-74299998D01*
X227284532Y-74300001D01*
X227304364Y-74526686D01*
X227304366Y-74526697D01*
X227363258Y-74746488D01*
X227363261Y-74746497D01*
X227459431Y-74952732D01*
X227459432Y-74952734D01*
X227589954Y-75139141D01*
X227750858Y-75300045D01*
X227750861Y-75300047D01*
X227937266Y-75430568D01*
X227995275Y-75457618D01*
X228047714Y-75503791D01*
X228066866Y-75570984D01*
X228046650Y-75637865D01*
X227995275Y-75682382D01*
X227937267Y-75709431D01*
X227937265Y-75709432D01*
X227750858Y-75839954D01*
X227589954Y-76000858D01*
X227459432Y-76187265D01*
X227459431Y-76187267D01*
X227363261Y-76393502D01*
X227363258Y-76393511D01*
X227304366Y-76613302D01*
X227304364Y-76613313D01*
X227284532Y-76839998D01*
X227284532Y-76840001D01*
X227304364Y-77066686D01*
X227304366Y-77066697D01*
X227363258Y-77286488D01*
X227363261Y-77286497D01*
X227459431Y-77492732D01*
X227459432Y-77492734D01*
X227589954Y-77679141D01*
X227750858Y-77840045D01*
X227750861Y-77840047D01*
X227937266Y-77970568D01*
X227995275Y-77997618D01*
X228047714Y-78043791D01*
X228066866Y-78110984D01*
X228046650Y-78177865D01*
X227995275Y-78222382D01*
X227937267Y-78249431D01*
X227937265Y-78249432D01*
X227750858Y-78379954D01*
X227589954Y-78540858D01*
X227459432Y-78727265D01*
X227459431Y-78727267D01*
X227363261Y-78933502D01*
X227363258Y-78933511D01*
X227304366Y-79153302D01*
X227304364Y-79153313D01*
X227284532Y-79379998D01*
X227284532Y-79380001D01*
X227304364Y-79606686D01*
X227304366Y-79606697D01*
X227363258Y-79826488D01*
X227363261Y-79826497D01*
X227459431Y-80032732D01*
X227459432Y-80032734D01*
X227589954Y-80219141D01*
X227750858Y-80380045D01*
X227750861Y-80380047D01*
X227937266Y-80510568D01*
X227995865Y-80537893D01*
X228048305Y-80584065D01*
X228067457Y-80651258D01*
X228047242Y-80718139D01*
X227995867Y-80762657D01*
X227937515Y-80789867D01*
X227751179Y-80920342D01*
X227590342Y-81081179D01*
X227459865Y-81267517D01*
X227363734Y-81473673D01*
X227363730Y-81473682D01*
X227311127Y-81669999D01*
X227311128Y-81670000D01*
X228079424Y-81670000D01*
X228146463Y-81689685D01*
X228192218Y-81742489D01*
X228202162Y-81811647D01*
X228201897Y-81813397D01*
X228185013Y-81919996D01*
X228185013Y-81920003D01*
X228201897Y-82026603D01*
X228192942Y-82095896D01*
X228147946Y-82149348D01*
X228081194Y-82169987D01*
X228079424Y-82170000D01*
X227311128Y-82170000D01*
X227363730Y-82366317D01*
X227363734Y-82366326D01*
X227459865Y-82572482D01*
X227590342Y-82758820D01*
X227751179Y-82919657D01*
X227937518Y-83050134D01*
X227937520Y-83050135D01*
X227995865Y-83077342D01*
X228048305Y-83123514D01*
X228067457Y-83190707D01*
X228047242Y-83257589D01*
X227995867Y-83302105D01*
X227937268Y-83329431D01*
X227937264Y-83329433D01*
X227750858Y-83459954D01*
X227589954Y-83620858D01*
X227459432Y-83807265D01*
X227459431Y-83807267D01*
X227363261Y-84013502D01*
X227363258Y-84013511D01*
X227304366Y-84233302D01*
X227304364Y-84233313D01*
X227284532Y-84459998D01*
X227284532Y-84460001D01*
X227304364Y-84686686D01*
X227304366Y-84686697D01*
X227363258Y-84906488D01*
X227363261Y-84906497D01*
X227459431Y-85112732D01*
X227459432Y-85112734D01*
X227589954Y-85299141D01*
X227750858Y-85460045D01*
X227750861Y-85460047D01*
X227937266Y-85590568D01*
X227995278Y-85617619D01*
X228047713Y-85663788D01*
X228066866Y-85730982D01*
X228046651Y-85797863D01*
X227995277Y-85842380D01*
X227937268Y-85869430D01*
X227937265Y-85869432D01*
X227750858Y-85999954D01*
X227589954Y-86160858D01*
X227459432Y-86347265D01*
X227459431Y-86347267D01*
X227363261Y-86553502D01*
X227363258Y-86553511D01*
X227304366Y-86773302D01*
X227304364Y-86773313D01*
X227284532Y-86999998D01*
X227284532Y-87000001D01*
X222275468Y-87000001D01*
X222275468Y-87000000D01*
X222255635Y-86773308D01*
X222196739Y-86553504D01*
X222100568Y-86347266D01*
X221970047Y-86160861D01*
X221970045Y-86160858D01*
X221809141Y-85999954D01*
X221622734Y-85869432D01*
X221622728Y-85869429D01*
X221564725Y-85842382D01*
X221512285Y-85796210D01*
X221493133Y-85729017D01*
X221513348Y-85662135D01*
X221564725Y-85617618D01*
X221622734Y-85590568D01*
X221809139Y-85460047D01*
X221970047Y-85299139D01*
X222100568Y-85112734D01*
X222196739Y-84906496D01*
X222255635Y-84686692D01*
X222275468Y-84460000D01*
X222275408Y-84459319D01*
X222263453Y-84322669D01*
X222255635Y-84233308D01*
X222196739Y-84013504D01*
X222100568Y-83807266D01*
X221970047Y-83620861D01*
X221970045Y-83620858D01*
X221809141Y-83459954D01*
X221622734Y-83329432D01*
X221622728Y-83329429D01*
X221564725Y-83302382D01*
X221512285Y-83256210D01*
X221493133Y-83189017D01*
X221513348Y-83122135D01*
X221564725Y-83077618D01*
X221565319Y-83077341D01*
X221622734Y-83050568D01*
X221809139Y-82920047D01*
X221970047Y-82759139D01*
X222100568Y-82572734D01*
X222196739Y-82366496D01*
X222255635Y-82146692D01*
X222275468Y-81920000D01*
X222255635Y-81693308D01*
X222196739Y-81473504D01*
X222100568Y-81267266D01*
X221970047Y-81080861D01*
X221970045Y-81080858D01*
X221809141Y-80919954D01*
X221622734Y-80789432D01*
X221622728Y-80789429D01*
X221564725Y-80762382D01*
X221512285Y-80716210D01*
X221493133Y-80649017D01*
X221513348Y-80582135D01*
X221564725Y-80537618D01*
X221622734Y-80510568D01*
X221809139Y-80380047D01*
X221970047Y-80219139D01*
X222100568Y-80032734D01*
X222196739Y-79826496D01*
X222255635Y-79606692D01*
X222275468Y-79380000D01*
X222255635Y-79153308D01*
X222196739Y-78933504D01*
X222100568Y-78727266D01*
X221970047Y-78540861D01*
X221970046Y-78540860D01*
X221970045Y-78540858D01*
X221809141Y-78379954D01*
X221622734Y-78249432D01*
X221622728Y-78249429D01*
X221564725Y-78222382D01*
X221512285Y-78176210D01*
X221493133Y-78109017D01*
X221513348Y-78042135D01*
X221564725Y-77997618D01*
X221622734Y-77970568D01*
X221809139Y-77840047D01*
X221970047Y-77679139D01*
X222100568Y-77492734D01*
X222196739Y-77286496D01*
X222255635Y-77066692D01*
X222275468Y-76840000D01*
X222255635Y-76613308D01*
X222196739Y-76393504D01*
X222100568Y-76187266D01*
X221970047Y-76000861D01*
X221970045Y-76000858D01*
X221809141Y-75839954D01*
X221622734Y-75709432D01*
X221622728Y-75709429D01*
X221564725Y-75682382D01*
X221512285Y-75636210D01*
X221493133Y-75569017D01*
X221513348Y-75502135D01*
X221564725Y-75457618D01*
X221622734Y-75430568D01*
X221809139Y-75300047D01*
X221970047Y-75139139D01*
X222100568Y-74952734D01*
X222196739Y-74746496D01*
X222255635Y-74526692D01*
X222275468Y-74300000D01*
X222275030Y-74294998D01*
X222257227Y-74091507D01*
X222255635Y-74073308D01*
X222196739Y-73853504D01*
X222100568Y-73647266D01*
X221970047Y-73460861D01*
X221970045Y-73460858D01*
X221809141Y-73299954D01*
X221622734Y-73169432D01*
X221622732Y-73169431D01*
X221416497Y-73073261D01*
X221416488Y-73073258D01*
X221196697Y-73014366D01*
X221196693Y-73014365D01*
X221196692Y-73014365D01*
X221196691Y-73014364D01*
X221196686Y-73014364D01*
X220970002Y-72994532D01*
X220969998Y-72994532D01*
X220743313Y-73014364D01*
X220743302Y-73014366D01*
X220523511Y-73073258D01*
X220523502Y-73073261D01*
X220317267Y-73169431D01*
X220317265Y-73169432D01*
X220130858Y-73299954D01*
X219969954Y-73460858D01*
X219839432Y-73647265D01*
X219839430Y-73647269D01*
X219818546Y-73692054D01*
X219772373Y-73744492D01*
X219705179Y-73763643D01*
X219638298Y-73743426D01*
X219593783Y-73692051D01*
X219570568Y-73642266D01*
X219440047Y-73455861D01*
X219440045Y-73455858D01*
X219279141Y-73294954D01*
X219092734Y-73164432D01*
X219092732Y-73164431D01*
X218886497Y-73068261D01*
X218886488Y-73068258D01*
X218666697Y-73009366D01*
X218666693Y-73009365D01*
X218666692Y-73009365D01*
X218666691Y-73009364D01*
X218666686Y-73009364D01*
X218440002Y-72989532D01*
X218439998Y-72989532D01*
X218213313Y-73009364D01*
X218213302Y-73009366D01*
X217993511Y-73068258D01*
X217993502Y-73068261D01*
X217787267Y-73164431D01*
X217787265Y-73164432D01*
X217600858Y-73294954D01*
X217439954Y-73455858D01*
X217309432Y-73642265D01*
X217309431Y-73642267D01*
X217213261Y-73848502D01*
X217213258Y-73848511D01*
X217154366Y-74068302D01*
X217154364Y-74068313D01*
X217134532Y-74294998D01*
X217134532Y-74295001D01*
X217154364Y-74521686D01*
X217154366Y-74521697D01*
X217213258Y-74741488D01*
X217213261Y-74741497D01*
X217309431Y-74947732D01*
X217309432Y-74947734D01*
X217439954Y-75134141D01*
X217600858Y-75295045D01*
X217600861Y-75295047D01*
X217787266Y-75425568D01*
X217993504Y-75521739D01*
X218213308Y-75580635D01*
X218375230Y-75594801D01*
X218439998Y-75600468D01*
X218440000Y-75600468D01*
X218440002Y-75600468D01*
X218496673Y-75595509D01*
X218666692Y-75580635D01*
X218886496Y-75521739D01*
X219092734Y-75425568D01*
X219279139Y-75295047D01*
X219440047Y-75134139D01*
X219570568Y-74947734D01*
X219591452Y-74902947D01*
X219637624Y-74850508D01*
X219704817Y-74831356D01*
X219771699Y-74851571D01*
X219816216Y-74902947D01*
X219839431Y-74952732D01*
X219839432Y-74952734D01*
X219969954Y-75139141D01*
X220130858Y-75300045D01*
X220130861Y-75300047D01*
X220317266Y-75430568D01*
X220375275Y-75457618D01*
X220427714Y-75503791D01*
X220446866Y-75570984D01*
X220426650Y-75637865D01*
X220375275Y-75682382D01*
X220317267Y-75709431D01*
X220317265Y-75709432D01*
X220130858Y-75839954D01*
X219969954Y-76000858D01*
X219839432Y-76187265D01*
X219839431Y-76187267D01*
X219743261Y-76393502D01*
X219743258Y-76393511D01*
X219684366Y-76613302D01*
X219684364Y-76613313D01*
X219664532Y-76839998D01*
X219664532Y-76840001D01*
X219684364Y-77066686D01*
X219684366Y-77066697D01*
X219743258Y-77286488D01*
X219743261Y-77286497D01*
X219839431Y-77492732D01*
X219839432Y-77492734D01*
X219969954Y-77679141D01*
X220130858Y-77840045D01*
X220130861Y-77840047D01*
X220317266Y-77970568D01*
X220375275Y-77997618D01*
X220427714Y-78043791D01*
X220446866Y-78110984D01*
X220426650Y-78177865D01*
X220375275Y-78222382D01*
X220317267Y-78249431D01*
X220317265Y-78249432D01*
X220130858Y-78379954D01*
X219969952Y-78540860D01*
X219950323Y-78568894D01*
X219895746Y-78612519D01*
X219826248Y-78619711D01*
X219763893Y-78588188D01*
X219728480Y-78527958D01*
X219726902Y-78518579D01*
X219726574Y-78518637D01*
X219725635Y-78513313D01*
X219725635Y-78513308D01*
X219666739Y-78293504D01*
X219570568Y-78087266D01*
X219440047Y-77900861D01*
X219440045Y-77900858D01*
X219279141Y-77739954D01*
X219092734Y-77609432D01*
X219092732Y-77609431D01*
X218886497Y-77513261D01*
X218886488Y-77513258D01*
X218666697Y-77454366D01*
X218666693Y-77454365D01*
X218666692Y-77454365D01*
X218666691Y-77454364D01*
X218666686Y-77454364D01*
X218440002Y-77434532D01*
X218439998Y-77434532D01*
X218213313Y-77454364D01*
X218213302Y-77454366D01*
X217993511Y-77513258D01*
X217993502Y-77513261D01*
X217787267Y-77609431D01*
X217787265Y-77609432D01*
X217600858Y-77739954D01*
X217439954Y-77900858D01*
X217309432Y-78087265D01*
X217309431Y-78087267D01*
X217213261Y-78293502D01*
X217213258Y-78293511D01*
X217154366Y-78513302D01*
X217154364Y-78513313D01*
X217134532Y-78739998D01*
X217134532Y-78740001D01*
X217154364Y-78966686D01*
X217154366Y-78966697D01*
X217213258Y-79186488D01*
X217213261Y-79186497D01*
X217309431Y-79392732D01*
X217309432Y-79392734D01*
X217439954Y-79579141D01*
X217600858Y-79740045D01*
X217600861Y-79740047D01*
X217787266Y-79870568D01*
X217993504Y-79966739D01*
X218213308Y-80025635D01*
X218375230Y-80039801D01*
X218439998Y-80045468D01*
X218440000Y-80045468D01*
X218440002Y-80045468D01*
X218496673Y-80040509D01*
X218666692Y-80025635D01*
X218886496Y-79966739D01*
X219092734Y-79870568D01*
X219279139Y-79740047D01*
X219440047Y-79579139D01*
X219459676Y-79551105D01*
X219514249Y-79507482D01*
X219583747Y-79500287D01*
X219646103Y-79531808D01*
X219681518Y-79592036D01*
X219683102Y-79601420D01*
X219683426Y-79601363D01*
X219684366Y-79606697D01*
X219743258Y-79826488D01*
X219743261Y-79826497D01*
X219839431Y-80032732D01*
X219839432Y-80032734D01*
X219969954Y-80219141D01*
X220130858Y-80380045D01*
X220130861Y-80380047D01*
X220317266Y-80510568D01*
X220375275Y-80537618D01*
X220427714Y-80583791D01*
X220446866Y-80650984D01*
X220426650Y-80717865D01*
X220375275Y-80762382D01*
X220317267Y-80789431D01*
X220317265Y-80789432D01*
X220214595Y-80861322D01*
X220185920Y-80881401D01*
X220163535Y-80897075D01*
X220097329Y-80919402D01*
X220092412Y-80919500D01*
X219717717Y-80919500D01*
X219673176Y-80918371D01*
X219628637Y-80917243D01*
X219628636Y-80917243D01*
X219628627Y-80917243D01*
X219568253Y-80928065D01*
X219563587Y-80928719D01*
X219502563Y-80934925D01*
X219502562Y-80934925D01*
X219469786Y-80945208D01*
X219462159Y-80947080D01*
X219428350Y-80953140D01*
X219428347Y-80953141D01*
X219371368Y-80975899D01*
X219366931Y-80977478D01*
X219308417Y-80995838D01*
X219308406Y-80995843D01*
X219278382Y-81012507D01*
X219271290Y-81015875D01*
X219245262Y-81026273D01*
X219239383Y-81028622D01*
X219239382Y-81028622D01*
X219239381Y-81028623D01*
X219239373Y-81028627D01*
X219188155Y-81062383D01*
X219184126Y-81064824D01*
X219130502Y-81094588D01*
X219130499Y-81094590D01*
X219104427Y-81116970D01*
X219098160Y-81121695D01*
X219069482Y-81140598D01*
X219069475Y-81140603D01*
X219026116Y-81183962D01*
X219022661Y-81187164D01*
X218976106Y-81227132D01*
X218976105Y-81227133D01*
X218955076Y-81254300D01*
X218949884Y-81260194D01*
X218727115Y-81482964D01*
X218665792Y-81516449D01*
X218596101Y-81511465D01*
X218568311Y-81496858D01*
X218457734Y-81419432D01*
X218457732Y-81419431D01*
X218251497Y-81323261D01*
X218251488Y-81323258D01*
X218031697Y-81264366D01*
X218031693Y-81264365D01*
X218031692Y-81264365D01*
X218031691Y-81264364D01*
X218031686Y-81264364D01*
X217805002Y-81244532D01*
X217804998Y-81244532D01*
X217578313Y-81264364D01*
X217578302Y-81264366D01*
X217358511Y-81323258D01*
X217358502Y-81323261D01*
X217152267Y-81419431D01*
X217152265Y-81419432D01*
X217075045Y-81473502D01*
X217019812Y-81512177D01*
X216998535Y-81527075D01*
X216932329Y-81549402D01*
X216927412Y-81549500D01*
X214472927Y-81549500D01*
X214436932Y-81544161D01*
X214421031Y-81539337D01*
X214310900Y-81528490D01*
X214270380Y-81524500D01*
X213719620Y-81524500D01*
X213693476Y-81527075D01*
X213568968Y-81539337D01*
X213553068Y-81544161D01*
X213517073Y-81549500D01*
X213181230Y-81549500D01*
X213114191Y-81529815D01*
X213068436Y-81477011D01*
X213058492Y-81407853D01*
X213087517Y-81344297D01*
X213093549Y-81337819D01*
X213350510Y-81080858D01*
X214147771Y-80283595D01*
X214209092Y-80250112D01*
X214209448Y-80250034D01*
X214274803Y-80236144D01*
X214447730Y-80159151D01*
X214600871Y-80047888D01*
X214727533Y-79907216D01*
X214822179Y-79743284D01*
X214880674Y-79563256D01*
X214900460Y-79375000D01*
X214880674Y-79186744D01*
X214822179Y-79006716D01*
X214727533Y-78842784D01*
X214600871Y-78702112D01*
X214597586Y-78699725D01*
X214447734Y-78590851D01*
X214447729Y-78590848D01*
X214274807Y-78513857D01*
X214274802Y-78513855D01*
X214129001Y-78482865D01*
X214089646Y-78474500D01*
X213900354Y-78474500D01*
X213867897Y-78481398D01*
X213715197Y-78513855D01*
X213715192Y-78513857D01*
X213542270Y-78590848D01*
X213542265Y-78590851D01*
X213389129Y-78702111D01*
X213262466Y-78842785D01*
X213167821Y-79006715D01*
X213167819Y-79006719D01*
X213112478Y-79177041D01*
X213082228Y-79226403D01*
X211815451Y-80493181D01*
X211754128Y-80526666D01*
X211727770Y-80529500D01*
X201993705Y-80529500D01*
X201975735Y-80528191D01*
X201951972Y-80524710D01*
X201906533Y-80528686D01*
X201899931Y-80529264D01*
X201894530Y-80529500D01*
X201886289Y-80529500D01*
X201864579Y-80532037D01*
X201853724Y-80533306D01*
X201838419Y-80534645D01*
X201777199Y-80540001D01*
X201770132Y-80541460D01*
X201770120Y-80541404D01*
X201762763Y-80543035D01*
X201762777Y-80543092D01*
X201755743Y-80544759D01*
X201683575Y-80571025D01*
X201610675Y-80595181D01*
X201604126Y-80598236D01*
X201604101Y-80598183D01*
X201597308Y-80601471D01*
X201597334Y-80601523D01*
X201590880Y-80604764D01*
X201526708Y-80646971D01*
X201461347Y-80687285D01*
X201455683Y-80691765D01*
X201455647Y-80691719D01*
X201449797Y-80696485D01*
X201449834Y-80696529D01*
X201444305Y-80701168D01*
X201391598Y-80757033D01*
X200809358Y-81339272D01*
X200795729Y-81351051D01*
X200776468Y-81365390D01*
X200742898Y-81405397D01*
X200739253Y-81409376D01*
X200733409Y-81415222D01*
X200713059Y-81440959D01*
X200663695Y-81499789D01*
X200659729Y-81505819D01*
X200659682Y-81505788D01*
X200655630Y-81512147D01*
X200655679Y-81512177D01*
X200651889Y-81518321D01*
X200619424Y-81587941D01*
X200584960Y-81656566D01*
X200582488Y-81663357D01*
X200582432Y-81663336D01*
X200579960Y-81670450D01*
X200580015Y-81670469D01*
X200577742Y-81677327D01*
X200569975Y-81714945D01*
X200562207Y-81752565D01*
X200552185Y-81794852D01*
X200544498Y-81827286D01*
X200543661Y-81834454D01*
X200543601Y-81834447D01*
X200542835Y-81841945D01*
X200542895Y-81841951D01*
X200542265Y-81849140D01*
X200544500Y-81925916D01*
X200544500Y-83121294D01*
X200543191Y-83139263D01*
X200539710Y-83163025D01*
X200000500Y-83163025D01*
X200000500Y-78105001D01*
X203799532Y-78105001D01*
X203819364Y-78331686D01*
X203819366Y-78331697D01*
X203878258Y-78551488D01*
X203878261Y-78551497D01*
X203974431Y-78757732D01*
X203974432Y-78757734D01*
X204104954Y-78944141D01*
X204265858Y-79105045D01*
X204265861Y-79105047D01*
X204452266Y-79235568D01*
X204658504Y-79331739D01*
X204658509Y-79331740D01*
X204658511Y-79331741D01*
X204660116Y-79332171D01*
X204878308Y-79390635D01*
X205040230Y-79404801D01*
X205104998Y-79410468D01*
X205105000Y-79410468D01*
X205105002Y-79410468D01*
X205161672Y-79405509D01*
X205331692Y-79390635D01*
X205551496Y-79331739D01*
X205757734Y-79235568D01*
X205944139Y-79105047D01*
X206105047Y-78944139D01*
X206235568Y-78757734D01*
X206262618Y-78699724D01*
X206308790Y-78647285D01*
X206375983Y-78628133D01*
X206442865Y-78648348D01*
X206487381Y-78699724D01*
X206500224Y-78727265D01*
X206514429Y-78757728D01*
X206514432Y-78757734D01*
X206644954Y-78944141D01*
X206805858Y-79105045D01*
X206805861Y-79105047D01*
X206992266Y-79235568D01*
X207198504Y-79331739D01*
X207198509Y-79331740D01*
X207198511Y-79331741D01*
X207200116Y-79332171D01*
X207418308Y-79390635D01*
X207580230Y-79404801D01*
X207644998Y-79410468D01*
X207645000Y-79410468D01*
X207645002Y-79410468D01*
X207701673Y-79405509D01*
X207871692Y-79390635D01*
X208091496Y-79331739D01*
X208297734Y-79235568D01*
X208484139Y-79105047D01*
X208645047Y-78944139D01*
X208775568Y-78757734D01*
X208783837Y-78740001D01*
X209634532Y-78740001D01*
X209654364Y-78966686D01*
X209654366Y-78966697D01*
X209713258Y-79186488D01*
X209713261Y-79186497D01*
X209809431Y-79392732D01*
X209809432Y-79392734D01*
X209939954Y-79579141D01*
X210100858Y-79740045D01*
X210100861Y-79740047D01*
X210287266Y-79870568D01*
X210493504Y-79966739D01*
X210713308Y-80025635D01*
X210875230Y-80039801D01*
X210939998Y-80045468D01*
X210940000Y-80045468D01*
X210940002Y-80045468D01*
X210996673Y-80040509D01*
X211166692Y-80025635D01*
X211386496Y-79966739D01*
X211592734Y-79870568D01*
X211779139Y-79740047D01*
X211940047Y-79579139D01*
X212070568Y-79392734D01*
X212166739Y-79186496D01*
X212225635Y-78966692D01*
X212243500Y-78762500D01*
X212245468Y-78740001D01*
X212245468Y-78739998D01*
X212228975Y-78551488D01*
X212225635Y-78513308D01*
X212166739Y-78293504D01*
X212070568Y-78087266D01*
X211940047Y-77900861D01*
X211940045Y-77900858D01*
X211779141Y-77739954D01*
X211592734Y-77609432D01*
X211592732Y-77609431D01*
X211386497Y-77513261D01*
X211386488Y-77513258D01*
X211166697Y-77454366D01*
X211166693Y-77454365D01*
X211166692Y-77454365D01*
X211166691Y-77454364D01*
X211166686Y-77454364D01*
X210940002Y-77434532D01*
X210939998Y-77434532D01*
X210713313Y-77454364D01*
X210713302Y-77454366D01*
X210493511Y-77513258D01*
X210493502Y-77513261D01*
X210287267Y-77609431D01*
X210287265Y-77609432D01*
X210100858Y-77739954D01*
X209939954Y-77900858D01*
X209809432Y-78087265D01*
X209809431Y-78087267D01*
X209713261Y-78293502D01*
X209713258Y-78293511D01*
X209654366Y-78513302D01*
X209654364Y-78513313D01*
X209634532Y-78739998D01*
X209634532Y-78740001D01*
X208783837Y-78740001D01*
X208871739Y-78551496D01*
X208930635Y-78331692D01*
X208947634Y-78137384D01*
X208950468Y-78105001D01*
X208950468Y-78104998D01*
X208938707Y-77970568D01*
X208930635Y-77878308D01*
X208871739Y-77658504D01*
X208775568Y-77452266D01*
X208645047Y-77265861D01*
X208645045Y-77265858D01*
X208484141Y-77104954D01*
X208297734Y-76974432D01*
X208297732Y-76974431D01*
X208091497Y-76878261D01*
X208091488Y-76878258D01*
X207871697Y-76819366D01*
X207871693Y-76819365D01*
X207871692Y-76819365D01*
X207871691Y-76819364D01*
X207871686Y-76819364D01*
X207645002Y-76799532D01*
X207644998Y-76799532D01*
X207418313Y-76819364D01*
X207418302Y-76819366D01*
X207198511Y-76878258D01*
X207198502Y-76878261D01*
X206992267Y-76974431D01*
X206992265Y-76974432D01*
X206805858Y-77104954D01*
X206644954Y-77265858D01*
X206514432Y-77452265D01*
X206514431Y-77452267D01*
X206487382Y-77510275D01*
X206441209Y-77562714D01*
X206374016Y-77581866D01*
X206307135Y-77561650D01*
X206262618Y-77510275D01*
X206235568Y-77452266D01*
X206105047Y-77265861D01*
X206105045Y-77265858D01*
X205944141Y-77104954D01*
X205757734Y-76974432D01*
X205757732Y-76974431D01*
X205551497Y-76878261D01*
X205551488Y-76878258D01*
X205331697Y-76819366D01*
X205331693Y-76819365D01*
X205331692Y-76819365D01*
X205331691Y-76819364D01*
X205331686Y-76819364D01*
X205105002Y-76799532D01*
X205104998Y-76799532D01*
X204878313Y-76819364D01*
X204878302Y-76819366D01*
X204658511Y-76878258D01*
X204658502Y-76878261D01*
X204452267Y-76974431D01*
X204452265Y-76974432D01*
X204265858Y-77104954D01*
X204104954Y-77265858D01*
X203974432Y-77452265D01*
X203974431Y-77452267D01*
X203878261Y-77658502D01*
X203878258Y-77658511D01*
X203819366Y-77878302D01*
X203819364Y-77878313D01*
X203799532Y-78104998D01*
X203799532Y-78105001D01*
X200000500Y-78105001D01*
X200000500Y-69875473D01*
X203464662Y-69875473D01*
X203469002Y-69909549D01*
X203469499Y-69917389D01*
X203469499Y-72377284D01*
X203467243Y-72466359D01*
X203467243Y-72466367D01*
X203472541Y-72495924D01*
X203477966Y-72526196D01*
X203478064Y-72526739D01*
X203478718Y-72531404D01*
X203484925Y-72592430D01*
X203484927Y-72592444D01*
X203495208Y-72625213D01*
X203497079Y-72632837D01*
X203503142Y-72666652D01*
X203503142Y-72666655D01*
X203525894Y-72723612D01*
X203527474Y-72728051D01*
X203545841Y-72786588D01*
X203545844Y-72786595D01*
X203562509Y-72816619D01*
X203565879Y-72823714D01*
X203577842Y-72853663D01*
X203578622Y-72855614D01*
X203578627Y-72855624D01*
X203600808Y-72889280D01*
X203610237Y-72903587D01*
X203612377Y-72906833D01*
X203614818Y-72910863D01*
X203644588Y-72964498D01*
X203644589Y-72964499D01*
X203644591Y-72964502D01*
X203666968Y-72990567D01*
X203671693Y-72996835D01*
X203690599Y-73025520D01*
X203690600Y-73025522D01*
X203733965Y-73068887D01*
X203737168Y-73072343D01*
X203777133Y-73118894D01*
X203804299Y-73139923D01*
X203810186Y-73145107D01*
X204088181Y-73423101D01*
X204121666Y-73484424D01*
X204124500Y-73510782D01*
X204124500Y-74052410D01*
X204104815Y-74119449D01*
X204102076Y-74123532D01*
X203994431Y-74277267D01*
X203898261Y-74483502D01*
X203898258Y-74483511D01*
X203839366Y-74703302D01*
X203839364Y-74703313D01*
X203819532Y-74929998D01*
X203819532Y-74930001D01*
X203839364Y-75156686D01*
X203839366Y-75156697D01*
X203898258Y-75376488D01*
X203898261Y-75376497D01*
X203994431Y-75582732D01*
X203994432Y-75582734D01*
X204124954Y-75769141D01*
X204285858Y-75930045D01*
X204285861Y-75930047D01*
X204472266Y-76060568D01*
X204678504Y-76156739D01*
X204898308Y-76215635D01*
X205060230Y-76229801D01*
X205124998Y-76235468D01*
X205125000Y-76235468D01*
X205125002Y-76235468D01*
X205181672Y-76230509D01*
X205351692Y-76215635D01*
X205571496Y-76156739D01*
X205777734Y-76060568D01*
X205964139Y-75930047D01*
X206125047Y-75769139D01*
X206255568Y-75582734D01*
X206262618Y-75567614D01*
X206308789Y-75515176D01*
X206375982Y-75496023D01*
X206442864Y-75516238D01*
X206487381Y-75567614D01*
X206494432Y-75582733D01*
X206494432Y-75582734D01*
X206624954Y-75769141D01*
X206785858Y-75930045D01*
X206785861Y-75930047D01*
X206972266Y-76060568D01*
X207178504Y-76156739D01*
X207398308Y-76215635D01*
X207560230Y-76229801D01*
X207624998Y-76235468D01*
X207625000Y-76235468D01*
X207625002Y-76235468D01*
X207681672Y-76230509D01*
X207851692Y-76215635D01*
X208071496Y-76156739D01*
X208277734Y-76060568D01*
X208464139Y-75930047D01*
X208625047Y-75769139D01*
X208755568Y-75582734D01*
X208851739Y-75376496D01*
X208910635Y-75156692D01*
X208928479Y-74952732D01*
X208930468Y-74930001D01*
X208930468Y-74929998D01*
X208921838Y-74831356D01*
X208910635Y-74703308D01*
X208851739Y-74483504D01*
X208763838Y-74295001D01*
X209514532Y-74295001D01*
X209534364Y-74521686D01*
X209534366Y-74521697D01*
X209593258Y-74741488D01*
X209593261Y-74741497D01*
X209689431Y-74947732D01*
X209689432Y-74947734D01*
X209819954Y-75134141D01*
X209980858Y-75295045D01*
X209980861Y-75295047D01*
X210167266Y-75425568D01*
X210373504Y-75521739D01*
X210593308Y-75580635D01*
X210755230Y-75594801D01*
X210819998Y-75600468D01*
X210820000Y-75600468D01*
X210820002Y-75600468D01*
X210876673Y-75595509D01*
X211046692Y-75580635D01*
X211266496Y-75521739D01*
X211472734Y-75425568D01*
X211659139Y-75295047D01*
X211820047Y-75134139D01*
X211950568Y-74947734D01*
X212046739Y-74741496D01*
X212105635Y-74521692D01*
X212122634Y-74327384D01*
X212125468Y-74295001D01*
X212125468Y-74294998D01*
X212110109Y-74119449D01*
X212105635Y-74068308D01*
X212046739Y-73848504D01*
X211950568Y-73642266D01*
X211820047Y-73455861D01*
X211820045Y-73455858D01*
X211659141Y-73294954D01*
X211472734Y-73164432D01*
X211472732Y-73164431D01*
X211266497Y-73068261D01*
X211266488Y-73068258D01*
X211046697Y-73009366D01*
X211046693Y-73009365D01*
X211046692Y-73009365D01*
X211046691Y-73009364D01*
X211046686Y-73009364D01*
X210820002Y-72989532D01*
X210819998Y-72989532D01*
X210593313Y-73009364D01*
X210593302Y-73009366D01*
X210373511Y-73068258D01*
X210373502Y-73068261D01*
X210167267Y-73164431D01*
X210167265Y-73164432D01*
X209980858Y-73294954D01*
X209819954Y-73455858D01*
X209689432Y-73642265D01*
X209689431Y-73642267D01*
X209593261Y-73848502D01*
X209593258Y-73848511D01*
X209534366Y-74068302D01*
X209534364Y-74068313D01*
X209514532Y-74294998D01*
X209514532Y-74295001D01*
X208763838Y-74295001D01*
X208755568Y-74277266D01*
X208625047Y-74090861D01*
X208625045Y-74090858D01*
X208464141Y-73929954D01*
X208277734Y-73799432D01*
X208277732Y-73799431D01*
X208071497Y-73703261D01*
X208071488Y-73703258D01*
X207851697Y-73644366D01*
X207851693Y-73644365D01*
X207851692Y-73644365D01*
X207851691Y-73644364D01*
X207851686Y-73644364D01*
X207625002Y-73624532D01*
X207624998Y-73624532D01*
X207398313Y-73644364D01*
X207398302Y-73644366D01*
X207178511Y-73703258D01*
X207178502Y-73703261D01*
X206972267Y-73799431D01*
X206972265Y-73799432D01*
X206785858Y-73929954D01*
X206624954Y-74090858D01*
X206494433Y-74277264D01*
X206494432Y-74277266D01*
X206487380Y-74292387D01*
X206441209Y-74344825D01*
X206374015Y-74363976D01*
X206307134Y-74343760D01*
X206262619Y-74292387D01*
X206255568Y-74277266D01*
X206147924Y-74123532D01*
X206125597Y-74057326D01*
X206125500Y-74052410D01*
X206125500Y-73057715D01*
X206127757Y-72968641D01*
X206127756Y-72968640D01*
X206127757Y-72968637D01*
X206116933Y-72908249D01*
X206116280Y-72903587D01*
X206110074Y-72842563D01*
X206110074Y-72842562D01*
X206099784Y-72809768D01*
X206097917Y-72802155D01*
X206095128Y-72786595D01*
X206091858Y-72768347D01*
X206069100Y-72711374D01*
X206067521Y-72706938D01*
X206054882Y-72666655D01*
X206049159Y-72648412D01*
X206049158Y-72648410D01*
X206049157Y-72648407D01*
X206036393Y-72625413D01*
X206032485Y-72618371D01*
X206029117Y-72611278D01*
X206016378Y-72579386D01*
X206016377Y-72579383D01*
X206005404Y-72562733D01*
X205984950Y-72495924D01*
X206003863Y-72428663D01*
X206056137Y-72382304D01*
X206108942Y-72370499D01*
X206947871Y-72370499D01*
X206947872Y-72370499D01*
X207007483Y-72364091D01*
X207142331Y-72313796D01*
X207142335Y-72313792D01*
X207150118Y-72309544D01*
X207151252Y-72311621D01*
X207204715Y-72291671D01*
X207249576Y-72296694D01*
X207250656Y-72297021D01*
X207250659Y-72297023D01*
X207443967Y-72355662D01*
X207645000Y-72375462D01*
X207846033Y-72355662D01*
X208039341Y-72297023D01*
X208217494Y-72201798D01*
X208217498Y-72201794D01*
X208221546Y-72199631D01*
X208289949Y-72185389D01*
X208338454Y-72199631D01*
X208342502Y-72201794D01*
X208342506Y-72201798D01*
X208520659Y-72297023D01*
X208713967Y-72355662D01*
X208915000Y-72375462D01*
X209116033Y-72355662D01*
X209309341Y-72297023D01*
X209487494Y-72201798D01*
X209643647Y-72073647D01*
X209771798Y-71917494D01*
X209867023Y-71739341D01*
X209925662Y-71546033D01*
X209940500Y-71395380D01*
X209940500Y-70844620D01*
X209925662Y-70693967D01*
X209867023Y-70500659D01*
X209867021Y-70500656D01*
X209867021Y-70500654D01*
X209771801Y-70322511D01*
X209771799Y-70322509D01*
X209771798Y-70322506D01*
X209677630Y-70207761D01*
X209643647Y-70166352D01*
X209490132Y-70040367D01*
X209487494Y-70038202D01*
X209487492Y-70038201D01*
X209487488Y-70038198D01*
X209309345Y-69942978D01*
X209116031Y-69884337D01*
X208915000Y-69864538D01*
X208713968Y-69884337D01*
X208520654Y-69942978D01*
X208338453Y-70040367D01*
X208270050Y-70054609D01*
X208221547Y-70040367D01*
X208039345Y-69942978D01*
X207846031Y-69884337D01*
X207666962Y-69866701D01*
X207645000Y-69864538D01*
X207644999Y-69864538D01*
X207443968Y-69884337D01*
X207347977Y-69913456D01*
X207285493Y-69932410D01*
X207215628Y-69933033D01*
X207156515Y-69895785D01*
X207135111Y-69850001D01*
X211419532Y-69850001D01*
X211439364Y-70076686D01*
X211439366Y-70076697D01*
X211498258Y-70296488D01*
X211498261Y-70296497D01*
X211594431Y-70502732D01*
X211594432Y-70502734D01*
X211724954Y-70689141D01*
X211885858Y-70850045D01*
X211887695Y-70851331D01*
X212072266Y-70980568D01*
X212278504Y-71076739D01*
X212278509Y-71076740D01*
X212278511Y-71076741D01*
X212331415Y-71090916D01*
X212498308Y-71135635D01*
X212660230Y-71149801D01*
X212724998Y-71155468D01*
X212725000Y-71155468D01*
X212725002Y-71155468D01*
X212781672Y-71150509D01*
X212951692Y-71135635D01*
X213171496Y-71076739D01*
X213377734Y-70980568D01*
X213564139Y-70850047D01*
X213725047Y-70689139D01*
X213855568Y-70502734D01*
X213951739Y-70296496D01*
X214010635Y-70076692D01*
X214030468Y-69850001D01*
X216419532Y-69850001D01*
X216439364Y-70076686D01*
X216439366Y-70076697D01*
X216498258Y-70296488D01*
X216498261Y-70296497D01*
X216594431Y-70502732D01*
X216594432Y-70502734D01*
X216724954Y-70689141D01*
X216885858Y-70850045D01*
X216887695Y-70851331D01*
X217072266Y-70980568D01*
X217278504Y-71076739D01*
X217278509Y-71076740D01*
X217278511Y-71076741D01*
X217331415Y-71090916D01*
X217498308Y-71135635D01*
X217660230Y-71149801D01*
X217724998Y-71155468D01*
X217725000Y-71155468D01*
X217725002Y-71155468D01*
X217781673Y-71150509D01*
X217951692Y-71135635D01*
X218171496Y-71076739D01*
X218377734Y-70980568D01*
X218564139Y-70850047D01*
X218725047Y-70689139D01*
X218855568Y-70502734D01*
X218901141Y-70405002D01*
X220310034Y-70405002D01*
X220329858Y-70631599D01*
X220329860Y-70631610D01*
X220388730Y-70851317D01*
X220388734Y-70851326D01*
X220484865Y-71057481D01*
X220484866Y-71057483D01*
X220535973Y-71130471D01*
X220535973Y-71130472D01*
X221077580Y-70588865D01*
X221138903Y-70555380D01*
X221208594Y-70560364D01*
X221264528Y-70602235D01*
X221275742Y-70620246D01*
X221281527Y-70631599D01*
X221287358Y-70643044D01*
X221287363Y-70643050D01*
X221376949Y-70732636D01*
X221376951Y-70732637D01*
X221376955Y-70732641D01*
X221399747Y-70744254D01*
X221450542Y-70792228D01*
X221467337Y-70860049D01*
X221444799Y-70926184D01*
X221431132Y-70942419D01*
X220889526Y-71484025D01*
X220889526Y-71484026D01*
X220962512Y-71535131D01*
X220962516Y-71535133D01*
X221168673Y-71631265D01*
X221168682Y-71631269D01*
X221388389Y-71690139D01*
X221388400Y-71690141D01*
X221614998Y-71709966D01*
X221615002Y-71709966D01*
X221841599Y-71690141D01*
X221841610Y-71690139D01*
X222061317Y-71631269D01*
X222061331Y-71631264D01*
X222267478Y-71535136D01*
X222340472Y-71484025D01*
X221798866Y-70942419D01*
X221765381Y-70881096D01*
X221770365Y-70811404D01*
X221812237Y-70755471D01*
X221830245Y-70744258D01*
X221853045Y-70732641D01*
X221942641Y-70643045D01*
X221954254Y-70620252D01*
X222002225Y-70569458D01*
X222070046Y-70552661D01*
X222136181Y-70575197D01*
X222152419Y-70588866D01*
X222694025Y-71130472D01*
X222745136Y-71057478D01*
X222841264Y-70851331D01*
X222841269Y-70851317D01*
X222900139Y-70631610D01*
X222900141Y-70631599D01*
X222912967Y-70485001D01*
X224754532Y-70485001D01*
X224774364Y-70711686D01*
X224774366Y-70711697D01*
X224833258Y-70931488D01*
X224833261Y-70931497D01*
X224929431Y-71137732D01*
X224929432Y-71137734D01*
X225059954Y-71324141D01*
X225220858Y-71485045D01*
X225220861Y-71485047D01*
X225407266Y-71615568D01*
X225613504Y-71711739D01*
X225613509Y-71711740D01*
X225613511Y-71711741D01*
X225615116Y-71712171D01*
X225833308Y-71770635D01*
X225995230Y-71784801D01*
X226059998Y-71790468D01*
X226060000Y-71790468D01*
X226060002Y-71790468D01*
X226116673Y-71785509D01*
X226286692Y-71770635D01*
X226506496Y-71711739D01*
X226712734Y-71615568D01*
X226899139Y-71485047D01*
X227060047Y-71324139D01*
X227190568Y-71137734D01*
X227217619Y-71079721D01*
X227263788Y-71027286D01*
X227330981Y-71008133D01*
X227397862Y-71028348D01*
X227442380Y-71079722D01*
X227469432Y-71137734D01*
X227507996Y-71192810D01*
X227599954Y-71324141D01*
X227760858Y-71485045D01*
X227760861Y-71485047D01*
X227947266Y-71615568D01*
X228153504Y-71711739D01*
X228153509Y-71711740D01*
X228153511Y-71711741D01*
X228155116Y-71712171D01*
X228373308Y-71770635D01*
X228535230Y-71784801D01*
X228599998Y-71790468D01*
X228600000Y-71790468D01*
X228600002Y-71790468D01*
X228656672Y-71785509D01*
X228826692Y-71770635D01*
X229046496Y-71711739D01*
X229252734Y-71615568D01*
X229439139Y-71485047D01*
X229600047Y-71324139D01*
X229730568Y-71137734D01*
X229826739Y-70931496D01*
X229885635Y-70711692D01*
X229902634Y-70517384D01*
X229905468Y-70485001D01*
X229905468Y-70484998D01*
X229891252Y-70322511D01*
X229885635Y-70258308D01*
X229826739Y-70038504D01*
X229730568Y-69832266D01*
X229600047Y-69645861D01*
X229600045Y-69645858D01*
X229439141Y-69484954D01*
X229252734Y-69354432D01*
X229252732Y-69354431D01*
X229046497Y-69258261D01*
X229046488Y-69258258D01*
X228826697Y-69199366D01*
X228826693Y-69199365D01*
X228826692Y-69199365D01*
X228826691Y-69199364D01*
X228826686Y-69199364D01*
X228600002Y-69179532D01*
X228599998Y-69179532D01*
X228373313Y-69199364D01*
X228373302Y-69199366D01*
X228153511Y-69258258D01*
X228153502Y-69258261D01*
X227947267Y-69354431D01*
X227947265Y-69354432D01*
X227760858Y-69484954D01*
X227599954Y-69645858D01*
X227469432Y-69832265D01*
X227469431Y-69832267D01*
X227442382Y-69890275D01*
X227396209Y-69942714D01*
X227329016Y-69961866D01*
X227262135Y-69941650D01*
X227217618Y-69890275D01*
X227190568Y-69832266D01*
X227060047Y-69645861D01*
X227060045Y-69645858D01*
X226899141Y-69484954D01*
X226712734Y-69354432D01*
X226712732Y-69354431D01*
X226506497Y-69258261D01*
X226506488Y-69258258D01*
X226286697Y-69199366D01*
X226286693Y-69199365D01*
X226286692Y-69199365D01*
X226286691Y-69199364D01*
X226286686Y-69199364D01*
X226060002Y-69179532D01*
X226059998Y-69179532D01*
X225833313Y-69199364D01*
X225833302Y-69199366D01*
X225613511Y-69258258D01*
X225613502Y-69258261D01*
X225407267Y-69354431D01*
X225407265Y-69354432D01*
X225220858Y-69484954D01*
X225059954Y-69645858D01*
X224929432Y-69832265D01*
X224929431Y-69832267D01*
X224833261Y-70038502D01*
X224833258Y-70038511D01*
X224774366Y-70258302D01*
X224774364Y-70258313D01*
X224754532Y-70484998D01*
X224754532Y-70485001D01*
X222912967Y-70485001D01*
X222919966Y-70405002D01*
X222919966Y-70404997D01*
X222900141Y-70178400D01*
X222900139Y-70178389D01*
X222841269Y-69958682D01*
X222841265Y-69958673D01*
X222745133Y-69752516D01*
X222745131Y-69752512D01*
X222694026Y-69679526D01*
X222694025Y-69679526D01*
X222152419Y-70221132D01*
X222091096Y-70254617D01*
X222021404Y-70249633D01*
X221965471Y-70207761D01*
X221954256Y-70189751D01*
X221942641Y-70166955D01*
X221942637Y-70166951D01*
X221942636Y-70166949D01*
X221853050Y-70077363D01*
X221853044Y-70077358D01*
X221843109Y-70072296D01*
X221830250Y-70065744D01*
X221779456Y-70017773D01*
X221762660Y-69949952D01*
X221785197Y-69883817D01*
X221798865Y-69867580D01*
X222340472Y-69325973D01*
X222267483Y-69274866D01*
X222267481Y-69274865D01*
X222061326Y-69178734D01*
X222061317Y-69178730D01*
X221841610Y-69119860D01*
X221841599Y-69119858D01*
X221615002Y-69100034D01*
X221614998Y-69100034D01*
X221388400Y-69119858D01*
X221388389Y-69119860D01*
X221168682Y-69178730D01*
X221168673Y-69178734D01*
X220962513Y-69274868D01*
X220889526Y-69325973D01*
X221431133Y-69867580D01*
X221464618Y-69928903D01*
X221459634Y-69998595D01*
X221417762Y-70054528D01*
X221399748Y-70065745D01*
X221376956Y-70077358D01*
X221376949Y-70077363D01*
X221287363Y-70166949D01*
X221287358Y-70166956D01*
X221275745Y-70189748D01*
X221227770Y-70240544D01*
X221159949Y-70257338D01*
X221093814Y-70234800D01*
X221077580Y-70221133D01*
X220535973Y-69679526D01*
X220484868Y-69752513D01*
X220388734Y-69958673D01*
X220388730Y-69958682D01*
X220329860Y-70178389D01*
X220329858Y-70178400D01*
X220310034Y-70404997D01*
X220310034Y-70405002D01*
X218901141Y-70405002D01*
X218951739Y-70296496D01*
X219010635Y-70076692D01*
X219030468Y-69850000D01*
X219028916Y-69832266D01*
X219014946Y-69672582D01*
X219010635Y-69623308D01*
X218965916Y-69456415D01*
X218951741Y-69403511D01*
X218951738Y-69403502D01*
X218919217Y-69333761D01*
X218855568Y-69197266D01*
X218725047Y-69010861D01*
X218725045Y-69010858D01*
X218564141Y-68849954D01*
X218377734Y-68719432D01*
X218377732Y-68719431D01*
X218171497Y-68623261D01*
X218171488Y-68623258D01*
X217951697Y-68564366D01*
X217951693Y-68564365D01*
X217951692Y-68564365D01*
X217951691Y-68564364D01*
X217951686Y-68564364D01*
X217725002Y-68544532D01*
X217724998Y-68544532D01*
X217498313Y-68564364D01*
X217498302Y-68564366D01*
X217278511Y-68623258D01*
X217278502Y-68623261D01*
X217072267Y-68719431D01*
X217072265Y-68719432D01*
X216885858Y-68849954D01*
X216724954Y-69010858D01*
X216594432Y-69197265D01*
X216594431Y-69197267D01*
X216498261Y-69403502D01*
X216498258Y-69403511D01*
X216439366Y-69623302D01*
X216439364Y-69623313D01*
X216419532Y-69849998D01*
X216419532Y-69850001D01*
X214030468Y-69850001D01*
X214030468Y-69850000D01*
X214028916Y-69832266D01*
X214014946Y-69672582D01*
X214010635Y-69623308D01*
X213965916Y-69456415D01*
X213951741Y-69403511D01*
X213951738Y-69403502D01*
X213919217Y-69333761D01*
X213855568Y-69197266D01*
X213725047Y-69010861D01*
X213725045Y-69010858D01*
X213564141Y-68849954D01*
X213377734Y-68719432D01*
X213377732Y-68719431D01*
X213171497Y-68623261D01*
X213171488Y-68623258D01*
X212951697Y-68564366D01*
X212951693Y-68564365D01*
X212951692Y-68564365D01*
X212951691Y-68564364D01*
X212951686Y-68564364D01*
X212725002Y-68544532D01*
X212724998Y-68544532D01*
X212498313Y-68564364D01*
X212498302Y-68564366D01*
X212278511Y-68623258D01*
X212278502Y-68623261D01*
X212072267Y-68719431D01*
X212072265Y-68719432D01*
X211885858Y-68849954D01*
X211724954Y-69010858D01*
X211594432Y-69197265D01*
X211594431Y-69197267D01*
X211498261Y-69403502D01*
X211498258Y-69403511D01*
X211439366Y-69623302D01*
X211439364Y-69623313D01*
X211419532Y-69849998D01*
X211419532Y-69850001D01*
X207135111Y-69850001D01*
X207126925Y-69832491D01*
X207125500Y-69813749D01*
X207125500Y-67037228D01*
X207145185Y-66970189D01*
X207161814Y-66949551D01*
X208130638Y-65980727D01*
X208144267Y-65968950D01*
X208163530Y-65954610D01*
X208163532Y-65954606D01*
X208163534Y-65954606D01*
X208187382Y-65926184D01*
X208197113Y-65914585D01*
X208200767Y-65910599D01*
X208206589Y-65904778D01*
X208226928Y-65879054D01*
X208242875Y-65860049D01*
X208276302Y-65820214D01*
X208276304Y-65820209D01*
X208280272Y-65814179D01*
X208280323Y-65814212D01*
X208284369Y-65807860D01*
X208284317Y-65807828D01*
X208288109Y-65801679D01*
X208288111Y-65801677D01*
X208320569Y-65732069D01*
X208355040Y-65663433D01*
X208355043Y-65663417D01*
X208357510Y-65656644D01*
X208357568Y-65656665D01*
X208360043Y-65649546D01*
X208359985Y-65649527D01*
X208362256Y-65642672D01*
X208364525Y-65631686D01*
X208377784Y-65567467D01*
X208395500Y-65492721D01*
X208395500Y-65492720D01*
X208396339Y-65485548D01*
X208396397Y-65485554D01*
X208397164Y-65478056D01*
X208397104Y-65478051D01*
X208397733Y-65470860D01*
X208395817Y-65405001D01*
X211419532Y-65405001D01*
X211439364Y-65631686D01*
X211439366Y-65631697D01*
X211498258Y-65851488D01*
X211498261Y-65851497D01*
X211594431Y-66057732D01*
X211594432Y-66057734D01*
X211724954Y-66244141D01*
X211885858Y-66405045D01*
X211885861Y-66405047D01*
X212072266Y-66535568D01*
X212278504Y-66631739D01*
X212498308Y-66690635D01*
X212660230Y-66704801D01*
X212724998Y-66710468D01*
X212725000Y-66710468D01*
X212725002Y-66710468D01*
X212781673Y-66705509D01*
X212951692Y-66690635D01*
X213171496Y-66631739D01*
X213377734Y-66535568D01*
X213564139Y-66405047D01*
X213725047Y-66244139D01*
X213780925Y-66164335D01*
X213835501Y-66120711D01*
X213904999Y-66113517D01*
X213967354Y-66145039D01*
X213984075Y-66164336D01*
X214039954Y-66244141D01*
X214200858Y-66405045D01*
X214200861Y-66405047D01*
X214387266Y-66535568D01*
X214593504Y-66631739D01*
X214813308Y-66690635D01*
X214975230Y-66704801D01*
X215039998Y-66710468D01*
X215040000Y-66710468D01*
X215040002Y-66710468D01*
X215096672Y-66705509D01*
X215266692Y-66690635D01*
X215486496Y-66631739D01*
X215692734Y-66535568D01*
X215879139Y-66405047D01*
X216040047Y-66244139D01*
X216170568Y-66057734D01*
X216197895Y-65999129D01*
X216244064Y-65946695D01*
X216311257Y-65927542D01*
X216378139Y-65947757D01*
X216422657Y-65999133D01*
X216449865Y-66057481D01*
X216449866Y-66057483D01*
X216500973Y-66130471D01*
X216500973Y-66130472D01*
X217042580Y-65588865D01*
X217103903Y-65555380D01*
X217173594Y-65560364D01*
X217229528Y-65602235D01*
X217240742Y-65620246D01*
X217246527Y-65631599D01*
X217252358Y-65643044D01*
X217252363Y-65643050D01*
X217341949Y-65732636D01*
X217341951Y-65732637D01*
X217341955Y-65732641D01*
X217364747Y-65744254D01*
X217415542Y-65792228D01*
X217432337Y-65860049D01*
X217409799Y-65926184D01*
X217396132Y-65942419D01*
X216854526Y-66484025D01*
X216854526Y-66484026D01*
X216927512Y-66535131D01*
X216927516Y-66535133D01*
X217133673Y-66631265D01*
X217133682Y-66631269D01*
X217353389Y-66690139D01*
X217353400Y-66690141D01*
X217579998Y-66709966D01*
X217580002Y-66709966D01*
X217806599Y-66690141D01*
X217806610Y-66690139D01*
X218026317Y-66631269D01*
X218026331Y-66631264D01*
X218232478Y-66535136D01*
X218305472Y-66484025D01*
X217763866Y-65942419D01*
X217730381Y-65881096D01*
X217735365Y-65811404D01*
X217777237Y-65755471D01*
X217795245Y-65744258D01*
X217818045Y-65732641D01*
X217907641Y-65643045D01*
X217919254Y-65620252D01*
X217967225Y-65569458D01*
X218035046Y-65552661D01*
X218101181Y-65575197D01*
X218117419Y-65588866D01*
X218659025Y-66130472D01*
X218710136Y-66057478D01*
X218806264Y-65851331D01*
X218806269Y-65851317D01*
X218865139Y-65631610D01*
X218865141Y-65631599D01*
X218884966Y-65405002D01*
X218884966Y-65405001D01*
X220309532Y-65405001D01*
X220329364Y-65631686D01*
X220329366Y-65631697D01*
X220388258Y-65851488D01*
X220388261Y-65851497D01*
X220484431Y-66057732D01*
X220484432Y-66057734D01*
X220614954Y-66244141D01*
X220775858Y-66405045D01*
X220775861Y-66405047D01*
X220962266Y-66535568D01*
X221168504Y-66631739D01*
X221388308Y-66690635D01*
X221550230Y-66704801D01*
X221614998Y-66710468D01*
X221615000Y-66710468D01*
X221615002Y-66710468D01*
X221671673Y-66705509D01*
X221841692Y-66690635D01*
X222061496Y-66631739D01*
X222267734Y-66535568D01*
X222454139Y-66405047D01*
X222615047Y-66244139D01*
X222745568Y-66057734D01*
X222753837Y-66040001D01*
X223544532Y-66040001D01*
X223564364Y-66266686D01*
X223564366Y-66266697D01*
X223623258Y-66486488D01*
X223623261Y-66486497D01*
X223719431Y-66692732D01*
X223719432Y-66692734D01*
X223849954Y-66879141D01*
X224010858Y-67040045D01*
X224010861Y-67040047D01*
X224197266Y-67170568D01*
X224403504Y-67266739D01*
X224623308Y-67325635D01*
X224785230Y-67339801D01*
X224849998Y-67345468D01*
X224850000Y-67345468D01*
X224850002Y-67345468D01*
X224906673Y-67340509D01*
X225076692Y-67325635D01*
X225296496Y-67266739D01*
X225502734Y-67170568D01*
X225689139Y-67040047D01*
X225850047Y-66879139D01*
X225980568Y-66692734D01*
X226076739Y-66486496D01*
X226135635Y-66266692D01*
X226153916Y-66057736D01*
X226155468Y-66040001D01*
X231044532Y-66040001D01*
X231064364Y-66266686D01*
X231064366Y-66266697D01*
X231123258Y-66486488D01*
X231123261Y-66486497D01*
X231219431Y-66692732D01*
X231219432Y-66692734D01*
X231349954Y-66879141D01*
X231510858Y-67040045D01*
X231510861Y-67040047D01*
X231697266Y-67170568D01*
X231903504Y-67266739D01*
X232123308Y-67325635D01*
X232285230Y-67339801D01*
X232349998Y-67345468D01*
X232350000Y-67345468D01*
X232350002Y-67345468D01*
X232406672Y-67340509D01*
X232576692Y-67325635D01*
X232796496Y-67266739D01*
X233002734Y-67170568D01*
X233189139Y-67040047D01*
X233350047Y-66879139D01*
X233480568Y-66692734D01*
X233576739Y-66486496D01*
X233635635Y-66266692D01*
X233653916Y-66057736D01*
X233655468Y-66040001D01*
X233655468Y-66039998D01*
X233644147Y-65910599D01*
X233635635Y-65813308D01*
X233586949Y-65631610D01*
X233576741Y-65593511D01*
X233576738Y-65593502D01*
X233529742Y-65492720D01*
X233480568Y-65387266D01*
X233373811Y-65234800D01*
X233350045Y-65200858D01*
X233189141Y-65039954D01*
X233002734Y-64909432D01*
X233002732Y-64909431D01*
X232796497Y-64813261D01*
X232796488Y-64813258D01*
X232576697Y-64754366D01*
X232576693Y-64754365D01*
X232576692Y-64754365D01*
X232576691Y-64754364D01*
X232576686Y-64754364D01*
X232350002Y-64734532D01*
X232349998Y-64734532D01*
X232123313Y-64754364D01*
X232123302Y-64754366D01*
X231903511Y-64813258D01*
X231903502Y-64813261D01*
X231697267Y-64909431D01*
X231697265Y-64909432D01*
X231510858Y-65039954D01*
X231349954Y-65200858D01*
X231219432Y-65387265D01*
X231219431Y-65387267D01*
X231123261Y-65593502D01*
X231123258Y-65593511D01*
X231064366Y-65813302D01*
X231064364Y-65813313D01*
X231044532Y-66039998D01*
X231044532Y-66040001D01*
X226155468Y-66040001D01*
X226155468Y-66039998D01*
X226144147Y-65910599D01*
X226135635Y-65813308D01*
X226086949Y-65631610D01*
X226076741Y-65593511D01*
X226076738Y-65593502D01*
X226029742Y-65492720D01*
X225980568Y-65387266D01*
X225873811Y-65234800D01*
X225850045Y-65200858D01*
X225689141Y-65039954D01*
X225502734Y-64909432D01*
X225502732Y-64909431D01*
X225296497Y-64813261D01*
X225296488Y-64813258D01*
X225076697Y-64754366D01*
X225076693Y-64754365D01*
X225076692Y-64754365D01*
X225076691Y-64754364D01*
X225076686Y-64754364D01*
X224850002Y-64734532D01*
X224849998Y-64734532D01*
X224623313Y-64754364D01*
X224623302Y-64754366D01*
X224403511Y-64813258D01*
X224403502Y-64813261D01*
X224197267Y-64909431D01*
X224197265Y-64909432D01*
X224010858Y-65039954D01*
X223849954Y-65200858D01*
X223719432Y-65387265D01*
X223719431Y-65387267D01*
X223623261Y-65593502D01*
X223623258Y-65593511D01*
X223564366Y-65813302D01*
X223564364Y-65813313D01*
X223544532Y-66039998D01*
X223544532Y-66040001D01*
X222753837Y-66040001D01*
X222841739Y-65851496D01*
X222900635Y-65631692D01*
X222920468Y-65405000D01*
X222918916Y-65387266D01*
X222905577Y-65234800D01*
X222900635Y-65178308D01*
X222854198Y-65005000D01*
X222841741Y-64958511D01*
X222841738Y-64958502D01*
X222818856Y-64909431D01*
X222745568Y-64752266D01*
X222615047Y-64565861D01*
X222615045Y-64565858D01*
X222454141Y-64404954D01*
X222267734Y-64274432D01*
X222267732Y-64274431D01*
X222061497Y-64178261D01*
X222061488Y-64178258D01*
X221841697Y-64119366D01*
X221841693Y-64119365D01*
X221841692Y-64119365D01*
X221841691Y-64119364D01*
X221841686Y-64119364D01*
X221615002Y-64099532D01*
X221614998Y-64099532D01*
X221388313Y-64119364D01*
X221388302Y-64119366D01*
X221168511Y-64178258D01*
X221168502Y-64178261D01*
X220962267Y-64274431D01*
X220962265Y-64274432D01*
X220775858Y-64404954D01*
X220614954Y-64565858D01*
X220484432Y-64752265D01*
X220484431Y-64752267D01*
X220388261Y-64958502D01*
X220388258Y-64958511D01*
X220329366Y-65178302D01*
X220329364Y-65178313D01*
X220309532Y-65404998D01*
X220309532Y-65405001D01*
X218884966Y-65405001D01*
X218884966Y-65404997D01*
X218865141Y-65178400D01*
X218865139Y-65178389D01*
X218806269Y-64958682D01*
X218806265Y-64958673D01*
X218710133Y-64752516D01*
X218710131Y-64752512D01*
X218659026Y-64679526D01*
X218659025Y-64679526D01*
X218117419Y-65221132D01*
X218056096Y-65254617D01*
X217986404Y-65249633D01*
X217930471Y-65207761D01*
X217919256Y-65189751D01*
X217907641Y-65166955D01*
X217907637Y-65166951D01*
X217907636Y-65166949D01*
X217818050Y-65077363D01*
X217818044Y-65077358D01*
X217808109Y-65072296D01*
X217795250Y-65065744D01*
X217744456Y-65017773D01*
X217727660Y-64949952D01*
X217750197Y-64883817D01*
X217763865Y-64867580D01*
X218305472Y-64325973D01*
X218232483Y-64274866D01*
X218232481Y-64274865D01*
X218026326Y-64178734D01*
X218026317Y-64178730D01*
X217806610Y-64119860D01*
X217806599Y-64119858D01*
X217580002Y-64100034D01*
X217579998Y-64100034D01*
X217353400Y-64119858D01*
X217353389Y-64119860D01*
X217133682Y-64178730D01*
X217133673Y-64178734D01*
X216927513Y-64274868D01*
X216854526Y-64325973D01*
X217396133Y-64867580D01*
X217429618Y-64928903D01*
X217424634Y-64998595D01*
X217382762Y-65054528D01*
X217364748Y-65065745D01*
X217341956Y-65077358D01*
X217341949Y-65077363D01*
X217252363Y-65166949D01*
X217252358Y-65166956D01*
X217240745Y-65189748D01*
X217192770Y-65240544D01*
X217124949Y-65257338D01*
X217058814Y-65234800D01*
X217042580Y-65221133D01*
X216500973Y-64679526D01*
X216449869Y-64752511D01*
X216422657Y-64810867D01*
X216376484Y-64863306D01*
X216309290Y-64882457D01*
X216242409Y-64862241D01*
X216197893Y-64810865D01*
X216197499Y-64810021D01*
X216170568Y-64752266D01*
X216040047Y-64565861D01*
X216040045Y-64565858D01*
X215879141Y-64404954D01*
X215692734Y-64274432D01*
X215692732Y-64274431D01*
X215486497Y-64178261D01*
X215486488Y-64178258D01*
X215266697Y-64119366D01*
X215266693Y-64119365D01*
X215266692Y-64119365D01*
X215266691Y-64119364D01*
X215266686Y-64119364D01*
X215040002Y-64099532D01*
X215039998Y-64099532D01*
X214813313Y-64119364D01*
X214813302Y-64119366D01*
X214593511Y-64178258D01*
X214593502Y-64178261D01*
X214387267Y-64274431D01*
X214387265Y-64274432D01*
X214200858Y-64404954D01*
X214039954Y-64565858D01*
X213984075Y-64645663D01*
X213929498Y-64689288D01*
X213860000Y-64696482D01*
X213797645Y-64664959D01*
X213780925Y-64645663D01*
X213725045Y-64565858D01*
X213564141Y-64404954D01*
X213377734Y-64274432D01*
X213377732Y-64274431D01*
X213171497Y-64178261D01*
X213171488Y-64178258D01*
X212951697Y-64119366D01*
X212951693Y-64119365D01*
X212951692Y-64119365D01*
X212951691Y-64119364D01*
X212951686Y-64119364D01*
X212725002Y-64099532D01*
X212724998Y-64099532D01*
X212498313Y-64119364D01*
X212498302Y-64119366D01*
X212278511Y-64178258D01*
X212278502Y-64178261D01*
X212072267Y-64274431D01*
X212072265Y-64274432D01*
X211885858Y-64404954D01*
X211724954Y-64565858D01*
X211594432Y-64752265D01*
X211594431Y-64752267D01*
X211498261Y-64958502D01*
X211498258Y-64958511D01*
X211439366Y-65178302D01*
X211439364Y-65178313D01*
X211419532Y-65404998D01*
X211419532Y-65405001D01*
X208395817Y-65405001D01*
X208395500Y-65394103D01*
X208395500Y-63261250D01*
X208415185Y-63194211D01*
X208467989Y-63148456D01*
X208537147Y-63138512D01*
X208555488Y-63142588D01*
X208713967Y-63190662D01*
X208915000Y-63210462D01*
X209116033Y-63190662D01*
X209309341Y-63132023D01*
X209309916Y-63131716D01*
X209434502Y-63065123D01*
X209487494Y-63036798D01*
X209643647Y-62908647D01*
X209771798Y-62752494D01*
X209867023Y-62574341D01*
X209925662Y-62381033D01*
X209940500Y-62230380D01*
X209940500Y-61679620D01*
X209925662Y-61528967D01*
X209867023Y-61335659D01*
X209867021Y-61335656D01*
X209867021Y-61335654D01*
X209771801Y-61157511D01*
X209771799Y-61157509D01*
X209771798Y-61157506D01*
X209732824Y-61110016D01*
X209643647Y-61001352D01*
X209487495Y-60873203D01*
X209487488Y-60873198D01*
X209309345Y-60777978D01*
X209116031Y-60719337D01*
X208915000Y-60699538D01*
X208713968Y-60719337D01*
X208520654Y-60777978D01*
X208338453Y-60875367D01*
X208270050Y-60889609D01*
X208221547Y-60875367D01*
X208039345Y-60777978D01*
X207846031Y-60719337D01*
X207645000Y-60699538D01*
X207443968Y-60719337D01*
X207305959Y-60761202D01*
X207250659Y-60777977D01*
X207250658Y-60777977D01*
X207249575Y-60778306D01*
X207179708Y-60778929D01*
X207150618Y-60764529D01*
X207150114Y-60765454D01*
X207142328Y-60761202D01*
X207007482Y-60710908D01*
X207007483Y-60710908D01*
X206947883Y-60704501D01*
X206947881Y-60704500D01*
X206947873Y-60704500D01*
X206947864Y-60704500D01*
X205802129Y-60704500D01*
X205802123Y-60704501D01*
X205742516Y-60710908D01*
X205607671Y-60761202D01*
X205607664Y-60761206D01*
X205492455Y-60847452D01*
X205492452Y-60847455D01*
X205406206Y-60962664D01*
X205406202Y-60962671D01*
X205355908Y-61097517D01*
X205349501Y-61157116D01*
X205349500Y-61157135D01*
X205349500Y-61514216D01*
X205329815Y-61581255D01*
X205313181Y-61601897D01*
X204406531Y-62508547D01*
X204341946Y-62569942D01*
X204306899Y-62620294D01*
X204304062Y-62624056D01*
X204265302Y-62671592D01*
X204265299Y-62671597D01*
X204249392Y-62702047D01*
X204245324Y-62708761D01*
X204225702Y-62736954D01*
X204201509Y-62793330D01*
X204199488Y-62797584D01*
X204171091Y-62851951D01*
X204171090Y-62851952D01*
X204161640Y-62884975D01*
X204159007Y-62892371D01*
X204145459Y-62923943D01*
X204133113Y-62984019D01*
X204131990Y-62988595D01*
X204115113Y-63047577D01*
X204115113Y-63047579D01*
X204112503Y-63081841D01*
X204111414Y-63089608D01*
X204105980Y-63116052D01*
X204104500Y-63123258D01*
X204104500Y-63184597D01*
X204104321Y-63189306D01*
X204099662Y-63250474D01*
X204101035Y-63261250D01*
X204104003Y-63284560D01*
X204104500Y-63292388D01*
X204104500Y-64527410D01*
X204084815Y-64594449D01*
X204082076Y-64598532D01*
X203974431Y-64752267D01*
X203878261Y-64958502D01*
X203878258Y-64958511D01*
X203819366Y-65178302D01*
X203819364Y-65178313D01*
X203799532Y-65404998D01*
X203799532Y-65405001D01*
X203819364Y-65631686D01*
X203819366Y-65631697D01*
X203878258Y-65851488D01*
X203878261Y-65851497D01*
X203974431Y-66057732D01*
X203974432Y-66057734D01*
X204082074Y-66211465D01*
X204104402Y-66277672D01*
X204104499Y-66282588D01*
X204104499Y-68749217D01*
X204084814Y-68816256D01*
X204068180Y-68836898D01*
X203771532Y-69133546D01*
X203706946Y-69194942D01*
X203671899Y-69245294D01*
X203669062Y-69249056D01*
X203630302Y-69296592D01*
X203630299Y-69296597D01*
X203614392Y-69327047D01*
X203610324Y-69333761D01*
X203590702Y-69361954D01*
X203566509Y-69418330D01*
X203564488Y-69422584D01*
X203536091Y-69476951D01*
X203536090Y-69476952D01*
X203526640Y-69509975D01*
X203524007Y-69517371D01*
X203510459Y-69548943D01*
X203498113Y-69609019D01*
X203496990Y-69613595D01*
X203480113Y-69672577D01*
X203480113Y-69672579D01*
X203477503Y-69706841D01*
X203476414Y-69714608D01*
X203470980Y-69741052D01*
X203469500Y-69748258D01*
X203469500Y-69809597D01*
X203469321Y-69814306D01*
X203464662Y-69875473D01*
X200000500Y-69875473D01*
X200000500Y-58010001D01*
X205069532Y-58010001D01*
X205089364Y-58236686D01*
X205089366Y-58236697D01*
X205148258Y-58456488D01*
X205148261Y-58456497D01*
X205244431Y-58662732D01*
X205244432Y-58662734D01*
X205374954Y-58849141D01*
X205535858Y-59010045D01*
X205535861Y-59010047D01*
X205722266Y-59140568D01*
X205928504Y-59236739D01*
X206148308Y-59295635D01*
X206310230Y-59309801D01*
X206374998Y-59315468D01*
X206375000Y-59315468D01*
X206375002Y-59315468D01*
X206431673Y-59310509D01*
X206601692Y-59295635D01*
X206821496Y-59236739D01*
X207027734Y-59140568D01*
X207214139Y-59010047D01*
X207375047Y-58849139D01*
X207505568Y-58662734D01*
X207601739Y-58456496D01*
X207660635Y-58236692D01*
X207680468Y-58010001D01*
X208244532Y-58010001D01*
X208264364Y-58236686D01*
X208264366Y-58236697D01*
X208323258Y-58456488D01*
X208323261Y-58456497D01*
X208419431Y-58662732D01*
X208419432Y-58662734D01*
X208549954Y-58849141D01*
X208710858Y-59010045D01*
X208710861Y-59010047D01*
X208897266Y-59140568D01*
X209103504Y-59236739D01*
X209323308Y-59295635D01*
X209485230Y-59309801D01*
X209549998Y-59315468D01*
X209550000Y-59315468D01*
X209550002Y-59315468D01*
X209606672Y-59310509D01*
X209776692Y-59295635D01*
X209996496Y-59236739D01*
X210202734Y-59140568D01*
X210324937Y-59055001D01*
X215454532Y-59055001D01*
X215474364Y-59281686D01*
X215474366Y-59281697D01*
X215533258Y-59501488D01*
X215533261Y-59501497D01*
X215629431Y-59707732D01*
X215629432Y-59707734D01*
X215759954Y-59894141D01*
X215920858Y-60055045D01*
X215920861Y-60055047D01*
X216107266Y-60185568D01*
X216313504Y-60281739D01*
X216533308Y-60340635D01*
X216695230Y-60354801D01*
X216759998Y-60360468D01*
X216760000Y-60360468D01*
X216760002Y-60360468D01*
X216816672Y-60355509D01*
X216986692Y-60340635D01*
X217206496Y-60281739D01*
X217412734Y-60185568D01*
X217599139Y-60055047D01*
X217760047Y-59894139D01*
X217890568Y-59707734D01*
X217917618Y-59649724D01*
X217963790Y-59597285D01*
X218030983Y-59578133D01*
X218097865Y-59598348D01*
X218142382Y-59649725D01*
X218169429Y-59707728D01*
X218169432Y-59707734D01*
X218299954Y-59894141D01*
X218460858Y-60055045D01*
X218460861Y-60055047D01*
X218647266Y-60185568D01*
X218853504Y-60281739D01*
X219073308Y-60340635D01*
X219235230Y-60354801D01*
X219299998Y-60360468D01*
X219300000Y-60360468D01*
X219300002Y-60360468D01*
X219356673Y-60355509D01*
X219526692Y-60340635D01*
X219746496Y-60281739D01*
X219952734Y-60185568D01*
X220139139Y-60055047D01*
X220300047Y-59894139D01*
X220430568Y-59707734D01*
X220526739Y-59501496D01*
X220585635Y-59281692D01*
X220605468Y-59055000D01*
X220585635Y-58828308D01*
X220533753Y-58634680D01*
X220526741Y-58608511D01*
X220526738Y-58608502D01*
X220511093Y-58574952D01*
X220430568Y-58402266D01*
X220300047Y-58215861D01*
X220300045Y-58215858D01*
X220246228Y-58162041D01*
X221250000Y-58162041D01*
X221265385Y-58347730D01*
X221265387Y-58347738D01*
X221326412Y-58588717D01*
X221426267Y-58816367D01*
X221562232Y-59024478D01*
X221730592Y-59207364D01*
X221730602Y-59207373D01*
X221926762Y-59360051D01*
X221926771Y-59360057D01*
X222145385Y-59478364D01*
X222145396Y-59478369D01*
X222380507Y-59559083D01*
X222499999Y-59579023D01*
X222500000Y-59579022D01*
X222500000Y-58713346D01*
X222519685Y-58646307D01*
X222572489Y-58600552D01*
X222641647Y-58590608D01*
X222658937Y-58594370D01*
X222678108Y-58599999D01*
X222678110Y-58600000D01*
X222678111Y-58600000D01*
X222821890Y-58600000D01*
X222821890Y-58599999D01*
X222841063Y-58594369D01*
X222910932Y-58594368D01*
X222969711Y-58632141D01*
X222998737Y-58695696D01*
X223000000Y-58713346D01*
X223000000Y-59579023D01*
X223119492Y-59559083D01*
X223354603Y-59478369D01*
X223354614Y-59478364D01*
X223573228Y-59360057D01*
X223573237Y-59360051D01*
X223769397Y-59207373D01*
X223769407Y-59207364D01*
X223937767Y-59024478D01*
X224073732Y-58816367D01*
X224173587Y-58588717D01*
X224234612Y-58347738D01*
X224234614Y-58347730D01*
X224250000Y-58162041D01*
X224250000Y-57600000D01*
X223374000Y-57600000D01*
X223306961Y-57580315D01*
X223261206Y-57527511D01*
X223250000Y-57476000D01*
X223250000Y-57224000D01*
X223269685Y-57156961D01*
X223322489Y-57111206D01*
X223374000Y-57100000D01*
X224250000Y-57100000D01*
X224250000Y-56537959D01*
X224234614Y-56352269D01*
X224234612Y-56352261D01*
X224173587Y-56111282D01*
X224073732Y-55883632D01*
X223937767Y-55675521D01*
X223769407Y-55492635D01*
X223769397Y-55492626D01*
X223573237Y-55339948D01*
X223573228Y-55339942D01*
X223354614Y-55221635D01*
X223354603Y-55221630D01*
X223119492Y-55140916D01*
X223000000Y-55120976D01*
X223000000Y-55986653D01*
X222980315Y-56053692D01*
X222927511Y-56099447D01*
X222858353Y-56109391D01*
X222841067Y-56105631D01*
X222821889Y-56100000D01*
X222678111Y-56100000D01*
X222658933Y-56105631D01*
X222589064Y-56105630D01*
X222530286Y-56067855D01*
X222501262Y-56004299D01*
X222500000Y-55986653D01*
X222500000Y-55120976D01*
X222499999Y-55120976D01*
X222380507Y-55140916D01*
X222145396Y-55221630D01*
X222145385Y-55221635D01*
X221926771Y-55339942D01*
X221926762Y-55339948D01*
X221730602Y-55492626D01*
X221730592Y-55492635D01*
X221562232Y-55675521D01*
X221426267Y-55883632D01*
X221326412Y-56111282D01*
X221265387Y-56352261D01*
X221265385Y-56352269D01*
X221250000Y-56537959D01*
X221250000Y-57100000D01*
X222126000Y-57100000D01*
X222193039Y-57119685D01*
X222238794Y-57172489D01*
X222250000Y-57224000D01*
X222250000Y-57476000D01*
X222230315Y-57543039D01*
X222177511Y-57588794D01*
X222126000Y-57600000D01*
X221250000Y-57600000D01*
X221250000Y-58162041D01*
X220246228Y-58162041D01*
X220139141Y-58054954D01*
X219952734Y-57924432D01*
X219952732Y-57924431D01*
X219746497Y-57828261D01*
X219746488Y-57828258D01*
X219526697Y-57769366D01*
X219526693Y-57769365D01*
X219526692Y-57769365D01*
X219526691Y-57769364D01*
X219526686Y-57769364D01*
X219300002Y-57749532D01*
X219299998Y-57749532D01*
X219073313Y-57769364D01*
X219073302Y-57769366D01*
X218853511Y-57828258D01*
X218853502Y-57828261D01*
X218647267Y-57924431D01*
X218647265Y-57924432D01*
X218460858Y-58054954D01*
X218299954Y-58215858D01*
X218169432Y-58402265D01*
X218169431Y-58402267D01*
X218142382Y-58460275D01*
X218096209Y-58512714D01*
X218029016Y-58531866D01*
X217962135Y-58511650D01*
X217917618Y-58460275D01*
X217890568Y-58402267D01*
X217890567Y-58402265D01*
X217888097Y-58398738D01*
X217760047Y-58215861D01*
X217760045Y-58215858D01*
X217599141Y-58054954D01*
X217412734Y-57924432D01*
X217412732Y-57924431D01*
X217206497Y-57828261D01*
X217206488Y-57828258D01*
X216986697Y-57769366D01*
X216986693Y-57769365D01*
X216986692Y-57769365D01*
X216986691Y-57769364D01*
X216986686Y-57769364D01*
X216760002Y-57749532D01*
X216759998Y-57749532D01*
X216533313Y-57769364D01*
X216533302Y-57769366D01*
X216313511Y-57828258D01*
X216313502Y-57828261D01*
X216107267Y-57924431D01*
X216107265Y-57924432D01*
X215920858Y-58054954D01*
X215759954Y-58215858D01*
X215629432Y-58402265D01*
X215629431Y-58402267D01*
X215533261Y-58608502D01*
X215533258Y-58608511D01*
X215474366Y-58828302D01*
X215474364Y-58828313D01*
X215454532Y-59054998D01*
X215454532Y-59055001D01*
X210324937Y-59055001D01*
X210389139Y-59010047D01*
X210550047Y-58849139D01*
X210680568Y-58662734D01*
X210776739Y-58456496D01*
X210835635Y-58236692D01*
X210855468Y-58010000D01*
X210835635Y-57783308D01*
X210783515Y-57588794D01*
X210776741Y-57563511D01*
X210776738Y-57563502D01*
X210680568Y-57357267D01*
X210680567Y-57357265D01*
X210550045Y-57170858D01*
X210389141Y-57009954D01*
X210202735Y-56879433D01*
X210202736Y-56879433D01*
X210202734Y-56879432D01*
X210144132Y-56852105D01*
X210091694Y-56805933D01*
X210072543Y-56738739D01*
X210092759Y-56671858D01*
X210144135Y-56627341D01*
X210202482Y-56600133D01*
X210275472Y-56549025D01*
X209733866Y-56007419D01*
X209700381Y-55946096D01*
X209705365Y-55876404D01*
X209747237Y-55820471D01*
X209765245Y-55809258D01*
X209788045Y-55797641D01*
X209877641Y-55708045D01*
X209889254Y-55685252D01*
X209937225Y-55634458D01*
X210005046Y-55617661D01*
X210071181Y-55640197D01*
X210087419Y-55653866D01*
X210629025Y-56195472D01*
X210680136Y-56122478D01*
X210776264Y-55916331D01*
X210776269Y-55916317D01*
X210786000Y-55880001D01*
X215454532Y-55880001D01*
X215474364Y-56106686D01*
X215474366Y-56106697D01*
X215533258Y-56326488D01*
X215533261Y-56326497D01*
X215629431Y-56532732D01*
X215629432Y-56532734D01*
X215759954Y-56719141D01*
X215920858Y-56880045D01*
X215920861Y-56880047D01*
X216107266Y-57010568D01*
X216313504Y-57106739D01*
X216533308Y-57165635D01*
X216695230Y-57179801D01*
X216759998Y-57185468D01*
X216760000Y-57185468D01*
X216760002Y-57185468D01*
X216816672Y-57180509D01*
X216986692Y-57165635D01*
X217206496Y-57106739D01*
X217412734Y-57010568D01*
X217599139Y-56880047D01*
X217760047Y-56719139D01*
X217890568Y-56532734D01*
X217917618Y-56474724D01*
X217963790Y-56422285D01*
X218030983Y-56403133D01*
X218097865Y-56423348D01*
X218142381Y-56474724D01*
X218145884Y-56482235D01*
X218169429Y-56532728D01*
X218169432Y-56532734D01*
X218299954Y-56719141D01*
X218460858Y-56880045D01*
X218460861Y-56880047D01*
X218647266Y-57010568D01*
X218853504Y-57106739D01*
X219073308Y-57165635D01*
X219235230Y-57179801D01*
X219299998Y-57185468D01*
X219300000Y-57185468D01*
X219300002Y-57185468D01*
X219356673Y-57180509D01*
X219526692Y-57165635D01*
X219746496Y-57106739D01*
X219952734Y-57010568D01*
X220139139Y-56880047D01*
X220300047Y-56719139D01*
X220430568Y-56532734D01*
X220526739Y-56326496D01*
X220585635Y-56106692D01*
X220605468Y-55880000D01*
X220605153Y-55876404D01*
X220598898Y-55804900D01*
X220585635Y-55653308D01*
X220526739Y-55433504D01*
X220430568Y-55227266D01*
X220300047Y-55040861D01*
X220300045Y-55040858D01*
X220139141Y-54879954D01*
X219952734Y-54749432D01*
X219952732Y-54749431D01*
X219746497Y-54653261D01*
X219746488Y-54653258D01*
X219526697Y-54594366D01*
X219526693Y-54594365D01*
X219526692Y-54594365D01*
X219526691Y-54594364D01*
X219526686Y-54594364D01*
X219300002Y-54574532D01*
X219299998Y-54574532D01*
X219073313Y-54594364D01*
X219073302Y-54594366D01*
X218853511Y-54653258D01*
X218853502Y-54653261D01*
X218647267Y-54749431D01*
X218647265Y-54749432D01*
X218460858Y-54879954D01*
X218299954Y-55040858D01*
X218169432Y-55227265D01*
X218169431Y-55227267D01*
X218142382Y-55285275D01*
X218096209Y-55337714D01*
X218029016Y-55356866D01*
X217962135Y-55336650D01*
X217917618Y-55285275D01*
X217911783Y-55272761D01*
X217890568Y-55227266D01*
X217760047Y-55040861D01*
X217760045Y-55040858D01*
X217599141Y-54879954D01*
X217412734Y-54749432D01*
X217412732Y-54749431D01*
X217206497Y-54653261D01*
X217206488Y-54653258D01*
X216986697Y-54594366D01*
X216986693Y-54594365D01*
X216986692Y-54594365D01*
X216986691Y-54594364D01*
X216986686Y-54594364D01*
X216760002Y-54574532D01*
X216759998Y-54574532D01*
X216533313Y-54594364D01*
X216533302Y-54594366D01*
X216313511Y-54653258D01*
X216313502Y-54653261D01*
X216107267Y-54749431D01*
X216107265Y-54749432D01*
X215920858Y-54879954D01*
X215759954Y-55040858D01*
X215629432Y-55227265D01*
X215629431Y-55227267D01*
X215533261Y-55433502D01*
X215533258Y-55433511D01*
X215474366Y-55653302D01*
X215474364Y-55653313D01*
X215454532Y-55879998D01*
X215454532Y-55880001D01*
X210786000Y-55880001D01*
X210835139Y-55696610D01*
X210835141Y-55696599D01*
X210854966Y-55470002D01*
X210854966Y-55469997D01*
X210835141Y-55243400D01*
X210835139Y-55243389D01*
X210776269Y-55023682D01*
X210776265Y-55023673D01*
X210680133Y-54817516D01*
X210680131Y-54817512D01*
X210629026Y-54744526D01*
X210629025Y-54744526D01*
X210087419Y-55286132D01*
X210026096Y-55319617D01*
X209956404Y-55314633D01*
X209900471Y-55272761D01*
X209889256Y-55254751D01*
X209877641Y-55231955D01*
X209877637Y-55231951D01*
X209877636Y-55231949D01*
X209788050Y-55142363D01*
X209788044Y-55142358D01*
X209778109Y-55137296D01*
X209765250Y-55130744D01*
X209714456Y-55082773D01*
X209697660Y-55014952D01*
X209720197Y-54948817D01*
X209733865Y-54932580D01*
X210275472Y-54390973D01*
X210202483Y-54339866D01*
X210202481Y-54339865D01*
X209996326Y-54243734D01*
X209996317Y-54243730D01*
X209776610Y-54184860D01*
X209776599Y-54184858D01*
X209550002Y-54165034D01*
X209549998Y-54165034D01*
X209323400Y-54184858D01*
X209323389Y-54184860D01*
X209103682Y-54243730D01*
X209103673Y-54243734D01*
X208897513Y-54339868D01*
X208824526Y-54390973D01*
X209366133Y-54932580D01*
X209399618Y-54993903D01*
X209394634Y-55063595D01*
X209352762Y-55119528D01*
X209334748Y-55130745D01*
X209311956Y-55142358D01*
X209311949Y-55142363D01*
X209222363Y-55231949D01*
X209222358Y-55231956D01*
X209210745Y-55254748D01*
X209162770Y-55305544D01*
X209094949Y-55322338D01*
X209028814Y-55299800D01*
X209012580Y-55286133D01*
X208470973Y-54744526D01*
X208419868Y-54817513D01*
X208323734Y-55023673D01*
X208323730Y-55023682D01*
X208264860Y-55243389D01*
X208264858Y-55243400D01*
X208245034Y-55469997D01*
X208245034Y-55470002D01*
X208264858Y-55696599D01*
X208264860Y-55696610D01*
X208323730Y-55916317D01*
X208323734Y-55916326D01*
X208419865Y-56122481D01*
X208419866Y-56122483D01*
X208470973Y-56195471D01*
X208470973Y-56195472D01*
X209012580Y-55653865D01*
X209073903Y-55620380D01*
X209143594Y-55625364D01*
X209199528Y-55667235D01*
X209210742Y-55685246D01*
X209216527Y-55696599D01*
X209222358Y-55708044D01*
X209222363Y-55708050D01*
X209311949Y-55797636D01*
X209311951Y-55797637D01*
X209311955Y-55797641D01*
X209334747Y-55809254D01*
X209385542Y-55857228D01*
X209402337Y-55925049D01*
X209379799Y-55991184D01*
X209366132Y-56007419D01*
X208824526Y-56549025D01*
X208824526Y-56549026D01*
X208897512Y-56600131D01*
X208897520Y-56600135D01*
X208955865Y-56627342D01*
X209008305Y-56673514D01*
X209027457Y-56740707D01*
X209007242Y-56807589D01*
X208955867Y-56852105D01*
X208901990Y-56877229D01*
X208897264Y-56879433D01*
X208710858Y-57009954D01*
X208549954Y-57170858D01*
X208419432Y-57357265D01*
X208419431Y-57357267D01*
X208323261Y-57563502D01*
X208323258Y-57563511D01*
X208264366Y-57783302D01*
X208264364Y-57783313D01*
X208244532Y-58009998D01*
X208244532Y-58010001D01*
X207680468Y-58010001D01*
X207680468Y-58010000D01*
X207660635Y-57783308D01*
X207608515Y-57588794D01*
X207601741Y-57563511D01*
X207601738Y-57563502D01*
X207505568Y-57357267D01*
X207505567Y-57357265D01*
X207375045Y-57170858D01*
X207214141Y-57009954D01*
X207027735Y-56879433D01*
X207027736Y-56879433D01*
X207027734Y-56879432D01*
X206969132Y-56852105D01*
X206916694Y-56805933D01*
X206897543Y-56738739D01*
X206917759Y-56671858D01*
X206969135Y-56627341D01*
X207027482Y-56600133D01*
X207100472Y-56549025D01*
X206558866Y-56007419D01*
X206525381Y-55946096D01*
X206530365Y-55876404D01*
X206572237Y-55820471D01*
X206590245Y-55809258D01*
X206613045Y-55797641D01*
X206702641Y-55708045D01*
X206714254Y-55685252D01*
X206762225Y-55634458D01*
X206830046Y-55617661D01*
X206896181Y-55640197D01*
X206912419Y-55653866D01*
X207454025Y-56195472D01*
X207505136Y-56122478D01*
X207601264Y-55916331D01*
X207601269Y-55916317D01*
X207660139Y-55696610D01*
X207660141Y-55696599D01*
X207679966Y-55470002D01*
X207679966Y-55469997D01*
X207660141Y-55243400D01*
X207660139Y-55243389D01*
X207601269Y-55023682D01*
X207601265Y-55023673D01*
X207505133Y-54817516D01*
X207505131Y-54817512D01*
X207454026Y-54744526D01*
X207454025Y-54744526D01*
X206912419Y-55286132D01*
X206851096Y-55319617D01*
X206781404Y-55314633D01*
X206725471Y-55272761D01*
X206714256Y-55254751D01*
X206702641Y-55231955D01*
X206702637Y-55231951D01*
X206702636Y-55231949D01*
X206613050Y-55142363D01*
X206613044Y-55142358D01*
X206603109Y-55137296D01*
X206590250Y-55130744D01*
X206539456Y-55082773D01*
X206522660Y-55014952D01*
X206545197Y-54948817D01*
X206558865Y-54932580D01*
X207100472Y-54390973D01*
X207027483Y-54339866D01*
X207027481Y-54339865D01*
X206821326Y-54243734D01*
X206821317Y-54243730D01*
X206601610Y-54184860D01*
X206601599Y-54184858D01*
X206375002Y-54165034D01*
X206374998Y-54165034D01*
X206148400Y-54184858D01*
X206148389Y-54184860D01*
X205928682Y-54243730D01*
X205928673Y-54243734D01*
X205722513Y-54339868D01*
X205649526Y-54390973D01*
X206191133Y-54932580D01*
X206224618Y-54993903D01*
X206219634Y-55063595D01*
X206177762Y-55119528D01*
X206159748Y-55130745D01*
X206136956Y-55142358D01*
X206136949Y-55142363D01*
X206047363Y-55231949D01*
X206047358Y-55231956D01*
X206035745Y-55254748D01*
X205987770Y-55305544D01*
X205919949Y-55322338D01*
X205853814Y-55299800D01*
X205837580Y-55286133D01*
X205295973Y-54744526D01*
X205244868Y-54817513D01*
X205148734Y-55023673D01*
X205148730Y-55023682D01*
X205089860Y-55243389D01*
X205089858Y-55243400D01*
X205070034Y-55469997D01*
X205070034Y-55470002D01*
X205089858Y-55696599D01*
X205089860Y-55696610D01*
X205148730Y-55916317D01*
X205148734Y-55916326D01*
X205244865Y-56122481D01*
X205244866Y-56122483D01*
X205295973Y-56195471D01*
X205295973Y-56195472D01*
X205837580Y-55653865D01*
X205898903Y-55620380D01*
X205968594Y-55625364D01*
X206024528Y-55667235D01*
X206035742Y-55685246D01*
X206041527Y-55696599D01*
X206047358Y-55708044D01*
X206047363Y-55708050D01*
X206136949Y-55797636D01*
X206136951Y-55797637D01*
X206136955Y-55797641D01*
X206159747Y-55809254D01*
X206210542Y-55857228D01*
X206227337Y-55925049D01*
X206204799Y-55991184D01*
X206191132Y-56007419D01*
X205649526Y-56549025D01*
X205649526Y-56549026D01*
X205722512Y-56600131D01*
X205722520Y-56600135D01*
X205780865Y-56627342D01*
X205833305Y-56673514D01*
X205852457Y-56740707D01*
X205832242Y-56807589D01*
X205780867Y-56852105D01*
X205726990Y-56877229D01*
X205722264Y-56879433D01*
X205535858Y-57009954D01*
X205374954Y-57170858D01*
X205244432Y-57357265D01*
X205244431Y-57357267D01*
X205148261Y-57563502D01*
X205148258Y-57563511D01*
X205089366Y-57783302D01*
X205089364Y-57783313D01*
X205069532Y-58009998D01*
X205069532Y-58010001D01*
X200000500Y-58010001D01*
X200000500Y-52705001D01*
X215454532Y-52705001D01*
X215474364Y-52931686D01*
X215474366Y-52931697D01*
X215533258Y-53151488D01*
X215533261Y-53151497D01*
X215629431Y-53357732D01*
X215629432Y-53357734D01*
X215759954Y-53544141D01*
X215920858Y-53705045D01*
X215920861Y-53705047D01*
X216107266Y-53835568D01*
X216313504Y-53931739D01*
X216533308Y-53990635D01*
X216695230Y-54004801D01*
X216759998Y-54010468D01*
X216760000Y-54010468D01*
X216760002Y-54010468D01*
X216816673Y-54005509D01*
X216986692Y-53990635D01*
X217206496Y-53931739D01*
X217412734Y-53835568D01*
X217599139Y-53705047D01*
X217760047Y-53544139D01*
X217890568Y-53357734D01*
X217917618Y-53299724D01*
X217963790Y-53247285D01*
X218030983Y-53228133D01*
X218097865Y-53248348D01*
X218142382Y-53299725D01*
X218169429Y-53357728D01*
X218169432Y-53357734D01*
X218299954Y-53544141D01*
X218460858Y-53705045D01*
X218460861Y-53705047D01*
X218647266Y-53835568D01*
X218853504Y-53931739D01*
X219073308Y-53990635D01*
X219235230Y-54004801D01*
X219299998Y-54010468D01*
X219300000Y-54010468D01*
X219300002Y-54010468D01*
X219356673Y-54005509D01*
X219526692Y-53990635D01*
X219746496Y-53931739D01*
X219952734Y-53835568D01*
X220139139Y-53705047D01*
X220300047Y-53544139D01*
X220430568Y-53357734D01*
X220526739Y-53151496D01*
X220585635Y-52931692D01*
X220605468Y-52705000D01*
X220585635Y-52478308D01*
X220526739Y-52258504D01*
X220430568Y-52052266D01*
X220300047Y-51865861D01*
X220300045Y-51865858D01*
X220284188Y-51850001D01*
X224794532Y-51850001D01*
X224814364Y-52076686D01*
X224814366Y-52076697D01*
X224873258Y-52296488D01*
X224873261Y-52296497D01*
X224969431Y-52502732D01*
X224969432Y-52502734D01*
X225099954Y-52689141D01*
X225260858Y-52850045D01*
X225260861Y-52850047D01*
X225447266Y-52980568D01*
X225462975Y-52987893D01*
X225515414Y-53034064D01*
X225534567Y-53101257D01*
X225514352Y-53168138D01*
X225462979Y-53212656D01*
X225447512Y-53219868D01*
X225374526Y-53270973D01*
X225916133Y-53812580D01*
X225949618Y-53873903D01*
X225944634Y-53943595D01*
X225902762Y-53999528D01*
X225884748Y-54010745D01*
X225861956Y-54022358D01*
X225861949Y-54022363D01*
X225772363Y-54111949D01*
X225772358Y-54111956D01*
X225760745Y-54134748D01*
X225712770Y-54185544D01*
X225644949Y-54202338D01*
X225578814Y-54179800D01*
X225562580Y-54166133D01*
X225020973Y-53624526D01*
X224969868Y-53697513D01*
X224873734Y-53903673D01*
X224873730Y-53903682D01*
X224814860Y-54123389D01*
X224814858Y-54123400D01*
X224795034Y-54349997D01*
X224795034Y-54350002D01*
X224814858Y-54576599D01*
X224814860Y-54576610D01*
X224873730Y-54796317D01*
X224873734Y-54796326D01*
X224969865Y-55002481D01*
X224969866Y-55002483D01*
X225020973Y-55075471D01*
X225020973Y-55075472D01*
X225562580Y-54533865D01*
X225623903Y-54500380D01*
X225693594Y-54505364D01*
X225749528Y-54547235D01*
X225760742Y-54565246D01*
X225765474Y-54574532D01*
X225772358Y-54588044D01*
X225772363Y-54588050D01*
X225861949Y-54677636D01*
X225861951Y-54677637D01*
X225861955Y-54677641D01*
X225884747Y-54689254D01*
X225935542Y-54737228D01*
X225952337Y-54805049D01*
X225929799Y-54871184D01*
X225916132Y-54887419D01*
X225374526Y-55429025D01*
X225374526Y-55429026D01*
X225447512Y-55480131D01*
X225447516Y-55480133D01*
X225653673Y-55576265D01*
X225653682Y-55576269D01*
X225873389Y-55635139D01*
X225873400Y-55635141D01*
X226099998Y-55654966D01*
X226100002Y-55654966D01*
X226326599Y-55635141D01*
X226326610Y-55635139D01*
X226546317Y-55576269D01*
X226546331Y-55576264D01*
X226752478Y-55480136D01*
X226825472Y-55429025D01*
X226283866Y-54887419D01*
X226250381Y-54826096D01*
X226255365Y-54756404D01*
X226297237Y-54700471D01*
X226315245Y-54689258D01*
X226338045Y-54677641D01*
X226427641Y-54588045D01*
X226439254Y-54565252D01*
X226487225Y-54514458D01*
X226555046Y-54497661D01*
X226621181Y-54520197D01*
X226637419Y-54533866D01*
X227021767Y-54918213D01*
X227046468Y-54953488D01*
X227069431Y-55002733D01*
X227199954Y-55189141D01*
X227360858Y-55350045D01*
X227360861Y-55350047D01*
X227547266Y-55480568D01*
X227753504Y-55576739D01*
X227973308Y-55635635D01*
X228135230Y-55649801D01*
X228199998Y-55655468D01*
X228200000Y-55655468D01*
X228200002Y-55655468D01*
X228256796Y-55650499D01*
X228426692Y-55635635D01*
X228646496Y-55576739D01*
X228852734Y-55480568D01*
X229039139Y-55350047D01*
X229200047Y-55189139D01*
X229273928Y-55083624D01*
X229328500Y-55040002D01*
X229397998Y-55032808D01*
X229460354Y-55064330D01*
X229495768Y-55124559D01*
X229499500Y-55154747D01*
X229499500Y-55197868D01*
X229499501Y-55197876D01*
X229505908Y-55257483D01*
X229556202Y-55392328D01*
X229556206Y-55392335D01*
X229642452Y-55507544D01*
X229642455Y-55507547D01*
X229757664Y-55593793D01*
X229757671Y-55593797D01*
X229802618Y-55610561D01*
X229892517Y-55644091D01*
X229952127Y-55650500D01*
X230432769Y-55650499D01*
X230499808Y-55670183D01*
X230520450Y-55686818D01*
X231623180Y-56789548D01*
X231656665Y-56850871D01*
X231659499Y-56877229D01*
X231659499Y-56895894D01*
X231639814Y-56962933D01*
X231587010Y-57008688D01*
X231517852Y-57018632D01*
X231454296Y-56989607D01*
X231451515Y-56987123D01*
X231424474Y-56962229D01*
X231216367Y-56826267D01*
X230988717Y-56726412D01*
X230747738Y-56665387D01*
X230747730Y-56665385D01*
X230562041Y-56650000D01*
X229750000Y-56650000D01*
X229750000Y-57526000D01*
X229730315Y-57593039D01*
X229677511Y-57638794D01*
X229626000Y-57650000D01*
X229374000Y-57650000D01*
X229306961Y-57630315D01*
X229261206Y-57577511D01*
X229250000Y-57526000D01*
X229250000Y-56650000D01*
X228437959Y-56650000D01*
X228252269Y-56665385D01*
X228252261Y-56665387D01*
X228011282Y-56726412D01*
X227783632Y-56826267D01*
X227575521Y-56962232D01*
X227392635Y-57130592D01*
X227392626Y-57130602D01*
X227239948Y-57326762D01*
X227239942Y-57326771D01*
X227121635Y-57545385D01*
X227121630Y-57545396D01*
X227040916Y-57780507D01*
X227020976Y-57899999D01*
X227020978Y-57900000D01*
X227886653Y-57900000D01*
X227953692Y-57919685D01*
X227999447Y-57972489D01*
X228009391Y-58041647D01*
X228005631Y-58058933D01*
X228000000Y-58078111D01*
X228000000Y-58221888D01*
X228005631Y-58241067D01*
X228005630Y-58310936D01*
X227967855Y-58369714D01*
X227904299Y-58398738D01*
X227886653Y-58400000D01*
X227020977Y-58400000D01*
X227040916Y-58519492D01*
X227121630Y-58754603D01*
X227121635Y-58754614D01*
X227239942Y-58973228D01*
X227239948Y-58973237D01*
X227392626Y-59169397D01*
X227392635Y-59169407D01*
X227575522Y-59337767D01*
X227575521Y-59337767D01*
X227783632Y-59473732D01*
X228011282Y-59573587D01*
X228252261Y-59634612D01*
X228252269Y-59634614D01*
X228437959Y-59650000D01*
X229250000Y-59650000D01*
X229250000Y-58774000D01*
X229269685Y-58706961D01*
X229322489Y-58661206D01*
X229374000Y-58650000D01*
X229626000Y-58650000D01*
X229693039Y-58669685D01*
X229738794Y-58722489D01*
X229750000Y-58774000D01*
X229750000Y-59650000D01*
X230562041Y-59650000D01*
X230747730Y-59634614D01*
X230747738Y-59634612D01*
X230988717Y-59573587D01*
X231216368Y-59473732D01*
X231220802Y-59470835D01*
X231287690Y-59450643D01*
X231354877Y-59469818D01*
X231401031Y-59522274D01*
X231411498Y-59591355D01*
X231382956Y-59655129D01*
X231376311Y-59662320D01*
X228447228Y-62591402D01*
X228385905Y-62624887D01*
X228385329Y-62625011D01*
X228320196Y-62638856D01*
X228320192Y-62638857D01*
X228147270Y-62715848D01*
X228147265Y-62715851D01*
X227994129Y-62827111D01*
X227867466Y-62967785D01*
X227772821Y-63131715D01*
X227772818Y-63131722D01*
X227720615Y-63292388D01*
X227714326Y-63311744D01*
X227694540Y-63500000D01*
X227714326Y-63688256D01*
X227714327Y-63688259D01*
X227772818Y-63868277D01*
X227772821Y-63868284D01*
X227867467Y-64032216D01*
X227994128Y-64172888D01*
X227994129Y-64172888D01*
X228147265Y-64284148D01*
X228147270Y-64284151D01*
X228320192Y-64361142D01*
X228320197Y-64361144D01*
X228505354Y-64400500D01*
X228505355Y-64400500D01*
X228694644Y-64400500D01*
X228694646Y-64400500D01*
X228879803Y-64361144D01*
X229052730Y-64284151D01*
X229205871Y-64172888D01*
X229332533Y-64032216D01*
X229427179Y-63868284D01*
X229482522Y-63697955D01*
X229512769Y-63648597D01*
X232895638Y-60265727D01*
X232909267Y-60253950D01*
X232928530Y-60239610D01*
X232928532Y-60239606D01*
X232928534Y-60239606D01*
X232946663Y-60217999D01*
X232962113Y-60199585D01*
X232965767Y-60195599D01*
X232971591Y-60189776D01*
X232991930Y-60164052D01*
X233041302Y-60105214D01*
X233041306Y-60105205D01*
X233045274Y-60099175D01*
X233045325Y-60099208D01*
X233049369Y-60092860D01*
X233049317Y-60092828D01*
X233053104Y-60086685D01*
X233053111Y-60086677D01*
X233085572Y-60017063D01*
X233120040Y-59948433D01*
X233120041Y-59948427D01*
X233122508Y-59941650D01*
X233122566Y-59941671D01*
X233125043Y-59934544D01*
X233124986Y-59934526D01*
X233127255Y-59927679D01*
X233127256Y-59927674D01*
X233127257Y-59927672D01*
X233142790Y-59852441D01*
X233160500Y-59777721D01*
X233160500Y-59777719D01*
X233161339Y-59770548D01*
X233161398Y-59770554D01*
X233162164Y-59763054D01*
X233162105Y-59763049D01*
X233162734Y-59755859D01*
X233160500Y-59679082D01*
X233160500Y-58162041D01*
X234750000Y-58162041D01*
X234765385Y-58347730D01*
X234765387Y-58347738D01*
X234826412Y-58588717D01*
X234926267Y-58816367D01*
X235062232Y-59024478D01*
X235230592Y-59207364D01*
X235230602Y-59207373D01*
X235426762Y-59360051D01*
X235426771Y-59360057D01*
X235645385Y-59478364D01*
X235645396Y-59478369D01*
X235880507Y-59559083D01*
X235999999Y-59579023D01*
X236000000Y-59579022D01*
X236000000Y-58713346D01*
X236019685Y-58646307D01*
X236072489Y-58600552D01*
X236141647Y-58590608D01*
X236158937Y-58594370D01*
X236178108Y-58599999D01*
X236178110Y-58600000D01*
X236178111Y-58600000D01*
X236321890Y-58600000D01*
X236321890Y-58599999D01*
X236341063Y-58594369D01*
X236410932Y-58594368D01*
X236469711Y-58632141D01*
X236498737Y-58695696D01*
X236500000Y-58713346D01*
X236500000Y-59579023D01*
X236619492Y-59559083D01*
X236854603Y-59478369D01*
X236854614Y-59478364D01*
X237073228Y-59360057D01*
X237073237Y-59360051D01*
X237269397Y-59207373D01*
X237269407Y-59207364D01*
X237437767Y-59024478D01*
X237573732Y-58816367D01*
X237673587Y-58588717D01*
X237734612Y-58347738D01*
X237734614Y-58347730D01*
X237750000Y-58162041D01*
X237750000Y-57600000D01*
X236874000Y-57600000D01*
X236806961Y-57580315D01*
X236761206Y-57527511D01*
X236750000Y-57476000D01*
X236750000Y-57224000D01*
X236769685Y-57156961D01*
X236822489Y-57111206D01*
X236874000Y-57100000D01*
X237750000Y-57100000D01*
X237750000Y-56537959D01*
X237734614Y-56352269D01*
X237734612Y-56352261D01*
X237673587Y-56111282D01*
X237573732Y-55883632D01*
X237437767Y-55675521D01*
X237269407Y-55492635D01*
X237269397Y-55492626D01*
X237073237Y-55339948D01*
X237073228Y-55339942D01*
X236854614Y-55221635D01*
X236854603Y-55221630D01*
X236619492Y-55140916D01*
X236500000Y-55120976D01*
X236500000Y-55986653D01*
X236480315Y-56053692D01*
X236427511Y-56099447D01*
X236358353Y-56109391D01*
X236341067Y-56105631D01*
X236321889Y-56100000D01*
X236178111Y-56100000D01*
X236158933Y-56105631D01*
X236089064Y-56105630D01*
X236030286Y-56067855D01*
X236001262Y-56004299D01*
X236000000Y-55986653D01*
X235999999Y-55120976D01*
X235880507Y-55140916D01*
X235645396Y-55221630D01*
X235645385Y-55221635D01*
X235426771Y-55339942D01*
X235426762Y-55339948D01*
X235230602Y-55492626D01*
X235230592Y-55492635D01*
X235062232Y-55675521D01*
X234926267Y-55883632D01*
X234826412Y-56111282D01*
X234765387Y-56352261D01*
X234765385Y-56352269D01*
X234750000Y-56537959D01*
X234750000Y-57100000D01*
X235626000Y-57100000D01*
X235693039Y-57119685D01*
X235738794Y-57172489D01*
X235750000Y-57224000D01*
X235750000Y-57476000D01*
X235730315Y-57543039D01*
X235677511Y-57588794D01*
X235626000Y-57600000D01*
X234750000Y-57600000D01*
X234750000Y-58162041D01*
X233160500Y-58162041D01*
X233160499Y-56578704D01*
X233161809Y-56560728D01*
X233165289Y-56536977D01*
X233164917Y-56532728D01*
X233160736Y-56484934D01*
X233160500Y-56479528D01*
X233160500Y-56471297D01*
X233160500Y-56471291D01*
X233156693Y-56438724D01*
X233149999Y-56362203D01*
X233149999Y-56362201D01*
X233148539Y-56355129D01*
X233148597Y-56355116D01*
X233146965Y-56347757D01*
X233146906Y-56347772D01*
X233145242Y-56340753D01*
X233145241Y-56340745D01*
X233118974Y-56268576D01*
X233094814Y-56195666D01*
X233094809Y-56195659D01*
X233091760Y-56189118D01*
X233091815Y-56189091D01*
X233088533Y-56182313D01*
X233088480Y-56182340D01*
X233085235Y-56175880D01*
X233043028Y-56111708D01*
X233002710Y-56046342D01*
X232998234Y-56040682D01*
X232998281Y-56040644D01*
X232993519Y-56034799D01*
X232993474Y-56034838D01*
X232988834Y-56029309D01*
X232988832Y-56029307D01*
X232988830Y-56029304D01*
X232958061Y-56000275D01*
X232932965Y-55976597D01*
X232872684Y-55916317D01*
X232822587Y-55866220D01*
X232789104Y-55804900D01*
X232794088Y-55735208D01*
X232835959Y-55679274D01*
X232899463Y-55655013D01*
X233126599Y-55635141D01*
X233126610Y-55635139D01*
X233346317Y-55576269D01*
X233346331Y-55576264D01*
X233552478Y-55480136D01*
X233625472Y-55429025D01*
X233083866Y-54887419D01*
X233050381Y-54826096D01*
X233055365Y-54756404D01*
X233097237Y-54700471D01*
X233115245Y-54689258D01*
X233138045Y-54677641D01*
X233227641Y-54588045D01*
X233239254Y-54565252D01*
X233287225Y-54514458D01*
X233355046Y-54497661D01*
X233421181Y-54520197D01*
X233437419Y-54533866D01*
X233979025Y-55075472D01*
X234030136Y-55002478D01*
X234126264Y-54796331D01*
X234126269Y-54796317D01*
X234185139Y-54576610D01*
X234185141Y-54576599D01*
X234204966Y-54350002D01*
X234204966Y-54349997D01*
X234185141Y-54123400D01*
X234185139Y-54123389D01*
X234126269Y-53903682D01*
X234126265Y-53903673D01*
X234030133Y-53697516D01*
X234030131Y-53697512D01*
X233979026Y-53624526D01*
X233979025Y-53624526D01*
X233437419Y-54166132D01*
X233376096Y-54199617D01*
X233306404Y-54194633D01*
X233250471Y-54152761D01*
X233239256Y-54134751D01*
X233227641Y-54111955D01*
X233227637Y-54111951D01*
X233227636Y-54111949D01*
X233138050Y-54022363D01*
X233138044Y-54022358D01*
X233128109Y-54017296D01*
X233115250Y-54010744D01*
X233064456Y-53962773D01*
X233047660Y-53894952D01*
X233070197Y-53828817D01*
X233083865Y-53812580D01*
X233625472Y-53270973D01*
X233552483Y-53219866D01*
X233552481Y-53219865D01*
X233537023Y-53212657D01*
X233484584Y-53166484D01*
X233465432Y-53099290D01*
X233485648Y-53032409D01*
X233537023Y-52987893D01*
X233552734Y-52980568D01*
X233739139Y-52850047D01*
X233900047Y-52689139D01*
X234030568Y-52502734D01*
X234126739Y-52296496D01*
X234185635Y-52076692D01*
X234205468Y-51850000D01*
X234185635Y-51623308D01*
X234126739Y-51403504D01*
X234030568Y-51197266D01*
X233900047Y-51010861D01*
X233900045Y-51010858D01*
X233739141Y-50849954D01*
X233552734Y-50719432D01*
X233552732Y-50719431D01*
X233346497Y-50623261D01*
X233346488Y-50623258D01*
X233126697Y-50564366D01*
X233126693Y-50564365D01*
X233126692Y-50564365D01*
X233126691Y-50564364D01*
X233126686Y-50564364D01*
X232900002Y-50544532D01*
X232899998Y-50544532D01*
X232673313Y-50564364D01*
X232673302Y-50564366D01*
X232453511Y-50623258D01*
X232453502Y-50623261D01*
X232247267Y-50719431D01*
X232247265Y-50719432D01*
X232060858Y-50849954D01*
X231899954Y-51010858D01*
X231769432Y-51197265D01*
X231769431Y-51197267D01*
X231673261Y-51403502D01*
X231673258Y-51403511D01*
X231614366Y-51623302D01*
X231614364Y-51623313D01*
X231594532Y-51849998D01*
X231594532Y-51850001D01*
X231614364Y-52076686D01*
X231614366Y-52076697D01*
X231673258Y-52296488D01*
X231673261Y-52296497D01*
X231769431Y-52502732D01*
X231769432Y-52502734D01*
X231899954Y-52689141D01*
X232060858Y-52850045D01*
X232060861Y-52850047D01*
X232247266Y-52980568D01*
X232262975Y-52987893D01*
X232315414Y-53034064D01*
X232334567Y-53101257D01*
X232314352Y-53168138D01*
X232262979Y-53212656D01*
X232247514Y-53219867D01*
X232247512Y-53219869D01*
X232169133Y-53274750D01*
X232102927Y-53297077D01*
X232035159Y-53280067D01*
X231998744Y-53247487D01*
X231972669Y-53212656D01*
X231957546Y-53192454D01*
X231957544Y-53192453D01*
X231957544Y-53192452D01*
X231842335Y-53106206D01*
X231842328Y-53106202D01*
X231707482Y-53055908D01*
X231707483Y-53055908D01*
X231647883Y-53049501D01*
X231647881Y-53049500D01*
X231647873Y-53049500D01*
X231647864Y-53049500D01*
X229952129Y-53049500D01*
X229952123Y-53049501D01*
X229892516Y-53055908D01*
X229757671Y-53106202D01*
X229757664Y-53106206D01*
X229642455Y-53192452D01*
X229642452Y-53192455D01*
X229556206Y-53307664D01*
X229556202Y-53307671D01*
X229505908Y-53442517D01*
X229499501Y-53502116D01*
X229499500Y-53502135D01*
X229499500Y-53545247D01*
X229479815Y-53612286D01*
X229427011Y-53658041D01*
X229357853Y-53667985D01*
X229294297Y-53638960D01*
X229273925Y-53616370D01*
X229200045Y-53510858D01*
X229039141Y-53349954D01*
X228852734Y-53219432D01*
X228852732Y-53219431D01*
X228646497Y-53123261D01*
X228646488Y-53123258D01*
X228426697Y-53064366D01*
X228426693Y-53064365D01*
X228426692Y-53064365D01*
X228426691Y-53064364D01*
X228426686Y-53064364D01*
X228200002Y-53044532D01*
X228199998Y-53044532D01*
X227973313Y-53064364D01*
X227973302Y-53064366D01*
X227753511Y-53123258D01*
X227753502Y-53123261D01*
X227547267Y-53219431D01*
X227547265Y-53219432D01*
X227360858Y-53349954D01*
X227199954Y-53510858D01*
X227069432Y-53697264D01*
X227069430Y-53697268D01*
X227046467Y-53746511D01*
X227021767Y-53781785D01*
X226637419Y-54166132D01*
X226576096Y-54199617D01*
X226506404Y-54194633D01*
X226450471Y-54152761D01*
X226439256Y-54134751D01*
X226427641Y-54111955D01*
X226427637Y-54111951D01*
X226427636Y-54111949D01*
X226338050Y-54022363D01*
X226338044Y-54022358D01*
X226328109Y-54017296D01*
X226315250Y-54010744D01*
X226264456Y-53962773D01*
X226247660Y-53894952D01*
X226270197Y-53828817D01*
X226283865Y-53812580D01*
X226825472Y-53270973D01*
X226752483Y-53219866D01*
X226752481Y-53219865D01*
X226737023Y-53212657D01*
X226684584Y-53166484D01*
X226665432Y-53099290D01*
X226685648Y-53032409D01*
X226737023Y-52987893D01*
X226752734Y-52980568D01*
X226939139Y-52850047D01*
X227100047Y-52689139D01*
X227230568Y-52502734D01*
X227326739Y-52296496D01*
X227385635Y-52076692D01*
X227405468Y-51850000D01*
X227385635Y-51623308D01*
X227326739Y-51403504D01*
X227230568Y-51197266D01*
X227100047Y-51010861D01*
X227100045Y-51010858D01*
X226939141Y-50849954D01*
X226752734Y-50719432D01*
X226752732Y-50719431D01*
X226546497Y-50623261D01*
X226546488Y-50623258D01*
X226326697Y-50564366D01*
X226326693Y-50564365D01*
X226326692Y-50564365D01*
X226326691Y-50564364D01*
X226326686Y-50564364D01*
X226100002Y-50544532D01*
X226099998Y-50544532D01*
X225873313Y-50564364D01*
X225873302Y-50564366D01*
X225653511Y-50623258D01*
X225653502Y-50623261D01*
X225447267Y-50719431D01*
X225447265Y-50719432D01*
X225260858Y-50849954D01*
X225099954Y-51010858D01*
X224969432Y-51197265D01*
X224969431Y-51197267D01*
X224873261Y-51403502D01*
X224873258Y-51403511D01*
X224814366Y-51623302D01*
X224814364Y-51623313D01*
X224794532Y-51849998D01*
X224794532Y-51850001D01*
X220284188Y-51850001D01*
X220139141Y-51704954D01*
X219952734Y-51574432D01*
X219952732Y-51574431D01*
X219746497Y-51478261D01*
X219746488Y-51478258D01*
X219526697Y-51419366D01*
X219526693Y-51419365D01*
X219526692Y-51419365D01*
X219526691Y-51419364D01*
X219526686Y-51419364D01*
X219300002Y-51399532D01*
X219299998Y-51399532D01*
X219073313Y-51419364D01*
X219073302Y-51419366D01*
X218853511Y-51478258D01*
X218853502Y-51478261D01*
X218647267Y-51574431D01*
X218647265Y-51574432D01*
X218460858Y-51704954D01*
X218299954Y-51865858D01*
X218169432Y-52052265D01*
X218169431Y-52052267D01*
X218142382Y-52110275D01*
X218096209Y-52162714D01*
X218029016Y-52181866D01*
X217962135Y-52161650D01*
X217917618Y-52110275D01*
X217890568Y-52052267D01*
X217890567Y-52052265D01*
X217760045Y-51865858D01*
X217599141Y-51704954D01*
X217412734Y-51574432D01*
X217412732Y-51574431D01*
X217206497Y-51478261D01*
X217206488Y-51478258D01*
X216986697Y-51419366D01*
X216986693Y-51419365D01*
X216986692Y-51419365D01*
X216986691Y-51419364D01*
X216986686Y-51419364D01*
X216760002Y-51399532D01*
X216759998Y-51399532D01*
X216533313Y-51419364D01*
X216533302Y-51419366D01*
X216313511Y-51478258D01*
X216313502Y-51478261D01*
X216107267Y-51574431D01*
X216107265Y-51574432D01*
X215920858Y-51704954D01*
X215759954Y-51865858D01*
X215629432Y-52052265D01*
X215629431Y-52052267D01*
X215533261Y-52258502D01*
X215533258Y-52258511D01*
X215474366Y-52478302D01*
X215474364Y-52478313D01*
X215454532Y-52704998D01*
X215454532Y-52705001D01*
X200000500Y-52705001D01*
X200000500Y-50124500D01*
X200020185Y-50057461D01*
X200072989Y-50011706D01*
X200124500Y-50000500D01*
X237875500Y-50000500D01*
X237942539Y-50020185D01*
G37*
%TD.AperFunction*%
%TD*%
M02*
