M48
; DRILL file {KiCad 7.0.9-7.0.9~ubuntu22.04.1} date Mi 20 Dez 2023 14:54:54 CET
; FORMAT={-:-/ absolute / inch / decimal}
; #@! TF.CreationDate,2023-12-20T14:54:54+01:00
; #@! TF.GenerationSoftware,Kicad,Pcbnew,7.0.9-7.0.9~ubuntu22.04.1
; #@! TF.FileFunction,Plated,1,2,PTH
FMAT,2
INCH
; #@! TA.AperFunction,Plated,PTH,ViaDrill
T1C0.0157
; #@! TA.AperFunction,Plated,PTH,ComponentDrill
T2C0.0295
; #@! TA.AperFunction,Plated,PTH,ComponentDrill
T3C0.0315
; #@! TA.AperFunction,Plated,PTH,ComponentDrill
T4C0.0394
%
G90
G05
T1
X8.425Y-3.125
T2
X8.0Y-3.25
X8.0Y-3.3
X8.0Y-3.35
X8.125Y-2.4392
X8.125Y-2.8
X8.175Y-2.4392
X8.175Y-2.8
X8.2Y-3.25
X8.2Y-3.3
X8.2Y-3.35
X8.225Y-2.4392
X8.225Y-2.8
X8.425Y-3.25
X8.425Y-3.3
X8.425Y-3.35
T3
X7.95Y-3.475
X7.95Y-3.6
X7.95Y-3.775
X8.05Y-3.475
X8.05Y-3.6
X8.075Y-2.575
X8.075Y-3.075
X8.0758Y-2.95
X8.125Y-2.1839
X8.125Y-2.2839
X8.1742Y-2.95
X8.175Y-3.075
X8.2Y-3.475
X8.2Y-3.6
X8.2453Y-3.775
X8.25Y-2.1839
X8.25Y-2.2839
X8.3Y-2.925
X8.3Y-3.475
X8.3Y-3.6
X8.3047Y-3.1
X8.35Y-3.75
X8.35Y-3.85
X8.375Y-2.575
X8.375Y-2.75
X8.45Y-3.475
X8.45Y-3.575
X8.4661Y-2.575
X8.5339Y-2.075
X8.5339Y-2.2
X8.5339Y-2.325
X8.55Y-3.725
X8.55Y-3.8234
X8.5661Y-2.575
X8.5719Y-2.75
X8.575Y-3.25
X8.575Y-3.35
X8.575Y-3.475
X8.575Y-3.575
X8.6Y-2.925
X8.6Y-3.1
X8.6339Y-2.075
X8.6339Y-2.2
X8.6339Y-2.325
X8.6996Y-2.9252
X8.6996Y-3.0252
X8.6996Y-3.1252
X8.6996Y-3.2252
X8.6996Y-3.3252
X8.6996Y-3.4252
X8.6996Y-3.5252
X8.725Y-2.575
X8.725Y-2.7719
X8.75Y-3.675
X8.75Y-3.825
X8.8524Y-2.6
X8.9Y-2.775
X8.9016Y-2.3016
X8.9016Y-2.4
X8.9469Y-3.675
X8.9843Y-2.3016
X8.9996Y-2.9252
X8.9996Y-3.0252
X8.9996Y-3.1252
X8.9996Y-3.2252
X8.9996Y-3.3252
X8.9996Y-3.4252
X8.9996Y-3.5252
X9.0Y-2.775
X9.0866Y-2.3016
X9.1476Y-2.6
X9.15Y-3.825
X9.1693Y-2.3016
X9.1693Y-2.4
T4
X7.85Y-2.8998
X7.85Y-2.9998
X8.5248Y-1.95
X8.6248Y-1.95
X9.125Y-2.75
X9.125Y-2.85
X9.125Y-2.95
X9.125Y-3.05
X9.125Y-3.15
X9.125Y-3.45
X9.125Y-3.55
X9.125Y-3.65
T4
G00X8.7697Y-2.213
M15
G01X8.7697Y-2.1539
M16
G05
G00X9.0748Y-2.152
M15
G01X8.9961Y-2.152
M16
G05
G00X9.3012Y-2.213
M15
G01X9.3012Y-2.1539
M16
G05
T0
M30
