%TF.GenerationSoftware,KiCad,Pcbnew,7.0.9-7.0.9~ubuntu22.04.1*%
%TF.CreationDate,2023-12-20T14:54:54+01:00*%
%TF.ProjectId,CoCo2VideoMod,436f436f-3256-4696-9465-6f4d6f642e6b,rev?*%
%TF.SameCoordinates,Original*%
%TF.FileFunction,Legend,Top*%
%TF.FilePolarity,Positive*%
%FSLAX46Y46*%
G04 Gerber Fmt 4.6, Leading zero omitted, Abs format (unit mm)*
G04 Created by KiCad (PCBNEW 7.0.9-7.0.9~ubuntu22.04.1) date 2023-12-20 14:54:54*
%MOMM*%
%LPD*%
G01*
G04 APERTURE LIST*
%ADD10C,0.100000*%
%ADD11C,0.150000*%
%ADD12C,0.300000*%
%ADD13C,0.120000*%
%ADD14C,1.600000*%
%ADD15O,1.600000X1.600000*%
%ADD16R,1.700000X1.700000*%
%ADD17O,1.700000X1.700000*%
%ADD18R,1.600000X1.600000*%
%ADD19R,1.500000X1.050000*%
%ADD20O,1.500000X1.050000*%
%ADD21R,1.050000X1.500000*%
%ADD22O,1.050000X1.500000*%
%ADD23O,2.000000X3.500000*%
%ADD24O,4.000000X2.000000*%
G04 APERTURE END LIST*
D10*
X202250000Y-54000000D02*
X201750000Y-54000000D01*
X200750000Y-52500000D01*
X201750000Y-51000000D01*
X202250000Y-51000000D01*
X202250000Y-54000000D01*
G36*
X202250000Y-54000000D02*
G01*
X201750000Y-54000000D01*
X200750000Y-52500000D01*
X201750000Y-51000000D01*
X202250000Y-51000000D01*
X202250000Y-54000000D01*
G37*
D11*
X204500000Y-52500000D02*
G75*
G03*
X204500000Y-52500000I-2000000J0D01*
G01*
D10*
X204250000Y-52500000D02*
X203250000Y-54000000D01*
X202750000Y-54000000D01*
X202750000Y-51000000D01*
X203250000Y-51000000D01*
X204250000Y-52500000D01*
G36*
X204250000Y-52500000D02*
G01*
X203250000Y-54000000D01*
X202750000Y-54000000D01*
X202750000Y-51000000D01*
X203250000Y-51000000D01*
X204250000Y-52500000D01*
G37*
D12*
X200627742Y-57166666D02*
X202056314Y-56583333D01*
X200627742Y-56166666D02*
X203627742Y-56166666D01*
X203627742Y-56166666D02*
X203627742Y-56833333D01*
X203627742Y-56833333D02*
X203484885Y-57000000D01*
X203484885Y-57000000D02*
X203342028Y-57083333D01*
X203342028Y-57083333D02*
X203056314Y-57166666D01*
X203056314Y-57166666D02*
X202627742Y-57166666D01*
X202627742Y-57166666D02*
X202342028Y-57083333D01*
X202342028Y-57083333D02*
X202199171Y-57000000D01*
X202199171Y-57000000D02*
X202056314Y-56833333D01*
X202056314Y-56833333D02*
X202056314Y-56166666D01*
X200627742Y-57916666D02*
X203627742Y-57916666D01*
X202199171Y-57916666D02*
X202199171Y-58916666D01*
X200627742Y-58916666D02*
X203627742Y-58916666D01*
X201770600Y-59749999D02*
X201770600Y-61083333D01*
X202199171Y-62500000D02*
X202056314Y-62750000D01*
X202056314Y-62750000D02*
X201913457Y-62833333D01*
X201913457Y-62833333D02*
X201627742Y-62916666D01*
X201627742Y-62916666D02*
X201199171Y-62916666D01*
X201199171Y-62916666D02*
X200913457Y-62833333D01*
X200913457Y-62833333D02*
X200770600Y-62750000D01*
X200770600Y-62750000D02*
X200627742Y-62583333D01*
X200627742Y-62583333D02*
X200627742Y-61916666D01*
X200627742Y-61916666D02*
X203627742Y-61916666D01*
X203627742Y-61916666D02*
X203627742Y-62500000D01*
X203627742Y-62500000D02*
X203484885Y-62666666D01*
X203484885Y-62666666D02*
X203342028Y-62750000D01*
X203342028Y-62750000D02*
X203056314Y-62833333D01*
X203056314Y-62833333D02*
X202770600Y-62833333D01*
X202770600Y-62833333D02*
X202484885Y-62750000D01*
X202484885Y-62750000D02*
X202342028Y-62666666D01*
X202342028Y-62666666D02*
X202199171Y-62500000D01*
X202199171Y-62500000D02*
X202199171Y-61916666D01*
X203627742Y-64000000D02*
X203627742Y-64166666D01*
X203627742Y-64166666D02*
X203484885Y-64333333D01*
X203484885Y-64333333D02*
X203342028Y-64416666D01*
X203342028Y-64416666D02*
X203056314Y-64500000D01*
X203056314Y-64500000D02*
X202484885Y-64583333D01*
X202484885Y-64583333D02*
X201770600Y-64583333D01*
X201770600Y-64583333D02*
X201199171Y-64500000D01*
X201199171Y-64500000D02*
X200913457Y-64416666D01*
X200913457Y-64416666D02*
X200770600Y-64333333D01*
X200770600Y-64333333D02*
X200627742Y-64166666D01*
X200627742Y-64166666D02*
X200627742Y-64000000D01*
X200627742Y-64000000D02*
X200770600Y-63833333D01*
X200770600Y-63833333D02*
X200913457Y-63750000D01*
X200913457Y-63750000D02*
X201199171Y-63666666D01*
X201199171Y-63666666D02*
X201770600Y-63583333D01*
X201770600Y-63583333D02*
X202484885Y-63583333D01*
X202484885Y-63583333D02*
X203056314Y-63666666D01*
X203056314Y-63666666D02*
X203342028Y-63750000D01*
X203342028Y-63750000D02*
X203484885Y-63833333D01*
X203484885Y-63833333D02*
X203627742Y-64000000D01*
X203627742Y-65666667D02*
X203627742Y-65833333D01*
X203627742Y-65833333D02*
X203484885Y-66000000D01*
X203484885Y-66000000D02*
X203342028Y-66083333D01*
X203342028Y-66083333D02*
X203056314Y-66166667D01*
X203056314Y-66166667D02*
X202484885Y-66250000D01*
X202484885Y-66250000D02*
X201770600Y-66250000D01*
X201770600Y-66250000D02*
X201199171Y-66166667D01*
X201199171Y-66166667D02*
X200913457Y-66083333D01*
X200913457Y-66083333D02*
X200770600Y-66000000D01*
X200770600Y-66000000D02*
X200627742Y-65833333D01*
X200627742Y-65833333D02*
X200627742Y-65666667D01*
X200627742Y-65666667D02*
X200770600Y-65500000D01*
X200770600Y-65500000D02*
X200913457Y-65416667D01*
X200913457Y-65416667D02*
X201199171Y-65333333D01*
X201199171Y-65333333D02*
X201770600Y-65250000D01*
X201770600Y-65250000D02*
X202484885Y-65250000D01*
X202484885Y-65250000D02*
X203056314Y-65333333D01*
X203056314Y-65333333D02*
X203342028Y-65416667D01*
X203342028Y-65416667D02*
X203484885Y-65500000D01*
X203484885Y-65500000D02*
X203627742Y-65666667D01*
X203627742Y-66833334D02*
X203627742Y-67916667D01*
X203627742Y-67916667D02*
X202484885Y-67333334D01*
X202484885Y-67333334D02*
X202484885Y-67583334D01*
X202484885Y-67583334D02*
X202342028Y-67750000D01*
X202342028Y-67750000D02*
X202199171Y-67833334D01*
X202199171Y-67833334D02*
X201913457Y-67916667D01*
X201913457Y-67916667D02*
X201199171Y-67916667D01*
X201199171Y-67916667D02*
X200913457Y-67833334D01*
X200913457Y-67833334D02*
X200770600Y-67750000D01*
X200770600Y-67750000D02*
X200627742Y-67583334D01*
X200627742Y-67583334D02*
X200627742Y-67083334D01*
X200627742Y-67083334D02*
X200770600Y-66916667D01*
X200770600Y-66916667D02*
X200913457Y-66833334D01*
D11*
X234454819Y-98190477D02*
X233978628Y-98523810D01*
X234454819Y-98761905D02*
X233454819Y-98761905D01*
X233454819Y-98761905D02*
X233454819Y-98380953D01*
X233454819Y-98380953D02*
X233502438Y-98285715D01*
X233502438Y-98285715D02*
X233550057Y-98238096D01*
X233550057Y-98238096D02*
X233645295Y-98190477D01*
X233645295Y-98190477D02*
X233788152Y-98190477D01*
X233788152Y-98190477D02*
X233883390Y-98238096D01*
X233883390Y-98238096D02*
X233931009Y-98285715D01*
X233931009Y-98285715D02*
X233978628Y-98380953D01*
X233978628Y-98380953D02*
X233978628Y-98761905D01*
X234454819Y-97761905D02*
X233788152Y-97761905D01*
X233454819Y-97761905D02*
X233502438Y-97809524D01*
X233502438Y-97809524D02*
X233550057Y-97761905D01*
X233550057Y-97761905D02*
X233502438Y-97714286D01*
X233502438Y-97714286D02*
X233454819Y-97761905D01*
X233454819Y-97761905D02*
X233550057Y-97761905D01*
X233788152Y-97380953D02*
X234454819Y-97142858D01*
X234454819Y-97142858D02*
X233788152Y-96904763D01*
X234407200Y-96142858D02*
X234454819Y-96238096D01*
X234454819Y-96238096D02*
X234454819Y-96428572D01*
X234454819Y-96428572D02*
X234407200Y-96523810D01*
X234407200Y-96523810D02*
X234311961Y-96571429D01*
X234311961Y-96571429D02*
X233931009Y-96571429D01*
X233931009Y-96571429D02*
X233835771Y-96523810D01*
X233835771Y-96523810D02*
X233788152Y-96428572D01*
X233788152Y-96428572D02*
X233788152Y-96238096D01*
X233788152Y-96238096D02*
X233835771Y-96142858D01*
X233835771Y-96142858D02*
X233931009Y-96095239D01*
X233931009Y-96095239D02*
X234026247Y-96095239D01*
X234026247Y-96095239D02*
X234121485Y-96571429D01*
X233788152Y-95666667D02*
X234454819Y-95666667D01*
X233883390Y-95666667D02*
X233835771Y-95619048D01*
X233835771Y-95619048D02*
X233788152Y-95523810D01*
X233788152Y-95523810D02*
X233788152Y-95380953D01*
X233788152Y-95380953D02*
X233835771Y-95285715D01*
X233835771Y-95285715D02*
X233931009Y-95238096D01*
X233931009Y-95238096D02*
X234454819Y-95238096D01*
X234454819Y-94000000D02*
X233454819Y-94000000D01*
X233931009Y-94000000D02*
X233931009Y-93428572D01*
X234454819Y-93428572D02*
X233454819Y-93428572D01*
X234407200Y-92571429D02*
X234454819Y-92666667D01*
X234454819Y-92666667D02*
X234454819Y-92857143D01*
X234454819Y-92857143D02*
X234407200Y-92952381D01*
X234407200Y-92952381D02*
X234311961Y-93000000D01*
X234311961Y-93000000D02*
X233931009Y-93000000D01*
X233931009Y-93000000D02*
X233835771Y-92952381D01*
X233835771Y-92952381D02*
X233788152Y-92857143D01*
X233788152Y-92857143D02*
X233788152Y-92666667D01*
X233788152Y-92666667D02*
X233835771Y-92571429D01*
X233835771Y-92571429D02*
X233931009Y-92523810D01*
X233931009Y-92523810D02*
X234026247Y-92523810D01*
X234026247Y-92523810D02*
X234121485Y-93000000D01*
X234454819Y-92190476D02*
X233788152Y-91666667D01*
X233788152Y-92190476D02*
X234454819Y-91666667D01*
X234454819Y-90857143D02*
X233931009Y-90857143D01*
X233931009Y-90857143D02*
X233835771Y-90904762D01*
X233835771Y-90904762D02*
X233788152Y-91000000D01*
X233788152Y-91000000D02*
X233788152Y-91190476D01*
X233788152Y-91190476D02*
X233835771Y-91285714D01*
X234407200Y-90857143D02*
X234454819Y-90952381D01*
X234454819Y-90952381D02*
X234454819Y-91190476D01*
X234454819Y-91190476D02*
X234407200Y-91285714D01*
X234407200Y-91285714D02*
X234311961Y-91333333D01*
X234311961Y-91333333D02*
X234216723Y-91333333D01*
X234216723Y-91333333D02*
X234121485Y-91285714D01*
X234121485Y-91285714D02*
X234073866Y-91190476D01*
X234073866Y-91190476D02*
X234073866Y-90952381D01*
X234073866Y-90952381D02*
X234026247Y-90857143D01*
X233788152Y-89952381D02*
X234597676Y-89952381D01*
X234597676Y-89952381D02*
X234692914Y-90000000D01*
X234692914Y-90000000D02*
X234740533Y-90047619D01*
X234740533Y-90047619D02*
X234788152Y-90142857D01*
X234788152Y-90142857D02*
X234788152Y-90285714D01*
X234788152Y-90285714D02*
X234740533Y-90380952D01*
X234407200Y-89952381D02*
X234454819Y-90047619D01*
X234454819Y-90047619D02*
X234454819Y-90238095D01*
X234454819Y-90238095D02*
X234407200Y-90333333D01*
X234407200Y-90333333D02*
X234359580Y-90380952D01*
X234359580Y-90380952D02*
X234264342Y-90428571D01*
X234264342Y-90428571D02*
X233978628Y-90428571D01*
X233978628Y-90428571D02*
X233883390Y-90380952D01*
X233883390Y-90380952D02*
X233835771Y-90333333D01*
X233835771Y-90333333D02*
X233788152Y-90238095D01*
X233788152Y-90238095D02*
X233788152Y-90047619D01*
X233788152Y-90047619D02*
X233835771Y-89952381D01*
X234454819Y-89333333D02*
X234407200Y-89428571D01*
X234407200Y-89428571D02*
X234359580Y-89476190D01*
X234359580Y-89476190D02*
X234264342Y-89523809D01*
X234264342Y-89523809D02*
X233978628Y-89523809D01*
X233978628Y-89523809D02*
X233883390Y-89476190D01*
X233883390Y-89476190D02*
X233835771Y-89428571D01*
X233835771Y-89428571D02*
X233788152Y-89333333D01*
X233788152Y-89333333D02*
X233788152Y-89190476D01*
X233788152Y-89190476D02*
X233835771Y-89095238D01*
X233835771Y-89095238D02*
X233883390Y-89047619D01*
X233883390Y-89047619D02*
X233978628Y-89000000D01*
X233978628Y-89000000D02*
X234264342Y-89000000D01*
X234264342Y-89000000D02*
X234359580Y-89047619D01*
X234359580Y-89047619D02*
X234407200Y-89095238D01*
X234407200Y-89095238D02*
X234454819Y-89190476D01*
X234454819Y-89190476D02*
X234454819Y-89333333D01*
X233788152Y-88571428D02*
X234454819Y-88571428D01*
X233883390Y-88571428D02*
X233835771Y-88523809D01*
X233835771Y-88523809D02*
X233788152Y-88428571D01*
X233788152Y-88428571D02*
X233788152Y-88285714D01*
X233788152Y-88285714D02*
X233835771Y-88190476D01*
X233835771Y-88190476D02*
X233931009Y-88142857D01*
X233931009Y-88142857D02*
X234454819Y-88142857D01*
X233931009Y-86904761D02*
X233931009Y-86571428D01*
X234454819Y-86428571D02*
X234454819Y-86904761D01*
X234454819Y-86904761D02*
X233454819Y-86904761D01*
X233454819Y-86904761D02*
X233454819Y-86428571D01*
X234454819Y-85857142D02*
X234407200Y-85952380D01*
X234407200Y-85952380D02*
X234311961Y-85999999D01*
X234311961Y-85999999D02*
X233454819Y-85999999D01*
X234407200Y-85095237D02*
X234454819Y-85190475D01*
X234454819Y-85190475D02*
X234454819Y-85380951D01*
X234454819Y-85380951D02*
X234407200Y-85476189D01*
X234407200Y-85476189D02*
X234311961Y-85523808D01*
X234311961Y-85523808D02*
X233931009Y-85523808D01*
X233931009Y-85523808D02*
X233835771Y-85476189D01*
X233835771Y-85476189D02*
X233788152Y-85380951D01*
X233788152Y-85380951D02*
X233788152Y-85190475D01*
X233788152Y-85190475D02*
X233835771Y-85095237D01*
X233835771Y-85095237D02*
X233931009Y-85047618D01*
X233931009Y-85047618D02*
X234026247Y-85047618D01*
X234026247Y-85047618D02*
X234121485Y-85523808D01*
X234407200Y-84190475D02*
X234454819Y-84285713D01*
X234454819Y-84285713D02*
X234454819Y-84476189D01*
X234454819Y-84476189D02*
X234407200Y-84571427D01*
X234407200Y-84571427D02*
X234359580Y-84619046D01*
X234359580Y-84619046D02*
X234264342Y-84666665D01*
X234264342Y-84666665D02*
X233978628Y-84666665D01*
X233978628Y-84666665D02*
X233883390Y-84619046D01*
X233883390Y-84619046D02*
X233835771Y-84571427D01*
X233835771Y-84571427D02*
X233788152Y-84476189D01*
X233788152Y-84476189D02*
X233788152Y-84285713D01*
X233788152Y-84285713D02*
X233835771Y-84190475D01*
X233788152Y-83904760D02*
X233788152Y-83523808D01*
X233454819Y-83761903D02*
X234311961Y-83761903D01*
X234311961Y-83761903D02*
X234407200Y-83714284D01*
X234407200Y-83714284D02*
X234454819Y-83619046D01*
X234454819Y-83619046D02*
X234454819Y-83523808D01*
X234454819Y-83190474D02*
X233788152Y-83190474D01*
X233978628Y-83190474D02*
X233883390Y-83142855D01*
X233883390Y-83142855D02*
X233835771Y-83095236D01*
X233835771Y-83095236D02*
X233788152Y-82999998D01*
X233788152Y-82999998D02*
X233788152Y-82904760D01*
X234454819Y-82428569D02*
X234407200Y-82523807D01*
X234407200Y-82523807D02*
X234359580Y-82571426D01*
X234359580Y-82571426D02*
X234264342Y-82619045D01*
X234264342Y-82619045D02*
X233978628Y-82619045D01*
X233978628Y-82619045D02*
X233883390Y-82571426D01*
X233883390Y-82571426D02*
X233835771Y-82523807D01*
X233835771Y-82523807D02*
X233788152Y-82428569D01*
X233788152Y-82428569D02*
X233788152Y-82285712D01*
X233788152Y-82285712D02*
X233835771Y-82190474D01*
X233835771Y-82190474D02*
X233883390Y-82142855D01*
X233883390Y-82142855D02*
X233978628Y-82095236D01*
X233978628Y-82095236D02*
X234264342Y-82095236D01*
X234264342Y-82095236D02*
X234359580Y-82142855D01*
X234359580Y-82142855D02*
X234407200Y-82190474D01*
X234407200Y-82190474D02*
X234454819Y-82285712D01*
X234454819Y-82285712D02*
X234454819Y-82428569D01*
X233788152Y-81666664D02*
X234454819Y-81666664D01*
X233883390Y-81666664D02*
X233835771Y-81619045D01*
X233835771Y-81619045D02*
X233788152Y-81523807D01*
X233788152Y-81523807D02*
X233788152Y-81380950D01*
X233788152Y-81380950D02*
X233835771Y-81285712D01*
X233835771Y-81285712D02*
X233931009Y-81238093D01*
X233931009Y-81238093D02*
X234454819Y-81238093D01*
X234454819Y-80761902D02*
X233788152Y-80761902D01*
X233454819Y-80761902D02*
X233502438Y-80809521D01*
X233502438Y-80809521D02*
X233550057Y-80761902D01*
X233550057Y-80761902D02*
X233502438Y-80714283D01*
X233502438Y-80714283D02*
X233454819Y-80761902D01*
X233454819Y-80761902D02*
X233550057Y-80761902D01*
X234407200Y-79857141D02*
X234454819Y-79952379D01*
X234454819Y-79952379D02*
X234454819Y-80142855D01*
X234454819Y-80142855D02*
X234407200Y-80238093D01*
X234407200Y-80238093D02*
X234359580Y-80285712D01*
X234359580Y-80285712D02*
X234264342Y-80333331D01*
X234264342Y-80333331D02*
X233978628Y-80333331D01*
X233978628Y-80333331D02*
X233883390Y-80285712D01*
X233883390Y-80285712D02*
X233835771Y-80238093D01*
X233835771Y-80238093D02*
X233788152Y-80142855D01*
X233788152Y-80142855D02*
X233788152Y-79952379D01*
X233788152Y-79952379D02*
X233835771Y-79857141D01*
X234407200Y-79476188D02*
X234454819Y-79380950D01*
X234454819Y-79380950D02*
X234454819Y-79190474D01*
X234454819Y-79190474D02*
X234407200Y-79095236D01*
X234407200Y-79095236D02*
X234311961Y-79047617D01*
X234311961Y-79047617D02*
X234264342Y-79047617D01*
X234264342Y-79047617D02*
X234169104Y-79095236D01*
X234169104Y-79095236D02*
X234121485Y-79190474D01*
X234121485Y-79190474D02*
X234121485Y-79333331D01*
X234121485Y-79333331D02*
X234073866Y-79428569D01*
X234073866Y-79428569D02*
X233978628Y-79476188D01*
X233978628Y-79476188D02*
X233931009Y-79476188D01*
X233931009Y-79476188D02*
X233835771Y-79428569D01*
X233835771Y-79428569D02*
X233788152Y-79333331D01*
X233788152Y-79333331D02*
X233788152Y-79190474D01*
X233788152Y-79190474D02*
X233835771Y-79095236D01*
X233788152Y-77952378D02*
X234454819Y-77714283D01*
X234454819Y-77714283D02*
X233788152Y-77476188D01*
X234454819Y-76571426D02*
X234454819Y-77142854D01*
X234454819Y-76857140D02*
X233454819Y-76857140D01*
X233454819Y-76857140D02*
X233597676Y-76952378D01*
X233597676Y-76952378D02*
X233692914Y-77047616D01*
X233692914Y-77047616D02*
X233740533Y-77142854D01*
X234359580Y-76142854D02*
X234407200Y-76095235D01*
X234407200Y-76095235D02*
X234454819Y-76142854D01*
X234454819Y-76142854D02*
X234407200Y-76190473D01*
X234407200Y-76190473D02*
X234359580Y-76142854D01*
X234359580Y-76142854D02*
X234454819Y-76142854D01*
X234454819Y-75142855D02*
X234454819Y-75714283D01*
X234454819Y-75428569D02*
X233454819Y-75428569D01*
X233454819Y-75428569D02*
X233597676Y-75523807D01*
X233597676Y-75523807D02*
X233692914Y-75619045D01*
X233692914Y-75619045D02*
X233740533Y-75714283D01*
X233550057Y-73999997D02*
X233502438Y-73952378D01*
X233502438Y-73952378D02*
X233454819Y-73857140D01*
X233454819Y-73857140D02*
X233454819Y-73619045D01*
X233454819Y-73619045D02*
X233502438Y-73523807D01*
X233502438Y-73523807D02*
X233550057Y-73476188D01*
X233550057Y-73476188D02*
X233645295Y-73428569D01*
X233645295Y-73428569D02*
X233740533Y-73428569D01*
X233740533Y-73428569D02*
X233883390Y-73476188D01*
X233883390Y-73476188D02*
X234454819Y-74047616D01*
X234454819Y-74047616D02*
X234454819Y-73428569D01*
X233454819Y-72809521D02*
X233454819Y-72714283D01*
X233454819Y-72714283D02*
X233502438Y-72619045D01*
X233502438Y-72619045D02*
X233550057Y-72571426D01*
X233550057Y-72571426D02*
X233645295Y-72523807D01*
X233645295Y-72523807D02*
X233835771Y-72476188D01*
X233835771Y-72476188D02*
X234073866Y-72476188D01*
X234073866Y-72476188D02*
X234264342Y-72523807D01*
X234264342Y-72523807D02*
X234359580Y-72571426D01*
X234359580Y-72571426D02*
X234407200Y-72619045D01*
X234407200Y-72619045D02*
X234454819Y-72714283D01*
X234454819Y-72714283D02*
X234454819Y-72809521D01*
X234454819Y-72809521D02*
X234407200Y-72904759D01*
X234407200Y-72904759D02*
X234359580Y-72952378D01*
X234359580Y-72952378D02*
X234264342Y-72999997D01*
X234264342Y-72999997D02*
X234073866Y-73047616D01*
X234073866Y-73047616D02*
X233835771Y-73047616D01*
X233835771Y-73047616D02*
X233645295Y-72999997D01*
X233645295Y-72999997D02*
X233550057Y-72952378D01*
X233550057Y-72952378D02*
X233502438Y-72904759D01*
X233502438Y-72904759D02*
X233454819Y-72809521D01*
X233550057Y-72095235D02*
X233502438Y-72047616D01*
X233502438Y-72047616D02*
X233454819Y-71952378D01*
X233454819Y-71952378D02*
X233454819Y-71714283D01*
X233454819Y-71714283D02*
X233502438Y-71619045D01*
X233502438Y-71619045D02*
X233550057Y-71571426D01*
X233550057Y-71571426D02*
X233645295Y-71523807D01*
X233645295Y-71523807D02*
X233740533Y-71523807D01*
X233740533Y-71523807D02*
X233883390Y-71571426D01*
X233883390Y-71571426D02*
X234454819Y-72142854D01*
X234454819Y-72142854D02*
X234454819Y-71523807D01*
X233454819Y-71190473D02*
X233454819Y-70571426D01*
X233454819Y-70571426D02*
X233835771Y-70904759D01*
X233835771Y-70904759D02*
X233835771Y-70761902D01*
X233835771Y-70761902D02*
X233883390Y-70666664D01*
X233883390Y-70666664D02*
X233931009Y-70619045D01*
X233931009Y-70619045D02*
X234026247Y-70571426D01*
X234026247Y-70571426D02*
X234264342Y-70571426D01*
X234264342Y-70571426D02*
X234359580Y-70619045D01*
X234359580Y-70619045D02*
X234407200Y-70666664D01*
X234407200Y-70666664D02*
X234454819Y-70761902D01*
X234454819Y-70761902D02*
X234454819Y-71047616D01*
X234454819Y-71047616D02*
X234407200Y-71142854D01*
X234407200Y-71142854D02*
X234359580Y-71190473D01*
X234359580Y-70142854D02*
X234407200Y-70095235D01*
X234407200Y-70095235D02*
X234454819Y-70142854D01*
X234454819Y-70142854D02*
X234407200Y-70190473D01*
X234407200Y-70190473D02*
X234359580Y-70142854D01*
X234359580Y-70142854D02*
X234454819Y-70142854D01*
X234454819Y-69142855D02*
X234454819Y-69714283D01*
X234454819Y-69428569D02*
X233454819Y-69428569D01*
X233454819Y-69428569D02*
X233597676Y-69523807D01*
X233597676Y-69523807D02*
X233692914Y-69619045D01*
X233692914Y-69619045D02*
X233740533Y-69714283D01*
X233550057Y-68761902D02*
X233502438Y-68714283D01*
X233502438Y-68714283D02*
X233454819Y-68619045D01*
X233454819Y-68619045D02*
X233454819Y-68380950D01*
X233454819Y-68380950D02*
X233502438Y-68285712D01*
X233502438Y-68285712D02*
X233550057Y-68238093D01*
X233550057Y-68238093D02*
X233645295Y-68190474D01*
X233645295Y-68190474D02*
X233740533Y-68190474D01*
X233740533Y-68190474D02*
X233883390Y-68238093D01*
X233883390Y-68238093D02*
X234454819Y-68809521D01*
X234454819Y-68809521D02*
X234454819Y-68190474D01*
X219833819Y-87293220D02*
X218833819Y-87293220D01*
X219833819Y-86721792D02*
X219262390Y-87150363D01*
X218833819Y-86721792D02*
X219405247Y-87293220D01*
X234293580Y-64428666D02*
X234341200Y-64476285D01*
X234341200Y-64476285D02*
X234388819Y-64619142D01*
X234388819Y-64619142D02*
X234388819Y-64714380D01*
X234388819Y-64714380D02*
X234341200Y-64857237D01*
X234341200Y-64857237D02*
X234245961Y-64952475D01*
X234245961Y-64952475D02*
X234150723Y-65000094D01*
X234150723Y-65000094D02*
X233960247Y-65047713D01*
X233960247Y-65047713D02*
X233817390Y-65047713D01*
X233817390Y-65047713D02*
X233626914Y-65000094D01*
X233626914Y-65000094D02*
X233531676Y-64952475D01*
X233531676Y-64952475D02*
X233436438Y-64857237D01*
X233436438Y-64857237D02*
X233388819Y-64714380D01*
X233388819Y-64714380D02*
X233388819Y-64619142D01*
X233388819Y-64619142D02*
X233436438Y-64476285D01*
X233436438Y-64476285D02*
X233484057Y-64428666D01*
X233388819Y-64095332D02*
X233388819Y-63428666D01*
X233388819Y-63428666D02*
X234388819Y-63857237D01*
X201512142Y-87068819D02*
X201178809Y-86592628D01*
X200940714Y-87068819D02*
X200940714Y-86068819D01*
X200940714Y-86068819D02*
X201321666Y-86068819D01*
X201321666Y-86068819D02*
X201416904Y-86116438D01*
X201416904Y-86116438D02*
X201464523Y-86164057D01*
X201464523Y-86164057D02*
X201512142Y-86259295D01*
X201512142Y-86259295D02*
X201512142Y-86402152D01*
X201512142Y-86402152D02*
X201464523Y-86497390D01*
X201464523Y-86497390D02*
X201416904Y-86545009D01*
X201416904Y-86545009D02*
X201321666Y-86592628D01*
X201321666Y-86592628D02*
X200940714Y-86592628D01*
X202464523Y-87068819D02*
X201893095Y-87068819D01*
X202178809Y-87068819D02*
X202178809Y-86068819D01*
X202178809Y-86068819D02*
X202083571Y-86211676D01*
X202083571Y-86211676D02*
X201988333Y-86306914D01*
X201988333Y-86306914D02*
X201893095Y-86354533D01*
X202845476Y-86164057D02*
X202893095Y-86116438D01*
X202893095Y-86116438D02*
X202988333Y-86068819D01*
X202988333Y-86068819D02*
X203226428Y-86068819D01*
X203226428Y-86068819D02*
X203321666Y-86116438D01*
X203321666Y-86116438D02*
X203369285Y-86164057D01*
X203369285Y-86164057D02*
X203416904Y-86259295D01*
X203416904Y-86259295D02*
X203416904Y-86354533D01*
X203416904Y-86354533D02*
X203369285Y-86497390D01*
X203369285Y-86497390D02*
X202797857Y-87068819D01*
X202797857Y-87068819D02*
X203416904Y-87068819D01*
X213454819Y-51333333D02*
X214169104Y-51333333D01*
X214169104Y-51333333D02*
X214311961Y-51380952D01*
X214311961Y-51380952D02*
X214407200Y-51476190D01*
X214407200Y-51476190D02*
X214454819Y-51619047D01*
X214454819Y-51619047D02*
X214454819Y-51714285D01*
X213454819Y-50428571D02*
X213454819Y-50619047D01*
X213454819Y-50619047D02*
X213502438Y-50714285D01*
X213502438Y-50714285D02*
X213550057Y-50761904D01*
X213550057Y-50761904D02*
X213692914Y-50857142D01*
X213692914Y-50857142D02*
X213883390Y-50904761D01*
X213883390Y-50904761D02*
X214264342Y-50904761D01*
X214264342Y-50904761D02*
X214359580Y-50857142D01*
X214359580Y-50857142D02*
X214407200Y-50809523D01*
X214407200Y-50809523D02*
X214454819Y-50714285D01*
X214454819Y-50714285D02*
X214454819Y-50523809D01*
X214454819Y-50523809D02*
X214407200Y-50428571D01*
X214407200Y-50428571D02*
X214359580Y-50380952D01*
X214359580Y-50380952D02*
X214264342Y-50333333D01*
X214264342Y-50333333D02*
X214026247Y-50333333D01*
X214026247Y-50333333D02*
X213931009Y-50380952D01*
X213931009Y-50380952D02*
X213883390Y-50428571D01*
X213883390Y-50428571D02*
X213835771Y-50523809D01*
X213835771Y-50523809D02*
X213835771Y-50714285D01*
X213835771Y-50714285D02*
X213883390Y-50809523D01*
X213883390Y-50809523D02*
X213931009Y-50857142D01*
X213931009Y-50857142D02*
X214026247Y-50904761D01*
X202398333Y-75289580D02*
X202350714Y-75337200D01*
X202350714Y-75337200D02*
X202207857Y-75384819D01*
X202207857Y-75384819D02*
X202112619Y-75384819D01*
X202112619Y-75384819D02*
X201969762Y-75337200D01*
X201969762Y-75337200D02*
X201874524Y-75241961D01*
X201874524Y-75241961D02*
X201826905Y-75146723D01*
X201826905Y-75146723D02*
X201779286Y-74956247D01*
X201779286Y-74956247D02*
X201779286Y-74813390D01*
X201779286Y-74813390D02*
X201826905Y-74622914D01*
X201826905Y-74622914D02*
X201874524Y-74527676D01*
X201874524Y-74527676D02*
X201969762Y-74432438D01*
X201969762Y-74432438D02*
X202112619Y-74384819D01*
X202112619Y-74384819D02*
X202207857Y-74384819D01*
X202207857Y-74384819D02*
X202350714Y-74432438D01*
X202350714Y-74432438D02*
X202398333Y-74480057D01*
X203350714Y-75384819D02*
X202779286Y-75384819D01*
X203065000Y-75384819D02*
X203065000Y-74384819D01*
X203065000Y-74384819D02*
X202969762Y-74527676D01*
X202969762Y-74527676D02*
X202874524Y-74622914D01*
X202874524Y-74622914D02*
X202779286Y-74670533D01*
X214354580Y-98845666D02*
X214402200Y-98893285D01*
X214402200Y-98893285D02*
X214449819Y-99036142D01*
X214449819Y-99036142D02*
X214449819Y-99131380D01*
X214449819Y-99131380D02*
X214402200Y-99274237D01*
X214402200Y-99274237D02*
X214306961Y-99369475D01*
X214306961Y-99369475D02*
X214211723Y-99417094D01*
X214211723Y-99417094D02*
X214021247Y-99464713D01*
X214021247Y-99464713D02*
X213878390Y-99464713D01*
X213878390Y-99464713D02*
X213687914Y-99417094D01*
X213687914Y-99417094D02*
X213592676Y-99369475D01*
X213592676Y-99369475D02*
X213497438Y-99274237D01*
X213497438Y-99274237D02*
X213449819Y-99131380D01*
X213449819Y-99131380D02*
X213449819Y-99036142D01*
X213449819Y-99036142D02*
X213497438Y-98893285D01*
X213497438Y-98893285D02*
X213545057Y-98845666D01*
X213545057Y-98464713D02*
X213497438Y-98417094D01*
X213497438Y-98417094D02*
X213449819Y-98321856D01*
X213449819Y-98321856D02*
X213449819Y-98083761D01*
X213449819Y-98083761D02*
X213497438Y-97988523D01*
X213497438Y-97988523D02*
X213545057Y-97940904D01*
X213545057Y-97940904D02*
X213640295Y-97893285D01*
X213640295Y-97893285D02*
X213735533Y-97893285D01*
X213735533Y-97893285D02*
X213878390Y-97940904D01*
X213878390Y-97940904D02*
X214449819Y-98512332D01*
X214449819Y-98512332D02*
X214449819Y-97893285D01*
X224018095Y-81369819D02*
X224018095Y-82179342D01*
X224018095Y-82179342D02*
X224065714Y-82274580D01*
X224065714Y-82274580D02*
X224113333Y-82322200D01*
X224113333Y-82322200D02*
X224208571Y-82369819D01*
X224208571Y-82369819D02*
X224399047Y-82369819D01*
X224399047Y-82369819D02*
X224494285Y-82322200D01*
X224494285Y-82322200D02*
X224541904Y-82274580D01*
X224541904Y-82274580D02*
X224589523Y-82179342D01*
X224589523Y-82179342D02*
X224589523Y-81369819D01*
X225589523Y-82369819D02*
X225018095Y-82369819D01*
X225303809Y-82369819D02*
X225303809Y-81369819D01*
X225303809Y-81369819D02*
X225208571Y-81512676D01*
X225208571Y-81512676D02*
X225113333Y-81607914D01*
X225113333Y-81607914D02*
X225018095Y-81655533D01*
X206829819Y-52966857D02*
X206353628Y-53300190D01*
X206829819Y-53538285D02*
X205829819Y-53538285D01*
X205829819Y-53538285D02*
X205829819Y-53157333D01*
X205829819Y-53157333D02*
X205877438Y-53062095D01*
X205877438Y-53062095D02*
X205925057Y-53014476D01*
X205925057Y-53014476D02*
X206020295Y-52966857D01*
X206020295Y-52966857D02*
X206163152Y-52966857D01*
X206163152Y-52966857D02*
X206258390Y-53014476D01*
X206258390Y-53014476D02*
X206306009Y-53062095D01*
X206306009Y-53062095D02*
X206353628Y-53157333D01*
X206353628Y-53157333D02*
X206353628Y-53538285D01*
X206829819Y-52014476D02*
X206829819Y-52585904D01*
X206829819Y-52300190D02*
X205829819Y-52300190D01*
X205829819Y-52300190D02*
X205972676Y-52395428D01*
X205972676Y-52395428D02*
X206067914Y-52490666D01*
X206067914Y-52490666D02*
X206115533Y-52585904D01*
X205829819Y-51109714D02*
X205829819Y-51585904D01*
X205829819Y-51585904D02*
X206306009Y-51633523D01*
X206306009Y-51633523D02*
X206258390Y-51585904D01*
X206258390Y-51585904D02*
X206210771Y-51490666D01*
X206210771Y-51490666D02*
X206210771Y-51252571D01*
X206210771Y-51252571D02*
X206258390Y-51157333D01*
X206258390Y-51157333D02*
X206306009Y-51109714D01*
X206306009Y-51109714D02*
X206401247Y-51062095D01*
X206401247Y-51062095D02*
X206639342Y-51062095D01*
X206639342Y-51062095D02*
X206734580Y-51109714D01*
X206734580Y-51109714D02*
X206782200Y-51157333D01*
X206782200Y-51157333D02*
X206829819Y-51252571D01*
X206829819Y-51252571D02*
X206829819Y-51490666D01*
X206829819Y-51490666D02*
X206782200Y-51585904D01*
X206782200Y-51585904D02*
X206734580Y-51633523D01*
X227957142Y-72590819D02*
X227623809Y-72114628D01*
X227385714Y-72590819D02*
X227385714Y-71590819D01*
X227385714Y-71590819D02*
X227766666Y-71590819D01*
X227766666Y-71590819D02*
X227861904Y-71638438D01*
X227861904Y-71638438D02*
X227909523Y-71686057D01*
X227909523Y-71686057D02*
X227957142Y-71781295D01*
X227957142Y-71781295D02*
X227957142Y-71924152D01*
X227957142Y-71924152D02*
X227909523Y-72019390D01*
X227909523Y-72019390D02*
X227861904Y-72067009D01*
X227861904Y-72067009D02*
X227766666Y-72114628D01*
X227766666Y-72114628D02*
X227385714Y-72114628D01*
X228909523Y-72590819D02*
X228338095Y-72590819D01*
X228623809Y-72590819D02*
X228623809Y-71590819D01*
X228623809Y-71590819D02*
X228528571Y-71733676D01*
X228528571Y-71733676D02*
X228433333Y-71828914D01*
X228433333Y-71828914D02*
X228338095Y-71876533D01*
X229242857Y-71590819D02*
X229909523Y-71590819D01*
X229909523Y-71590819D02*
X229480952Y-72590819D01*
X229703333Y-95323819D02*
X229227143Y-95323819D01*
X229227143Y-95323819D02*
X229227143Y-94323819D01*
X230560476Y-95323819D02*
X229989048Y-95323819D01*
X230274762Y-95323819D02*
X230274762Y-94323819D01*
X230274762Y-94323819D02*
X230179524Y-94466676D01*
X230179524Y-94466676D02*
X230084286Y-94561914D01*
X230084286Y-94561914D02*
X229989048Y-94609533D01*
X209891333Y-90370819D02*
X209558000Y-89894628D01*
X209319905Y-90370819D02*
X209319905Y-89370819D01*
X209319905Y-89370819D02*
X209700857Y-89370819D01*
X209700857Y-89370819D02*
X209796095Y-89418438D01*
X209796095Y-89418438D02*
X209843714Y-89466057D01*
X209843714Y-89466057D02*
X209891333Y-89561295D01*
X209891333Y-89561295D02*
X209891333Y-89704152D01*
X209891333Y-89704152D02*
X209843714Y-89799390D01*
X209843714Y-89799390D02*
X209796095Y-89847009D01*
X209796095Y-89847009D02*
X209700857Y-89894628D01*
X209700857Y-89894628D02*
X209319905Y-89894628D01*
X210748476Y-89370819D02*
X210558000Y-89370819D01*
X210558000Y-89370819D02*
X210462762Y-89418438D01*
X210462762Y-89418438D02*
X210415143Y-89466057D01*
X210415143Y-89466057D02*
X210319905Y-89608914D01*
X210319905Y-89608914D02*
X210272286Y-89799390D01*
X210272286Y-89799390D02*
X210272286Y-90180342D01*
X210272286Y-90180342D02*
X210319905Y-90275580D01*
X210319905Y-90275580D02*
X210367524Y-90323200D01*
X210367524Y-90323200D02*
X210462762Y-90370819D01*
X210462762Y-90370819D02*
X210653238Y-90370819D01*
X210653238Y-90370819D02*
X210748476Y-90323200D01*
X210748476Y-90323200D02*
X210796095Y-90275580D01*
X210796095Y-90275580D02*
X210843714Y-90180342D01*
X210843714Y-90180342D02*
X210843714Y-89942247D01*
X210843714Y-89942247D02*
X210796095Y-89847009D01*
X210796095Y-89847009D02*
X210748476Y-89799390D01*
X210748476Y-89799390D02*
X210653238Y-89751771D01*
X210653238Y-89751771D02*
X210462762Y-89751771D01*
X210462762Y-89751771D02*
X210367524Y-89799390D01*
X210367524Y-89799390D02*
X210319905Y-89847009D01*
X210319905Y-89847009D02*
X210272286Y-89942247D01*
X210608057Y-83915238D02*
X210560438Y-84010476D01*
X210560438Y-84010476D02*
X210465200Y-84105714D01*
X210465200Y-84105714D02*
X210322342Y-84248571D01*
X210322342Y-84248571D02*
X210274723Y-84343809D01*
X210274723Y-84343809D02*
X210274723Y-84439047D01*
X210512819Y-84391428D02*
X210465200Y-84486666D01*
X210465200Y-84486666D02*
X210369961Y-84581904D01*
X210369961Y-84581904D02*
X210179485Y-84629523D01*
X210179485Y-84629523D02*
X209846152Y-84629523D01*
X209846152Y-84629523D02*
X209655676Y-84581904D01*
X209655676Y-84581904D02*
X209560438Y-84486666D01*
X209560438Y-84486666D02*
X209512819Y-84391428D01*
X209512819Y-84391428D02*
X209512819Y-84200952D01*
X209512819Y-84200952D02*
X209560438Y-84105714D01*
X209560438Y-84105714D02*
X209655676Y-84010476D01*
X209655676Y-84010476D02*
X209846152Y-83962857D01*
X209846152Y-83962857D02*
X210179485Y-83962857D01*
X210179485Y-83962857D02*
X210369961Y-84010476D01*
X210369961Y-84010476D02*
X210465200Y-84105714D01*
X210465200Y-84105714D02*
X210512819Y-84200952D01*
X210512819Y-84200952D02*
X210512819Y-84391428D01*
X209846152Y-83105714D02*
X210512819Y-83105714D01*
X209465200Y-83343809D02*
X210179485Y-83581904D01*
X210179485Y-83581904D02*
X210179485Y-82962857D01*
X202496333Y-90243819D02*
X202163000Y-89767628D01*
X201924905Y-90243819D02*
X201924905Y-89243819D01*
X201924905Y-89243819D02*
X202305857Y-89243819D01*
X202305857Y-89243819D02*
X202401095Y-89291438D01*
X202401095Y-89291438D02*
X202448714Y-89339057D01*
X202448714Y-89339057D02*
X202496333Y-89434295D01*
X202496333Y-89434295D02*
X202496333Y-89577152D01*
X202496333Y-89577152D02*
X202448714Y-89672390D01*
X202448714Y-89672390D02*
X202401095Y-89720009D01*
X202401095Y-89720009D02*
X202305857Y-89767628D01*
X202305857Y-89767628D02*
X201924905Y-89767628D01*
X202829667Y-89243819D02*
X203496333Y-89243819D01*
X203496333Y-89243819D02*
X203067762Y-90243819D01*
X219910819Y-90527094D02*
X218910819Y-90527094D01*
X218910819Y-90527094D02*
X218910819Y-90288999D01*
X218910819Y-90288999D02*
X218958438Y-90146142D01*
X218958438Y-90146142D02*
X219053676Y-90050904D01*
X219053676Y-90050904D02*
X219148914Y-90003285D01*
X219148914Y-90003285D02*
X219339390Y-89955666D01*
X219339390Y-89955666D02*
X219482247Y-89955666D01*
X219482247Y-89955666D02*
X219672723Y-90003285D01*
X219672723Y-90003285D02*
X219767961Y-90050904D01*
X219767961Y-90050904D02*
X219863200Y-90146142D01*
X219863200Y-90146142D02*
X219910819Y-90288999D01*
X219910819Y-90288999D02*
X219910819Y-90527094D01*
X219910819Y-89003285D02*
X219910819Y-89574713D01*
X219910819Y-89288999D02*
X218910819Y-89288999D01*
X218910819Y-89288999D02*
X219053676Y-89384237D01*
X219053676Y-89384237D02*
X219148914Y-89479475D01*
X219148914Y-89479475D02*
X219196533Y-89574713D01*
X200666666Y-70454819D02*
X200666666Y-71169104D01*
X200666666Y-71169104D02*
X200619047Y-71311961D01*
X200619047Y-71311961D02*
X200523809Y-71407200D01*
X200523809Y-71407200D02*
X200380952Y-71454819D01*
X200380952Y-71454819D02*
X200285714Y-71454819D01*
X201619047Y-70454819D02*
X201142857Y-70454819D01*
X201142857Y-70454819D02*
X201095238Y-70931009D01*
X201095238Y-70931009D02*
X201142857Y-70883390D01*
X201142857Y-70883390D02*
X201238095Y-70835771D01*
X201238095Y-70835771D02*
X201476190Y-70835771D01*
X201476190Y-70835771D02*
X201571428Y-70883390D01*
X201571428Y-70883390D02*
X201619047Y-70931009D01*
X201619047Y-70931009D02*
X201666666Y-71026247D01*
X201666666Y-71026247D02*
X201666666Y-71264342D01*
X201666666Y-71264342D02*
X201619047Y-71359580D01*
X201619047Y-71359580D02*
X201571428Y-71407200D01*
X201571428Y-71407200D02*
X201476190Y-71454819D01*
X201476190Y-71454819D02*
X201238095Y-71454819D01*
X201238095Y-71454819D02*
X201142857Y-71407200D01*
X201142857Y-71407200D02*
X201095238Y-71359580D01*
X205528057Y-83915238D02*
X205480438Y-84010476D01*
X205480438Y-84010476D02*
X205385200Y-84105714D01*
X205385200Y-84105714D02*
X205242342Y-84248571D01*
X205242342Y-84248571D02*
X205194723Y-84343809D01*
X205194723Y-84343809D02*
X205194723Y-84439047D01*
X205432819Y-84391428D02*
X205385200Y-84486666D01*
X205385200Y-84486666D02*
X205289961Y-84581904D01*
X205289961Y-84581904D02*
X205099485Y-84629523D01*
X205099485Y-84629523D02*
X204766152Y-84629523D01*
X204766152Y-84629523D02*
X204575676Y-84581904D01*
X204575676Y-84581904D02*
X204480438Y-84486666D01*
X204480438Y-84486666D02*
X204432819Y-84391428D01*
X204432819Y-84391428D02*
X204432819Y-84200952D01*
X204432819Y-84200952D02*
X204480438Y-84105714D01*
X204480438Y-84105714D02*
X204575676Y-84010476D01*
X204575676Y-84010476D02*
X204766152Y-83962857D01*
X204766152Y-83962857D02*
X205099485Y-83962857D01*
X205099485Y-83962857D02*
X205289961Y-84010476D01*
X205289961Y-84010476D02*
X205385200Y-84105714D01*
X205385200Y-84105714D02*
X205432819Y-84200952D01*
X205432819Y-84200952D02*
X205432819Y-84391428D01*
X205432819Y-83010476D02*
X205432819Y-83581904D01*
X205432819Y-83296190D02*
X204432819Y-83296190D01*
X204432819Y-83296190D02*
X204575676Y-83391428D01*
X204575676Y-83391428D02*
X204670914Y-83486666D01*
X204670914Y-83486666D02*
X204718533Y-83581904D01*
X210145333Y-93291819D02*
X209812000Y-92815628D01*
X209573905Y-93291819D02*
X209573905Y-92291819D01*
X209573905Y-92291819D02*
X209954857Y-92291819D01*
X209954857Y-92291819D02*
X210050095Y-92339438D01*
X210050095Y-92339438D02*
X210097714Y-92387057D01*
X210097714Y-92387057D02*
X210145333Y-92482295D01*
X210145333Y-92482295D02*
X210145333Y-92625152D01*
X210145333Y-92625152D02*
X210097714Y-92720390D01*
X210097714Y-92720390D02*
X210050095Y-92768009D01*
X210050095Y-92768009D02*
X209954857Y-92815628D01*
X209954857Y-92815628D02*
X209573905Y-92815628D01*
X210526286Y-92387057D02*
X210573905Y-92339438D01*
X210573905Y-92339438D02*
X210669143Y-92291819D01*
X210669143Y-92291819D02*
X210907238Y-92291819D01*
X210907238Y-92291819D02*
X211002476Y-92339438D01*
X211002476Y-92339438D02*
X211050095Y-92387057D01*
X211050095Y-92387057D02*
X211097714Y-92482295D01*
X211097714Y-92482295D02*
X211097714Y-92577533D01*
X211097714Y-92577533D02*
X211050095Y-92720390D01*
X211050095Y-92720390D02*
X210478667Y-93291819D01*
X210478667Y-93291819D02*
X211097714Y-93291819D01*
X212894057Y-83915238D02*
X212846438Y-84010476D01*
X212846438Y-84010476D02*
X212751200Y-84105714D01*
X212751200Y-84105714D02*
X212608342Y-84248571D01*
X212608342Y-84248571D02*
X212560723Y-84343809D01*
X212560723Y-84343809D02*
X212560723Y-84439047D01*
X212798819Y-84391428D02*
X212751200Y-84486666D01*
X212751200Y-84486666D02*
X212655961Y-84581904D01*
X212655961Y-84581904D02*
X212465485Y-84629523D01*
X212465485Y-84629523D02*
X212132152Y-84629523D01*
X212132152Y-84629523D02*
X211941676Y-84581904D01*
X211941676Y-84581904D02*
X211846438Y-84486666D01*
X211846438Y-84486666D02*
X211798819Y-84391428D01*
X211798819Y-84391428D02*
X211798819Y-84200952D01*
X211798819Y-84200952D02*
X211846438Y-84105714D01*
X211846438Y-84105714D02*
X211941676Y-84010476D01*
X211941676Y-84010476D02*
X212132152Y-83962857D01*
X212132152Y-83962857D02*
X212465485Y-83962857D01*
X212465485Y-83962857D02*
X212655961Y-84010476D01*
X212655961Y-84010476D02*
X212751200Y-84105714D01*
X212751200Y-84105714D02*
X212798819Y-84200952D01*
X212798819Y-84200952D02*
X212798819Y-84391428D01*
X211798819Y-83058095D02*
X211798819Y-83534285D01*
X211798819Y-83534285D02*
X212275009Y-83581904D01*
X212275009Y-83581904D02*
X212227390Y-83534285D01*
X212227390Y-83534285D02*
X212179771Y-83439047D01*
X212179771Y-83439047D02*
X212179771Y-83200952D01*
X212179771Y-83200952D02*
X212227390Y-83105714D01*
X212227390Y-83105714D02*
X212275009Y-83058095D01*
X212275009Y-83058095D02*
X212370247Y-83010476D01*
X212370247Y-83010476D02*
X212608342Y-83010476D01*
X212608342Y-83010476D02*
X212703580Y-83058095D01*
X212703580Y-83058095D02*
X212751200Y-83105714D01*
X212751200Y-83105714D02*
X212798819Y-83200952D01*
X212798819Y-83200952D02*
X212798819Y-83439047D01*
X212798819Y-83439047D02*
X212751200Y-83534285D01*
X212751200Y-83534285D02*
X212703580Y-83581904D01*
X211161333Y-63700819D02*
X210828000Y-63224628D01*
X210589905Y-63700819D02*
X210589905Y-62700819D01*
X210589905Y-62700819D02*
X210970857Y-62700819D01*
X210970857Y-62700819D02*
X211066095Y-62748438D01*
X211066095Y-62748438D02*
X211113714Y-62796057D01*
X211113714Y-62796057D02*
X211161333Y-62891295D01*
X211161333Y-62891295D02*
X211161333Y-63034152D01*
X211161333Y-63034152D02*
X211113714Y-63129390D01*
X211113714Y-63129390D02*
X211066095Y-63177009D01*
X211066095Y-63177009D02*
X210970857Y-63224628D01*
X210970857Y-63224628D02*
X210589905Y-63224628D01*
X211637524Y-63700819D02*
X211828000Y-63700819D01*
X211828000Y-63700819D02*
X211923238Y-63653200D01*
X211923238Y-63653200D02*
X211970857Y-63605580D01*
X211970857Y-63605580D02*
X212066095Y-63462723D01*
X212066095Y-63462723D02*
X212113714Y-63272247D01*
X212113714Y-63272247D02*
X212113714Y-62891295D01*
X212113714Y-62891295D02*
X212066095Y-62796057D01*
X212066095Y-62796057D02*
X212018476Y-62748438D01*
X212018476Y-62748438D02*
X211923238Y-62700819D01*
X211923238Y-62700819D02*
X211732762Y-62700819D01*
X211732762Y-62700819D02*
X211637524Y-62748438D01*
X211637524Y-62748438D02*
X211589905Y-62796057D01*
X211589905Y-62796057D02*
X211542286Y-62891295D01*
X211542286Y-62891295D02*
X211542286Y-63129390D01*
X211542286Y-63129390D02*
X211589905Y-63224628D01*
X211589905Y-63224628D02*
X211637524Y-63272247D01*
X211637524Y-63272247D02*
X211732762Y-63319866D01*
X211732762Y-63319866D02*
X211923238Y-63319866D01*
X211923238Y-63319866D02*
X212018476Y-63272247D01*
X212018476Y-63272247D02*
X212066095Y-63224628D01*
X212066095Y-63224628D02*
X212113714Y-63129390D01*
X201922142Y-78559819D02*
X201588809Y-78083628D01*
X201350714Y-78559819D02*
X201350714Y-77559819D01*
X201350714Y-77559819D02*
X201731666Y-77559819D01*
X201731666Y-77559819D02*
X201826904Y-77607438D01*
X201826904Y-77607438D02*
X201874523Y-77655057D01*
X201874523Y-77655057D02*
X201922142Y-77750295D01*
X201922142Y-77750295D02*
X201922142Y-77893152D01*
X201922142Y-77893152D02*
X201874523Y-77988390D01*
X201874523Y-77988390D02*
X201826904Y-78036009D01*
X201826904Y-78036009D02*
X201731666Y-78083628D01*
X201731666Y-78083628D02*
X201350714Y-78083628D01*
X202874523Y-78559819D02*
X202303095Y-78559819D01*
X202588809Y-78559819D02*
X202588809Y-77559819D01*
X202588809Y-77559819D02*
X202493571Y-77702676D01*
X202493571Y-77702676D02*
X202398333Y-77797914D01*
X202398333Y-77797914D02*
X202303095Y-77845533D01*
X203493571Y-77559819D02*
X203588809Y-77559819D01*
X203588809Y-77559819D02*
X203684047Y-77607438D01*
X203684047Y-77607438D02*
X203731666Y-77655057D01*
X203731666Y-77655057D02*
X203779285Y-77750295D01*
X203779285Y-77750295D02*
X203826904Y-77940771D01*
X203826904Y-77940771D02*
X203826904Y-78178866D01*
X203826904Y-78178866D02*
X203779285Y-78369342D01*
X203779285Y-78369342D02*
X203731666Y-78464580D01*
X203731666Y-78464580D02*
X203684047Y-78512200D01*
X203684047Y-78512200D02*
X203588809Y-78559819D01*
X203588809Y-78559819D02*
X203493571Y-78559819D01*
X203493571Y-78559819D02*
X203398333Y-78512200D01*
X203398333Y-78512200D02*
X203350714Y-78464580D01*
X203350714Y-78464580D02*
X203303095Y-78369342D01*
X203303095Y-78369342D02*
X203255476Y-78178866D01*
X203255476Y-78178866D02*
X203255476Y-77940771D01*
X203255476Y-77940771D02*
X203303095Y-77750295D01*
X203303095Y-77750295D02*
X203350714Y-77655057D01*
X203350714Y-77655057D02*
X203398333Y-77607438D01*
X203398333Y-77607438D02*
X203493571Y-77559819D01*
X209383333Y-76305580D02*
X209335714Y-76353200D01*
X209335714Y-76353200D02*
X209192857Y-76400819D01*
X209192857Y-76400819D02*
X209097619Y-76400819D01*
X209097619Y-76400819D02*
X208954762Y-76353200D01*
X208954762Y-76353200D02*
X208859524Y-76257961D01*
X208859524Y-76257961D02*
X208811905Y-76162723D01*
X208811905Y-76162723D02*
X208764286Y-75972247D01*
X208764286Y-75972247D02*
X208764286Y-75829390D01*
X208764286Y-75829390D02*
X208811905Y-75638914D01*
X208811905Y-75638914D02*
X208859524Y-75543676D01*
X208859524Y-75543676D02*
X208954762Y-75448438D01*
X208954762Y-75448438D02*
X209097619Y-75400819D01*
X209097619Y-75400819D02*
X209192857Y-75400819D01*
X209192857Y-75400819D02*
X209335714Y-75448438D01*
X209335714Y-75448438D02*
X209383333Y-75496057D01*
X210288095Y-75400819D02*
X209811905Y-75400819D01*
X209811905Y-75400819D02*
X209764286Y-75877009D01*
X209764286Y-75877009D02*
X209811905Y-75829390D01*
X209811905Y-75829390D02*
X209907143Y-75781771D01*
X209907143Y-75781771D02*
X210145238Y-75781771D01*
X210145238Y-75781771D02*
X210240476Y-75829390D01*
X210240476Y-75829390D02*
X210288095Y-75877009D01*
X210288095Y-75877009D02*
X210335714Y-75972247D01*
X210335714Y-75972247D02*
X210335714Y-76210342D01*
X210335714Y-76210342D02*
X210288095Y-76305580D01*
X210288095Y-76305580D02*
X210240476Y-76353200D01*
X210240476Y-76353200D02*
X210145238Y-76400819D01*
X210145238Y-76400819D02*
X209907143Y-76400819D01*
X209907143Y-76400819D02*
X209811905Y-76353200D01*
X209811905Y-76353200D02*
X209764286Y-76305580D01*
X212971142Y-59509819D02*
X212637809Y-59033628D01*
X212399714Y-59509819D02*
X212399714Y-58509819D01*
X212399714Y-58509819D02*
X212780666Y-58509819D01*
X212780666Y-58509819D02*
X212875904Y-58557438D01*
X212875904Y-58557438D02*
X212923523Y-58605057D01*
X212923523Y-58605057D02*
X212971142Y-58700295D01*
X212971142Y-58700295D02*
X212971142Y-58843152D01*
X212971142Y-58843152D02*
X212923523Y-58938390D01*
X212923523Y-58938390D02*
X212875904Y-58986009D01*
X212875904Y-58986009D02*
X212780666Y-59033628D01*
X212780666Y-59033628D02*
X212399714Y-59033628D01*
X213923523Y-59509819D02*
X213352095Y-59509819D01*
X213637809Y-59509819D02*
X213637809Y-58509819D01*
X213637809Y-58509819D02*
X213542571Y-58652676D01*
X213542571Y-58652676D02*
X213447333Y-58747914D01*
X213447333Y-58747914D02*
X213352095Y-58795533D01*
X214256857Y-58509819D02*
X214875904Y-58509819D01*
X214875904Y-58509819D02*
X214542571Y-58890771D01*
X214542571Y-58890771D02*
X214685428Y-58890771D01*
X214685428Y-58890771D02*
X214780666Y-58938390D01*
X214780666Y-58938390D02*
X214828285Y-58986009D01*
X214828285Y-58986009D02*
X214875904Y-59081247D01*
X214875904Y-59081247D02*
X214875904Y-59319342D01*
X214875904Y-59319342D02*
X214828285Y-59414580D01*
X214828285Y-59414580D02*
X214780666Y-59462200D01*
X214780666Y-59462200D02*
X214685428Y-59509819D01*
X214685428Y-59509819D02*
X214399714Y-59509819D01*
X214399714Y-59509819D02*
X214304476Y-59462200D01*
X214304476Y-59462200D02*
X214256857Y-59414580D01*
X219797333Y-63859580D02*
X219749714Y-63907200D01*
X219749714Y-63907200D02*
X219606857Y-63954819D01*
X219606857Y-63954819D02*
X219511619Y-63954819D01*
X219511619Y-63954819D02*
X219368762Y-63907200D01*
X219368762Y-63907200D02*
X219273524Y-63811961D01*
X219273524Y-63811961D02*
X219225905Y-63716723D01*
X219225905Y-63716723D02*
X219178286Y-63526247D01*
X219178286Y-63526247D02*
X219178286Y-63383390D01*
X219178286Y-63383390D02*
X219225905Y-63192914D01*
X219225905Y-63192914D02*
X219273524Y-63097676D01*
X219273524Y-63097676D02*
X219368762Y-63002438D01*
X219368762Y-63002438D02*
X219511619Y-62954819D01*
X219511619Y-62954819D02*
X219606857Y-62954819D01*
X219606857Y-62954819D02*
X219749714Y-63002438D01*
X219749714Y-63002438D02*
X219797333Y-63050057D01*
X220368762Y-63383390D02*
X220273524Y-63335771D01*
X220273524Y-63335771D02*
X220225905Y-63288152D01*
X220225905Y-63288152D02*
X220178286Y-63192914D01*
X220178286Y-63192914D02*
X220178286Y-63145295D01*
X220178286Y-63145295D02*
X220225905Y-63050057D01*
X220225905Y-63050057D02*
X220273524Y-63002438D01*
X220273524Y-63002438D02*
X220368762Y-62954819D01*
X220368762Y-62954819D02*
X220559238Y-62954819D01*
X220559238Y-62954819D02*
X220654476Y-63002438D01*
X220654476Y-63002438D02*
X220702095Y-63050057D01*
X220702095Y-63050057D02*
X220749714Y-63145295D01*
X220749714Y-63145295D02*
X220749714Y-63192914D01*
X220749714Y-63192914D02*
X220702095Y-63288152D01*
X220702095Y-63288152D02*
X220654476Y-63335771D01*
X220654476Y-63335771D02*
X220559238Y-63383390D01*
X220559238Y-63383390D02*
X220368762Y-63383390D01*
X220368762Y-63383390D02*
X220273524Y-63431009D01*
X220273524Y-63431009D02*
X220225905Y-63478628D01*
X220225905Y-63478628D02*
X220178286Y-63573866D01*
X220178286Y-63573866D02*
X220178286Y-63764342D01*
X220178286Y-63764342D02*
X220225905Y-63859580D01*
X220225905Y-63859580D02*
X220273524Y-63907200D01*
X220273524Y-63907200D02*
X220368762Y-63954819D01*
X220368762Y-63954819D02*
X220559238Y-63954819D01*
X220559238Y-63954819D02*
X220654476Y-63907200D01*
X220654476Y-63907200D02*
X220702095Y-63859580D01*
X220702095Y-63859580D02*
X220749714Y-63764342D01*
X220749714Y-63764342D02*
X220749714Y-63573866D01*
X220749714Y-63573866D02*
X220702095Y-63478628D01*
X220702095Y-63478628D02*
X220654476Y-63431009D01*
X220654476Y-63431009D02*
X220559238Y-63383390D01*
X206081333Y-99419580D02*
X206033714Y-99467200D01*
X206033714Y-99467200D02*
X205890857Y-99514819D01*
X205890857Y-99514819D02*
X205795619Y-99514819D01*
X205795619Y-99514819D02*
X205652762Y-99467200D01*
X205652762Y-99467200D02*
X205557524Y-99371961D01*
X205557524Y-99371961D02*
X205509905Y-99276723D01*
X205509905Y-99276723D02*
X205462286Y-99086247D01*
X205462286Y-99086247D02*
X205462286Y-98943390D01*
X205462286Y-98943390D02*
X205509905Y-98752914D01*
X205509905Y-98752914D02*
X205557524Y-98657676D01*
X205557524Y-98657676D02*
X205652762Y-98562438D01*
X205652762Y-98562438D02*
X205795619Y-98514819D01*
X205795619Y-98514819D02*
X205890857Y-98514819D01*
X205890857Y-98514819D02*
X206033714Y-98562438D01*
X206033714Y-98562438D02*
X206081333Y-98610057D01*
X206938476Y-98848152D02*
X206938476Y-99514819D01*
X206700381Y-98467200D02*
X206462286Y-99181485D01*
X206462286Y-99181485D02*
X207081333Y-99181485D01*
X215257142Y-63954819D02*
X214923809Y-63478628D01*
X214685714Y-63954819D02*
X214685714Y-62954819D01*
X214685714Y-62954819D02*
X215066666Y-62954819D01*
X215066666Y-62954819D02*
X215161904Y-63002438D01*
X215161904Y-63002438D02*
X215209523Y-63050057D01*
X215209523Y-63050057D02*
X215257142Y-63145295D01*
X215257142Y-63145295D02*
X215257142Y-63288152D01*
X215257142Y-63288152D02*
X215209523Y-63383390D01*
X215209523Y-63383390D02*
X215161904Y-63431009D01*
X215161904Y-63431009D02*
X215066666Y-63478628D01*
X215066666Y-63478628D02*
X214685714Y-63478628D01*
X216209523Y-63954819D02*
X215638095Y-63954819D01*
X215923809Y-63954819D02*
X215923809Y-62954819D01*
X215923809Y-62954819D02*
X215828571Y-63097676D01*
X215828571Y-63097676D02*
X215733333Y-63192914D01*
X215733333Y-63192914D02*
X215638095Y-63240533D01*
X217066666Y-63288152D02*
X217066666Y-63954819D01*
X216828571Y-62907200D02*
X216590476Y-63621485D01*
X216590476Y-63621485D02*
X217209523Y-63621485D01*
X229594580Y-92241666D02*
X229642200Y-92289285D01*
X229642200Y-92289285D02*
X229689819Y-92432142D01*
X229689819Y-92432142D02*
X229689819Y-92527380D01*
X229689819Y-92527380D02*
X229642200Y-92670237D01*
X229642200Y-92670237D02*
X229546961Y-92765475D01*
X229546961Y-92765475D02*
X229451723Y-92813094D01*
X229451723Y-92813094D02*
X229261247Y-92860713D01*
X229261247Y-92860713D02*
X229118390Y-92860713D01*
X229118390Y-92860713D02*
X228927914Y-92813094D01*
X228927914Y-92813094D02*
X228832676Y-92765475D01*
X228832676Y-92765475D02*
X228737438Y-92670237D01*
X228737438Y-92670237D02*
X228689819Y-92527380D01*
X228689819Y-92527380D02*
X228689819Y-92432142D01*
X228689819Y-92432142D02*
X228737438Y-92289285D01*
X228737438Y-92289285D02*
X228785057Y-92241666D01*
X228689819Y-91908332D02*
X228689819Y-91289285D01*
X228689819Y-91289285D02*
X229070771Y-91622618D01*
X229070771Y-91622618D02*
X229070771Y-91479761D01*
X229070771Y-91479761D02*
X229118390Y-91384523D01*
X229118390Y-91384523D02*
X229166009Y-91336904D01*
X229166009Y-91336904D02*
X229261247Y-91289285D01*
X229261247Y-91289285D02*
X229499342Y-91289285D01*
X229499342Y-91289285D02*
X229594580Y-91336904D01*
X229594580Y-91336904D02*
X229642200Y-91384523D01*
X229642200Y-91384523D02*
X229689819Y-91479761D01*
X229689819Y-91479761D02*
X229689819Y-91765475D01*
X229689819Y-91765475D02*
X229642200Y-91860713D01*
X229642200Y-91860713D02*
X229594580Y-91908332D01*
X204120761Y-69765057D02*
X204025523Y-69717438D01*
X204025523Y-69717438D02*
X203930285Y-69622200D01*
X203930285Y-69622200D02*
X203787428Y-69479342D01*
X203787428Y-69479342D02*
X203692190Y-69431723D01*
X203692190Y-69431723D02*
X203596952Y-69431723D01*
X203644571Y-69669819D02*
X203549333Y-69622200D01*
X203549333Y-69622200D02*
X203454095Y-69526961D01*
X203454095Y-69526961D02*
X203406476Y-69336485D01*
X203406476Y-69336485D02*
X203406476Y-69003152D01*
X203406476Y-69003152D02*
X203454095Y-68812676D01*
X203454095Y-68812676D02*
X203549333Y-68717438D01*
X203549333Y-68717438D02*
X203644571Y-68669819D01*
X203644571Y-68669819D02*
X203835047Y-68669819D01*
X203835047Y-68669819D02*
X203930285Y-68717438D01*
X203930285Y-68717438D02*
X204025523Y-68812676D01*
X204025523Y-68812676D02*
X204073142Y-69003152D01*
X204073142Y-69003152D02*
X204073142Y-69336485D01*
X204073142Y-69336485D02*
X204025523Y-69526961D01*
X204025523Y-69526961D02*
X203930285Y-69622200D01*
X203930285Y-69622200D02*
X203835047Y-69669819D01*
X203835047Y-69669819D02*
X203644571Y-69669819D01*
X204454095Y-68765057D02*
X204501714Y-68717438D01*
X204501714Y-68717438D02*
X204596952Y-68669819D01*
X204596952Y-68669819D02*
X204835047Y-68669819D01*
X204835047Y-68669819D02*
X204930285Y-68717438D01*
X204930285Y-68717438D02*
X204977904Y-68765057D01*
X204977904Y-68765057D02*
X205025523Y-68860295D01*
X205025523Y-68860295D02*
X205025523Y-68955533D01*
X205025523Y-68955533D02*
X204977904Y-69098390D01*
X204977904Y-69098390D02*
X204406476Y-69669819D01*
X204406476Y-69669819D02*
X205025523Y-69669819D01*
X231441666Y-82004819D02*
X231441666Y-82719104D01*
X231441666Y-82719104D02*
X231394047Y-82861961D01*
X231394047Y-82861961D02*
X231298809Y-82957200D01*
X231298809Y-82957200D02*
X231155952Y-83004819D01*
X231155952Y-83004819D02*
X231060714Y-83004819D01*
X232441666Y-83004819D02*
X231870238Y-83004819D01*
X232155952Y-83004819D02*
X232155952Y-82004819D01*
X232155952Y-82004819D02*
X232060714Y-82147676D01*
X232060714Y-82147676D02*
X231965476Y-82242914D01*
X231965476Y-82242914D02*
X231870238Y-82290533D01*
X210004819Y-52966857D02*
X209528628Y-53300190D01*
X210004819Y-53538285D02*
X209004819Y-53538285D01*
X209004819Y-53538285D02*
X209004819Y-53157333D01*
X209004819Y-53157333D02*
X209052438Y-53062095D01*
X209052438Y-53062095D02*
X209100057Y-53014476D01*
X209100057Y-53014476D02*
X209195295Y-52966857D01*
X209195295Y-52966857D02*
X209338152Y-52966857D01*
X209338152Y-52966857D02*
X209433390Y-53014476D01*
X209433390Y-53014476D02*
X209481009Y-53062095D01*
X209481009Y-53062095D02*
X209528628Y-53157333D01*
X209528628Y-53157333D02*
X209528628Y-53538285D01*
X210004819Y-52014476D02*
X210004819Y-52585904D01*
X210004819Y-52300190D02*
X209004819Y-52300190D01*
X209004819Y-52300190D02*
X209147676Y-52395428D01*
X209147676Y-52395428D02*
X209242914Y-52490666D01*
X209242914Y-52490666D02*
X209290533Y-52585904D01*
X209004819Y-51157333D02*
X209004819Y-51347809D01*
X209004819Y-51347809D02*
X209052438Y-51443047D01*
X209052438Y-51443047D02*
X209100057Y-51490666D01*
X209100057Y-51490666D02*
X209242914Y-51585904D01*
X209242914Y-51585904D02*
X209433390Y-51633523D01*
X209433390Y-51633523D02*
X209814342Y-51633523D01*
X209814342Y-51633523D02*
X209909580Y-51585904D01*
X209909580Y-51585904D02*
X209957200Y-51538285D01*
X209957200Y-51538285D02*
X210004819Y-51443047D01*
X210004819Y-51443047D02*
X210004819Y-51252571D01*
X210004819Y-51252571D02*
X209957200Y-51157333D01*
X209957200Y-51157333D02*
X209909580Y-51109714D01*
X209909580Y-51109714D02*
X209814342Y-51062095D01*
X209814342Y-51062095D02*
X209576247Y-51062095D01*
X209576247Y-51062095D02*
X209481009Y-51109714D01*
X209481009Y-51109714D02*
X209433390Y-51157333D01*
X209433390Y-51157333D02*
X209385771Y-51252571D01*
X209385771Y-51252571D02*
X209385771Y-51443047D01*
X209385771Y-51443047D02*
X209433390Y-51538285D01*
X209433390Y-51538285D02*
X209481009Y-51585904D01*
X209481009Y-51585904D02*
X209576247Y-51633523D01*
X210399333Y-68304580D02*
X210351714Y-68352200D01*
X210351714Y-68352200D02*
X210208857Y-68399819D01*
X210208857Y-68399819D02*
X210113619Y-68399819D01*
X210113619Y-68399819D02*
X209970762Y-68352200D01*
X209970762Y-68352200D02*
X209875524Y-68256961D01*
X209875524Y-68256961D02*
X209827905Y-68161723D01*
X209827905Y-68161723D02*
X209780286Y-67971247D01*
X209780286Y-67971247D02*
X209780286Y-67828390D01*
X209780286Y-67828390D02*
X209827905Y-67637914D01*
X209827905Y-67637914D02*
X209875524Y-67542676D01*
X209875524Y-67542676D02*
X209970762Y-67447438D01*
X209970762Y-67447438D02*
X210113619Y-67399819D01*
X210113619Y-67399819D02*
X210208857Y-67399819D01*
X210208857Y-67399819D02*
X210351714Y-67447438D01*
X210351714Y-67447438D02*
X210399333Y-67495057D01*
X211256476Y-67399819D02*
X211066000Y-67399819D01*
X211066000Y-67399819D02*
X210970762Y-67447438D01*
X210970762Y-67447438D02*
X210923143Y-67495057D01*
X210923143Y-67495057D02*
X210827905Y-67637914D01*
X210827905Y-67637914D02*
X210780286Y-67828390D01*
X210780286Y-67828390D02*
X210780286Y-68209342D01*
X210780286Y-68209342D02*
X210827905Y-68304580D01*
X210827905Y-68304580D02*
X210875524Y-68352200D01*
X210875524Y-68352200D02*
X210970762Y-68399819D01*
X210970762Y-68399819D02*
X211161238Y-68399819D01*
X211161238Y-68399819D02*
X211256476Y-68352200D01*
X211256476Y-68352200D02*
X211304095Y-68304580D01*
X211304095Y-68304580D02*
X211351714Y-68209342D01*
X211351714Y-68209342D02*
X211351714Y-67971247D01*
X211351714Y-67971247D02*
X211304095Y-67876009D01*
X211304095Y-67876009D02*
X211256476Y-67828390D01*
X211256476Y-67828390D02*
X211161238Y-67780771D01*
X211161238Y-67780771D02*
X210970762Y-67780771D01*
X210970762Y-67780771D02*
X210875524Y-67828390D01*
X210875524Y-67828390D02*
X210827905Y-67876009D01*
X210827905Y-67876009D02*
X210780286Y-67971247D01*
X219799819Y-61928333D02*
X220514104Y-61928333D01*
X220514104Y-61928333D02*
X220656961Y-61975952D01*
X220656961Y-61975952D02*
X220752200Y-62071190D01*
X220752200Y-62071190D02*
X220799819Y-62214047D01*
X220799819Y-62214047D02*
X220799819Y-62309285D01*
X219799819Y-61547380D02*
X219799819Y-60928333D01*
X219799819Y-60928333D02*
X220180771Y-61261666D01*
X220180771Y-61261666D02*
X220180771Y-61118809D01*
X220180771Y-61118809D02*
X220228390Y-61023571D01*
X220228390Y-61023571D02*
X220276009Y-60975952D01*
X220276009Y-60975952D02*
X220371247Y-60928333D01*
X220371247Y-60928333D02*
X220609342Y-60928333D01*
X220609342Y-60928333D02*
X220704580Y-60975952D01*
X220704580Y-60975952D02*
X220752200Y-61023571D01*
X220752200Y-61023571D02*
X220799819Y-61118809D01*
X220799819Y-61118809D02*
X220799819Y-61404523D01*
X220799819Y-61404523D02*
X220752200Y-61499761D01*
X220752200Y-61499761D02*
X220704580Y-61547380D01*
X212558333Y-93545819D02*
X212225000Y-93069628D01*
X211986905Y-93545819D02*
X211986905Y-92545819D01*
X211986905Y-92545819D02*
X212367857Y-92545819D01*
X212367857Y-92545819D02*
X212463095Y-92593438D01*
X212463095Y-92593438D02*
X212510714Y-92641057D01*
X212510714Y-92641057D02*
X212558333Y-92736295D01*
X212558333Y-92736295D02*
X212558333Y-92879152D01*
X212558333Y-92879152D02*
X212510714Y-92974390D01*
X212510714Y-92974390D02*
X212463095Y-93022009D01*
X212463095Y-93022009D02*
X212367857Y-93069628D01*
X212367857Y-93069628D02*
X211986905Y-93069628D01*
X212891667Y-92545819D02*
X213510714Y-92545819D01*
X213510714Y-92545819D02*
X213177381Y-92926771D01*
X213177381Y-92926771D02*
X213320238Y-92926771D01*
X213320238Y-92926771D02*
X213415476Y-92974390D01*
X213415476Y-92974390D02*
X213463095Y-93022009D01*
X213463095Y-93022009D02*
X213510714Y-93117247D01*
X213510714Y-93117247D02*
X213510714Y-93355342D01*
X213510714Y-93355342D02*
X213463095Y-93450580D01*
X213463095Y-93450580D02*
X213415476Y-93498200D01*
X213415476Y-93498200D02*
X213320238Y-93545819D01*
X213320238Y-93545819D02*
X213034524Y-93545819D01*
X213034524Y-93545819D02*
X212939286Y-93498200D01*
X212939286Y-93498200D02*
X212891667Y-93450580D01*
X231441666Y-84754819D02*
X231441666Y-85469104D01*
X231441666Y-85469104D02*
X231394047Y-85611961D01*
X231394047Y-85611961D02*
X231298809Y-85707200D01*
X231298809Y-85707200D02*
X231155952Y-85754819D01*
X231155952Y-85754819D02*
X231060714Y-85754819D01*
X231870238Y-84850057D02*
X231917857Y-84802438D01*
X231917857Y-84802438D02*
X232013095Y-84754819D01*
X232013095Y-84754819D02*
X232251190Y-84754819D01*
X232251190Y-84754819D02*
X232346428Y-84802438D01*
X232346428Y-84802438D02*
X232394047Y-84850057D01*
X232394047Y-84850057D02*
X232441666Y-84945295D01*
X232441666Y-84945295D02*
X232441666Y-85040533D01*
X232441666Y-85040533D02*
X232394047Y-85183390D01*
X232394047Y-85183390D02*
X231822619Y-85754819D01*
X231822619Y-85754819D02*
X232441666Y-85754819D01*
X204120761Y-60875057D02*
X204025523Y-60827438D01*
X204025523Y-60827438D02*
X203930285Y-60732200D01*
X203930285Y-60732200D02*
X203787428Y-60589342D01*
X203787428Y-60589342D02*
X203692190Y-60541723D01*
X203692190Y-60541723D02*
X203596952Y-60541723D01*
X203644571Y-60779819D02*
X203549333Y-60732200D01*
X203549333Y-60732200D02*
X203454095Y-60636961D01*
X203454095Y-60636961D02*
X203406476Y-60446485D01*
X203406476Y-60446485D02*
X203406476Y-60113152D01*
X203406476Y-60113152D02*
X203454095Y-59922676D01*
X203454095Y-59922676D02*
X203549333Y-59827438D01*
X203549333Y-59827438D02*
X203644571Y-59779819D01*
X203644571Y-59779819D02*
X203835047Y-59779819D01*
X203835047Y-59779819D02*
X203930285Y-59827438D01*
X203930285Y-59827438D02*
X204025523Y-59922676D01*
X204025523Y-59922676D02*
X204073142Y-60113152D01*
X204073142Y-60113152D02*
X204073142Y-60446485D01*
X204073142Y-60446485D02*
X204025523Y-60636961D01*
X204025523Y-60636961D02*
X203930285Y-60732200D01*
X203930285Y-60732200D02*
X203835047Y-60779819D01*
X203835047Y-60779819D02*
X203644571Y-60779819D01*
X204406476Y-59779819D02*
X205025523Y-59779819D01*
X205025523Y-59779819D02*
X204692190Y-60160771D01*
X204692190Y-60160771D02*
X204835047Y-60160771D01*
X204835047Y-60160771D02*
X204930285Y-60208390D01*
X204930285Y-60208390D02*
X204977904Y-60256009D01*
X204977904Y-60256009D02*
X205025523Y-60351247D01*
X205025523Y-60351247D02*
X205025523Y-60589342D01*
X205025523Y-60589342D02*
X204977904Y-60684580D01*
X204977904Y-60684580D02*
X204930285Y-60732200D01*
X204930285Y-60732200D02*
X204835047Y-60779819D01*
X204835047Y-60779819D02*
X204549333Y-60779819D01*
X204549333Y-60779819D02*
X204454095Y-60732200D01*
X204454095Y-60732200D02*
X204406476Y-60684580D01*
X213955333Y-56334819D02*
X213622000Y-55858628D01*
X213383905Y-56334819D02*
X213383905Y-55334819D01*
X213383905Y-55334819D02*
X213764857Y-55334819D01*
X213764857Y-55334819D02*
X213860095Y-55382438D01*
X213860095Y-55382438D02*
X213907714Y-55430057D01*
X213907714Y-55430057D02*
X213955333Y-55525295D01*
X213955333Y-55525295D02*
X213955333Y-55668152D01*
X213955333Y-55668152D02*
X213907714Y-55763390D01*
X213907714Y-55763390D02*
X213860095Y-55811009D01*
X213860095Y-55811009D02*
X213764857Y-55858628D01*
X213764857Y-55858628D02*
X213383905Y-55858628D01*
X214860095Y-55334819D02*
X214383905Y-55334819D01*
X214383905Y-55334819D02*
X214336286Y-55811009D01*
X214336286Y-55811009D02*
X214383905Y-55763390D01*
X214383905Y-55763390D02*
X214479143Y-55715771D01*
X214479143Y-55715771D02*
X214717238Y-55715771D01*
X214717238Y-55715771D02*
X214812476Y-55763390D01*
X214812476Y-55763390D02*
X214860095Y-55811009D01*
X214860095Y-55811009D02*
X214907714Y-55906247D01*
X214907714Y-55906247D02*
X214907714Y-56144342D01*
X214907714Y-56144342D02*
X214860095Y-56239580D01*
X214860095Y-56239580D02*
X214812476Y-56287200D01*
X214812476Y-56287200D02*
X214717238Y-56334819D01*
X214717238Y-56334819D02*
X214479143Y-56334819D01*
X214479143Y-56334819D02*
X214383905Y-56287200D01*
X214383905Y-56287200D02*
X214336286Y-56239580D01*
X219289333Y-83766819D02*
X218956000Y-83290628D01*
X218717905Y-83766819D02*
X218717905Y-82766819D01*
X218717905Y-82766819D02*
X219098857Y-82766819D01*
X219098857Y-82766819D02*
X219194095Y-82814438D01*
X219194095Y-82814438D02*
X219241714Y-82862057D01*
X219241714Y-82862057D02*
X219289333Y-82957295D01*
X219289333Y-82957295D02*
X219289333Y-83100152D01*
X219289333Y-83100152D02*
X219241714Y-83195390D01*
X219241714Y-83195390D02*
X219194095Y-83243009D01*
X219194095Y-83243009D02*
X219098857Y-83290628D01*
X219098857Y-83290628D02*
X218717905Y-83290628D01*
X220241714Y-83766819D02*
X219670286Y-83766819D01*
X219956000Y-83766819D02*
X219956000Y-82766819D01*
X219956000Y-82766819D02*
X219860762Y-82909676D01*
X219860762Y-82909676D02*
X219765524Y-83004914D01*
X219765524Y-83004914D02*
X219670286Y-83052533D01*
X213225142Y-53159819D02*
X212891809Y-52683628D01*
X212653714Y-53159819D02*
X212653714Y-52159819D01*
X212653714Y-52159819D02*
X213034666Y-52159819D01*
X213034666Y-52159819D02*
X213129904Y-52207438D01*
X213129904Y-52207438D02*
X213177523Y-52255057D01*
X213177523Y-52255057D02*
X213225142Y-52350295D01*
X213225142Y-52350295D02*
X213225142Y-52493152D01*
X213225142Y-52493152D02*
X213177523Y-52588390D01*
X213177523Y-52588390D02*
X213129904Y-52636009D01*
X213129904Y-52636009D02*
X213034666Y-52683628D01*
X213034666Y-52683628D02*
X212653714Y-52683628D01*
X214177523Y-53159819D02*
X213606095Y-53159819D01*
X213891809Y-53159819D02*
X213891809Y-52159819D01*
X213891809Y-52159819D02*
X213796571Y-52302676D01*
X213796571Y-52302676D02*
X213701333Y-52397914D01*
X213701333Y-52397914D02*
X213606095Y-52445533D01*
X215129904Y-53159819D02*
X214558476Y-53159819D01*
X214844190Y-53159819D02*
X214844190Y-52159819D01*
X214844190Y-52159819D02*
X214748952Y-52302676D01*
X214748952Y-52302676D02*
X214653714Y-52397914D01*
X214653714Y-52397914D02*
X214558476Y-52445533D01*
X213560819Y-90209666D02*
X213084628Y-90542999D01*
X213560819Y-90781094D02*
X212560819Y-90781094D01*
X212560819Y-90781094D02*
X212560819Y-90400142D01*
X212560819Y-90400142D02*
X212608438Y-90304904D01*
X212608438Y-90304904D02*
X212656057Y-90257285D01*
X212656057Y-90257285D02*
X212751295Y-90209666D01*
X212751295Y-90209666D02*
X212894152Y-90209666D01*
X212894152Y-90209666D02*
X212989390Y-90257285D01*
X212989390Y-90257285D02*
X213037009Y-90304904D01*
X213037009Y-90304904D02*
X213084628Y-90400142D01*
X213084628Y-90400142D02*
X213084628Y-90781094D01*
X212894152Y-89352523D02*
X213560819Y-89352523D01*
X212513200Y-89590618D02*
X213227485Y-89828713D01*
X213227485Y-89828713D02*
X213227485Y-89209666D01*
X219543333Y-73479819D02*
X219210000Y-73003628D01*
X218971905Y-73479819D02*
X218971905Y-72479819D01*
X218971905Y-72479819D02*
X219352857Y-72479819D01*
X219352857Y-72479819D02*
X219448095Y-72527438D01*
X219448095Y-72527438D02*
X219495714Y-72575057D01*
X219495714Y-72575057D02*
X219543333Y-72670295D01*
X219543333Y-72670295D02*
X219543333Y-72813152D01*
X219543333Y-72813152D02*
X219495714Y-72908390D01*
X219495714Y-72908390D02*
X219448095Y-72956009D01*
X219448095Y-72956009D02*
X219352857Y-73003628D01*
X219352857Y-73003628D02*
X218971905Y-73003628D01*
X220114762Y-72908390D02*
X220019524Y-72860771D01*
X220019524Y-72860771D02*
X219971905Y-72813152D01*
X219971905Y-72813152D02*
X219924286Y-72717914D01*
X219924286Y-72717914D02*
X219924286Y-72670295D01*
X219924286Y-72670295D02*
X219971905Y-72575057D01*
X219971905Y-72575057D02*
X220019524Y-72527438D01*
X220019524Y-72527438D02*
X220114762Y-72479819D01*
X220114762Y-72479819D02*
X220305238Y-72479819D01*
X220305238Y-72479819D02*
X220400476Y-72527438D01*
X220400476Y-72527438D02*
X220448095Y-72575057D01*
X220448095Y-72575057D02*
X220495714Y-72670295D01*
X220495714Y-72670295D02*
X220495714Y-72717914D01*
X220495714Y-72717914D02*
X220448095Y-72813152D01*
X220448095Y-72813152D02*
X220400476Y-72860771D01*
X220400476Y-72860771D02*
X220305238Y-72908390D01*
X220305238Y-72908390D02*
X220114762Y-72908390D01*
X220114762Y-72908390D02*
X220019524Y-72956009D01*
X220019524Y-72956009D02*
X219971905Y-73003628D01*
X219971905Y-73003628D02*
X219924286Y-73098866D01*
X219924286Y-73098866D02*
X219924286Y-73289342D01*
X219924286Y-73289342D02*
X219971905Y-73384580D01*
X219971905Y-73384580D02*
X220019524Y-73432200D01*
X220019524Y-73432200D02*
X220114762Y-73479819D01*
X220114762Y-73479819D02*
X220305238Y-73479819D01*
X220305238Y-73479819D02*
X220400476Y-73432200D01*
X220400476Y-73432200D02*
X220448095Y-73384580D01*
X220448095Y-73384580D02*
X220495714Y-73289342D01*
X220495714Y-73289342D02*
X220495714Y-73098866D01*
X220495714Y-73098866D02*
X220448095Y-73003628D01*
X220448095Y-73003628D02*
X220400476Y-72956009D01*
X220400476Y-72956009D02*
X220305238Y-72908390D01*
D13*
%TO.C,C7*%
X223980000Y-63820000D02*
X223980000Y-65375000D01*
X223980000Y-63820000D02*
X233220000Y-63820000D01*
X223980000Y-66705000D02*
X223980000Y-68260000D01*
X223980000Y-68260000D02*
X233220000Y-68260000D01*
X233220000Y-63820000D02*
X233220000Y-65375000D01*
X233220000Y-66705000D02*
X233220000Y-68260000D01*
%TO.C,R12*%
X203100000Y-88265000D02*
X203030000Y-88265000D01*
X205840000Y-88265000D02*
G75*
G03*
X205840000Y-88265000I-1370000J0D01*
G01*
%TO.C,J6*%
X215200000Y-50860000D02*
X215200000Y-49530000D01*
X216530000Y-50860000D02*
X215200000Y-50860000D01*
X217800000Y-50860000D02*
X220400000Y-50860000D01*
X217800000Y-50860000D02*
X217800000Y-48200000D01*
X220400000Y-50860000D02*
X220400000Y-48200000D01*
X217800000Y-48200000D02*
X220400000Y-48200000D01*
%TO.C,C1*%
X204755000Y-73810000D02*
X204755000Y-73875000D01*
X204755000Y-73810000D02*
X207995000Y-73810000D01*
X204755000Y-75985000D02*
X204755000Y-76050000D01*
X204755000Y-76050000D02*
X207995000Y-76050000D01*
X207995000Y-73810000D02*
X207995000Y-73875000D01*
X207995000Y-75985000D02*
X207995000Y-76050000D01*
%TO.C,C2*%
X215331000Y-99365241D02*
X215331000Y-98735241D01*
X215016000Y-99050241D02*
X215646000Y-99050241D01*
X213940000Y-95865000D02*
X220400000Y-95865000D01*
X213940000Y-95825000D02*
X220400000Y-95825000D01*
X213940000Y-95785000D02*
X220400000Y-95785000D01*
X213942000Y-95745000D02*
X220398000Y-95745000D01*
X213943000Y-95705000D02*
X220397000Y-95705000D01*
X213946000Y-95665000D02*
X220394000Y-95665000D01*
X213948000Y-95625000D02*
X216130000Y-95625000D01*
X218210000Y-95625000D02*
X220392000Y-95625000D01*
X213952000Y-95585000D02*
X216130000Y-95585000D01*
X218210000Y-95585000D02*
X220388000Y-95585000D01*
X213955000Y-95545000D02*
X216130000Y-95545000D01*
X218210000Y-95545000D02*
X220385000Y-95545000D01*
X213959000Y-95505000D02*
X216130000Y-95505000D01*
X218210000Y-95505000D02*
X220381000Y-95505000D01*
X213964000Y-95465000D02*
X216130000Y-95465000D01*
X218210000Y-95465000D02*
X220376000Y-95465000D01*
X213969000Y-95425000D02*
X216130000Y-95425000D01*
X218210000Y-95425000D02*
X220371000Y-95425000D01*
X213975000Y-95385000D02*
X216130000Y-95385000D01*
X218210000Y-95385000D02*
X220365000Y-95385000D01*
X213981000Y-95345000D02*
X216130000Y-95345000D01*
X218210000Y-95345000D02*
X220359000Y-95345000D01*
X213988000Y-95305000D02*
X216130000Y-95305000D01*
X218210000Y-95305000D02*
X220352000Y-95305000D01*
X213995000Y-95265000D02*
X216130000Y-95265000D01*
X218210000Y-95265000D02*
X220345000Y-95265000D01*
X214003000Y-95225000D02*
X216130000Y-95225000D01*
X218210000Y-95225000D02*
X220337000Y-95225000D01*
X214011000Y-95185000D02*
X216130000Y-95185000D01*
X218210000Y-95185000D02*
X220329000Y-95185000D01*
X214020000Y-95144000D02*
X216130000Y-95144000D01*
X218210000Y-95144000D02*
X220320000Y-95144000D01*
X214029000Y-95104000D02*
X216130000Y-95104000D01*
X218210000Y-95104000D02*
X220311000Y-95104000D01*
X214039000Y-95064000D02*
X216130000Y-95064000D01*
X218210000Y-95064000D02*
X220301000Y-95064000D01*
X214049000Y-95024000D02*
X216130000Y-95024000D01*
X218210000Y-95024000D02*
X220291000Y-95024000D01*
X214060000Y-94984000D02*
X216130000Y-94984000D01*
X218210000Y-94984000D02*
X220280000Y-94984000D01*
X214072000Y-94944000D02*
X216130000Y-94944000D01*
X218210000Y-94944000D02*
X220268000Y-94944000D01*
X214084000Y-94904000D02*
X216130000Y-94904000D01*
X218210000Y-94904000D02*
X220256000Y-94904000D01*
X214096000Y-94864000D02*
X216130000Y-94864000D01*
X218210000Y-94864000D02*
X220244000Y-94864000D01*
X214109000Y-94824000D02*
X216130000Y-94824000D01*
X218210000Y-94824000D02*
X220231000Y-94824000D01*
X214123000Y-94784000D02*
X216130000Y-94784000D01*
X218210000Y-94784000D02*
X220217000Y-94784000D01*
X214137000Y-94744000D02*
X216130000Y-94744000D01*
X218210000Y-94744000D02*
X220203000Y-94744000D01*
X214152000Y-94704000D02*
X216130000Y-94704000D01*
X218210000Y-94704000D02*
X220188000Y-94704000D01*
X214168000Y-94664000D02*
X216130000Y-94664000D01*
X218210000Y-94664000D02*
X220172000Y-94664000D01*
X214184000Y-94624000D02*
X216130000Y-94624000D01*
X218210000Y-94624000D02*
X220156000Y-94624000D01*
X214200000Y-94584000D02*
X216130000Y-94584000D01*
X218210000Y-94584000D02*
X220140000Y-94584000D01*
X214218000Y-94544000D02*
X216130000Y-94544000D01*
X218210000Y-94544000D02*
X220122000Y-94544000D01*
X214236000Y-94504000D02*
X216130000Y-94504000D01*
X218210000Y-94504000D02*
X220104000Y-94504000D01*
X214254000Y-94464000D02*
X216130000Y-94464000D01*
X218210000Y-94464000D02*
X220086000Y-94464000D01*
X214274000Y-94424000D02*
X216130000Y-94424000D01*
X218210000Y-94424000D02*
X220066000Y-94424000D01*
X214294000Y-94384000D02*
X216130000Y-94384000D01*
X218210000Y-94384000D02*
X220046000Y-94384000D01*
X214314000Y-94344000D02*
X216130000Y-94344000D01*
X218210000Y-94344000D02*
X220026000Y-94344000D01*
X214336000Y-94304000D02*
X216130000Y-94304000D01*
X218210000Y-94304000D02*
X220004000Y-94304000D01*
X214358000Y-94264000D02*
X216130000Y-94264000D01*
X218210000Y-94264000D02*
X219982000Y-94264000D01*
X214380000Y-94224000D02*
X216130000Y-94224000D01*
X218210000Y-94224000D02*
X219960000Y-94224000D01*
X214404000Y-94184000D02*
X216130000Y-94184000D01*
X218210000Y-94184000D02*
X219936000Y-94184000D01*
X214428000Y-94144000D02*
X216130000Y-94144000D01*
X218210000Y-94144000D02*
X219912000Y-94144000D01*
X214454000Y-94104000D02*
X216130000Y-94104000D01*
X218210000Y-94104000D02*
X219886000Y-94104000D01*
X214480000Y-94064000D02*
X216130000Y-94064000D01*
X218210000Y-94064000D02*
X219860000Y-94064000D01*
X214506000Y-94024000D02*
X216130000Y-94024000D01*
X218210000Y-94024000D02*
X219834000Y-94024000D01*
X214534000Y-93984000D02*
X216130000Y-93984000D01*
X218210000Y-93984000D02*
X219806000Y-93984000D01*
X214563000Y-93944000D02*
X216130000Y-93944000D01*
X218210000Y-93944000D02*
X219777000Y-93944000D01*
X214592000Y-93904000D02*
X216130000Y-93904000D01*
X218210000Y-93904000D02*
X219748000Y-93904000D01*
X214622000Y-93864000D02*
X216130000Y-93864000D01*
X218210000Y-93864000D02*
X219718000Y-93864000D01*
X214654000Y-93824000D02*
X216130000Y-93824000D01*
X218210000Y-93824000D02*
X219686000Y-93824000D01*
X214686000Y-93784000D02*
X216130000Y-93784000D01*
X218210000Y-93784000D02*
X219654000Y-93784000D01*
X214720000Y-93744000D02*
X216130000Y-93744000D01*
X218210000Y-93744000D02*
X219620000Y-93744000D01*
X214754000Y-93704000D02*
X216130000Y-93704000D01*
X218210000Y-93704000D02*
X219586000Y-93704000D01*
X214790000Y-93664000D02*
X216130000Y-93664000D01*
X218210000Y-93664000D02*
X219550000Y-93664000D01*
X214827000Y-93624000D02*
X216130000Y-93624000D01*
X218210000Y-93624000D02*
X219513000Y-93624000D01*
X214865000Y-93584000D02*
X216130000Y-93584000D01*
X218210000Y-93584000D02*
X219475000Y-93584000D01*
X214905000Y-93544000D02*
X219435000Y-93544000D01*
X214946000Y-93504000D02*
X219394000Y-93504000D01*
X214988000Y-93464000D02*
X219352000Y-93464000D01*
X215033000Y-93424000D02*
X219307000Y-93424000D01*
X215078000Y-93384000D02*
X219262000Y-93384000D01*
X215126000Y-93344000D02*
X219214000Y-93344000D01*
X215175000Y-93304000D02*
X219165000Y-93304000D01*
X215226000Y-93264000D02*
X219114000Y-93264000D01*
X215280000Y-93224000D02*
X219060000Y-93224000D01*
X215336000Y-93184000D02*
X219004000Y-93184000D01*
X215394000Y-93144000D02*
X218946000Y-93144000D01*
X215456000Y-93104000D02*
X218884000Y-93104000D01*
X215520000Y-93064000D02*
X218820000Y-93064000D01*
X215589000Y-93024000D02*
X218751000Y-93024000D01*
X215661000Y-92984000D02*
X218679000Y-92984000D01*
X215738000Y-92944000D02*
X218602000Y-92944000D01*
X215820000Y-92904000D02*
X218520000Y-92904000D01*
X215908000Y-92864000D02*
X218432000Y-92864000D01*
X216005000Y-92824000D02*
X218335000Y-92824000D01*
X216111000Y-92784000D02*
X218229000Y-92784000D01*
X216230000Y-92744000D02*
X218110000Y-92744000D01*
X216368000Y-92704000D02*
X217972000Y-92704000D01*
X216537000Y-92664000D02*
X217803000Y-92664000D01*
X216768000Y-92624000D02*
X217572000Y-92624000D01*
X220440000Y-95865000D02*
G75*
G03*
X220440000Y-95865000I-3270000J0D01*
G01*
%TO.C,U1*%
X227430000Y-90870000D02*
X227430000Y-72970000D01*
X227430000Y-72970000D02*
X222130000Y-72970000D01*
X225780000Y-90870000D02*
X227430000Y-90870000D01*
X222130000Y-90870000D02*
X223780000Y-90870000D01*
X222130000Y-72970000D02*
X222130000Y-90870000D01*
X225780000Y-90870000D02*
G75*
G03*
X223780000Y-90870000I-1000000J0D01*
G01*
%TO.C,R15*%
X206375000Y-56840000D02*
X206375000Y-56910000D01*
X207745000Y-55470000D02*
G75*
G03*
X207745000Y-55470000I-1370000J0D01*
G01*
%TO.C,R17*%
X227430000Y-70485000D02*
X227500000Y-70485000D01*
X227430000Y-70485000D02*
G75*
G03*
X227430000Y-70485000I-1370000J0D01*
G01*
%TO.C,L1*%
X231370000Y-97155000D02*
X230750000Y-97155000D01*
X230750000Y-98625000D02*
X230750000Y-95685000D01*
X230750000Y-95685000D02*
X223910000Y-95685000D01*
X223910000Y-98625000D02*
X230750000Y-98625000D01*
X223910000Y-95685000D02*
X223910000Y-98625000D01*
X223290000Y-97155000D02*
X223910000Y-97155000D01*
%TO.C,R6*%
X209650000Y-88265000D02*
X209720000Y-88265000D01*
X209650000Y-88265000D02*
G75*
G03*
X209650000Y-88265000I-1370000J0D01*
G01*
%TO.C,Q4*%
X215845000Y-85620000D02*
X215845000Y-82020000D01*
X211395000Y-83820000D02*
G75*
G03*
X215833478Y-85658478I2600000J0D01*
G01*
X215833478Y-81981522D02*
G75*
G03*
X211395000Y-83820000I-1838478J-1838478D01*
G01*
%TO.C,R7*%
X203100000Y-91440000D02*
X203030000Y-91440000D01*
X205840000Y-91440000D02*
G75*
G03*
X205840000Y-91440000I-1370000J0D01*
G01*
%TO.C,D1*%
X217805000Y-89591371D02*
X217805000Y-89705000D01*
X219131371Y-88265000D02*
G75*
G03*
X219131371Y-88265000I-1326371J0D01*
G01*
%TO.C,J5*%
X198060000Y-72325000D02*
X199390000Y-72325000D01*
X198060000Y-73655000D02*
X198060000Y-72325000D01*
X198060000Y-74925000D02*
X198060000Y-77525000D01*
X198060000Y-74925000D02*
X200720000Y-74925000D01*
X198060000Y-77525000D02*
X200720000Y-77525000D01*
X200720000Y-74925000D02*
X200720000Y-77525000D01*
%TO.C,Q1*%
X201350000Y-82020000D02*
X201350000Y-85620000D01*
X205800000Y-83820000D02*
G75*
G03*
X201361522Y-81981522I-2600000J0D01*
G01*
X201361522Y-85658478D02*
G75*
G03*
X205800000Y-83820000I1838478J1838478D01*
G01*
%TO.C,R2*%
X209650000Y-91440000D02*
X209720000Y-91440000D01*
X209650000Y-91440000D02*
G75*
G03*
X209650000Y-91440000I-1370000J0D01*
G01*
%TO.C,Q5*%
X206430000Y-82020000D02*
X206430000Y-85620000D01*
X210880000Y-83820000D02*
G75*
G03*
X206441522Y-81981522I-2600000J0D01*
G01*
X206441522Y-85658478D02*
G75*
G03*
X210880000Y-83820000I1838478J1838478D01*
G01*
%TO.C,R9*%
X212185000Y-66775000D02*
X205645000Y-66775000D01*
X212185000Y-66445000D02*
X212185000Y-66775000D01*
X212185000Y-64365000D02*
X212185000Y-64035000D01*
X212185000Y-64035000D02*
X205645000Y-64035000D01*
X205645000Y-66775000D02*
X205645000Y-66445000D01*
X205645000Y-64035000D02*
X205645000Y-64365000D01*
%TO.C,R10*%
X206275000Y-78105000D02*
X206205000Y-78105000D01*
X209015000Y-78105000D02*
G75*
G03*
X209015000Y-78105000I-1370000J0D01*
G01*
%TO.C,C5*%
X210070000Y-76520000D02*
X210070000Y-78075000D01*
X210070000Y-76520000D02*
X219310000Y-76520000D01*
X210070000Y-79405000D02*
X210070000Y-80960000D01*
X210070000Y-80960000D02*
X219310000Y-80960000D01*
X219310000Y-76520000D02*
X219310000Y-78075000D01*
X219310000Y-79405000D02*
X219310000Y-80960000D01*
%TO.C,R13*%
X218130000Y-59055000D02*
X218200000Y-59055000D01*
X218130000Y-59055000D02*
G75*
G03*
X218130000Y-59055000I-1370000J0D01*
G01*
%TO.C,C8*%
X219745000Y-71525000D02*
X223485000Y-71525000D01*
X219745000Y-71525000D02*
X219745000Y-64285000D01*
X223485000Y-71525000D02*
X223485000Y-64285000D01*
X219745000Y-64285000D02*
X223485000Y-64285000D01*
%TO.C,C4*%
X201060000Y-93665000D02*
X201060000Y-95220000D01*
X201060000Y-93665000D02*
X210300000Y-93665000D01*
X201060000Y-96550000D02*
X201060000Y-98105000D01*
X201060000Y-98105000D02*
X210300000Y-98105000D01*
X210300000Y-93665000D02*
X210300000Y-95220000D01*
X210300000Y-96550000D02*
X210300000Y-98105000D01*
%TO.C,R14*%
X216210000Y-65405000D02*
X216140000Y-65405000D01*
X218950000Y-65405000D02*
G75*
G03*
X218950000Y-65405000I-1370000J0D01*
G01*
%TO.C,C3*%
X221130000Y-91475000D02*
X221130000Y-95215000D01*
X221130000Y-91475000D02*
X228370000Y-91475000D01*
X221130000Y-95215000D02*
X228370000Y-95215000D01*
X228370000Y-91475000D02*
X228370000Y-95215000D01*
%TO.C,Q2*%
X205845000Y-72970000D02*
X209445000Y-72970000D01*
X207645000Y-68520000D02*
G75*
G03*
X205806522Y-72958478I0J-2600000D01*
G01*
X209483478Y-72958478D02*
G75*
G03*
X207645000Y-68520000I-1838478J1838478D01*
G01*
%TO.C,J1*%
X230445000Y-68520000D02*
X231775000Y-68520000D01*
X230445000Y-69850000D02*
X230445000Y-68520000D01*
X230445000Y-71120000D02*
X230445000Y-81340000D01*
X230445000Y-71120000D02*
X233105000Y-71120000D01*
X230445000Y-81340000D02*
X233105000Y-81340000D01*
X233105000Y-71120000D02*
X233105000Y-81340000D01*
%TO.C,R16*%
X209550000Y-56840000D02*
X209550000Y-56910000D01*
X210920000Y-55470000D02*
G75*
G03*
X210920000Y-55470000I-1370000J0D01*
G01*
%TO.C,C6*%
X211605000Y-67480000D02*
X211605000Y-72220000D01*
X211605000Y-67480000D02*
X218845000Y-67480000D01*
X211605000Y-72220000D02*
X218845000Y-72220000D01*
X218845000Y-67480000D02*
X218845000Y-72220000D01*
%TO.C,J3*%
X237600000Y-62860000D02*
X237600000Y-49860000D01*
X237600000Y-62860000D02*
X221400000Y-62860000D01*
X237600000Y-49860000D02*
X221400000Y-49860000D01*
X221400000Y-62860000D02*
X221400000Y-49860000D01*
%TO.C,R3*%
X212090000Y-96620000D02*
X212090000Y-96690000D01*
X213460000Y-95250000D02*
G75*
G03*
X213460000Y-95250000I-1370000J0D01*
G01*
%TO.C,J2*%
X230445000Y-86300000D02*
X231775000Y-86300000D01*
X230445000Y-87630000D02*
X230445000Y-86300000D01*
X230445000Y-88900000D02*
X230445000Y-94040000D01*
X230445000Y-88900000D02*
X233105000Y-88900000D01*
X230445000Y-94040000D02*
X233105000Y-94040000D01*
X233105000Y-88900000D02*
X233105000Y-94040000D01*
%TO.C,Q3*%
X205845000Y-63805000D02*
X209445000Y-63805000D01*
X207645000Y-59355000D02*
G75*
G03*
X205806522Y-63793478I0J-2600000D01*
G01*
X209483478Y-63793478D02*
G75*
G03*
X207645000Y-59355000I-1838478J1838478D01*
G01*
%TO.C,R5*%
X218130000Y-55880000D02*
X218200000Y-55880000D01*
X218130000Y-55880000D02*
G75*
G03*
X218130000Y-55880000I-1370000J0D01*
G01*
%TO.C,R1*%
X217805000Y-83720000D02*
X217805000Y-83650000D01*
X219175000Y-85090000D02*
G75*
G03*
X219175000Y-85090000I-1370000J0D01*
G01*
%TO.C,R11*%
X218130000Y-52705000D02*
X218200000Y-52705000D01*
X218130000Y-52705000D02*
G75*
G03*
X218130000Y-52705000I-1370000J0D01*
G01*
%TO.C,R4*%
X214630000Y-89635000D02*
X214630000Y-89705000D01*
X216000000Y-88265000D02*
G75*
G03*
X216000000Y-88265000I-1370000J0D01*
G01*
%TO.C,R8*%
X211360000Y-72925000D02*
X217900000Y-72925000D01*
X211360000Y-73255000D02*
X211360000Y-72925000D01*
X211360000Y-75335000D02*
X211360000Y-75665000D01*
X211360000Y-75665000D02*
X217900000Y-75665000D01*
X217900000Y-72925000D02*
X217900000Y-73255000D01*
X217900000Y-75665000D02*
X217900000Y-75335000D01*
%TD*%
%LPC*%
D14*
%TO.C,C7*%
X224850000Y-66040000D03*
X232350000Y-66040000D03*
%TD*%
%TO.C,R12*%
X204470000Y-88265000D03*
D15*
X201930000Y-88265000D03*
%TD*%
D16*
%TO.C,J6*%
X216530000Y-49530000D03*
D17*
X219070000Y-49530000D03*
%TD*%
D14*
%TO.C,C1*%
X205125000Y-74930000D03*
X207625000Y-74930000D03*
%TD*%
D18*
%TO.C,C2*%
X217170000Y-97115000D03*
D14*
X217170000Y-94615000D03*
%TD*%
D18*
%TO.C,U1*%
X228590000Y-89540000D03*
D15*
X228590000Y-87000000D03*
X228590000Y-84460000D03*
X228590000Y-81920000D03*
X228590000Y-79380000D03*
X228590000Y-76840000D03*
X228590000Y-74300000D03*
X220970000Y-74300000D03*
X220970000Y-76840000D03*
X220970000Y-79380000D03*
X220970000Y-81920000D03*
X220970000Y-84460000D03*
X220970000Y-87000000D03*
X220970000Y-89540000D03*
%TD*%
D14*
%TO.C,R15*%
X206375000Y-55470000D03*
D15*
X206375000Y-58010000D03*
%TD*%
D14*
%TO.C,R17*%
X226060000Y-70485000D03*
D15*
X228600000Y-70485000D03*
%TD*%
D14*
%TO.C,L1*%
X232410000Y-97155000D03*
D15*
X222250000Y-97155000D03*
%TD*%
D14*
%TO.C,R6*%
X208280000Y-88265000D03*
D15*
X210820000Y-88265000D03*
%TD*%
D19*
%TO.C,Q4*%
X213995000Y-85090000D03*
D20*
X213995000Y-83820000D03*
X213995000Y-82550000D03*
%TD*%
D14*
%TO.C,R7*%
X204470000Y-91440000D03*
D15*
X201930000Y-91440000D03*
%TD*%
D18*
%TO.C,D1*%
X217805000Y-88265000D03*
D15*
X217805000Y-90805000D03*
%TD*%
D16*
%TO.C,J5*%
X199390000Y-73655000D03*
D17*
X199390000Y-76195000D03*
%TD*%
D19*
%TO.C,Q1*%
X203200000Y-82550000D03*
D20*
X203200000Y-83820000D03*
X203200000Y-85090000D03*
%TD*%
D14*
%TO.C,R2*%
X208280000Y-91440000D03*
D15*
X210820000Y-91440000D03*
%TD*%
D19*
%TO.C,Q5*%
X208280000Y-82550000D03*
D20*
X208280000Y-83820000D03*
X208280000Y-85090000D03*
%TD*%
D14*
%TO.C,R9*%
X212725000Y-65405000D03*
D15*
X205105000Y-65405000D03*
%TD*%
D14*
%TO.C,R10*%
X207645000Y-78105000D03*
D15*
X205105000Y-78105000D03*
%TD*%
D14*
%TO.C,C5*%
X210940000Y-78740000D03*
X218440000Y-78740000D03*
%TD*%
%TO.C,R13*%
X216760000Y-59055000D03*
D15*
X219300000Y-59055000D03*
%TD*%
D14*
%TO.C,C8*%
X221615000Y-70405000D03*
X221615000Y-65405000D03*
%TD*%
%TO.C,C4*%
X201930000Y-95885000D03*
X209430000Y-95885000D03*
%TD*%
%TO.C,R14*%
X217580000Y-65405000D03*
D15*
X215040000Y-65405000D03*
%TD*%
D14*
%TO.C,C3*%
X222250000Y-93345000D03*
X227250000Y-93345000D03*
%TD*%
D21*
%TO.C,Q2*%
X206375000Y-71120000D03*
D22*
X207645000Y-71120000D03*
X208915000Y-71120000D03*
%TD*%
D16*
%TO.C,J1*%
X231775000Y-69850000D03*
D17*
X231775000Y-72390000D03*
X231775000Y-74930000D03*
X231775000Y-77470000D03*
X231775000Y-80010000D03*
%TD*%
D14*
%TO.C,R16*%
X209550000Y-55470000D03*
D15*
X209550000Y-58010000D03*
%TD*%
D14*
%TO.C,C6*%
X212725000Y-69850000D03*
X217725000Y-69850000D03*
%TD*%
D18*
%TO.C,J3*%
X228200000Y-58460000D03*
D14*
X230800000Y-58460000D03*
X226100000Y-58460000D03*
X232900000Y-58460000D03*
X226100000Y-60960000D03*
X232900000Y-60960000D03*
D23*
X236250000Y-55460000D03*
D24*
X229500000Y-54660000D03*
D23*
X222750000Y-55460000D03*
%TD*%
D14*
%TO.C,R3*%
X212090000Y-95250000D03*
D15*
X212090000Y-97790000D03*
%TD*%
D16*
%TO.C,J2*%
X231775000Y-87630000D03*
D17*
X231775000Y-90170000D03*
X231775000Y-92710000D03*
%TD*%
D21*
%TO.C,Q3*%
X206375000Y-61955000D03*
D22*
X207645000Y-61955000D03*
X208915000Y-61955000D03*
%TD*%
D14*
%TO.C,R5*%
X216760000Y-55880000D03*
D15*
X219300000Y-55880000D03*
%TD*%
D14*
%TO.C,R1*%
X217805000Y-85090000D03*
D15*
X217805000Y-82550000D03*
%TD*%
D14*
%TO.C,R11*%
X216760000Y-52705000D03*
D15*
X219300000Y-52705000D03*
%TD*%
D14*
%TO.C,R4*%
X214630000Y-88265000D03*
D15*
X214630000Y-90805000D03*
%TD*%
D14*
%TO.C,R8*%
X210820000Y-74295000D03*
D15*
X218440000Y-74295000D03*
%TD*%
%LPD*%
M02*
