%TF.GenerationSoftware,KiCad,Pcbnew,7.0.7-7.0.7~ubuntu20.04.1*%
%TF.CreationDate,2023-11-20T21:06:27+01:00*%
%TF.ProjectId,CoCo2VideoMod,436f436f-3256-4696-9465-6f4d6f642e6b,rev?*%
%TF.SameCoordinates,Original*%
%TF.FileFunction,Soldermask,Top*%
%TF.FilePolarity,Negative*%
%FSLAX46Y46*%
G04 Gerber Fmt 4.6, Leading zero omitted, Abs format (unit mm)*
G04 Created by KiCad (PCBNEW 7.0.7-7.0.7~ubuntu20.04.1) date 2023-11-20 21:06:27*
%MOMM*%
%LPD*%
G01*
G04 APERTURE LIST*
%ADD10C,1.600000*%
%ADD11O,1.600000X1.600000*%
%ADD12R,1.600000X1.600000*%
%ADD13R,1.500000X1.050000*%
%ADD14O,1.500000X1.050000*%
%ADD15R,1.050000X1.500000*%
%ADD16O,1.050000X1.500000*%
%ADD17R,1.700000X1.700000*%
%ADD18O,1.700000X1.700000*%
%ADD19O,2.000000X3.500000*%
%ADD20O,4.000000X2.000000*%
G04 APERTURE END LIST*
D10*
%TO.C,C7*%
X224850000Y-66040000D03*
X232350000Y-66040000D03*
%TD*%
%TO.C,R12*%
X204470000Y-88265000D03*
D11*
X201930000Y-88265000D03*
%TD*%
D10*
%TO.C,C1*%
X205125000Y-74930000D03*
X207625000Y-74930000D03*
%TD*%
D12*
%TO.C,C2*%
X217170000Y-97115000D03*
D10*
X217170000Y-94615000D03*
%TD*%
D12*
%TO.C,U1*%
X228590000Y-89540000D03*
D11*
X228590000Y-87000000D03*
X228590000Y-84460000D03*
X228590000Y-81920000D03*
X228590000Y-79380000D03*
X228590000Y-76840000D03*
X228590000Y-74300000D03*
X220970000Y-74300000D03*
X220970000Y-76840000D03*
X220970000Y-79380000D03*
X220970000Y-81920000D03*
X220970000Y-84460000D03*
X220970000Y-87000000D03*
X220970000Y-89540000D03*
%TD*%
D10*
%TO.C,R15*%
X206375000Y-55470000D03*
D11*
X206375000Y-58010000D03*
%TD*%
D10*
%TO.C,R17*%
X226060000Y-70485000D03*
D11*
X228600000Y-70485000D03*
%TD*%
D10*
%TO.C,L1*%
X232410000Y-97155000D03*
D11*
X222250000Y-97155000D03*
%TD*%
D10*
%TO.C,R6*%
X208280000Y-88265000D03*
D11*
X210820000Y-88265000D03*
%TD*%
D13*
%TO.C,Q4*%
X213995000Y-85090000D03*
D14*
X213995000Y-83820000D03*
X213995000Y-82550000D03*
%TD*%
D10*
%TO.C,R7*%
X204470000Y-91440000D03*
D11*
X201930000Y-91440000D03*
%TD*%
D12*
%TO.C,D1*%
X217805000Y-88265000D03*
D11*
X217805000Y-90805000D03*
%TD*%
D13*
%TO.C,Q1*%
X203200000Y-82550000D03*
D14*
X203200000Y-83820000D03*
X203200000Y-85090000D03*
%TD*%
D10*
%TO.C,R2*%
X208280000Y-91440000D03*
D11*
X210820000Y-91440000D03*
%TD*%
D13*
%TO.C,Q5*%
X208280000Y-82550000D03*
D14*
X208280000Y-83820000D03*
X208280000Y-85090000D03*
%TD*%
D10*
%TO.C,R9*%
X212725000Y-65405000D03*
D11*
X205105000Y-65405000D03*
%TD*%
D10*
%TO.C,R10*%
X207645000Y-78105000D03*
D11*
X205105000Y-78105000D03*
%TD*%
D10*
%TO.C,C5*%
X210940000Y-78740000D03*
X218440000Y-78740000D03*
%TD*%
%TO.C,R13*%
X216760000Y-59055000D03*
D11*
X219300000Y-59055000D03*
%TD*%
D10*
%TO.C,C8*%
X221615000Y-70405000D03*
X221615000Y-65405000D03*
%TD*%
%TO.C,C4*%
X201930000Y-95885000D03*
X209430000Y-95885000D03*
%TD*%
%TO.C,R14*%
X217580000Y-65405000D03*
D11*
X215040000Y-65405000D03*
%TD*%
D10*
%TO.C,C3*%
X222250000Y-93345000D03*
X227250000Y-93345000D03*
%TD*%
D15*
%TO.C,Q2*%
X206375000Y-71120000D03*
D16*
X207645000Y-71120000D03*
X208915000Y-71120000D03*
%TD*%
D17*
%TO.C,J1*%
X232000000Y-69850000D03*
D18*
X232000000Y-72390000D03*
X232000000Y-74930000D03*
X232000000Y-77470000D03*
X232000000Y-80010000D03*
%TD*%
D10*
%TO.C,R16*%
X209550000Y-55470000D03*
D11*
X209550000Y-58010000D03*
%TD*%
D10*
%TO.C,C6*%
X212725000Y-69850000D03*
X217725000Y-69850000D03*
%TD*%
D12*
%TO.C,J3*%
X230800000Y-54350000D03*
D10*
X228200000Y-54350000D03*
X232900000Y-54350000D03*
X226100000Y-54350000D03*
X232900000Y-51850000D03*
X226100000Y-51850000D03*
D19*
X222750000Y-57350000D03*
D20*
X229500000Y-58150000D03*
D19*
X236250000Y-57350000D03*
%TD*%
D10*
%TO.C,R3*%
X212090000Y-95250000D03*
D11*
X212090000Y-97790000D03*
%TD*%
D17*
%TO.C,J2*%
X232000000Y-87630000D03*
D18*
X232000000Y-90170000D03*
X232000000Y-92710000D03*
%TD*%
D15*
%TO.C,Q3*%
X206375000Y-61955000D03*
D16*
X207645000Y-61955000D03*
X208915000Y-61955000D03*
%TD*%
D10*
%TO.C,R5*%
X216760000Y-55880000D03*
D11*
X219300000Y-55880000D03*
%TD*%
D10*
%TO.C,R1*%
X217805000Y-85090000D03*
D11*
X217805000Y-82550000D03*
%TD*%
D10*
%TO.C,R11*%
X216760000Y-52705000D03*
D11*
X219300000Y-52705000D03*
%TD*%
D10*
%TO.C,R4*%
X214630000Y-88265000D03*
D11*
X214630000Y-90805000D03*
%TD*%
D10*
%TO.C,R8*%
X210820000Y-74295000D03*
D11*
X218440000Y-74295000D03*
%TD*%
M02*
