%TF.GenerationSoftware,KiCad,Pcbnew,7.0.7-7.0.7~ubuntu20.04.1*%
%TF.CreationDate,2023-11-20T21:06:27+01:00*%
%TF.ProjectId,CoCo2VideoMod,436f436f-3256-4696-9465-6f4d6f642e6b,rev?*%
%TF.SameCoordinates,Original*%
%TF.FileFunction,Copper,L2,Bot*%
%TF.FilePolarity,Positive*%
%FSLAX46Y46*%
G04 Gerber Fmt 4.6, Leading zero omitted, Abs format (unit mm)*
G04 Created by KiCad (PCBNEW 7.0.7-7.0.7~ubuntu20.04.1) date 2023-11-20 21:06:27*
%MOMM*%
%LPD*%
G01*
G04 APERTURE LIST*
%TA.AperFunction,ComponentPad*%
%ADD10C,1.600000*%
%TD*%
%TA.AperFunction,ComponentPad*%
%ADD11O,1.600000X1.600000*%
%TD*%
%TA.AperFunction,ComponentPad*%
%ADD12R,1.600000X1.600000*%
%TD*%
%TA.AperFunction,ComponentPad*%
%ADD13R,1.500000X1.050000*%
%TD*%
%TA.AperFunction,ComponentPad*%
%ADD14O,1.500000X1.050000*%
%TD*%
%TA.AperFunction,ComponentPad*%
%ADD15R,1.050000X1.500000*%
%TD*%
%TA.AperFunction,ComponentPad*%
%ADD16O,1.050000X1.500000*%
%TD*%
%TA.AperFunction,ComponentPad*%
%ADD17R,1.700000X1.700000*%
%TD*%
%TA.AperFunction,ComponentPad*%
%ADD18O,1.700000X1.700000*%
%TD*%
%TA.AperFunction,ComponentPad*%
%ADD19O,2.000000X3.500000*%
%TD*%
%TA.AperFunction,ComponentPad*%
%ADD20O,4.000000X2.000000*%
%TD*%
%TA.AperFunction,ViaPad*%
%ADD21C,0.800000*%
%TD*%
%TA.AperFunction,Conductor*%
%ADD22C,1.000000*%
%TD*%
%TA.AperFunction,Conductor*%
%ADD23C,0.500000*%
%TD*%
%TA.AperFunction,Conductor*%
%ADD24C,0.750000*%
%TD*%
G04 APERTURE END LIST*
D10*
%TO.P,C7,1*%
%TO.N,Net-(C7-Pad1)*%
X224850000Y-66040000D03*
%TO.P,C7,2*%
%TO.N,/Audio in*%
X232350000Y-66040000D03*
%TD*%
%TO.P,R12,1*%
%TO.N,GND*%
X204470000Y-88265000D03*
D11*
%TO.P,R12,2*%
%TO.N,Net-(Q1-E)*%
X201930000Y-88265000D03*
%TD*%
D10*
%TO.P,C1,1*%
%TO.N,+5V*%
X205125000Y-74930000D03*
%TO.P,C1,2*%
%TO.N,Net-(Q2-E)*%
X207625000Y-74930000D03*
%TD*%
D12*
%TO.P,C2,1*%
%TO.N,+5V*%
X217170000Y-97115000D03*
D10*
%TO.P,C2,2*%
%TO.N,GND*%
X217170000Y-94615000D03*
%TD*%
D12*
%TO.P,U1,1,CKo*%
%TO.N,unconnected-(U1-CKo-Pad1)*%
X228590000Y-89540000D03*
D11*
%TO.P,U1,2,CKi*%
%TO.N,/Clk 3.58 MHz*%
X228590000Y-87000000D03*
%TO.P,U1,3,Duty*%
%TO.N,unconnected-(U1-Duty-Pad3)*%
X228590000Y-84460000D03*
%TO.P,U1,4,GND*%
%TO.N,GND*%
X228590000Y-81920000D03*
%TO.P,U1,5,PHB*%
%TO.N,/Phase B*%
X228590000Y-79380000D03*
%TO.P,U1,6,Ref*%
%TO.N,/Color Ref*%
X228590000Y-76840000D03*
%TO.P,U1,7,PHA*%
%TO.N,/Phase A*%
X228590000Y-74300000D03*
%TO.P,U1,8,Co*%
%TO.N,Net-(Q1-B)*%
X220970000Y-74300000D03*
%TO.P,U1,9,Yi*%
%TO.N,/Luma*%
X220970000Y-76840000D03*
%TO.P,U1,10,Ci*%
%TO.N,Net-(U1-Ci)*%
X220970000Y-79380000D03*
%TO.P,U1,11,VCC*%
%TO.N,+5V*%
X220970000Y-81920000D03*
%TO.P,U1,12,RFo*%
%TO.N,Net-(Q4-B)*%
X220970000Y-84460000D03*
%TO.P,U1,13,-RFT*%
%TO.N,Net-(D1-K)*%
X220970000Y-87000000D03*
%TO.P,U1,14,+RFT*%
%TO.N,Net-(D1-A)*%
X220970000Y-89540000D03*
%TD*%
D10*
%TO.P,R15,1*%
%TO.N,GND*%
X206375000Y-55470000D03*
D11*
%TO.P,R15,2*%
%TO.N,Net-(Q2-C)*%
X206375000Y-58010000D03*
%TD*%
D10*
%TO.P,R17,1*%
%TO.N,Net-(C7-Pad1)*%
X226060000Y-70485000D03*
D11*
%TO.P,R17,2*%
%TO.N,/Audio out*%
X228600000Y-70485000D03*
%TD*%
D10*
%TO.P,L1,1,1*%
%TO.N,/+5V in*%
X232410000Y-97155000D03*
D11*
%TO.P,L1,2,2*%
%TO.N,+5V*%
X222250000Y-97155000D03*
%TD*%
D10*
%TO.P,R6,1*%
%TO.N,GND*%
X208280000Y-88265000D03*
D11*
%TO.P,R6,2*%
%TO.N,Net-(Q4-C)*%
X210820000Y-88265000D03*
%TD*%
D13*
%TO.P,Q4,1,C*%
%TO.N,Net-(Q4-C)*%
X213995000Y-85090000D03*
D14*
%TO.P,Q4,2,B*%
%TO.N,Net-(Q4-B)*%
X213995000Y-83820000D03*
%TO.P,Q4,3,E*%
%TO.N,+5V*%
X213995000Y-82550000D03*
%TD*%
D10*
%TO.P,R7,1*%
%TO.N,GND*%
X204470000Y-91440000D03*
D11*
%TO.P,R7,2*%
%TO.N,Net-(Q5-E)*%
X201930000Y-91440000D03*
%TD*%
D12*
%TO.P,D1,1,K*%
%TO.N,Net-(D1-K)*%
X217805000Y-88265000D03*
D11*
%TO.P,D1,2,A*%
%TO.N,Net-(D1-A)*%
X217805000Y-90805000D03*
%TD*%
D13*
%TO.P,Q1,1,C*%
%TO.N,+5V*%
X203200000Y-82550000D03*
D14*
%TO.P,Q1,2,B*%
%TO.N,Net-(Q1-B)*%
X203200000Y-83820000D03*
%TO.P,Q1,3,E*%
%TO.N,Net-(Q1-E)*%
X203200000Y-85090000D03*
%TD*%
D10*
%TO.P,R2,1*%
%TO.N,Net-(Q5-E)*%
X208280000Y-91440000D03*
D11*
%TO.P,R2,2*%
%TO.N,Net-(Q4-B)*%
X210820000Y-91440000D03*
%TD*%
D13*
%TO.P,Q5,1,C*%
%TO.N,+5V*%
X208280000Y-82550000D03*
D14*
%TO.P,Q5,2,B*%
%TO.N,Net-(Q4-C)*%
X208280000Y-83820000D03*
%TO.P,Q5,3,E*%
%TO.N,Net-(Q5-E)*%
X208280000Y-85090000D03*
%TD*%
D10*
%TO.P,R9,1*%
%TO.N,Net-(Q2-B)*%
X212725000Y-65405000D03*
D11*
%TO.P,R9,2*%
%TO.N,+5V*%
X205105000Y-65405000D03*
%TD*%
D10*
%TO.P,R10,1*%
%TO.N,Net-(Q2-E)*%
X207645000Y-78105000D03*
D11*
%TO.P,R10,2*%
%TO.N,+5V*%
X205105000Y-78105000D03*
%TD*%
D10*
%TO.P,C5,1*%
%TO.N,Net-(C5-Pad1)*%
X210940000Y-78740000D03*
%TO.P,C5,2*%
%TO.N,Net-(U1-Ci)*%
X218440000Y-78740000D03*
%TD*%
%TO.P,R13,1*%
%TO.N,Net-(Q3-E)*%
X216760000Y-59055000D03*
D11*
%TO.P,R13,2*%
%TO.N,/Luma_out*%
X219300000Y-59055000D03*
%TD*%
D10*
%TO.P,C8,1*%
%TO.N,GND*%
X221615000Y-70405000D03*
%TO.P,C8,2*%
%TO.N,/Audio out*%
X221615000Y-65405000D03*
%TD*%
%TO.P,C4,1*%
%TO.N,GND*%
X201930000Y-95885000D03*
%TO.P,C4,2*%
%TO.N,Net-(C4-Pad2)*%
X209430000Y-95885000D03*
%TD*%
%TO.P,R14,1*%
%TO.N,GND*%
X217580000Y-65405000D03*
D11*
%TO.P,R14,2*%
%TO.N,Net-(Q2-B)*%
X215040000Y-65405000D03*
%TD*%
D10*
%TO.P,C3,1*%
%TO.N,+5V*%
X222250000Y-93345000D03*
%TO.P,C3,2*%
%TO.N,GND*%
X227250000Y-93345000D03*
%TD*%
D15*
%TO.P,Q2,1,C*%
%TO.N,Net-(Q2-C)*%
X206375000Y-71120000D03*
D16*
%TO.P,Q2,2,B*%
%TO.N,Net-(Q2-B)*%
X207645000Y-71120000D03*
%TO.P,Q2,3,E*%
%TO.N,Net-(Q2-E)*%
X208915000Y-71120000D03*
%TD*%
D17*
%TO.P,J1,1,Pin_1*%
%TO.N,/Audio in*%
X232000000Y-69850000D03*
D18*
%TO.P,J1,2,Pin_2*%
%TO.N,/Luma*%
X232000000Y-72390000D03*
%TO.P,J1,3,Pin_3*%
%TO.N,/Phase A*%
X232000000Y-74930000D03*
%TO.P,J1,4,Pin_4*%
%TO.N,/Color Ref*%
X232000000Y-77470000D03*
%TO.P,J1,5,Pin_5*%
%TO.N,/Phase B*%
X232000000Y-80010000D03*
%TD*%
D10*
%TO.P,R16,1*%
%TO.N,GND*%
X209550000Y-55470000D03*
D11*
%TO.P,R16,2*%
%TO.N,Net-(Q3-E)*%
X209550000Y-58010000D03*
%TD*%
D10*
%TO.P,C6,1*%
%TO.N,Net-(Q2-B)*%
X212725000Y-69850000D03*
%TO.P,C6,2*%
%TO.N,/Luma*%
X217725000Y-69850000D03*
%TD*%
D12*
%TO.P,J3,1,Pin_1*%
%TO.N,/Audio out*%
X230800000Y-54350000D03*
D10*
%TO.P,J3,2,Pin_2*%
%TO.N,/Composite_out*%
X228200000Y-54350000D03*
%TO.P,J3,3,Pin_3*%
%TO.N,GND*%
X232900000Y-54350000D03*
%TO.P,J3,4,Pin_4*%
X226100000Y-54350000D03*
%TO.P,J3,5,Pin_5*%
%TO.N,/Luma_out*%
X232900000Y-51850000D03*
%TO.P,J3,6,Pin_6*%
%TO.N,/Chroma_out*%
X226100000Y-51850000D03*
D19*
%TO.P,J3,7,Pin_7*%
%TO.N,GND*%
X222750000Y-57350000D03*
D20*
X229500000Y-58150000D03*
D19*
X236250000Y-57350000D03*
%TD*%
D10*
%TO.P,R3,1*%
%TO.N,Net-(C4-Pad2)*%
X212090000Y-95250000D03*
D11*
%TO.P,R3,2*%
%TO.N,+5V*%
X212090000Y-97790000D03*
%TD*%
D17*
%TO.P,J2,1,Pin_1*%
%TO.N,/Clk 3.58 MHz*%
X232000000Y-87630000D03*
D18*
%TO.P,J2,2,Pin_2*%
%TO.N,/Ch. Switch*%
X232000000Y-90170000D03*
%TO.P,J2,3,Pin_3*%
%TO.N,/+5V in*%
X232000000Y-92710000D03*
%TD*%
D15*
%TO.P,Q3,1,C*%
%TO.N,+5V*%
X206375000Y-61955000D03*
D16*
%TO.P,Q3,2,B*%
%TO.N,Net-(Q2-C)*%
X207645000Y-61955000D03*
%TO.P,Q3,3,E*%
%TO.N,Net-(Q3-E)*%
X208915000Y-61955000D03*
%TD*%
D10*
%TO.P,R5,1*%
%TO.N,Net-(Q5-E)*%
X216760000Y-55880000D03*
D11*
%TO.P,R5,2*%
%TO.N,/Composite_out*%
X219300000Y-55880000D03*
%TD*%
D10*
%TO.P,R1,1*%
%TO.N,Net-(Q4-B)*%
X217805000Y-85090000D03*
D11*
%TO.P,R1,2*%
%TO.N,+5V*%
X217805000Y-82550000D03*
%TD*%
D10*
%TO.P,R11,1*%
%TO.N,Net-(Q1-E)*%
X216760000Y-52705000D03*
D11*
%TO.P,R11,2*%
%TO.N,/Chroma_out*%
X219300000Y-52705000D03*
%TD*%
D10*
%TO.P,R4,1*%
%TO.N,Net-(D1-A)*%
X214630000Y-88265000D03*
D11*
%TO.P,R4,2*%
%TO.N,Net-(C4-Pad2)*%
X214630000Y-90805000D03*
%TD*%
D10*
%TO.P,R8,1*%
%TO.N,Net-(C5-Pad1)*%
X210820000Y-74295000D03*
D11*
%TO.P,R8,2*%
%TO.N,Net-(Q1-B)*%
X218440000Y-74295000D03*
%TD*%
D21*
%TO.N,/Audio out*%
X228600000Y-63500000D03*
%TO.N,Net-(Q1-B)*%
X213995000Y-79375000D03*
%TD*%
D22*
%TO.N,+5V*%
X205105000Y-78105000D02*
X205105000Y-74950000D01*
X222250000Y-97155000D02*
X222250000Y-93345000D01*
X214630000Y-97155000D02*
X217170000Y-97155000D01*
X205105000Y-74950000D02*
X205125000Y-74930000D01*
X223520000Y-92075000D02*
X222250000Y-93345000D01*
X212090000Y-97790000D02*
X213995000Y-97790000D01*
X213995000Y-97790000D02*
X214630000Y-97155000D01*
X205105000Y-78740000D02*
X205105000Y-78105000D01*
X220970000Y-81920000D02*
X222255000Y-81920000D01*
X208280000Y-81915000D02*
X205105000Y-78740000D01*
X217170000Y-97155000D02*
X222250000Y-97155000D01*
X222255000Y-81920000D02*
X223520000Y-83185000D01*
X208280000Y-82550000D02*
X208280000Y-81915000D01*
X223520000Y-83185000D02*
X223520000Y-92075000D01*
D23*
%TO.N,Net-(Q2-E)*%
X207625000Y-74930000D02*
X208915000Y-73640000D01*
X208915000Y-73640000D02*
X208915000Y-71120000D01*
X207645000Y-78105000D02*
X207645000Y-74950000D01*
X207645000Y-74950000D02*
X207625000Y-74930000D01*
%TO.N,Net-(C4-Pad2)*%
X212090000Y-95250000D02*
X214630000Y-92710000D01*
X211455000Y-95885000D02*
X212090000Y-95250000D01*
X214630000Y-92710000D02*
X214630000Y-90805000D01*
X209430000Y-95885000D02*
X211455000Y-95885000D01*
%TO.N,Net-(C5-Pad1)*%
X210940000Y-74415000D02*
X210820000Y-74295000D01*
X210820000Y-78620000D02*
X210940000Y-78740000D01*
X210940000Y-78740000D02*
X210940000Y-74415000D01*
%TO.N,Net-(U1-Ci)*%
X220330000Y-78740000D02*
X220970000Y-79380000D01*
X218440000Y-78740000D02*
X220330000Y-78740000D01*
%TO.N,Net-(Q2-B)*%
X212725000Y-69850000D02*
X210820000Y-69850000D01*
X212725000Y-65405000D02*
X215040000Y-65405000D01*
X207645000Y-71120000D02*
X207645000Y-69850000D01*
X210820000Y-69850000D02*
X210185000Y-69215000D01*
X210185000Y-69215000D02*
X208280000Y-69215000D01*
X207645000Y-69850000D02*
X208280000Y-69215000D01*
X212725000Y-69850000D02*
X212725000Y-65405000D01*
%TO.N,/Luma*%
X222885000Y-72390000D02*
X232000000Y-72390000D01*
X222885000Y-76200000D02*
X222885000Y-72390000D01*
X220265000Y-72390000D02*
X222885000Y-72390000D01*
X222245000Y-76840000D02*
X222885000Y-76200000D01*
X217725000Y-69850000D02*
X220265000Y-72390000D01*
X220970000Y-76840000D02*
X222245000Y-76840000D01*
%TO.N,Net-(C7-Pad1)*%
X226060000Y-67250000D02*
X224850000Y-66040000D01*
X226060000Y-70485000D02*
X226060000Y-67250000D01*
%TO.N,/Audio in*%
X232350000Y-66040000D02*
X232350000Y-69500000D01*
X232350000Y-69500000D02*
X232000000Y-69850000D01*
%TO.N,/Audio out*%
X223520000Y-63500000D02*
X221615000Y-65405000D01*
X228600000Y-70485000D02*
X228600000Y-63500000D01*
X230800000Y-54905000D02*
X230800000Y-54350000D01*
X228600000Y-63500000D02*
X223520000Y-63500000D01*
%TO.N,Net-(D1-K)*%
X217805000Y-88265000D02*
X219705000Y-88265000D01*
X219705000Y-88265000D02*
X220970000Y-87000000D01*
%TO.N,Net-(D1-A)*%
X219705000Y-90805000D02*
X220970000Y-89540000D01*
X217805000Y-90805000D02*
X217170000Y-90805000D01*
X217805000Y-90805000D02*
X219705000Y-90805000D01*
X217170000Y-90805000D02*
X214630000Y-88265000D01*
%TO.N,/Phase A*%
X229870000Y-74295000D02*
X230505000Y-74930000D01*
X229865000Y-74300000D02*
X229870000Y-74295000D01*
X230505000Y-74930000D02*
X232000000Y-74930000D01*
X228590000Y-74300000D02*
X229865000Y-74300000D01*
%TO.N,/Color Ref*%
X229865000Y-76840000D02*
X229870000Y-76835000D01*
X228590000Y-76840000D02*
X229865000Y-76840000D01*
X229870000Y-76835000D02*
X230505000Y-77470000D01*
X230505000Y-77470000D02*
X232000000Y-77470000D01*
%TO.N,/Phase B*%
X229870000Y-79375000D02*
X230505000Y-80010000D01*
D24*
X231995000Y-80015000D02*
X232000000Y-80010000D01*
D23*
X230505000Y-80010000D02*
X232000000Y-80010000D01*
X228590000Y-79380000D02*
X229865000Y-79380000D01*
X229865000Y-79380000D02*
X229870000Y-79375000D01*
%TO.N,/Clk 3.58 MHz*%
X228590000Y-87000000D02*
X229865000Y-87000000D01*
X230505000Y-87630000D02*
X232000000Y-87630000D01*
X229870000Y-86995000D02*
X230505000Y-87630000D01*
X229865000Y-87000000D02*
X229870000Y-86995000D01*
D22*
%TO.N,/+5V in*%
X232000000Y-94840000D02*
X232000000Y-92710000D01*
X232410000Y-95250000D02*
X232000000Y-94840000D01*
X232410000Y-95250000D02*
X232410000Y-97155000D01*
D23*
%TO.N,/Composite_out*%
X220120000Y-55880000D02*
X221390000Y-54610000D01*
X223520000Y-54610000D02*
X224790000Y-55880000D01*
X219300000Y-55880000D02*
X220120000Y-55880000D01*
X221390000Y-54610000D02*
X223520000Y-54610000D01*
X226670000Y-55880000D02*
X228200000Y-54350000D01*
X224790000Y-55880000D02*
X226670000Y-55880000D01*
%TO.N,/Luma_out*%
X234315000Y-55685000D02*
X234750000Y-55250000D01*
X234750000Y-53700000D02*
X232900000Y-51850000D01*
X219300000Y-59055000D02*
X220570000Y-60325000D01*
X233045000Y-60325000D02*
X234315000Y-59055000D01*
X220570000Y-60325000D02*
X233045000Y-60325000D01*
X234315000Y-59055000D02*
X234315000Y-55685000D01*
X234750000Y-55250000D02*
X234750000Y-53700000D01*
%TO.N,Net-(Q1-B)*%
X213995000Y-79375000D02*
X213995000Y-78740000D01*
X213995000Y-78740000D02*
X218440000Y-74295000D01*
X218440000Y-74295000D02*
X220965000Y-74295000D01*
X220965000Y-74295000D02*
X220970000Y-74300000D01*
%TO.N,Net-(Q1-E)*%
X214630000Y-52705000D02*
X216760000Y-52705000D01*
X201930000Y-85090000D02*
X201930000Y-88265000D01*
X213360000Y-51435000D02*
X214630000Y-52705000D01*
X201295000Y-53340000D02*
X203200000Y-51435000D01*
X203200000Y-51435000D02*
X213360000Y-51435000D01*
X201295000Y-84455000D02*
X201295000Y-53340000D01*
X201930000Y-85090000D02*
X201295000Y-84455000D01*
X203200000Y-85090000D02*
X201930000Y-85090000D01*
%TO.N,Net-(Q2-C)*%
X207645000Y-59280000D02*
X206375000Y-58010000D01*
X207645000Y-61955000D02*
X207645000Y-59280000D01*
%TO.N,Net-(Q3-E)*%
X208915000Y-60325000D02*
X209550000Y-59690000D01*
X208915000Y-61955000D02*
X208915000Y-60325000D01*
X212315000Y-58010000D02*
X213360000Y-59055000D01*
X209550000Y-58010000D02*
X212315000Y-58010000D01*
X209550000Y-59690000D02*
X209550000Y-58010000D01*
X213360000Y-59055000D02*
X216760000Y-59055000D01*
%TO.N,Net-(Q4-C)*%
X208280000Y-83820000D02*
X210185000Y-83820000D01*
X210820000Y-85725000D02*
X211455000Y-85090000D01*
X210185000Y-83820000D02*
X211455000Y-85090000D01*
X210820000Y-88265000D02*
X210820000Y-85725000D01*
X211455000Y-85090000D02*
X213995000Y-85090000D01*
%TO.N,Net-(Q4-B)*%
X212725000Y-89535000D02*
X212725000Y-87630000D01*
X217810000Y-85095000D02*
X217805000Y-85090000D01*
X213995000Y-86360000D02*
X215265000Y-86360000D01*
X215265000Y-86360000D02*
X216535000Y-85090000D01*
X217805000Y-85090000D02*
X216535000Y-85090000D01*
X212725000Y-87630000D02*
X213995000Y-86360000D01*
X217805000Y-85090000D02*
X219075000Y-85090000D01*
X219710000Y-84455000D02*
X219715000Y-84460000D01*
X215265000Y-83820000D02*
X213995000Y-83820000D01*
X210820000Y-91440000D02*
X212725000Y-89535000D01*
X216535000Y-85090000D02*
X215265000Y-83820000D01*
X219075000Y-85090000D02*
X219710000Y-84455000D01*
X219715000Y-84460000D02*
X220970000Y-84460000D01*
%TO.N,Net-(Q5-E)*%
X205740000Y-93345000D02*
X206375000Y-92710000D01*
X203200000Y-53975000D02*
X203835000Y-53340000D01*
X212725000Y-53340000D02*
X215265000Y-55880000D01*
X215265000Y-55880000D02*
X216760000Y-55880000D01*
X203835000Y-53340000D02*
X212725000Y-53340000D01*
X201930000Y-92710000D02*
X202565000Y-93345000D01*
X203200000Y-78740000D02*
X203200000Y-53975000D01*
X201930000Y-91440000D02*
X201930000Y-92710000D01*
X206375000Y-81915000D02*
X206375000Y-92710000D01*
X206375000Y-91440000D02*
X208280000Y-91440000D01*
X206375000Y-81915000D02*
X203200000Y-78740000D01*
X202565000Y-93345000D02*
X205740000Y-93345000D01*
X206375000Y-85090000D02*
X208280000Y-85090000D01*
%TO.N,/Chroma_out*%
X222885000Y-52705000D02*
X223740000Y-51850000D01*
X223740000Y-51850000D02*
X226100000Y-51850000D01*
X219300000Y-52705000D02*
X222885000Y-52705000D01*
%TD*%
%TA.AperFunction,Conductor*%
%TO.N,GND*%
G36*
X221876106Y-82961647D02*
G01*
X221900937Y-82980858D01*
X222483181Y-83563101D01*
X222516666Y-83624424D01*
X222519500Y-83650782D01*
X222519500Y-84409232D01*
X222504103Y-84461667D01*
X222517069Y-84486335D01*
X222519500Y-84510767D01*
X222519500Y-86949232D01*
X222504103Y-87001667D01*
X222517069Y-87026335D01*
X222519500Y-87050767D01*
X222519500Y-89489232D01*
X222504103Y-89541667D01*
X222517069Y-89566335D01*
X222519500Y-89590767D01*
X222519500Y-91609216D01*
X222499815Y-91676255D01*
X222483181Y-91696897D01*
X222161966Y-92018111D01*
X222100643Y-92051596D01*
X222085095Y-92053958D01*
X222023307Y-92059365D01*
X221803511Y-92118258D01*
X221803502Y-92118261D01*
X221597267Y-92214431D01*
X221597265Y-92214432D01*
X221410858Y-92344954D01*
X221249954Y-92505858D01*
X221119432Y-92692265D01*
X221119431Y-92692267D01*
X221023261Y-92898502D01*
X221023258Y-92898511D01*
X220964366Y-93118302D01*
X220964364Y-93118313D01*
X220944532Y-93344998D01*
X220944532Y-93345001D01*
X220964364Y-93571686D01*
X220964366Y-93571697D01*
X221023258Y-93791488D01*
X221023261Y-93791497D01*
X221103008Y-93962513D01*
X221119432Y-93997734D01*
X221204644Y-94119431D01*
X221227075Y-94151465D01*
X221249402Y-94217671D01*
X221249500Y-94222588D01*
X221249500Y-96030500D01*
X221229815Y-96097539D01*
X221177011Y-96143294D01*
X221125500Y-96154500D01*
X218530413Y-96154500D01*
X218463374Y-96134815D01*
X218417619Y-96082011D01*
X218414233Y-96073838D01*
X218413799Y-96072674D01*
X218413793Y-96072664D01*
X218327547Y-95957455D01*
X218327544Y-95957452D01*
X218212335Y-95871206D01*
X218212328Y-95871202D01*
X218077482Y-95820908D01*
X218077483Y-95820908D01*
X218017883Y-95814501D01*
X218017881Y-95814500D01*
X218017873Y-95814500D01*
X218017864Y-95814500D01*
X218014548Y-95814322D01*
X218014627Y-95812847D01*
X217953215Y-95794815D01*
X217907460Y-95742011D01*
X217899969Y-95698522D01*
X217353866Y-95152419D01*
X217320381Y-95091096D01*
X217325365Y-95021404D01*
X217367237Y-94965471D01*
X217385245Y-94954258D01*
X217408045Y-94942641D01*
X217497641Y-94853045D01*
X217509254Y-94830252D01*
X217557225Y-94779458D01*
X217625046Y-94762661D01*
X217691181Y-94785197D01*
X217707419Y-94798866D01*
X218249025Y-95340472D01*
X218300136Y-95267478D01*
X218396264Y-95061331D01*
X218396269Y-95061317D01*
X218455139Y-94841610D01*
X218455141Y-94841599D01*
X218474966Y-94615002D01*
X218474966Y-94614997D01*
X218455141Y-94388400D01*
X218455139Y-94388389D01*
X218396269Y-94168682D01*
X218396265Y-94168673D01*
X218300133Y-93962516D01*
X218300131Y-93962512D01*
X218249026Y-93889526D01*
X218249025Y-93889526D01*
X217707419Y-94431132D01*
X217646096Y-94464617D01*
X217576404Y-94459633D01*
X217520471Y-94417761D01*
X217509256Y-94399751D01*
X217497641Y-94376955D01*
X217497637Y-94376951D01*
X217497636Y-94376949D01*
X217408050Y-94287363D01*
X217408044Y-94287358D01*
X217398109Y-94282296D01*
X217385250Y-94275744D01*
X217334456Y-94227773D01*
X217317660Y-94159952D01*
X217340197Y-94093817D01*
X217353865Y-94077580D01*
X217895472Y-93535973D01*
X217822483Y-93484866D01*
X217822481Y-93484865D01*
X217616326Y-93388734D01*
X217616317Y-93388730D01*
X217396610Y-93329860D01*
X217396599Y-93329858D01*
X217170002Y-93310034D01*
X217169998Y-93310034D01*
X216943400Y-93329858D01*
X216943389Y-93329860D01*
X216723682Y-93388730D01*
X216723673Y-93388734D01*
X216517513Y-93484868D01*
X216444526Y-93535973D01*
X216986133Y-94077580D01*
X217019618Y-94138903D01*
X217014634Y-94208595D01*
X216972762Y-94264528D01*
X216954748Y-94275745D01*
X216931956Y-94287358D01*
X216931949Y-94287363D01*
X216842363Y-94376949D01*
X216842358Y-94376956D01*
X216830745Y-94399748D01*
X216782770Y-94450544D01*
X216714949Y-94467338D01*
X216648814Y-94444800D01*
X216632580Y-94431133D01*
X216090973Y-93889526D01*
X216039868Y-93962513D01*
X215943734Y-94168673D01*
X215943730Y-94168682D01*
X215884860Y-94388389D01*
X215884858Y-94388400D01*
X215865034Y-94614997D01*
X215865034Y-94615002D01*
X215884858Y-94841599D01*
X215884860Y-94841610D01*
X215943730Y-95061317D01*
X215943734Y-95061326D01*
X216039865Y-95267481D01*
X216039866Y-95267483D01*
X216090973Y-95340471D01*
X216090973Y-95340472D01*
X216632580Y-94798865D01*
X216693903Y-94765380D01*
X216763594Y-94770364D01*
X216819528Y-94812235D01*
X216830742Y-94830246D01*
X216836527Y-94841599D01*
X216842358Y-94853044D01*
X216842363Y-94853050D01*
X216931949Y-94942636D01*
X216931951Y-94942637D01*
X216931955Y-94942641D01*
X216954747Y-94954254D01*
X217005542Y-95002228D01*
X217022337Y-95070049D01*
X216999799Y-95136184D01*
X216986132Y-95152419D01*
X216439351Y-95699200D01*
X216429505Y-95748194D01*
X216380889Y-95798376D01*
X216325367Y-95813048D01*
X216325423Y-95814099D01*
X216325429Y-95814146D01*
X216325426Y-95814146D01*
X216325436Y-95814324D01*
X216322123Y-95814501D01*
X216262516Y-95820908D01*
X216127671Y-95871202D01*
X216127664Y-95871206D01*
X216012455Y-95957452D01*
X216012452Y-95957455D01*
X215926206Y-96072664D01*
X215926200Y-96072674D01*
X215925767Y-96073838D01*
X215925023Y-96074831D01*
X215921953Y-96080454D01*
X215921144Y-96080012D01*
X215883894Y-96129770D01*
X215818429Y-96154184D01*
X215809587Y-96154500D01*
X214642717Y-96154500D01*
X214553637Y-96152243D01*
X214553628Y-96152243D01*
X214493260Y-96163064D01*
X214488595Y-96163718D01*
X214427563Y-96169925D01*
X214427555Y-96169927D01*
X214394781Y-96180210D01*
X214387154Y-96182082D01*
X214353350Y-96188141D01*
X214296384Y-96210894D01*
X214291948Y-96212473D01*
X214233414Y-96230840D01*
X214233412Y-96230841D01*
X214203385Y-96247506D01*
X214196293Y-96250874D01*
X214164383Y-96263621D01*
X214113154Y-96297383D01*
X214109126Y-96299824D01*
X214055502Y-96329588D01*
X214055499Y-96329590D01*
X214029427Y-96351970D01*
X214023160Y-96356695D01*
X213994482Y-96375598D01*
X213994475Y-96375603D01*
X213951116Y-96418962D01*
X213947661Y-96422164D01*
X213901106Y-96462132D01*
X213901104Y-96462134D01*
X213880076Y-96489299D01*
X213874884Y-96495194D01*
X213616897Y-96753182D01*
X213555577Y-96786666D01*
X213529218Y-96789500D01*
X212967588Y-96789500D01*
X212900549Y-96769815D01*
X212896465Y-96767075D01*
X212876622Y-96753181D01*
X212742734Y-96659432D01*
X212733626Y-96655185D01*
X212684725Y-96632382D01*
X212632285Y-96586210D01*
X212613133Y-96519017D01*
X212633348Y-96452135D01*
X212684725Y-96407618D01*
X212742734Y-96380568D01*
X212929139Y-96250047D01*
X213090047Y-96089139D01*
X213220568Y-95902734D01*
X213316739Y-95696496D01*
X213375635Y-95476692D01*
X213395468Y-95250000D01*
X213380869Y-95083137D01*
X213394635Y-95014639D01*
X213416713Y-94984653D01*
X215115638Y-93285727D01*
X215129267Y-93273950D01*
X215129274Y-93273945D01*
X215148530Y-93259610D01*
X215148532Y-93259606D01*
X215148534Y-93259606D01*
X215181890Y-93219852D01*
X215182113Y-93219585D01*
X215185767Y-93215599D01*
X215185772Y-93215594D01*
X215191590Y-93209777D01*
X215211923Y-93184060D01*
X215261302Y-93125214D01*
X215261309Y-93125198D01*
X215265272Y-93119176D01*
X215265324Y-93119210D01*
X215269371Y-93112858D01*
X215269317Y-93112825D01*
X215273104Y-93106684D01*
X215273110Y-93106677D01*
X215284846Y-93081508D01*
X215305561Y-93037086D01*
X215340036Y-92968440D01*
X215340040Y-92968433D01*
X215340042Y-92968421D01*
X215342510Y-92961644D01*
X215342568Y-92961665D01*
X215345043Y-92954546D01*
X215344985Y-92954527D01*
X215347256Y-92947672D01*
X215347723Y-92945413D01*
X215362784Y-92872467D01*
X215380500Y-92797721D01*
X215380500Y-92797719D01*
X215381339Y-92790548D01*
X215381397Y-92790554D01*
X215382164Y-92783056D01*
X215382104Y-92783051D01*
X215382733Y-92775860D01*
X215380500Y-92699103D01*
X215380500Y-91931662D01*
X215400185Y-91864623D01*
X215433379Y-91830086D01*
X215469140Y-91805046D01*
X215630045Y-91644141D01*
X215630044Y-91644141D01*
X215630047Y-91644139D01*
X215760568Y-91457734D01*
X215856739Y-91251496D01*
X215915635Y-91031692D01*
X215926223Y-90910669D01*
X215951674Y-90845604D01*
X216008265Y-90804625D01*
X216078026Y-90800746D01*
X216137431Y-90833798D01*
X216583010Y-91279377D01*
X216607711Y-91314653D01*
X216674430Y-91457731D01*
X216804954Y-91644141D01*
X216965858Y-91805045D01*
X216965861Y-91805047D01*
X217152266Y-91935568D01*
X217358504Y-92031739D01*
X217358509Y-92031740D01*
X217358511Y-92031741D01*
X217411415Y-92045916D01*
X217578308Y-92090635D01*
X217740230Y-92104801D01*
X217804998Y-92110468D01*
X217805000Y-92110468D01*
X217805002Y-92110468D01*
X217861673Y-92105509D01*
X218031692Y-92090635D01*
X218251496Y-92031739D01*
X218457734Y-91935568D01*
X218644139Y-91805047D01*
X218805047Y-91644139D01*
X218819243Y-91623865D01*
X218830088Y-91608377D01*
X218884665Y-91564752D01*
X218931663Y-91555500D01*
X219641295Y-91555500D01*
X219659265Y-91556809D01*
X219683023Y-91560289D01*
X219735068Y-91555735D01*
X219740470Y-91555500D01*
X219748704Y-91555500D01*
X219748709Y-91555500D01*
X219760327Y-91554141D01*
X219781276Y-91551693D01*
X219794028Y-91550577D01*
X219857797Y-91544999D01*
X219857805Y-91544996D01*
X219864866Y-91543539D01*
X219864878Y-91543598D01*
X219872243Y-91541965D01*
X219872229Y-91541906D01*
X219879246Y-91540241D01*
X219879255Y-91540241D01*
X219951423Y-91513974D01*
X220024334Y-91489814D01*
X220024343Y-91489807D01*
X220030882Y-91486760D01*
X220030908Y-91486816D01*
X220037690Y-91483532D01*
X220037663Y-91483478D01*
X220044106Y-91480240D01*
X220044117Y-91480237D01*
X220108283Y-91438034D01*
X220173656Y-91397712D01*
X220173662Y-91397705D01*
X220179325Y-91393229D01*
X220179362Y-91393277D01*
X220185204Y-91388518D01*
X220185164Y-91388471D01*
X220190686Y-91383836D01*
X220190696Y-91383830D01*
X220212398Y-91360825D01*
X220243386Y-91327982D01*
X220586415Y-90984952D01*
X220704652Y-90866714D01*
X220765973Y-90833231D01*
X220803135Y-90830869D01*
X220946366Y-90843400D01*
X220969999Y-90845468D01*
X220970000Y-90845468D01*
X220970002Y-90845468D01*
X221026807Y-90840498D01*
X221196692Y-90825635D01*
X221416496Y-90766739D01*
X221622734Y-90670568D01*
X221809139Y-90540047D01*
X221970047Y-90379139D01*
X222100568Y-90192734D01*
X222196739Y-89986496D01*
X222255635Y-89766692D01*
X222271971Y-89579960D01*
X222287260Y-89540874D01*
X222276523Y-89524167D01*
X222271972Y-89500039D01*
X222265192Y-89422544D01*
X222255635Y-89313308D01*
X222196739Y-89093504D01*
X222100568Y-88887266D01*
X221985078Y-88722328D01*
X221970045Y-88700858D01*
X221809141Y-88539954D01*
X221622734Y-88409432D01*
X221622728Y-88409429D01*
X221595038Y-88396517D01*
X221564724Y-88382381D01*
X221512285Y-88336210D01*
X221493133Y-88269017D01*
X221513348Y-88202135D01*
X221564725Y-88157618D01*
X221622734Y-88130568D01*
X221809139Y-88000047D01*
X221970047Y-87839139D01*
X222100568Y-87652734D01*
X222196739Y-87446496D01*
X222255635Y-87226692D01*
X222271810Y-87041816D01*
X222271972Y-87039960D01*
X222287260Y-87000874D01*
X222276523Y-86984167D01*
X222271972Y-86960039D01*
X222255635Y-86773313D01*
X222255635Y-86773308D01*
X222196739Y-86553504D01*
X222100568Y-86347266D01*
X221970047Y-86160861D01*
X221970045Y-86160858D01*
X221809141Y-85999954D01*
X221622734Y-85869432D01*
X221622728Y-85869429D01*
X221580530Y-85849752D01*
X221564724Y-85842381D01*
X221512285Y-85796210D01*
X221493133Y-85729017D01*
X221513348Y-85662135D01*
X221564725Y-85617618D01*
X221622734Y-85590568D01*
X221809139Y-85460047D01*
X221970047Y-85299139D01*
X222100568Y-85112734D01*
X222196739Y-84906496D01*
X222255635Y-84686692D01*
X222271971Y-84499960D01*
X222287260Y-84460874D01*
X222276523Y-84444167D01*
X222271972Y-84420039D01*
X222268054Y-84375262D01*
X222255635Y-84233308D01*
X222196739Y-84013504D01*
X222100568Y-83807266D01*
X221970047Y-83620861D01*
X221970045Y-83620858D01*
X221809141Y-83459954D01*
X221622734Y-83329432D01*
X221622728Y-83329429D01*
X221564725Y-83302382D01*
X221512285Y-83256210D01*
X221493133Y-83189017D01*
X221513348Y-83122135D01*
X221564725Y-83077618D01*
X221582134Y-83069500D01*
X221622734Y-83050568D01*
X221742134Y-82966963D01*
X221808339Y-82944637D01*
X221876106Y-82961647D01*
G37*
%TD.AperFunction*%
%TA.AperFunction,Conductor*%
G36*
X204063594Y-91595364D02*
G01*
X204119528Y-91637235D01*
X204130742Y-91655246D01*
X204133460Y-91660579D01*
X204142358Y-91678044D01*
X204142363Y-91678050D01*
X204231949Y-91767636D01*
X204231951Y-91767637D01*
X204231955Y-91767641D01*
X204254747Y-91779254D01*
X204305542Y-91827228D01*
X204322337Y-91895049D01*
X204299799Y-91961184D01*
X204286132Y-91977419D01*
X203705371Y-92558181D01*
X203644048Y-92591666D01*
X203617690Y-92594500D01*
X202927230Y-92594500D01*
X202860191Y-92574815D01*
X202839549Y-92558181D01*
X202832958Y-92551590D01*
X202799473Y-92490267D01*
X202804457Y-92420575D01*
X202832956Y-92376229D01*
X202930047Y-92279139D01*
X203060568Y-92092734D01*
X203087895Y-92034129D01*
X203134064Y-91981695D01*
X203201257Y-91962542D01*
X203268139Y-91982757D01*
X203312657Y-92034133D01*
X203339865Y-92092481D01*
X203339866Y-92092483D01*
X203390973Y-92165471D01*
X203390973Y-92165472D01*
X203932580Y-91623865D01*
X203993903Y-91590380D01*
X204063594Y-91595364D01*
G37*
%TD.AperFunction*%
%TA.AperFunction,Conductor*%
G36*
X208801181Y-88435197D02*
G01*
X208817419Y-88448866D01*
X209359025Y-88990472D01*
X209410133Y-88917482D01*
X209437341Y-88859135D01*
X209483513Y-88806696D01*
X209550707Y-88787543D01*
X209617588Y-88807758D01*
X209662105Y-88859132D01*
X209689432Y-88917734D01*
X209727996Y-88972810D01*
X209819954Y-89104141D01*
X209980858Y-89265045D01*
X209980861Y-89265047D01*
X210167266Y-89395568D01*
X210373504Y-89491739D01*
X210373509Y-89491740D01*
X210373511Y-89491741D01*
X210375116Y-89492171D01*
X210593308Y-89550635D01*
X210733052Y-89562861D01*
X210819998Y-89570468D01*
X210820000Y-89570468D01*
X210820002Y-89570468D01*
X210876796Y-89565499D01*
X211046692Y-89550635D01*
X211266496Y-89491739D01*
X211454337Y-89404146D01*
X211523412Y-89393655D01*
X211587196Y-89422174D01*
X211625436Y-89480651D01*
X211625991Y-89550518D01*
X211594421Y-89604210D01*
X211085348Y-90113282D01*
X211024025Y-90146767D01*
X210986861Y-90149129D01*
X210820003Y-90134532D01*
X210819998Y-90134532D01*
X210593313Y-90154364D01*
X210593302Y-90154366D01*
X210373511Y-90213258D01*
X210373502Y-90213261D01*
X210167267Y-90309431D01*
X210167265Y-90309432D01*
X209980858Y-90439954D01*
X209819954Y-90600858D01*
X209689432Y-90787265D01*
X209689431Y-90787267D01*
X209683146Y-90800746D01*
X209664609Y-90840500D01*
X209662382Y-90845275D01*
X209616209Y-90897714D01*
X209549016Y-90916866D01*
X209482135Y-90896650D01*
X209437618Y-90845275D01*
X209410568Y-90787266D01*
X209280047Y-90600861D01*
X209280045Y-90600858D01*
X209119141Y-90439954D01*
X208932734Y-90309432D01*
X208932732Y-90309431D01*
X208726497Y-90213261D01*
X208726488Y-90213258D01*
X208506697Y-90154366D01*
X208506693Y-90154365D01*
X208506692Y-90154365D01*
X208506691Y-90154364D01*
X208506686Y-90154364D01*
X208280002Y-90134532D01*
X208279998Y-90134532D01*
X208053313Y-90154364D01*
X208053302Y-90154366D01*
X207833511Y-90213258D01*
X207833502Y-90213261D01*
X207627267Y-90309431D01*
X207627265Y-90309432D01*
X207440858Y-90439954D01*
X207337181Y-90543632D01*
X207275858Y-90577117D01*
X207206166Y-90572133D01*
X207150233Y-90530261D01*
X207125816Y-90464797D01*
X207125500Y-90455951D01*
X207125500Y-89117308D01*
X207145185Y-89050269D01*
X207161819Y-89029627D01*
X207742580Y-88448865D01*
X207803903Y-88415380D01*
X207873594Y-88420364D01*
X207929528Y-88462235D01*
X207940742Y-88480246D01*
X207945438Y-88489462D01*
X207952358Y-88503044D01*
X207952363Y-88503050D01*
X208041949Y-88592636D01*
X208041951Y-88592637D01*
X208041955Y-88592641D01*
X208064747Y-88604254D01*
X208115542Y-88652228D01*
X208132337Y-88720049D01*
X208109799Y-88786184D01*
X208096132Y-88802419D01*
X207554526Y-89344025D01*
X207554526Y-89344026D01*
X207627512Y-89395131D01*
X207627516Y-89395133D01*
X207833673Y-89491265D01*
X207833682Y-89491269D01*
X208053389Y-89550139D01*
X208053400Y-89550141D01*
X208279998Y-89569966D01*
X208280002Y-89569966D01*
X208506599Y-89550141D01*
X208506610Y-89550139D01*
X208726317Y-89491269D01*
X208726331Y-89491264D01*
X208932478Y-89395136D01*
X209005472Y-89344025D01*
X208463866Y-88802419D01*
X208430381Y-88741096D01*
X208435365Y-88671404D01*
X208477237Y-88615471D01*
X208495245Y-88604258D01*
X208518045Y-88592641D01*
X208607641Y-88503045D01*
X208619254Y-88480252D01*
X208667225Y-88429458D01*
X208735046Y-88412661D01*
X208801181Y-88435197D01*
G37*
%TD.AperFunction*%
%TA.AperFunction,Conductor*%
G36*
X213064809Y-52205185D02*
G01*
X213085451Y-52221819D01*
X214054267Y-53190634D01*
X214066048Y-53204266D01*
X214080390Y-53223530D01*
X214120420Y-53257119D01*
X214124392Y-53260759D01*
X214130223Y-53266590D01*
X214130222Y-53266590D01*
X214140543Y-53274750D01*
X214155944Y-53286927D01*
X214214786Y-53336302D01*
X214214794Y-53336306D01*
X214220824Y-53340273D01*
X214220790Y-53340323D01*
X214227137Y-53344366D01*
X214227169Y-53344316D01*
X214233318Y-53348108D01*
X214233320Y-53348109D01*
X214233323Y-53348111D01*
X214302930Y-53380569D01*
X214371567Y-53415040D01*
X214371576Y-53415042D01*
X214378355Y-53417510D01*
X214378334Y-53417567D01*
X214385451Y-53420040D01*
X214385470Y-53419984D01*
X214392330Y-53422257D01*
X214467532Y-53437784D01*
X214542279Y-53455500D01*
X214542288Y-53455500D01*
X214549452Y-53456338D01*
X214549445Y-53456397D01*
X214556946Y-53457163D01*
X214556952Y-53457104D01*
X214564140Y-53457733D01*
X214564143Y-53457732D01*
X214564144Y-53457733D01*
X214640898Y-53455500D01*
X215633337Y-53455500D01*
X215700376Y-53475185D01*
X215734912Y-53508377D01*
X215759954Y-53544141D01*
X215920858Y-53705045D01*
X215920861Y-53705047D01*
X216107266Y-53835568D01*
X216313504Y-53931739D01*
X216313509Y-53931740D01*
X216313511Y-53931741D01*
X216357751Y-53943595D01*
X216533308Y-53990635D01*
X216695230Y-54004801D01*
X216759998Y-54010468D01*
X216760000Y-54010468D01*
X216760002Y-54010468D01*
X216816673Y-54005509D01*
X216986692Y-53990635D01*
X217206496Y-53931739D01*
X217412734Y-53835568D01*
X217599139Y-53705047D01*
X217760047Y-53544139D01*
X217890568Y-53357734D01*
X217917618Y-53299724D01*
X217963790Y-53247285D01*
X218030983Y-53228133D01*
X218097865Y-53248348D01*
X218142382Y-53299725D01*
X218169429Y-53357728D01*
X218169432Y-53357734D01*
X218299954Y-53544141D01*
X218460858Y-53705045D01*
X218460861Y-53705047D01*
X218647266Y-53835568D01*
X218853504Y-53931739D01*
X218853509Y-53931740D01*
X218853511Y-53931741D01*
X218897751Y-53943595D01*
X219073308Y-53990635D01*
X219235230Y-54004801D01*
X219299998Y-54010468D01*
X219300000Y-54010468D01*
X219300002Y-54010468D01*
X219356673Y-54005509D01*
X219526692Y-53990635D01*
X219746496Y-53931739D01*
X219952734Y-53835568D01*
X220139139Y-53705047D01*
X220300047Y-53544139D01*
X220314232Y-53523880D01*
X220325088Y-53508377D01*
X220379665Y-53464752D01*
X220426663Y-53455500D01*
X222821295Y-53455500D01*
X222839265Y-53456809D01*
X222863023Y-53460289D01*
X222915068Y-53455735D01*
X222920470Y-53455500D01*
X222928704Y-53455500D01*
X222928709Y-53455500D01*
X222945279Y-53453563D01*
X222961276Y-53451693D01*
X222974028Y-53450577D01*
X223037797Y-53444999D01*
X223037805Y-53444996D01*
X223044866Y-53443539D01*
X223044878Y-53443598D01*
X223052243Y-53441965D01*
X223052229Y-53441906D01*
X223059246Y-53440241D01*
X223059255Y-53440241D01*
X223131423Y-53413974D01*
X223204334Y-53389814D01*
X223204343Y-53389807D01*
X223210882Y-53386760D01*
X223210908Y-53386816D01*
X223217690Y-53383532D01*
X223217663Y-53383478D01*
X223224106Y-53380240D01*
X223224117Y-53380237D01*
X223288283Y-53338034D01*
X223353656Y-53297712D01*
X223353662Y-53297705D01*
X223359325Y-53293229D01*
X223359362Y-53293277D01*
X223365204Y-53288518D01*
X223365164Y-53288471D01*
X223370691Y-53283832D01*
X223370696Y-53283830D01*
X223379263Y-53274750D01*
X223423387Y-53227980D01*
X224014548Y-52636819D01*
X224075871Y-52603334D01*
X224102229Y-52600500D01*
X224973337Y-52600500D01*
X225040376Y-52620185D01*
X225074912Y-52653377D01*
X225099954Y-52689141D01*
X225260858Y-52850045D01*
X225260861Y-52850047D01*
X225447266Y-52980568D01*
X225462975Y-52987893D01*
X225515414Y-53034064D01*
X225534567Y-53101257D01*
X225514352Y-53168138D01*
X225462979Y-53212656D01*
X225447512Y-53219868D01*
X225374526Y-53270973D01*
X225916133Y-53812580D01*
X225949618Y-53873903D01*
X225944634Y-53943595D01*
X225902762Y-53999528D01*
X225884748Y-54010745D01*
X225861956Y-54022358D01*
X225861949Y-54022363D01*
X225772363Y-54111949D01*
X225772358Y-54111956D01*
X225760745Y-54134748D01*
X225712770Y-54185544D01*
X225644949Y-54202338D01*
X225578814Y-54179800D01*
X225562580Y-54166133D01*
X225020973Y-53624526D01*
X224969868Y-53697513D01*
X224873734Y-53903673D01*
X224873730Y-53903682D01*
X224814860Y-54123389D01*
X224814858Y-54123400D01*
X224795034Y-54349997D01*
X224795034Y-54350002D01*
X224810754Y-54529689D01*
X224796987Y-54598189D01*
X224748372Y-54648372D01*
X224680343Y-54664305D01*
X224614500Y-54640929D01*
X224599545Y-54628177D01*
X224095729Y-54124361D01*
X224083949Y-54110730D01*
X224070998Y-54093334D01*
X224069612Y-54091472D01*
X224064303Y-54087017D01*
X224029587Y-54057886D01*
X224025612Y-54054244D01*
X224022690Y-54051322D01*
X224019780Y-54048411D01*
X223994040Y-54028059D01*
X223949440Y-53990635D01*
X223935214Y-53978698D01*
X223935213Y-53978697D01*
X223935209Y-53978694D01*
X223929180Y-53974729D01*
X223929212Y-53974680D01*
X223922853Y-53970628D01*
X223922822Y-53970679D01*
X223916680Y-53966891D01*
X223916678Y-53966890D01*
X223916677Y-53966889D01*
X223866724Y-53943595D01*
X223847058Y-53934424D01*
X223796712Y-53909140D01*
X223778433Y-53899960D01*
X223778431Y-53899959D01*
X223778430Y-53899959D01*
X223771645Y-53897489D01*
X223771665Y-53897433D01*
X223764549Y-53894959D01*
X223764531Y-53895015D01*
X223757671Y-53892742D01*
X223729841Y-53886996D01*
X223682434Y-53877207D01*
X223633472Y-53865603D01*
X223607719Y-53859499D01*
X223600547Y-53858661D01*
X223600553Y-53858601D01*
X223593055Y-53857835D01*
X223593050Y-53857895D01*
X223585860Y-53857265D01*
X223509083Y-53859500D01*
X221453705Y-53859500D01*
X221435735Y-53858191D01*
X221411972Y-53854710D01*
X221366890Y-53858655D01*
X221359933Y-53859264D01*
X221354532Y-53859500D01*
X221346287Y-53859500D01*
X221320222Y-53862546D01*
X221313705Y-53863308D01*
X221308403Y-53863771D01*
X221237201Y-53870001D01*
X221230134Y-53871461D01*
X221230122Y-53871404D01*
X221222753Y-53873038D01*
X221222767Y-53873095D01*
X221215739Y-53874760D01*
X221146505Y-53899959D01*
X221143568Y-53901028D01*
X221070665Y-53925186D01*
X221070663Y-53925186D01*
X221070660Y-53925188D01*
X221064123Y-53928236D01*
X221064098Y-53928184D01*
X221057310Y-53931470D01*
X221057336Y-53931521D01*
X221050885Y-53934761D01*
X220986723Y-53976961D01*
X220921346Y-54017285D01*
X220915682Y-54021765D01*
X220915646Y-54021719D01*
X220909798Y-54026484D01*
X220909835Y-54026528D01*
X220904310Y-54031164D01*
X220851614Y-54087017D01*
X220165387Y-54773243D01*
X220104064Y-54806728D01*
X220034372Y-54801744D01*
X220006586Y-54787139D01*
X219952734Y-54749432D01*
X219922139Y-54735165D01*
X219746497Y-54653261D01*
X219746488Y-54653258D01*
X219526697Y-54594366D01*
X219526693Y-54594365D01*
X219526692Y-54594365D01*
X219526691Y-54594364D01*
X219526686Y-54594364D01*
X219300002Y-54574532D01*
X219299998Y-54574532D01*
X219073313Y-54594364D01*
X219073302Y-54594366D01*
X218853511Y-54653258D01*
X218853502Y-54653261D01*
X218647267Y-54749431D01*
X218647265Y-54749432D01*
X218460858Y-54879954D01*
X218299954Y-55040858D01*
X218169432Y-55227265D01*
X218169431Y-55227267D01*
X218142382Y-55285275D01*
X218096209Y-55337714D01*
X218029016Y-55356866D01*
X217962135Y-55336650D01*
X217917618Y-55285275D01*
X217911783Y-55272761D01*
X217890568Y-55227266D01*
X217760047Y-55040861D01*
X217760045Y-55040858D01*
X217599141Y-54879954D01*
X217412734Y-54749432D01*
X217412732Y-54749431D01*
X217206497Y-54653261D01*
X217206488Y-54653258D01*
X216986697Y-54594366D01*
X216986693Y-54594365D01*
X216986692Y-54594365D01*
X216986691Y-54594364D01*
X216986686Y-54594364D01*
X216760002Y-54574532D01*
X216759998Y-54574532D01*
X216533313Y-54594364D01*
X216533302Y-54594366D01*
X216313511Y-54653258D01*
X216313502Y-54653261D01*
X216107267Y-54749431D01*
X216107265Y-54749432D01*
X215920858Y-54879954D01*
X215759954Y-55040858D01*
X215734912Y-55076623D01*
X215680335Y-55120248D01*
X215633337Y-55129500D01*
X215627229Y-55129500D01*
X215560190Y-55109815D01*
X215539548Y-55093181D01*
X214432283Y-53985916D01*
X213300729Y-52854361D01*
X213288949Y-52840730D01*
X213281256Y-52830397D01*
X213274612Y-52821472D01*
X213237570Y-52790390D01*
X213234587Y-52787886D01*
X213230612Y-52784244D01*
X213227690Y-52781322D01*
X213224780Y-52778411D01*
X213199040Y-52758059D01*
X213140209Y-52708694D01*
X213134180Y-52704729D01*
X213134212Y-52704680D01*
X213127853Y-52700628D01*
X213127822Y-52700679D01*
X213121680Y-52696891D01*
X213121678Y-52696890D01*
X213121677Y-52696889D01*
X213082474Y-52678608D01*
X213052058Y-52664424D01*
X212997090Y-52636819D01*
X212983433Y-52629960D01*
X212983431Y-52629959D01*
X212983430Y-52629959D01*
X212976645Y-52627489D01*
X212976665Y-52627433D01*
X212969549Y-52624959D01*
X212969531Y-52625015D01*
X212962671Y-52622742D01*
X212934841Y-52616996D01*
X212887434Y-52607207D01*
X212838472Y-52595603D01*
X212812719Y-52589499D01*
X212805547Y-52588661D01*
X212805553Y-52588601D01*
X212798055Y-52587835D01*
X212798050Y-52587895D01*
X212790860Y-52587265D01*
X212714083Y-52589500D01*
X203898705Y-52589500D01*
X203880735Y-52588191D01*
X203856972Y-52584710D01*
X203812512Y-52588601D01*
X203804931Y-52589264D01*
X203799530Y-52589500D01*
X203791289Y-52589500D01*
X203769579Y-52592037D01*
X203758724Y-52593306D01*
X203743419Y-52594645D01*
X203682199Y-52600001D01*
X203675132Y-52601460D01*
X203675120Y-52601404D01*
X203667763Y-52603035D01*
X203667777Y-52603092D01*
X203660743Y-52604759D01*
X203588575Y-52631025D01*
X203515675Y-52655181D01*
X203509126Y-52658236D01*
X203509101Y-52658183D01*
X203502308Y-52661471D01*
X203502334Y-52661523D01*
X203495880Y-52664764D01*
X203431708Y-52706971D01*
X203366347Y-52747285D01*
X203360683Y-52751765D01*
X203360647Y-52751719D01*
X203354797Y-52756485D01*
X203354834Y-52756529D01*
X203349305Y-52761168D01*
X203296598Y-52817033D01*
X202714358Y-53399272D01*
X202700729Y-53411051D01*
X202681468Y-53425390D01*
X202647898Y-53465397D01*
X202644253Y-53469376D01*
X202638409Y-53475222D01*
X202618059Y-53500959D01*
X202568695Y-53559789D01*
X202564729Y-53565819D01*
X202564682Y-53565788D01*
X202560630Y-53572147D01*
X202560679Y-53572177D01*
X202556889Y-53578321D01*
X202524424Y-53647941D01*
X202489960Y-53716566D01*
X202487488Y-53723357D01*
X202487432Y-53723336D01*
X202484960Y-53730450D01*
X202485015Y-53730469D01*
X202482742Y-53737327D01*
X202477296Y-53763705D01*
X202467207Y-53812565D01*
X202456084Y-53859499D01*
X202449498Y-53887286D01*
X202448661Y-53894454D01*
X202448601Y-53894447D01*
X202447835Y-53901945D01*
X202447895Y-53901951D01*
X202447265Y-53909140D01*
X202449500Y-53985916D01*
X202449500Y-78676294D01*
X202448191Y-78694263D01*
X202444710Y-78718025D01*
X202449264Y-78770064D01*
X202449500Y-78775470D01*
X202449500Y-78783709D01*
X202453306Y-78816274D01*
X202460000Y-78892791D01*
X202461461Y-78899867D01*
X202461403Y-78899878D01*
X202463034Y-78907237D01*
X202463092Y-78907224D01*
X202464757Y-78914250D01*
X202491025Y-78986424D01*
X202515185Y-79059331D01*
X202518236Y-79065874D01*
X202518182Y-79065898D01*
X202521470Y-79072688D01*
X202521521Y-79072663D01*
X202524761Y-79079113D01*
X202524762Y-79079114D01*
X202524763Y-79079117D01*
X202563883Y-79138597D01*
X202566965Y-79143283D01*
X202607287Y-79208655D01*
X202611766Y-79214319D01*
X202611719Y-79214356D01*
X202616482Y-79220202D01*
X202616528Y-79220164D01*
X202621173Y-79225700D01*
X202677017Y-79278385D01*
X205588181Y-82189549D01*
X205621666Y-82250872D01*
X205624500Y-82277230D01*
X205624500Y-85066358D01*
X205624395Y-85069963D01*
X205620669Y-85133934D01*
X205620669Y-85133935D01*
X205622616Y-85144977D01*
X205624500Y-85166509D01*
X205624499Y-87412690D01*
X205604814Y-87479730D01*
X205588180Y-87500371D01*
X205007419Y-88081132D01*
X204946096Y-88114617D01*
X204876404Y-88109633D01*
X204820471Y-88067761D01*
X204809256Y-88049751D01*
X204797641Y-88026955D01*
X204797637Y-88026951D01*
X204797636Y-88026949D01*
X204708050Y-87937363D01*
X204708044Y-87937358D01*
X204698109Y-87932296D01*
X204685250Y-87925744D01*
X204634456Y-87877773D01*
X204617660Y-87809952D01*
X204640197Y-87743817D01*
X204653865Y-87727580D01*
X205195472Y-87185973D01*
X205122483Y-87134866D01*
X205122481Y-87134865D01*
X204916326Y-87038734D01*
X204916317Y-87038730D01*
X204696610Y-86979860D01*
X204696599Y-86979858D01*
X204470002Y-86960034D01*
X204469998Y-86960034D01*
X204243400Y-86979858D01*
X204243389Y-86979860D01*
X204023682Y-87038730D01*
X204023673Y-87038734D01*
X203817513Y-87134868D01*
X203744526Y-87185973D01*
X204286133Y-87727580D01*
X204319618Y-87788903D01*
X204314634Y-87858595D01*
X204272762Y-87914528D01*
X204254748Y-87925745D01*
X204231956Y-87937358D01*
X204231949Y-87937363D01*
X204142363Y-88026949D01*
X204142358Y-88026956D01*
X204130745Y-88049748D01*
X204082770Y-88100544D01*
X204014949Y-88117338D01*
X203948814Y-88094800D01*
X203932580Y-88081133D01*
X203390973Y-87539526D01*
X203339869Y-87612511D01*
X203312657Y-87670867D01*
X203266484Y-87723306D01*
X203199290Y-87742457D01*
X203132409Y-87722241D01*
X203087893Y-87670865D01*
X203084499Y-87663587D01*
X203060568Y-87612266D01*
X202959248Y-87467565D01*
X202930048Y-87425862D01*
X202861702Y-87357516D01*
X202769139Y-87264953D01*
X202764373Y-87261615D01*
X202733375Y-87239910D01*
X202689751Y-87185332D01*
X202680500Y-87138336D01*
X202680500Y-86228269D01*
X202700185Y-86161230D01*
X202752989Y-86115475D01*
X202816652Y-86104866D01*
X202924620Y-86115500D01*
X202924623Y-86115500D01*
X203475377Y-86115500D01*
X203475380Y-86115500D01*
X203626033Y-86100662D01*
X203819341Y-86042023D01*
X203997494Y-85946798D01*
X204153647Y-85818647D01*
X204281798Y-85662494D01*
X204377023Y-85484341D01*
X204435662Y-85291033D01*
X204455462Y-85090000D01*
X204435662Y-84888967D01*
X204377023Y-84695659D01*
X204377021Y-84695656D01*
X204377021Y-84695654D01*
X204279632Y-84513452D01*
X204265390Y-84445049D01*
X204279632Y-84396545D01*
X204281796Y-84392496D01*
X204281798Y-84392494D01*
X204377023Y-84214341D01*
X204435662Y-84021033D01*
X204455462Y-83820000D01*
X204435662Y-83618967D01*
X204377023Y-83425659D01*
X204377021Y-83425656D01*
X204376694Y-83424576D01*
X204376070Y-83354709D01*
X204390469Y-83325623D01*
X204389544Y-83325118D01*
X204393793Y-83317335D01*
X204393792Y-83317335D01*
X204393796Y-83317331D01*
X204444091Y-83182483D01*
X204450500Y-83122873D01*
X204450499Y-81977128D01*
X204444358Y-81919998D01*
X204444091Y-81917516D01*
X204393797Y-81782671D01*
X204393793Y-81782664D01*
X204307547Y-81667455D01*
X204307544Y-81667452D01*
X204192335Y-81581206D01*
X204192328Y-81581202D01*
X204057482Y-81530908D01*
X204057483Y-81530908D01*
X203997883Y-81524501D01*
X203997881Y-81524500D01*
X203997873Y-81524500D01*
X203997864Y-81524500D01*
X202402129Y-81524500D01*
X202402123Y-81524501D01*
X202342515Y-81530909D01*
X202212832Y-81579277D01*
X202143141Y-81584261D01*
X202081818Y-81550775D01*
X202048334Y-81489452D01*
X202045500Y-81463095D01*
X202045500Y-53702229D01*
X202065185Y-53635190D01*
X202081814Y-53614553D01*
X203474549Y-52221818D01*
X203535872Y-52188334D01*
X203562230Y-52185500D01*
X212997770Y-52185500D01*
X213064809Y-52205185D01*
G37*
%TD.AperFunction*%
%TA.AperFunction,Conductor*%
G36*
X209889809Y-84590185D02*
G01*
X209910451Y-84606819D01*
X210302559Y-84998926D01*
X210336044Y-85060249D01*
X210331060Y-85129940D01*
X210305129Y-85169035D01*
X210306111Y-85169859D01*
X210267898Y-85215397D01*
X210264253Y-85219376D01*
X210258409Y-85225222D01*
X210238059Y-85250959D01*
X210188695Y-85309789D01*
X210184729Y-85315819D01*
X210184682Y-85315788D01*
X210180630Y-85322147D01*
X210180679Y-85322177D01*
X210176889Y-85328321D01*
X210144424Y-85397941D01*
X210109960Y-85466566D01*
X210107488Y-85473357D01*
X210107432Y-85473336D01*
X210104960Y-85480450D01*
X210105015Y-85480469D01*
X210102742Y-85487327D01*
X210094975Y-85524946D01*
X210087207Y-85562565D01*
X210080570Y-85590570D01*
X210069498Y-85637286D01*
X210068661Y-85644454D01*
X210068601Y-85644447D01*
X210067835Y-85651945D01*
X210067895Y-85651951D01*
X210067265Y-85659140D01*
X210069500Y-85735916D01*
X210069500Y-87138336D01*
X210049815Y-87205375D01*
X210016625Y-87239910D01*
X209980863Y-87264951D01*
X209819951Y-87425862D01*
X209689433Y-87612264D01*
X209689432Y-87612266D01*
X209665501Y-87663587D01*
X209662106Y-87670867D01*
X209615933Y-87723306D01*
X209548739Y-87742457D01*
X209481858Y-87722241D01*
X209437342Y-87670865D01*
X209410135Y-87612520D01*
X209410131Y-87612512D01*
X209359026Y-87539526D01*
X209359025Y-87539526D01*
X208817419Y-88081132D01*
X208756096Y-88114617D01*
X208686404Y-88109633D01*
X208630471Y-88067761D01*
X208619256Y-88049751D01*
X208607641Y-88026955D01*
X208607637Y-88026951D01*
X208607636Y-88026949D01*
X208518050Y-87937363D01*
X208518044Y-87937358D01*
X208508109Y-87932296D01*
X208495250Y-87925744D01*
X208444456Y-87877773D01*
X208427660Y-87809952D01*
X208450197Y-87743817D01*
X208463865Y-87727580D01*
X209005472Y-87185973D01*
X208932483Y-87134866D01*
X208932481Y-87134865D01*
X208726326Y-87038734D01*
X208726317Y-87038730D01*
X208506610Y-86979860D01*
X208506599Y-86979858D01*
X208280002Y-86960034D01*
X208279998Y-86960034D01*
X208053400Y-86979858D01*
X208053389Y-86979860D01*
X207833682Y-87038730D01*
X207833673Y-87038734D01*
X207627513Y-87134868D01*
X207554526Y-87185973D01*
X208096133Y-87727580D01*
X208129618Y-87788903D01*
X208124634Y-87858595D01*
X208082762Y-87914528D01*
X208064748Y-87925745D01*
X208041956Y-87937358D01*
X208041949Y-87937363D01*
X207952363Y-88026949D01*
X207952358Y-88026956D01*
X207940745Y-88049748D01*
X207892770Y-88100544D01*
X207824949Y-88117338D01*
X207758814Y-88094800D01*
X207742580Y-88081133D01*
X207161819Y-87500372D01*
X207128334Y-87439049D01*
X207125500Y-87412691D01*
X207125500Y-85964500D01*
X207145185Y-85897461D01*
X207197989Y-85851706D01*
X207249500Y-85840500D01*
X207308613Y-85840500D01*
X207375652Y-85860185D01*
X207387278Y-85868647D01*
X207388235Y-85869432D01*
X207482506Y-85946798D01*
X207482509Y-85946799D01*
X207482511Y-85946801D01*
X207660654Y-86042021D01*
X207660656Y-86042021D01*
X207660659Y-86042023D01*
X207853967Y-86100662D01*
X208004620Y-86115500D01*
X208004623Y-86115500D01*
X208555377Y-86115500D01*
X208555380Y-86115500D01*
X208706033Y-86100662D01*
X208899341Y-86042023D01*
X209077494Y-85946798D01*
X209233647Y-85818647D01*
X209361798Y-85662494D01*
X209457023Y-85484341D01*
X209515662Y-85291033D01*
X209535462Y-85090000D01*
X209515662Y-84888967D01*
X209467589Y-84730493D01*
X209466967Y-84660628D01*
X209504215Y-84601515D01*
X209567509Y-84571925D01*
X209586251Y-84570500D01*
X209822770Y-84570500D01*
X209889809Y-84590185D01*
G37*
%TD.AperFunction*%
%TA.AperFunction,Conductor*%
G36*
X212429809Y-54110185D02*
G01*
X212450451Y-54126819D01*
X214689267Y-56365634D01*
X214701048Y-56379266D01*
X214715390Y-56398530D01*
X214755420Y-56432119D01*
X214759392Y-56435759D01*
X214765223Y-56441590D01*
X214790939Y-56461923D01*
X214849786Y-56511302D01*
X214849788Y-56511303D01*
X214855823Y-56515272D01*
X214855789Y-56515322D01*
X214862144Y-56519370D01*
X214862177Y-56519318D01*
X214868319Y-56523107D01*
X214868323Y-56523110D01*
X214923898Y-56549025D01*
X214937914Y-56555561D01*
X215006558Y-56590036D01*
X215006561Y-56590037D01*
X215006567Y-56590040D01*
X215006572Y-56590041D01*
X215013355Y-56592510D01*
X215013334Y-56592567D01*
X215020451Y-56595040D01*
X215020470Y-56594984D01*
X215027330Y-56597257D01*
X215098483Y-56611948D01*
X215102532Y-56612784D01*
X215177279Y-56630500D01*
X215177288Y-56630500D01*
X215184452Y-56631338D01*
X215184445Y-56631397D01*
X215191946Y-56632163D01*
X215191952Y-56632104D01*
X215199140Y-56632733D01*
X215199143Y-56632732D01*
X215199144Y-56632733D01*
X215275898Y-56630500D01*
X215633337Y-56630500D01*
X215700376Y-56650185D01*
X215734912Y-56683377D01*
X215759954Y-56719141D01*
X215920858Y-56880045D01*
X215920861Y-56880047D01*
X216107266Y-57010568D01*
X216313504Y-57106739D01*
X216533308Y-57165635D01*
X216695230Y-57179801D01*
X216759998Y-57185468D01*
X216760000Y-57185468D01*
X216760002Y-57185468D01*
X216816672Y-57180509D01*
X216986692Y-57165635D01*
X217206496Y-57106739D01*
X217412734Y-57010568D01*
X217599139Y-56880047D01*
X217760047Y-56719139D01*
X217890568Y-56532734D01*
X217917618Y-56474724D01*
X217963790Y-56422285D01*
X218030983Y-56403133D01*
X218097865Y-56423348D01*
X218142382Y-56474725D01*
X218169429Y-56532728D01*
X218169432Y-56532734D01*
X218299954Y-56719141D01*
X218460858Y-56880045D01*
X218460861Y-56880047D01*
X218647266Y-57010568D01*
X218853504Y-57106739D01*
X219073308Y-57165635D01*
X219235230Y-57179801D01*
X219299998Y-57185468D01*
X219300000Y-57185468D01*
X219300002Y-57185468D01*
X219356673Y-57180509D01*
X219526692Y-57165635D01*
X219746496Y-57106739D01*
X219952734Y-57010568D01*
X220139139Y-56880047D01*
X220300047Y-56719139D01*
X220375102Y-56611947D01*
X220429678Y-56568322D01*
X220437680Y-56565362D01*
X220439334Y-56564814D01*
X220445879Y-56561762D01*
X220445905Y-56561817D01*
X220452690Y-56558532D01*
X220452663Y-56558478D01*
X220459106Y-56555240D01*
X220459117Y-56555237D01*
X220523283Y-56513034D01*
X220588656Y-56472712D01*
X220588662Y-56472705D01*
X220594325Y-56468229D01*
X220594362Y-56468277D01*
X220600204Y-56463518D01*
X220600164Y-56463471D01*
X220605686Y-56458836D01*
X220605696Y-56458830D01*
X220640174Y-56422285D01*
X220658386Y-56402982D01*
X221017065Y-56044302D01*
X221154555Y-55906811D01*
X221215876Y-55873328D01*
X221285567Y-55878312D01*
X221341501Y-55920183D01*
X221365918Y-55985648D01*
X221355791Y-56044302D01*
X221326411Y-56111282D01*
X221265387Y-56352261D01*
X221265385Y-56352269D01*
X221250000Y-56537959D01*
X221250000Y-57100000D01*
X222126000Y-57100000D01*
X222193039Y-57119685D01*
X222238794Y-57172489D01*
X222250000Y-57224000D01*
X222250000Y-57476000D01*
X222230315Y-57543039D01*
X222177511Y-57588794D01*
X222126000Y-57600000D01*
X221250000Y-57600000D01*
X221250000Y-58162041D01*
X221265385Y-58347730D01*
X221265387Y-58347738D01*
X221326412Y-58588717D01*
X221426267Y-58816367D01*
X221562232Y-59024478D01*
X221730592Y-59207364D01*
X221730597Y-59207368D01*
X221917250Y-59352647D01*
X221958062Y-59409357D01*
X221961737Y-59479130D01*
X221927105Y-59539813D01*
X221865164Y-59572140D01*
X221841087Y-59574500D01*
X220932230Y-59574500D01*
X220865191Y-59554815D01*
X220844549Y-59538181D01*
X220626716Y-59320348D01*
X220593231Y-59259025D01*
X220590869Y-59221863D01*
X220605468Y-59055000D01*
X220585635Y-58828308D01*
X220533753Y-58634680D01*
X220526741Y-58608511D01*
X220526738Y-58608502D01*
X220511093Y-58574952D01*
X220430568Y-58402266D01*
X220314629Y-58236686D01*
X220300045Y-58215858D01*
X220139141Y-58054954D01*
X219952734Y-57924432D01*
X219952732Y-57924431D01*
X219746497Y-57828261D01*
X219746488Y-57828258D01*
X219526697Y-57769366D01*
X219526693Y-57769365D01*
X219526692Y-57769365D01*
X219526691Y-57769364D01*
X219526686Y-57769364D01*
X219300002Y-57749532D01*
X219299998Y-57749532D01*
X219073313Y-57769364D01*
X219073302Y-57769366D01*
X218853511Y-57828258D01*
X218853502Y-57828261D01*
X218647267Y-57924431D01*
X218647265Y-57924432D01*
X218460858Y-58054954D01*
X218299954Y-58215858D01*
X218169432Y-58402265D01*
X218169431Y-58402267D01*
X218142382Y-58460275D01*
X218096209Y-58512714D01*
X218029016Y-58531866D01*
X217962135Y-58511650D01*
X217917618Y-58460275D01*
X217890568Y-58402267D01*
X217890567Y-58402265D01*
X217888097Y-58398738D01*
X217774629Y-58236686D01*
X217760045Y-58215858D01*
X217599141Y-58054954D01*
X217412734Y-57924432D01*
X217412732Y-57924431D01*
X217206497Y-57828261D01*
X217206488Y-57828258D01*
X216986697Y-57769366D01*
X216986693Y-57769365D01*
X216986692Y-57769365D01*
X216986691Y-57769364D01*
X216986686Y-57769364D01*
X216760002Y-57749532D01*
X216759998Y-57749532D01*
X216533313Y-57769364D01*
X216533302Y-57769366D01*
X216313511Y-57828258D01*
X216313502Y-57828261D01*
X216107267Y-57924431D01*
X216107265Y-57924432D01*
X215920858Y-58054954D01*
X215759954Y-58215858D01*
X215734912Y-58251623D01*
X215680335Y-58295248D01*
X215633337Y-58304500D01*
X213722230Y-58304500D01*
X213655191Y-58284815D01*
X213634549Y-58268181D01*
X212890729Y-57524361D01*
X212878949Y-57510730D01*
X212871482Y-57500701D01*
X212864612Y-57491472D01*
X212864610Y-57491470D01*
X212824587Y-57457886D01*
X212820612Y-57454244D01*
X212817690Y-57451322D01*
X212814780Y-57448411D01*
X212789040Y-57428059D01*
X212730209Y-57378694D01*
X212724180Y-57374729D01*
X212724212Y-57374680D01*
X212717853Y-57370628D01*
X212717822Y-57370679D01*
X212711680Y-57366891D01*
X212711678Y-57366890D01*
X212711677Y-57366889D01*
X212672474Y-57348608D01*
X212642058Y-57334424D01*
X212607894Y-57317267D01*
X212573433Y-57299960D01*
X212573431Y-57299959D01*
X212573430Y-57299959D01*
X212566645Y-57297489D01*
X212566665Y-57297433D01*
X212559549Y-57294959D01*
X212559531Y-57295015D01*
X212552671Y-57292742D01*
X212524841Y-57286996D01*
X212477434Y-57277207D01*
X212428472Y-57265603D01*
X212402719Y-57259499D01*
X212395547Y-57258661D01*
X212395553Y-57258601D01*
X212388055Y-57257835D01*
X212388050Y-57257895D01*
X212380860Y-57257265D01*
X212304083Y-57259500D01*
X210676663Y-57259500D01*
X210609624Y-57239815D01*
X210575088Y-57206623D01*
X210550045Y-57170858D01*
X210389141Y-57009954D01*
X210202735Y-56879433D01*
X210202736Y-56879433D01*
X210202734Y-56879432D01*
X210144132Y-56852105D01*
X210091694Y-56805933D01*
X210072543Y-56738739D01*
X210092759Y-56671858D01*
X210144135Y-56627341D01*
X210202482Y-56600133D01*
X210275472Y-56549025D01*
X209733866Y-56007419D01*
X209700381Y-55946096D01*
X209705365Y-55876404D01*
X209747237Y-55820471D01*
X209765245Y-55809258D01*
X209788045Y-55797641D01*
X209877641Y-55708045D01*
X209889254Y-55685252D01*
X209937225Y-55634458D01*
X210005046Y-55617661D01*
X210071181Y-55640197D01*
X210087419Y-55653866D01*
X210629025Y-56195472D01*
X210680136Y-56122478D01*
X210776264Y-55916331D01*
X210776269Y-55916317D01*
X210835139Y-55696610D01*
X210835141Y-55696599D01*
X210854966Y-55470002D01*
X210854966Y-55469997D01*
X210835141Y-55243400D01*
X210835139Y-55243389D01*
X210776269Y-55023682D01*
X210776265Y-55023673D01*
X210680133Y-54817516D01*
X210680131Y-54817512D01*
X210629026Y-54744526D01*
X210629025Y-54744526D01*
X210087419Y-55286132D01*
X210026096Y-55319617D01*
X209956404Y-55314633D01*
X209900471Y-55272761D01*
X209889256Y-55254751D01*
X209877641Y-55231955D01*
X209877637Y-55231951D01*
X209877636Y-55231949D01*
X209788050Y-55142363D01*
X209788044Y-55142358D01*
X209778109Y-55137296D01*
X209765250Y-55130744D01*
X209714456Y-55082773D01*
X209697660Y-55014952D01*
X209720197Y-54948817D01*
X209733865Y-54932580D01*
X210275472Y-54390973D01*
X210202483Y-54339866D01*
X210202481Y-54339865D01*
X210174638Y-54326882D01*
X210122199Y-54280710D01*
X210103047Y-54213516D01*
X210123263Y-54146635D01*
X210176428Y-54101301D01*
X210227043Y-54090500D01*
X212362770Y-54090500D01*
X212429809Y-54110185D01*
G37*
%TD.AperFunction*%
%TA.AperFunction,Conductor*%
G36*
X229460354Y-55064330D02*
G01*
X229495768Y-55124559D01*
X229499500Y-55154747D01*
X229499500Y-55197868D01*
X229499501Y-55197876D01*
X229505908Y-55257483D01*
X229556202Y-55392328D01*
X229556206Y-55392335D01*
X229642452Y-55507544D01*
X229642455Y-55507547D01*
X229757664Y-55593793D01*
X229757671Y-55593797D01*
X229767007Y-55597279D01*
X229892517Y-55644091D01*
X229952127Y-55650500D01*
X230690503Y-55650499D01*
X230694104Y-55650603D01*
X230843935Y-55659331D01*
X230883335Y-55652382D01*
X230904869Y-55650499D01*
X231647871Y-55650499D01*
X231647872Y-55650499D01*
X231707483Y-55644091D01*
X231842331Y-55593796D01*
X231957546Y-55507546D01*
X231998744Y-55452511D01*
X232054676Y-55410641D01*
X232124368Y-55405657D01*
X232169134Y-55425249D01*
X232247510Y-55480130D01*
X232247516Y-55480133D01*
X232453673Y-55576265D01*
X232453682Y-55576269D01*
X232673389Y-55635139D01*
X232673400Y-55635141D01*
X232899998Y-55654966D01*
X232900002Y-55654966D01*
X233126599Y-55635141D01*
X233126610Y-55635139D01*
X233346317Y-55576269D01*
X233346321Y-55576267D01*
X233387274Y-55557171D01*
X233456352Y-55546679D01*
X233520136Y-55575198D01*
X233558376Y-55633674D01*
X233563627Y-55665945D01*
X233564500Y-55695915D01*
X233564499Y-58692770D01*
X233544814Y-58759809D01*
X233528180Y-58780451D01*
X232770451Y-59538181D01*
X232709128Y-59571666D01*
X232682770Y-59574500D01*
X231478641Y-59574500D01*
X231411602Y-59554815D01*
X231365847Y-59502011D01*
X231355903Y-59432853D01*
X231384928Y-59369297D01*
X231410819Y-59346691D01*
X231424480Y-59337765D01*
X231607364Y-59169407D01*
X231607373Y-59169397D01*
X231760051Y-58973237D01*
X231760057Y-58973228D01*
X231878364Y-58754614D01*
X231878369Y-58754603D01*
X231959083Y-58519492D01*
X231979023Y-58400000D01*
X231113347Y-58400000D01*
X231046308Y-58380315D01*
X231000553Y-58327511D01*
X230990609Y-58258353D01*
X230994369Y-58241067D01*
X231000000Y-58221888D01*
X231000000Y-58078111D01*
X230994369Y-58058933D01*
X230994370Y-57989064D01*
X231032145Y-57930286D01*
X231095701Y-57901262D01*
X231113347Y-57900000D01*
X231979022Y-57900000D01*
X231979023Y-57899999D01*
X231959083Y-57780507D01*
X231878369Y-57545396D01*
X231878364Y-57545385D01*
X231760057Y-57326771D01*
X231760051Y-57326762D01*
X231607373Y-57130602D01*
X231607364Y-57130592D01*
X231424477Y-56962232D01*
X231424478Y-56962232D01*
X231216367Y-56826267D01*
X230988717Y-56726412D01*
X230747738Y-56665387D01*
X230747730Y-56665385D01*
X230562041Y-56650000D01*
X229750000Y-56650000D01*
X229750000Y-57526000D01*
X229730315Y-57593039D01*
X229677511Y-57638794D01*
X229626000Y-57650000D01*
X229374000Y-57650000D01*
X229306961Y-57630315D01*
X229261206Y-57577511D01*
X229250000Y-57526000D01*
X229250000Y-56650000D01*
X228437959Y-56650000D01*
X228252269Y-56665385D01*
X228252261Y-56665387D01*
X228011282Y-56726412D01*
X227783632Y-56826267D01*
X227575521Y-56962232D01*
X227392635Y-57130592D01*
X227392626Y-57130602D01*
X227239948Y-57326762D01*
X227239942Y-57326771D01*
X227121635Y-57545385D01*
X227121630Y-57545396D01*
X227040916Y-57780507D01*
X227020976Y-57899999D01*
X227020978Y-57900000D01*
X227886653Y-57900000D01*
X227953692Y-57919685D01*
X227999447Y-57972489D01*
X228009391Y-58041647D01*
X228005631Y-58058933D01*
X228000000Y-58078111D01*
X228000000Y-58221888D01*
X228005631Y-58241067D01*
X228005630Y-58310936D01*
X227967855Y-58369714D01*
X227904299Y-58398738D01*
X227886653Y-58400000D01*
X227020977Y-58400000D01*
X227040916Y-58519492D01*
X227121630Y-58754603D01*
X227121635Y-58754614D01*
X227239942Y-58973228D01*
X227239948Y-58973237D01*
X227392626Y-59169397D01*
X227392635Y-59169407D01*
X227575519Y-59337765D01*
X227589181Y-59346691D01*
X227634537Y-59399838D01*
X227643961Y-59469069D01*
X227614459Y-59532405D01*
X227555399Y-59569736D01*
X227521359Y-59574500D01*
X223658913Y-59574500D01*
X223591874Y-59554815D01*
X223546119Y-59502011D01*
X223536175Y-59432853D01*
X223565200Y-59369297D01*
X223582750Y-59352647D01*
X223769402Y-59207368D01*
X223769407Y-59207364D01*
X223937767Y-59024478D01*
X224073732Y-58816367D01*
X224173587Y-58588717D01*
X224234612Y-58347738D01*
X224234614Y-58347730D01*
X224250000Y-58162041D01*
X224250000Y-57600000D01*
X223374000Y-57600000D01*
X223306961Y-57580315D01*
X223261206Y-57527511D01*
X223250000Y-57476000D01*
X223250000Y-57224000D01*
X223269685Y-57156961D01*
X223322489Y-57111206D01*
X223374000Y-57100000D01*
X224250000Y-57100000D01*
X224250000Y-56650918D01*
X224269685Y-56583879D01*
X224322489Y-56538124D01*
X224391647Y-56528180D01*
X224426399Y-56538534D01*
X224462930Y-56555569D01*
X224531567Y-56590040D01*
X224531576Y-56590042D01*
X224538355Y-56592510D01*
X224538334Y-56592567D01*
X224545451Y-56595040D01*
X224545470Y-56594984D01*
X224552330Y-56597257D01*
X224623483Y-56611948D01*
X224627532Y-56612784D01*
X224702279Y-56630500D01*
X224702288Y-56630500D01*
X224709452Y-56631338D01*
X224709445Y-56631397D01*
X224716946Y-56632163D01*
X224716952Y-56632104D01*
X224724140Y-56632733D01*
X224724143Y-56632732D01*
X224724144Y-56632733D01*
X224800898Y-56630500D01*
X226606295Y-56630500D01*
X226624265Y-56631809D01*
X226648023Y-56635289D01*
X226700068Y-56630735D01*
X226705470Y-56630500D01*
X226713704Y-56630500D01*
X226713709Y-56630500D01*
X226725327Y-56629141D01*
X226746276Y-56626693D01*
X226759028Y-56625577D01*
X226822797Y-56619999D01*
X226822805Y-56619996D01*
X226829866Y-56618539D01*
X226829878Y-56618598D01*
X226837243Y-56616965D01*
X226837229Y-56616906D01*
X226844246Y-56615241D01*
X226844255Y-56615241D01*
X226916423Y-56588974D01*
X226989334Y-56564814D01*
X226989343Y-56564807D01*
X226995882Y-56561760D01*
X226995908Y-56561816D01*
X227002690Y-56558532D01*
X227002663Y-56558478D01*
X227009106Y-56555240D01*
X227009117Y-56555237D01*
X227073283Y-56513034D01*
X227138656Y-56472712D01*
X227138662Y-56472705D01*
X227144325Y-56468229D01*
X227144363Y-56468277D01*
X227150200Y-56463522D01*
X227150161Y-56463475D01*
X227155696Y-56458830D01*
X227208385Y-56402983D01*
X227741367Y-55870000D01*
X227934652Y-55676714D01*
X227995973Y-55643231D01*
X228033135Y-55640869D01*
X228176366Y-55653400D01*
X228199999Y-55655468D01*
X228200000Y-55655468D01*
X228200002Y-55655468D01*
X228256807Y-55650498D01*
X228426692Y-55635635D01*
X228646496Y-55576739D01*
X228852734Y-55480568D01*
X229039139Y-55350047D01*
X229200047Y-55189139D01*
X229273928Y-55083624D01*
X229328500Y-55040002D01*
X229397998Y-55032808D01*
X229460354Y-55064330D01*
G37*
%TD.AperFunction*%
%TA.AperFunction,Conductor*%
G36*
X208939996Y-54110185D02*
G01*
X208985751Y-54162989D01*
X208995695Y-54232147D01*
X208966670Y-54295703D01*
X208925362Y-54326882D01*
X208897513Y-54339868D01*
X208824526Y-54390973D01*
X209366133Y-54932580D01*
X209399618Y-54993903D01*
X209394634Y-55063595D01*
X209352762Y-55119528D01*
X209334748Y-55130745D01*
X209311956Y-55142358D01*
X209311949Y-55142363D01*
X209222363Y-55231949D01*
X209222358Y-55231956D01*
X209210745Y-55254748D01*
X209162770Y-55305544D01*
X209094949Y-55322338D01*
X209028814Y-55299800D01*
X209012580Y-55286133D01*
X208470973Y-54744526D01*
X208419868Y-54817513D01*
X208323734Y-55023673D01*
X208323730Y-55023682D01*
X208264860Y-55243389D01*
X208264858Y-55243400D01*
X208245034Y-55469997D01*
X208245034Y-55470002D01*
X208264858Y-55696599D01*
X208264860Y-55696610D01*
X208323730Y-55916317D01*
X208323734Y-55916326D01*
X208419865Y-56122481D01*
X208419866Y-56122483D01*
X208470973Y-56195471D01*
X208470973Y-56195472D01*
X209012580Y-55653865D01*
X209073903Y-55620380D01*
X209143594Y-55625364D01*
X209199528Y-55667235D01*
X209210742Y-55685246D01*
X209216179Y-55695916D01*
X209222358Y-55708044D01*
X209222363Y-55708050D01*
X209311949Y-55797636D01*
X209311951Y-55797637D01*
X209311955Y-55797641D01*
X209334747Y-55809254D01*
X209385542Y-55857228D01*
X209402337Y-55925049D01*
X209379799Y-55991184D01*
X209366132Y-56007419D01*
X208824526Y-56549025D01*
X208824526Y-56549026D01*
X208897512Y-56600131D01*
X208897520Y-56600135D01*
X208955865Y-56627342D01*
X209008305Y-56673514D01*
X209027457Y-56740707D01*
X209007242Y-56807589D01*
X208955867Y-56852105D01*
X208897266Y-56879432D01*
X208897264Y-56879433D01*
X208710858Y-57009954D01*
X208549954Y-57170858D01*
X208419432Y-57357265D01*
X208419431Y-57357267D01*
X208323261Y-57563502D01*
X208323258Y-57563511D01*
X208264366Y-57783302D01*
X208264364Y-57783313D01*
X208244532Y-58009998D01*
X208244532Y-58010001D01*
X208264364Y-58236686D01*
X208264366Y-58236697D01*
X208323258Y-58456488D01*
X208323260Y-58456492D01*
X208323261Y-58456496D01*
X208390436Y-58600552D01*
X208408777Y-58639884D01*
X208419269Y-58708961D01*
X208390749Y-58772745D01*
X208332273Y-58810985D01*
X208262405Y-58811540D01*
X208211301Y-58782483D01*
X208167982Y-58741613D01*
X207701716Y-58275348D01*
X207668231Y-58214025D01*
X207665869Y-58176863D01*
X207680468Y-58010000D01*
X207660635Y-57783308D01*
X207608515Y-57588794D01*
X207601741Y-57563511D01*
X207601738Y-57563502D01*
X207577128Y-57510726D01*
X207505568Y-57357266D01*
X207375047Y-57170861D01*
X207375045Y-57170858D01*
X207214141Y-57009954D01*
X207027735Y-56879433D01*
X207027736Y-56879433D01*
X207027734Y-56879432D01*
X206969132Y-56852105D01*
X206916694Y-56805933D01*
X206897543Y-56738739D01*
X206917759Y-56671858D01*
X206969135Y-56627341D01*
X207027482Y-56600133D01*
X207100472Y-56549025D01*
X206558866Y-56007419D01*
X206525381Y-55946096D01*
X206530365Y-55876404D01*
X206572237Y-55820471D01*
X206590245Y-55809258D01*
X206613045Y-55797641D01*
X206702641Y-55708045D01*
X206714254Y-55685252D01*
X206762225Y-55634458D01*
X206830046Y-55617661D01*
X206896181Y-55640197D01*
X206912419Y-55653866D01*
X207454025Y-56195472D01*
X207505136Y-56122478D01*
X207601264Y-55916331D01*
X207601269Y-55916317D01*
X207660139Y-55696610D01*
X207660141Y-55696599D01*
X207679966Y-55470002D01*
X207679966Y-55469997D01*
X207660141Y-55243400D01*
X207660139Y-55243389D01*
X207601269Y-55023682D01*
X207601265Y-55023673D01*
X207505133Y-54817516D01*
X207505131Y-54817512D01*
X207454026Y-54744526D01*
X207454025Y-54744526D01*
X206912419Y-55286132D01*
X206851096Y-55319617D01*
X206781404Y-55314633D01*
X206725471Y-55272761D01*
X206714256Y-55254751D01*
X206702641Y-55231955D01*
X206702637Y-55231951D01*
X206702636Y-55231949D01*
X206613050Y-55142363D01*
X206613044Y-55142358D01*
X206603109Y-55137296D01*
X206590250Y-55130744D01*
X206539456Y-55082773D01*
X206522660Y-55014952D01*
X206545197Y-54948817D01*
X206558865Y-54932580D01*
X207100472Y-54390973D01*
X207027483Y-54339866D01*
X207027481Y-54339865D01*
X206999638Y-54326882D01*
X206947199Y-54280710D01*
X206928047Y-54213516D01*
X206948263Y-54146635D01*
X207001428Y-54101301D01*
X207052043Y-54090500D01*
X208872957Y-54090500D01*
X208939996Y-54110185D01*
G37*
%TD.AperFunction*%
%TA.AperFunction,Conductor*%
G36*
X237942539Y-50020185D02*
G01*
X237988294Y-50072989D01*
X237999500Y-50124500D01*
X237999500Y-63875500D01*
X237979815Y-63942539D01*
X237927011Y-63988294D01*
X237875500Y-63999500D01*
X235912464Y-63999500D01*
X235909442Y-63999764D01*
X235904040Y-64000000D01*
X234999999Y-64000000D01*
X234999999Y-64904050D01*
X234999764Y-64909446D01*
X234999500Y-64912469D01*
X234999500Y-99875500D01*
X234979815Y-99942539D01*
X234927011Y-99988294D01*
X234875500Y-99999500D01*
X200124500Y-99999500D01*
X200057461Y-99979815D01*
X200011706Y-99927011D01*
X200000500Y-99875500D01*
X200000500Y-95885002D01*
X200625034Y-95885002D01*
X200644858Y-96111599D01*
X200644860Y-96111610D01*
X200703730Y-96331317D01*
X200703734Y-96331326D01*
X200799865Y-96537481D01*
X200799866Y-96537483D01*
X200850973Y-96610471D01*
X200850973Y-96610472D01*
X201392580Y-96068865D01*
X201453903Y-96035380D01*
X201523594Y-96040364D01*
X201579528Y-96082235D01*
X201590742Y-96100246D01*
X201596527Y-96111599D01*
X201602358Y-96123044D01*
X201602363Y-96123050D01*
X201691949Y-96212636D01*
X201691951Y-96212637D01*
X201691955Y-96212641D01*
X201714747Y-96224254D01*
X201765542Y-96272228D01*
X201782337Y-96340049D01*
X201759799Y-96406184D01*
X201746132Y-96422419D01*
X201204526Y-96964025D01*
X201204526Y-96964026D01*
X201277512Y-97015131D01*
X201277516Y-97015133D01*
X201483673Y-97111265D01*
X201483682Y-97111269D01*
X201703389Y-97170139D01*
X201703400Y-97170141D01*
X201929998Y-97189966D01*
X201930002Y-97189966D01*
X202156599Y-97170141D01*
X202156610Y-97170139D01*
X202376317Y-97111269D01*
X202376331Y-97111264D01*
X202582478Y-97015136D01*
X202655472Y-96964025D01*
X202113866Y-96422419D01*
X202080381Y-96361096D01*
X202085365Y-96291404D01*
X202127237Y-96235471D01*
X202145245Y-96224258D01*
X202168045Y-96212641D01*
X202257641Y-96123045D01*
X202269254Y-96100252D01*
X202317225Y-96049458D01*
X202385046Y-96032661D01*
X202451181Y-96055197D01*
X202467419Y-96068866D01*
X203009025Y-96610472D01*
X203060136Y-96537478D01*
X203156264Y-96331331D01*
X203156269Y-96331317D01*
X203215139Y-96111610D01*
X203215141Y-96111599D01*
X203234966Y-95885002D01*
X203234966Y-95884997D01*
X203215141Y-95658400D01*
X203215139Y-95658389D01*
X203156269Y-95438682D01*
X203156265Y-95438673D01*
X203060133Y-95232516D01*
X203060131Y-95232512D01*
X203009026Y-95159526D01*
X203009025Y-95159526D01*
X202467419Y-95701132D01*
X202406096Y-95734617D01*
X202336404Y-95729633D01*
X202280471Y-95687761D01*
X202269256Y-95669751D01*
X202257641Y-95646955D01*
X202257637Y-95646951D01*
X202257636Y-95646949D01*
X202168050Y-95557363D01*
X202168044Y-95557358D01*
X202158109Y-95552296D01*
X202145250Y-95545744D01*
X202094456Y-95497773D01*
X202077660Y-95429952D01*
X202100197Y-95363817D01*
X202113865Y-95347580D01*
X202655472Y-94805973D01*
X202582483Y-94754866D01*
X202582481Y-94754865D01*
X202376326Y-94658734D01*
X202376317Y-94658730D01*
X202156610Y-94599860D01*
X202156599Y-94599858D01*
X201930002Y-94580034D01*
X201929998Y-94580034D01*
X201703400Y-94599858D01*
X201703389Y-94599860D01*
X201483682Y-94658730D01*
X201483673Y-94658734D01*
X201277513Y-94754868D01*
X201204526Y-94805973D01*
X201746133Y-95347580D01*
X201779618Y-95408903D01*
X201774634Y-95478595D01*
X201732762Y-95534528D01*
X201714748Y-95545745D01*
X201691956Y-95557358D01*
X201691949Y-95557363D01*
X201602363Y-95646949D01*
X201602358Y-95646956D01*
X201590745Y-95669748D01*
X201542770Y-95720544D01*
X201474949Y-95737338D01*
X201408814Y-95714800D01*
X201392580Y-95701133D01*
X200850973Y-95159526D01*
X200799868Y-95232513D01*
X200703734Y-95438673D01*
X200703730Y-95438682D01*
X200644860Y-95658389D01*
X200644858Y-95658400D01*
X200625034Y-95884997D01*
X200625034Y-95885002D01*
X200000500Y-95885002D01*
X200000500Y-84433025D01*
X200539710Y-84433025D01*
X200544264Y-84485064D01*
X200544500Y-84490470D01*
X200544500Y-84498709D01*
X200548306Y-84531274D01*
X200555000Y-84607791D01*
X200556461Y-84614867D01*
X200556403Y-84614878D01*
X200558034Y-84622237D01*
X200558092Y-84622224D01*
X200559757Y-84629250D01*
X200586025Y-84701424D01*
X200610185Y-84774331D01*
X200613236Y-84780874D01*
X200613182Y-84780898D01*
X200616470Y-84787688D01*
X200616521Y-84787663D01*
X200619761Y-84794113D01*
X200619762Y-84794114D01*
X200619763Y-84794117D01*
X200661965Y-84858283D01*
X200702287Y-84923655D01*
X200706766Y-84929319D01*
X200706719Y-84929356D01*
X200711482Y-84935202D01*
X200711528Y-84935164D01*
X200716173Y-84940700D01*
X200772019Y-84993387D01*
X201143181Y-85364548D01*
X201176666Y-85425871D01*
X201179500Y-85452229D01*
X201179500Y-87138336D01*
X201159815Y-87205375D01*
X201126625Y-87239910D01*
X201090863Y-87264951D01*
X200929951Y-87425862D01*
X200799432Y-87612265D01*
X200799431Y-87612267D01*
X200703261Y-87818502D01*
X200703258Y-87818511D01*
X200644366Y-88038302D01*
X200644364Y-88038313D01*
X200624532Y-88264998D01*
X200624532Y-88265001D01*
X200644364Y-88491686D01*
X200644366Y-88491697D01*
X200703258Y-88711488D01*
X200703261Y-88711497D01*
X200799431Y-88917732D01*
X200799432Y-88917734D01*
X200929954Y-89104141D01*
X201090858Y-89265045D01*
X201090861Y-89265047D01*
X201277266Y-89395568D01*
X201483504Y-89491739D01*
X201483509Y-89491740D01*
X201483511Y-89491741D01*
X201485116Y-89492171D01*
X201703308Y-89550635D01*
X201843052Y-89562861D01*
X201929998Y-89570468D01*
X201930000Y-89570468D01*
X201930002Y-89570468D01*
X201986796Y-89565499D01*
X202156692Y-89550635D01*
X202376496Y-89491739D01*
X202582734Y-89395568D01*
X202769139Y-89265047D01*
X202930047Y-89104139D01*
X203060568Y-88917734D01*
X203087895Y-88859129D01*
X203134064Y-88806695D01*
X203201257Y-88787542D01*
X203268139Y-88807757D01*
X203312657Y-88859133D01*
X203339865Y-88917481D01*
X203339866Y-88917483D01*
X203390973Y-88990471D01*
X203390973Y-88990472D01*
X203932580Y-88448865D01*
X203993903Y-88415380D01*
X204063594Y-88420364D01*
X204119528Y-88462235D01*
X204130742Y-88480246D01*
X204135438Y-88489462D01*
X204142358Y-88503044D01*
X204142363Y-88503050D01*
X204231949Y-88592636D01*
X204231951Y-88592637D01*
X204231955Y-88592641D01*
X204254747Y-88604254D01*
X204305542Y-88652228D01*
X204322337Y-88720049D01*
X204299799Y-88786184D01*
X204286132Y-88802419D01*
X203744526Y-89344025D01*
X203744526Y-89344026D01*
X203817512Y-89395131D01*
X203817516Y-89395133D01*
X204023673Y-89491265D01*
X204023682Y-89491269D01*
X204243389Y-89550139D01*
X204243400Y-89550141D01*
X204469998Y-89569966D01*
X204470002Y-89569966D01*
X204696599Y-89550141D01*
X204696610Y-89550139D01*
X204916317Y-89491269D01*
X204916331Y-89491264D01*
X205122478Y-89395136D01*
X205195472Y-89344025D01*
X204653866Y-88802419D01*
X204620381Y-88741096D01*
X204625365Y-88671404D01*
X204667237Y-88615471D01*
X204685245Y-88604258D01*
X204708045Y-88592641D01*
X204797641Y-88503045D01*
X204809254Y-88480252D01*
X204857225Y-88429458D01*
X204925046Y-88412661D01*
X204991181Y-88435197D01*
X205007419Y-88448866D01*
X205588181Y-89029627D01*
X205621666Y-89090950D01*
X205624500Y-89117308D01*
X205624500Y-90587689D01*
X205604815Y-90654728D01*
X205588181Y-90675370D01*
X205007419Y-91256132D01*
X204946096Y-91289617D01*
X204876404Y-91284633D01*
X204820471Y-91242761D01*
X204809256Y-91224751D01*
X204797641Y-91201955D01*
X204797637Y-91201951D01*
X204797636Y-91201949D01*
X204708050Y-91112363D01*
X204708044Y-91112358D01*
X204698109Y-91107296D01*
X204685250Y-91100744D01*
X204634456Y-91052773D01*
X204617660Y-90984952D01*
X204640197Y-90918817D01*
X204653865Y-90902580D01*
X205195472Y-90360973D01*
X205122483Y-90309866D01*
X205122481Y-90309865D01*
X204916326Y-90213734D01*
X204916317Y-90213730D01*
X204696610Y-90154860D01*
X204696599Y-90154858D01*
X204470002Y-90135034D01*
X204469998Y-90135034D01*
X204243400Y-90154858D01*
X204243389Y-90154860D01*
X204023682Y-90213730D01*
X204023673Y-90213734D01*
X203817513Y-90309868D01*
X203744526Y-90360973D01*
X204286133Y-90902580D01*
X204319618Y-90963903D01*
X204314634Y-91033595D01*
X204272762Y-91089528D01*
X204254748Y-91100745D01*
X204231956Y-91112358D01*
X204231949Y-91112363D01*
X204142363Y-91201949D01*
X204142358Y-91201956D01*
X204130745Y-91224748D01*
X204082770Y-91275544D01*
X204014949Y-91292338D01*
X203948814Y-91269800D01*
X203932580Y-91256133D01*
X203390973Y-90714526D01*
X203339869Y-90787511D01*
X203312657Y-90845867D01*
X203266484Y-90898306D01*
X203199290Y-90917457D01*
X203132409Y-90897241D01*
X203087893Y-90845865D01*
X203087771Y-90845604D01*
X203060568Y-90787266D01*
X202930047Y-90600861D01*
X202930045Y-90600858D01*
X202769141Y-90439954D01*
X202582734Y-90309432D01*
X202582732Y-90309431D01*
X202376497Y-90213261D01*
X202376488Y-90213258D01*
X202156697Y-90154366D01*
X202156693Y-90154365D01*
X202156692Y-90154365D01*
X202156691Y-90154364D01*
X202156686Y-90154364D01*
X201930002Y-90134532D01*
X201929998Y-90134532D01*
X201703313Y-90154364D01*
X201703302Y-90154366D01*
X201483511Y-90213258D01*
X201483502Y-90213261D01*
X201277267Y-90309431D01*
X201277265Y-90309432D01*
X201090858Y-90439954D01*
X200929954Y-90600858D01*
X200799432Y-90787265D01*
X200799431Y-90787267D01*
X200703261Y-90993502D01*
X200703258Y-90993511D01*
X200644366Y-91213302D01*
X200644364Y-91213313D01*
X200624532Y-91439998D01*
X200624532Y-91440001D01*
X200644364Y-91666686D01*
X200644366Y-91666697D01*
X200703258Y-91886488D01*
X200703261Y-91886497D01*
X200799431Y-92092732D01*
X200799432Y-92092734D01*
X200929954Y-92279141D01*
X201090859Y-92440046D01*
X201126621Y-92465086D01*
X201170247Y-92519662D01*
X201179500Y-92566662D01*
X201179500Y-92646294D01*
X201178191Y-92664263D01*
X201174710Y-92688025D01*
X201179264Y-92740064D01*
X201179500Y-92745470D01*
X201179500Y-92753709D01*
X201183306Y-92786274D01*
X201190000Y-92862791D01*
X201191461Y-92869867D01*
X201191403Y-92869878D01*
X201193034Y-92877237D01*
X201193092Y-92877224D01*
X201194757Y-92884250D01*
X201221025Y-92956424D01*
X201245185Y-93029331D01*
X201248236Y-93035874D01*
X201248182Y-93035898D01*
X201251470Y-93042688D01*
X201251521Y-93042663D01*
X201254761Y-93049113D01*
X201254762Y-93049114D01*
X201254763Y-93049117D01*
X201292616Y-93106670D01*
X201296965Y-93113283D01*
X201337287Y-93178655D01*
X201341766Y-93184319D01*
X201341719Y-93184356D01*
X201346482Y-93190202D01*
X201346528Y-93190164D01*
X201351173Y-93195700D01*
X201407019Y-93248386D01*
X201407019Y-93248387D01*
X201700867Y-93542235D01*
X201989268Y-93830635D01*
X202001049Y-93844267D01*
X202015390Y-93863530D01*
X202055420Y-93897119D01*
X202059392Y-93900759D01*
X202065224Y-93906591D01*
X202065227Y-93906594D01*
X202090947Y-93926931D01*
X202149788Y-93976304D01*
X202155818Y-93980270D01*
X202155785Y-93980319D01*
X202162143Y-93984369D01*
X202162175Y-93984319D01*
X202168320Y-93988109D01*
X202168323Y-93988111D01*
X202237936Y-94020572D01*
X202306567Y-94055040D01*
X202306572Y-94055041D01*
X202313361Y-94057513D01*
X202313340Y-94057570D01*
X202320455Y-94060043D01*
X202320475Y-94059986D01*
X202327330Y-94062258D01*
X202401541Y-94077580D01*
X202402558Y-94077790D01*
X202477279Y-94095500D01*
X202477289Y-94095500D01*
X202484452Y-94096338D01*
X202484444Y-94096397D01*
X202491945Y-94097164D01*
X202491951Y-94097105D01*
X202499140Y-94097734D01*
X202499144Y-94097733D01*
X202499145Y-94097734D01*
X202575918Y-94095500D01*
X205676295Y-94095500D01*
X205694265Y-94096809D01*
X205718023Y-94100289D01*
X205770068Y-94095735D01*
X205775470Y-94095500D01*
X205783704Y-94095500D01*
X205783709Y-94095500D01*
X205798106Y-94093817D01*
X205816276Y-94091693D01*
X205829028Y-94090577D01*
X205892797Y-94084999D01*
X205892805Y-94084996D01*
X205899866Y-94083539D01*
X205899878Y-94083598D01*
X205907243Y-94081965D01*
X205907229Y-94081906D01*
X205914246Y-94080241D01*
X205914255Y-94080241D01*
X205986423Y-94053974D01*
X206059334Y-94029814D01*
X206059343Y-94029807D01*
X206065882Y-94026760D01*
X206065908Y-94026816D01*
X206072690Y-94023532D01*
X206072663Y-94023478D01*
X206079106Y-94020240D01*
X206079117Y-94020237D01*
X206143283Y-93978034D01*
X206208656Y-93937712D01*
X206208662Y-93937705D01*
X206214325Y-93933229D01*
X206214362Y-93933277D01*
X206220204Y-93928518D01*
X206220164Y-93928471D01*
X206225686Y-93923836D01*
X206225696Y-93923830D01*
X206264765Y-93882419D01*
X206278387Y-93867981D01*
X206758537Y-93387829D01*
X206860641Y-93285724D01*
X206874260Y-93273954D01*
X206893530Y-93259610D01*
X206927123Y-93219574D01*
X206930757Y-93215608D01*
X206936591Y-93209776D01*
X206956930Y-93184052D01*
X207006302Y-93125214D01*
X207006306Y-93125205D01*
X207010274Y-93119175D01*
X207010325Y-93119208D01*
X207014369Y-93112860D01*
X207014317Y-93112828D01*
X207018104Y-93106685D01*
X207018111Y-93106677D01*
X207050572Y-93037063D01*
X207085040Y-92968433D01*
X207085041Y-92968427D01*
X207087508Y-92961650D01*
X207087566Y-92961671D01*
X207090043Y-92954544D01*
X207089986Y-92954526D01*
X207092255Y-92947679D01*
X207092256Y-92947674D01*
X207092257Y-92947672D01*
X207107790Y-92872441D01*
X207125500Y-92797721D01*
X207125500Y-92797719D01*
X207126339Y-92790548D01*
X207126398Y-92790554D01*
X207127164Y-92783054D01*
X207127105Y-92783049D01*
X207127734Y-92775859D01*
X207127089Y-92753709D01*
X207125500Y-92699082D01*
X207125500Y-92424049D01*
X207145185Y-92357010D01*
X207197989Y-92311255D01*
X207267147Y-92301311D01*
X207330703Y-92330336D01*
X207337181Y-92336368D01*
X207440858Y-92440045D01*
X207440861Y-92440047D01*
X207627266Y-92570568D01*
X207833504Y-92666739D01*
X207833509Y-92666740D01*
X207833511Y-92666741D01*
X207874684Y-92677773D01*
X208053308Y-92725635D01*
X208215230Y-92739801D01*
X208279998Y-92745468D01*
X208280000Y-92745468D01*
X208280002Y-92745468D01*
X208341768Y-92740064D01*
X208506692Y-92725635D01*
X208726496Y-92666739D01*
X208932734Y-92570568D01*
X209119139Y-92440047D01*
X209280047Y-92279139D01*
X209410568Y-92092734D01*
X209437618Y-92034724D01*
X209483790Y-91982285D01*
X209550983Y-91963133D01*
X209617865Y-91983348D01*
X209662381Y-92034724D01*
X209676517Y-92065038D01*
X209689429Y-92092728D01*
X209689432Y-92092734D01*
X209819954Y-92279141D01*
X209980858Y-92440045D01*
X209980861Y-92440047D01*
X210167266Y-92570568D01*
X210373504Y-92666739D01*
X210373509Y-92666740D01*
X210373511Y-92666741D01*
X210414684Y-92677773D01*
X210593308Y-92725635D01*
X210755230Y-92739801D01*
X210819998Y-92745468D01*
X210820000Y-92745468D01*
X210820002Y-92745468D01*
X210881768Y-92740064D01*
X211046692Y-92725635D01*
X211266496Y-92666739D01*
X211472734Y-92570568D01*
X211659139Y-92440047D01*
X211820047Y-92279139D01*
X211950568Y-92092734D01*
X212046739Y-91886496D01*
X212105635Y-91666692D01*
X212123500Y-91462500D01*
X212125468Y-91440001D01*
X212125468Y-91439999D01*
X212116581Y-91338425D01*
X212110869Y-91273137D01*
X212124635Y-91204639D01*
X212146713Y-91174653D01*
X213210642Y-90110724D01*
X213224271Y-90098947D01*
X213243530Y-90084610D01*
X213277101Y-90044601D01*
X213280761Y-90040606D01*
X213289146Y-90032223D01*
X213289911Y-90032988D01*
X213345278Y-89998412D01*
X213415142Y-89999316D01*
X213419121Y-90001947D01*
X213389479Y-89951531D01*
X213392250Y-89881716D01*
X213397372Y-89868925D01*
X213400578Y-89862051D01*
X213429056Y-89805348D01*
X213435040Y-89793433D01*
X213435042Y-89793421D01*
X213437509Y-89786646D01*
X213437567Y-89786667D01*
X213440043Y-89779546D01*
X213439986Y-89779528D01*
X213442257Y-89772673D01*
X213457792Y-89697434D01*
X213475498Y-89622728D01*
X213475500Y-89622721D01*
X213475500Y-89622710D01*
X213476338Y-89615548D01*
X213476398Y-89615555D01*
X213477164Y-89608055D01*
X213477105Y-89608050D01*
X213477734Y-89600860D01*
X213477076Y-89578261D01*
X213475500Y-89524082D01*
X213475500Y-89249048D01*
X213495185Y-89182009D01*
X213547989Y-89136254D01*
X213617147Y-89126310D01*
X213680703Y-89155335D01*
X213687167Y-89161353D01*
X213749946Y-89224132D01*
X213790862Y-89265048D01*
X213838780Y-89298600D01*
X213977266Y-89395568D01*
X214035275Y-89422618D01*
X214087714Y-89468791D01*
X214106866Y-89535984D01*
X214086650Y-89602865D01*
X214035275Y-89647382D01*
X213977267Y-89674431D01*
X213977265Y-89674432D01*
X213790858Y-89804954D01*
X213629955Y-89965857D01*
X213611322Y-89992468D01*
X213556745Y-90036092D01*
X213487246Y-90043284D01*
X213463457Y-90031257D01*
X213473426Y-90037848D01*
X213501626Y-90101774D01*
X213491052Y-90170236D01*
X213403262Y-90358502D01*
X213403258Y-90358511D01*
X213344366Y-90578302D01*
X213344364Y-90578313D01*
X213324532Y-90804998D01*
X213324532Y-90805001D01*
X213344364Y-91031686D01*
X213344366Y-91031697D01*
X213403258Y-91251488D01*
X213403261Y-91251497D01*
X213499431Y-91457732D01*
X213499432Y-91457734D01*
X213629954Y-91644141D01*
X213790859Y-91805046D01*
X213826621Y-91830086D01*
X213870247Y-91884662D01*
X213879500Y-91931662D01*
X213879500Y-92347769D01*
X213859815Y-92414808D01*
X213843181Y-92435450D01*
X212355348Y-93923282D01*
X212294025Y-93956767D01*
X212256861Y-93959129D01*
X212090003Y-93944532D01*
X212089998Y-93944532D01*
X211863313Y-93964364D01*
X211863302Y-93964366D01*
X211643511Y-94023258D01*
X211643502Y-94023261D01*
X211437267Y-94119431D01*
X211437265Y-94119432D01*
X211250858Y-94249954D01*
X211089954Y-94410858D01*
X210959432Y-94597265D01*
X210959431Y-94597267D01*
X210863261Y-94803502D01*
X210863258Y-94803511D01*
X210804366Y-95023302D01*
X210803426Y-95028637D01*
X210801787Y-95028348D01*
X210779084Y-95086380D01*
X210722492Y-95127357D01*
X210681012Y-95134500D01*
X210556663Y-95134500D01*
X210489624Y-95114815D01*
X210455088Y-95081623D01*
X210430045Y-95045858D01*
X210269141Y-94884954D01*
X210082734Y-94754432D01*
X210082732Y-94754431D01*
X209876497Y-94658261D01*
X209876488Y-94658258D01*
X209656697Y-94599366D01*
X209656693Y-94599365D01*
X209656692Y-94599365D01*
X209656691Y-94599364D01*
X209656686Y-94599364D01*
X209430002Y-94579532D01*
X209429998Y-94579532D01*
X209203313Y-94599364D01*
X209203302Y-94599366D01*
X208983511Y-94658258D01*
X208983502Y-94658261D01*
X208777267Y-94754431D01*
X208777265Y-94754432D01*
X208590858Y-94884954D01*
X208429954Y-95045858D01*
X208299432Y-95232265D01*
X208299431Y-95232267D01*
X208203261Y-95438502D01*
X208203258Y-95438511D01*
X208144366Y-95658302D01*
X208144364Y-95658313D01*
X208124532Y-95884998D01*
X208124532Y-95885001D01*
X208144364Y-96111686D01*
X208144366Y-96111697D01*
X208203258Y-96331488D01*
X208203261Y-96331497D01*
X208299431Y-96537732D01*
X208299432Y-96537734D01*
X208429954Y-96724141D01*
X208590858Y-96885045D01*
X208590861Y-96885047D01*
X208777266Y-97015568D01*
X208983504Y-97111739D01*
X209203308Y-97170635D01*
X209365230Y-97184801D01*
X209429998Y-97190468D01*
X209430000Y-97190468D01*
X209430002Y-97190468D01*
X209486673Y-97185509D01*
X209656692Y-97170635D01*
X209876496Y-97111739D01*
X210082734Y-97015568D01*
X210269139Y-96885047D01*
X210430047Y-96724139D01*
X210455086Y-96688377D01*
X210509665Y-96644752D01*
X210556663Y-96635500D01*
X211105951Y-96635500D01*
X211172990Y-96655185D01*
X211218745Y-96707989D01*
X211228689Y-96777147D01*
X211199664Y-96840703D01*
X211193632Y-96847181D01*
X211089954Y-96950858D01*
X210959432Y-97137265D01*
X210959431Y-97137267D01*
X210863261Y-97343502D01*
X210863258Y-97343511D01*
X210804366Y-97563302D01*
X210804364Y-97563313D01*
X210784532Y-97789998D01*
X210784532Y-97790001D01*
X210804364Y-98016686D01*
X210804366Y-98016697D01*
X210863258Y-98236488D01*
X210863261Y-98236497D01*
X210959431Y-98442732D01*
X210959432Y-98442734D01*
X211089954Y-98629141D01*
X211250858Y-98790045D01*
X211250861Y-98790047D01*
X211437266Y-98920568D01*
X211643504Y-99016739D01*
X211863308Y-99075635D01*
X212025230Y-99089801D01*
X212089998Y-99095468D01*
X212090000Y-99095468D01*
X212090002Y-99095468D01*
X212146673Y-99090509D01*
X212316692Y-99075635D01*
X212536496Y-99016739D01*
X212742734Y-98920568D01*
X212896465Y-98812924D01*
X212962671Y-98790598D01*
X212967588Y-98790500D01*
X213982284Y-98790500D01*
X214071358Y-98792757D01*
X214071358Y-98792756D01*
X214071363Y-98792757D01*
X214131753Y-98781932D01*
X214136412Y-98781280D01*
X214178607Y-98776988D01*
X214197438Y-98775074D01*
X214230227Y-98764786D01*
X214237840Y-98762918D01*
X214271653Y-98756858D01*
X214328621Y-98734101D01*
X214333053Y-98732524D01*
X214391588Y-98714159D01*
X214421627Y-98697484D01*
X214428708Y-98694122D01*
X214460617Y-98681377D01*
X214511854Y-98647608D01*
X214515851Y-98645187D01*
X214569502Y-98615409D01*
X214595568Y-98593030D01*
X214601843Y-98588300D01*
X214630519Y-98569402D01*
X214673917Y-98526002D01*
X214677336Y-98522834D01*
X214723895Y-98482866D01*
X214744931Y-98455688D01*
X214750094Y-98449825D01*
X215008103Y-98191816D01*
X215069425Y-98158334D01*
X215095783Y-98155500D01*
X215862764Y-98155500D01*
X215929803Y-98175185D01*
X215962029Y-98205187D01*
X216012454Y-98272546D01*
X216058643Y-98307123D01*
X216127664Y-98358793D01*
X216127671Y-98358797D01*
X216262517Y-98409091D01*
X216262516Y-98409091D01*
X216269444Y-98409835D01*
X216322127Y-98415500D01*
X218017872Y-98415499D01*
X218077483Y-98409091D01*
X218212331Y-98358796D01*
X218327546Y-98272546D01*
X218377970Y-98205188D01*
X218433903Y-98163318D01*
X218477236Y-98155500D01*
X221372412Y-98155500D01*
X221439451Y-98175185D01*
X221443523Y-98177917D01*
X221597266Y-98285568D01*
X221803504Y-98381739D01*
X222023308Y-98440635D01*
X222185230Y-98454801D01*
X222249998Y-98460468D01*
X222250000Y-98460468D01*
X222250002Y-98460468D01*
X222306672Y-98455509D01*
X222476692Y-98440635D01*
X222696496Y-98381739D01*
X222902734Y-98285568D01*
X223089139Y-98155047D01*
X223250047Y-97994139D01*
X223380568Y-97807734D01*
X223476739Y-97601496D01*
X223535635Y-97381692D01*
X223555468Y-97155000D01*
X223553916Y-97137266D01*
X223538760Y-96964026D01*
X223535635Y-96928308D01*
X223476739Y-96708504D01*
X223380568Y-96502266D01*
X223272924Y-96348532D01*
X223250597Y-96282326D01*
X223250500Y-96277410D01*
X223250500Y-94222588D01*
X223270185Y-94155549D01*
X223272925Y-94151465D01*
X223281721Y-94138903D01*
X223380568Y-93997734D01*
X223476739Y-93791496D01*
X223535635Y-93571692D01*
X223541040Y-93509905D01*
X223566492Y-93444838D01*
X223576879Y-93433039D01*
X223664916Y-93345002D01*
X225945034Y-93345002D01*
X225964858Y-93571599D01*
X225964860Y-93571610D01*
X226023730Y-93791317D01*
X226023734Y-93791326D01*
X226119865Y-93997481D01*
X226119866Y-93997483D01*
X226170973Y-94070471D01*
X226170973Y-94070472D01*
X226712580Y-93528865D01*
X226773903Y-93495380D01*
X226843594Y-93500364D01*
X226899528Y-93542235D01*
X226910742Y-93560246D01*
X226916527Y-93571599D01*
X226922358Y-93583044D01*
X226922363Y-93583050D01*
X227011949Y-93672636D01*
X227011951Y-93672637D01*
X227011955Y-93672641D01*
X227034747Y-93684254D01*
X227085542Y-93732228D01*
X227102337Y-93800049D01*
X227079799Y-93866184D01*
X227066132Y-93882419D01*
X226524526Y-94424025D01*
X226524526Y-94424026D01*
X226597512Y-94475131D01*
X226597516Y-94475133D01*
X226803673Y-94571265D01*
X226803682Y-94571269D01*
X227023389Y-94630139D01*
X227023400Y-94630141D01*
X227249998Y-94649966D01*
X227250002Y-94649966D01*
X227476599Y-94630141D01*
X227476610Y-94630139D01*
X227696317Y-94571269D01*
X227696331Y-94571264D01*
X227902478Y-94475136D01*
X227975472Y-94424025D01*
X227433866Y-93882419D01*
X227400381Y-93821096D01*
X227405365Y-93751404D01*
X227447237Y-93695471D01*
X227465245Y-93684258D01*
X227488045Y-93672641D01*
X227577641Y-93583045D01*
X227589254Y-93560252D01*
X227637225Y-93509458D01*
X227705046Y-93492661D01*
X227771181Y-93515197D01*
X227787419Y-93528866D01*
X228329025Y-94070472D01*
X228380136Y-93997478D01*
X228476264Y-93791331D01*
X228476269Y-93791317D01*
X228535139Y-93571610D01*
X228535141Y-93571599D01*
X228554966Y-93345002D01*
X228554966Y-93344997D01*
X228535141Y-93118400D01*
X228535139Y-93118389D01*
X228476269Y-92898682D01*
X228476265Y-92898673D01*
X228380133Y-92692516D01*
X228380131Y-92692512D01*
X228329026Y-92619526D01*
X228329025Y-92619526D01*
X227787419Y-93161132D01*
X227726096Y-93194617D01*
X227656404Y-93189633D01*
X227600471Y-93147761D01*
X227589256Y-93129751D01*
X227577641Y-93106955D01*
X227577637Y-93106951D01*
X227577636Y-93106949D01*
X227488050Y-93017363D01*
X227488044Y-93017358D01*
X227478109Y-93012296D01*
X227465250Y-93005744D01*
X227414456Y-92957773D01*
X227397660Y-92889952D01*
X227420197Y-92823817D01*
X227433865Y-92807580D01*
X227975472Y-92265973D01*
X227902483Y-92214866D01*
X227902481Y-92214865D01*
X227696326Y-92118734D01*
X227696317Y-92118730D01*
X227476610Y-92059860D01*
X227476599Y-92059858D01*
X227250002Y-92040034D01*
X227249998Y-92040034D01*
X227023400Y-92059858D01*
X227023389Y-92059860D01*
X226803682Y-92118730D01*
X226803673Y-92118734D01*
X226597513Y-92214868D01*
X226524526Y-92265973D01*
X227066133Y-92807580D01*
X227099618Y-92868903D01*
X227094634Y-92938595D01*
X227052762Y-92994528D01*
X227034748Y-93005745D01*
X227011956Y-93017358D01*
X227011949Y-93017363D01*
X226922363Y-93106949D01*
X226922358Y-93106956D01*
X226910745Y-93129748D01*
X226862770Y-93180544D01*
X226794949Y-93197338D01*
X226728814Y-93174800D01*
X226712580Y-93161133D01*
X226170973Y-92619526D01*
X226119868Y-92692513D01*
X226023734Y-92898673D01*
X226023730Y-92898682D01*
X225964860Y-93118389D01*
X225964858Y-93118400D01*
X225945034Y-93344997D01*
X225945034Y-93345002D01*
X223664916Y-93345002D01*
X224218468Y-92791451D01*
X224283053Y-92730059D01*
X224318099Y-92679706D01*
X224320938Y-92675941D01*
X224337746Y-92655328D01*
X224359698Y-92628407D01*
X224375601Y-92597960D01*
X224379674Y-92591239D01*
X224394061Y-92570568D01*
X224399295Y-92563049D01*
X224423492Y-92506660D01*
X224425498Y-92502435D01*
X224453909Y-92448049D01*
X224463357Y-92415022D01*
X224465988Y-92407633D01*
X224479540Y-92376058D01*
X224491895Y-92315930D01*
X224492999Y-92311429D01*
X224509886Y-92252418D01*
X224512494Y-92218157D01*
X224513585Y-92210389D01*
X224520500Y-92176743D01*
X224520500Y-92115398D01*
X224520679Y-92110688D01*
X224522046Y-92092734D01*
X224525337Y-92049524D01*
X224520995Y-92015430D01*
X224520499Y-92007619D01*
X224520499Y-83197698D01*
X224522723Y-83109960D01*
X224522757Y-83108638D01*
X224522541Y-83107433D01*
X224511933Y-83048249D01*
X224511280Y-83043586D01*
X224505074Y-82982563D01*
X224504539Y-82980858D01*
X224494784Y-82949768D01*
X224492917Y-82942155D01*
X224490737Y-82929993D01*
X224486858Y-82908347D01*
X224464100Y-82851374D01*
X224462521Y-82846938D01*
X224444157Y-82788407D01*
X224427912Y-82759141D01*
X224427485Y-82758371D01*
X224424117Y-82751278D01*
X224411378Y-82719386D01*
X224411377Y-82719383D01*
X224377620Y-82668163D01*
X224375180Y-82664134D01*
X224364379Y-82644675D01*
X224345409Y-82610498D01*
X224345407Y-82610495D01*
X224323033Y-82584434D01*
X224318302Y-82578159D01*
X224314725Y-82572732D01*
X224299402Y-82549481D01*
X224256012Y-82506091D01*
X224252822Y-82502648D01*
X224212867Y-82456106D01*
X224212863Y-82456102D01*
X224185698Y-82435074D01*
X224179803Y-82429882D01*
X222971451Y-81221531D01*
X222910061Y-81156949D01*
X222910060Y-81156948D01*
X222910059Y-81156947D01*
X222882204Y-81137559D01*
X222859709Y-81121902D01*
X222855946Y-81119064D01*
X222808413Y-81080305D01*
X222808406Y-81080300D01*
X222777959Y-81064397D01*
X222771251Y-81060334D01*
X222743049Y-81040705D01*
X222743046Y-81040703D01*
X222743045Y-81040703D01*
X222743041Y-81040701D01*
X222686680Y-81016514D01*
X222682424Y-81014493D01*
X222628057Y-80986094D01*
X222628050Y-80986091D01*
X222628049Y-80986091D01*
X222622008Y-80984362D01*
X222595030Y-80976642D01*
X222587630Y-80974008D01*
X222556057Y-80960459D01*
X222556058Y-80960459D01*
X222495966Y-80948109D01*
X222491391Y-80946986D01*
X222432420Y-80930113D01*
X222432425Y-80930113D01*
X222398158Y-80927503D01*
X222390380Y-80926412D01*
X222356742Y-80919500D01*
X222356741Y-80919500D01*
X222295402Y-80919500D01*
X222290695Y-80919321D01*
X222285121Y-80918896D01*
X222229524Y-80914662D01*
X222209589Y-80917201D01*
X222195440Y-80919003D01*
X222187611Y-80919500D01*
X221847588Y-80919500D01*
X221780549Y-80899815D01*
X221776465Y-80897075D01*
X221754080Y-80881401D01*
X221622734Y-80789432D01*
X221564724Y-80762381D01*
X221512285Y-80716210D01*
X221493133Y-80649017D01*
X221513348Y-80582135D01*
X221564725Y-80537618D01*
X221622734Y-80510568D01*
X221809139Y-80380047D01*
X221970047Y-80219139D01*
X222100568Y-80032734D01*
X222196739Y-79826496D01*
X222255635Y-79606692D01*
X222275468Y-79380000D01*
X222255635Y-79153308D01*
X222196739Y-78933504D01*
X222100568Y-78727266D01*
X221970047Y-78540861D01*
X221970045Y-78540858D01*
X221809141Y-78379954D01*
X221622734Y-78249432D01*
X221622728Y-78249429D01*
X221595038Y-78236517D01*
X221564724Y-78222381D01*
X221512285Y-78176210D01*
X221493133Y-78109017D01*
X221513348Y-78042135D01*
X221564725Y-77997618D01*
X221582134Y-77989500D01*
X221622734Y-77970568D01*
X221809139Y-77840047D01*
X221970047Y-77679139D01*
X221995086Y-77643377D01*
X222049665Y-77599752D01*
X222096663Y-77590500D01*
X222181295Y-77590500D01*
X222199265Y-77591809D01*
X222223023Y-77595289D01*
X222275068Y-77590735D01*
X222280470Y-77590500D01*
X222288704Y-77590500D01*
X222288709Y-77590500D01*
X222300327Y-77589141D01*
X222321276Y-77586693D01*
X222334028Y-77585577D01*
X222397797Y-77579999D01*
X222397805Y-77579996D01*
X222404866Y-77578539D01*
X222404878Y-77578598D01*
X222412243Y-77576965D01*
X222412229Y-77576906D01*
X222419246Y-77575241D01*
X222419255Y-77575241D01*
X222491423Y-77548974D01*
X222564334Y-77524814D01*
X222564343Y-77524807D01*
X222570882Y-77521760D01*
X222570908Y-77521816D01*
X222577690Y-77518532D01*
X222577663Y-77518478D01*
X222584106Y-77515240D01*
X222584117Y-77515237D01*
X222648283Y-77473034D01*
X222713656Y-77432712D01*
X222713662Y-77432705D01*
X222719325Y-77428229D01*
X222719362Y-77428277D01*
X222725204Y-77423518D01*
X222725164Y-77423471D01*
X222730686Y-77418836D01*
X222730696Y-77418830D01*
X222752399Y-77395825D01*
X222783387Y-77362981D01*
X223075438Y-77070927D01*
X223370641Y-76775724D01*
X223384260Y-76763954D01*
X223403530Y-76749610D01*
X223437123Y-76709574D01*
X223440757Y-76705608D01*
X223446591Y-76699776D01*
X223466930Y-76674052D01*
X223516302Y-76615214D01*
X223516306Y-76615205D01*
X223520274Y-76609175D01*
X223520325Y-76609208D01*
X223524372Y-76602856D01*
X223524320Y-76602824D01*
X223528112Y-76596675D01*
X223560575Y-76527058D01*
X223595036Y-76458440D01*
X223595040Y-76458433D01*
X223595042Y-76458421D01*
X223597509Y-76451646D01*
X223597567Y-76451667D01*
X223600043Y-76444546D01*
X223599986Y-76444527D01*
X223602255Y-76437680D01*
X223602256Y-76437675D01*
X223602257Y-76437673D01*
X223617791Y-76362437D01*
X223635500Y-76287721D01*
X223635500Y-76287719D01*
X223636339Y-76280548D01*
X223636398Y-76280554D01*
X223637164Y-76273054D01*
X223637105Y-76273049D01*
X223637734Y-76265859D01*
X223635500Y-76189082D01*
X223635500Y-73264500D01*
X223655185Y-73197461D01*
X223707989Y-73151706D01*
X223759500Y-73140500D01*
X227610951Y-73140500D01*
X227677990Y-73160185D01*
X227723745Y-73212989D01*
X227733689Y-73282147D01*
X227704664Y-73345703D01*
X227698632Y-73352181D01*
X227589954Y-73460858D01*
X227459432Y-73647265D01*
X227459431Y-73647267D01*
X227363261Y-73853502D01*
X227363258Y-73853511D01*
X227304366Y-74073302D01*
X227304364Y-74073313D01*
X227284532Y-74299998D01*
X227284532Y-74300001D01*
X227304364Y-74526686D01*
X227304366Y-74526697D01*
X227363258Y-74746488D01*
X227363261Y-74746497D01*
X227459431Y-74952732D01*
X227459432Y-74952734D01*
X227589954Y-75139141D01*
X227750858Y-75300045D01*
X227750861Y-75300047D01*
X227937266Y-75430568D01*
X227995275Y-75457618D01*
X228047714Y-75503791D01*
X228066866Y-75570984D01*
X228046650Y-75637865D01*
X227995275Y-75682382D01*
X227937267Y-75709431D01*
X227937265Y-75709432D01*
X227750858Y-75839954D01*
X227589954Y-76000858D01*
X227459432Y-76187265D01*
X227459431Y-76187267D01*
X227363261Y-76393502D01*
X227363258Y-76393511D01*
X227304366Y-76613302D01*
X227304364Y-76613313D01*
X227284532Y-76839998D01*
X227284532Y-76840001D01*
X227304364Y-77066686D01*
X227304366Y-77066697D01*
X227363258Y-77286488D01*
X227363261Y-77286497D01*
X227459431Y-77492732D01*
X227459432Y-77492734D01*
X227589954Y-77679141D01*
X227750858Y-77840045D01*
X227750861Y-77840047D01*
X227937266Y-77970568D01*
X227977866Y-77989500D01*
X227995275Y-77997618D01*
X228047714Y-78043791D01*
X228066866Y-78110984D01*
X228046650Y-78177865D01*
X227995275Y-78222382D01*
X227937267Y-78249431D01*
X227937265Y-78249432D01*
X227750858Y-78379954D01*
X227589954Y-78540858D01*
X227459432Y-78727265D01*
X227459431Y-78727267D01*
X227363261Y-78933502D01*
X227363258Y-78933511D01*
X227304366Y-79153302D01*
X227304364Y-79153313D01*
X227284532Y-79379998D01*
X227284532Y-79380001D01*
X227304364Y-79606686D01*
X227304366Y-79606697D01*
X227363258Y-79826488D01*
X227363261Y-79826497D01*
X227459431Y-80032732D01*
X227459432Y-80032734D01*
X227589954Y-80219141D01*
X227750858Y-80380045D01*
X227750861Y-80380047D01*
X227937266Y-80510568D01*
X227995865Y-80537893D01*
X228048305Y-80584065D01*
X228067457Y-80651258D01*
X228047242Y-80718139D01*
X227995867Y-80762657D01*
X227937515Y-80789867D01*
X227751179Y-80920342D01*
X227590342Y-81081179D01*
X227459865Y-81267517D01*
X227363734Y-81473673D01*
X227363730Y-81473682D01*
X227311127Y-81669999D01*
X227311128Y-81670000D01*
X228079424Y-81670000D01*
X228146463Y-81689685D01*
X228192218Y-81742489D01*
X228202162Y-81811647D01*
X228201897Y-81813397D01*
X228185013Y-81919996D01*
X228185013Y-81920003D01*
X228201897Y-82026603D01*
X228192942Y-82095896D01*
X228147946Y-82149348D01*
X228081194Y-82169987D01*
X228079424Y-82170000D01*
X227311128Y-82170000D01*
X227363730Y-82366317D01*
X227363734Y-82366326D01*
X227459865Y-82572482D01*
X227590342Y-82758820D01*
X227751179Y-82919657D01*
X227937518Y-83050134D01*
X227937520Y-83050135D01*
X227995865Y-83077342D01*
X228048305Y-83123514D01*
X228067457Y-83190707D01*
X228047242Y-83257589D01*
X227995867Y-83302105D01*
X227937268Y-83329431D01*
X227937264Y-83329433D01*
X227750858Y-83459954D01*
X227589954Y-83620858D01*
X227459432Y-83807265D01*
X227459431Y-83807267D01*
X227363261Y-84013502D01*
X227363258Y-84013511D01*
X227304366Y-84233302D01*
X227304364Y-84233313D01*
X227284532Y-84459998D01*
X227284532Y-84460001D01*
X227304364Y-84686686D01*
X227304366Y-84686697D01*
X227363258Y-84906488D01*
X227363261Y-84906497D01*
X227459431Y-85112732D01*
X227459432Y-85112734D01*
X227589954Y-85299141D01*
X227750858Y-85460045D01*
X227760173Y-85466567D01*
X227937266Y-85590568D01*
X227995278Y-85617619D01*
X228047713Y-85663788D01*
X228066866Y-85730982D01*
X228046651Y-85797863D01*
X227995277Y-85842380D01*
X227937268Y-85869430D01*
X227937265Y-85869432D01*
X227750858Y-85999954D01*
X227589954Y-86160858D01*
X227459432Y-86347265D01*
X227459431Y-86347267D01*
X227363261Y-86553502D01*
X227363258Y-86553511D01*
X227304366Y-86773302D01*
X227304364Y-86773313D01*
X227284532Y-86999998D01*
X227284532Y-87000001D01*
X227304364Y-87226686D01*
X227304366Y-87226697D01*
X227363258Y-87446488D01*
X227363261Y-87446497D01*
X227459431Y-87652732D01*
X227459432Y-87652734D01*
X227589954Y-87839141D01*
X227750858Y-88000045D01*
X227775462Y-88017273D01*
X227819087Y-88071849D01*
X227826281Y-88141348D01*
X227794758Y-88203703D01*
X227734529Y-88239117D01*
X227717593Y-88242138D01*
X227682516Y-88245908D01*
X227547671Y-88296202D01*
X227547664Y-88296206D01*
X227432455Y-88382452D01*
X227432452Y-88382455D01*
X227346206Y-88497664D01*
X227346202Y-88497671D01*
X227295908Y-88632517D01*
X227291728Y-88671404D01*
X227289501Y-88692123D01*
X227289500Y-88692135D01*
X227289500Y-90387870D01*
X227289501Y-90387876D01*
X227295908Y-90447483D01*
X227346202Y-90582328D01*
X227346206Y-90582335D01*
X227432452Y-90697544D01*
X227432455Y-90697547D01*
X227547664Y-90783793D01*
X227547671Y-90783797D01*
X227682517Y-90834091D01*
X227682516Y-90834091D01*
X227689444Y-90834835D01*
X227742127Y-90840500D01*
X229437872Y-90840499D01*
X229497483Y-90834091D01*
X229632331Y-90783796D01*
X229747546Y-90697546D01*
X229833796Y-90582331D01*
X229884091Y-90447483D01*
X229890500Y-90387873D01*
X229890499Y-88692128D01*
X229884091Y-88632517D01*
X229877733Y-88615471D01*
X229833797Y-88497671D01*
X229833793Y-88497664D01*
X229747547Y-88382455D01*
X229747544Y-88382452D01*
X229632335Y-88296206D01*
X229632328Y-88296202D01*
X229497482Y-88245908D01*
X229497483Y-88245908D01*
X229462404Y-88242137D01*
X229397853Y-88215399D01*
X229358005Y-88158006D01*
X229355512Y-88088181D01*
X229391165Y-88028092D01*
X229404539Y-88017272D01*
X229429136Y-88000049D01*
X229429135Y-88000049D01*
X229429139Y-88000047D01*
X229533729Y-87895456D01*
X229595050Y-87861973D01*
X229664742Y-87866957D01*
X229709090Y-87895458D01*
X229929268Y-88115635D01*
X229941049Y-88129267D01*
X229955390Y-88148530D01*
X229995420Y-88182119D01*
X229999392Y-88185759D01*
X230005224Y-88191591D01*
X230005227Y-88191594D01*
X230030947Y-88211931D01*
X230089788Y-88261304D01*
X230095818Y-88265270D01*
X230095785Y-88265319D01*
X230102143Y-88269369D01*
X230102175Y-88269319D01*
X230108320Y-88273109D01*
X230108323Y-88273111D01*
X230177936Y-88305572D01*
X230246567Y-88340040D01*
X230246572Y-88340041D01*
X230253361Y-88342513D01*
X230253340Y-88342570D01*
X230260455Y-88345043D01*
X230260475Y-88344986D01*
X230267330Y-88347258D01*
X230342558Y-88362790D01*
X230417279Y-88380500D01*
X230417289Y-88380500D01*
X230424452Y-88381338D01*
X230424444Y-88381397D01*
X230431945Y-88382164D01*
X230431951Y-88382105D01*
X230439140Y-88382734D01*
X230439144Y-88382733D01*
X230439145Y-88382734D01*
X230515918Y-88380500D01*
X230525501Y-88380500D01*
X230592540Y-88400185D01*
X230638295Y-88452989D01*
X230649501Y-88504500D01*
X230649501Y-88527876D01*
X230655908Y-88587483D01*
X230706202Y-88722328D01*
X230706206Y-88722335D01*
X230792452Y-88837544D01*
X230792455Y-88837547D01*
X230907664Y-88923793D01*
X230907671Y-88923797D01*
X231039081Y-88972810D01*
X231095015Y-89014681D01*
X231119432Y-89080145D01*
X231104580Y-89148418D01*
X231083430Y-89176673D01*
X230961503Y-89298600D01*
X230825965Y-89492169D01*
X230825964Y-89492171D01*
X230726098Y-89706335D01*
X230726094Y-89706344D01*
X230664938Y-89934586D01*
X230664936Y-89934596D01*
X230644341Y-90169999D01*
X230644341Y-90170000D01*
X230664936Y-90405403D01*
X230664938Y-90405413D01*
X230726094Y-90633655D01*
X230726096Y-90633659D01*
X230726097Y-90633663D01*
X230822547Y-90840500D01*
X230825965Y-90847830D01*
X230825967Y-90847834D01*
X230907240Y-90963903D01*
X230954702Y-91031686D01*
X230961501Y-91041395D01*
X230961506Y-91041402D01*
X231128597Y-91208493D01*
X231128603Y-91208498D01*
X231314158Y-91338425D01*
X231357783Y-91393002D01*
X231364977Y-91462500D01*
X231333454Y-91524855D01*
X231314158Y-91541575D01*
X231128597Y-91671505D01*
X230961505Y-91838597D01*
X230825965Y-92032169D01*
X230825964Y-92032171D01*
X230726098Y-92246335D01*
X230726094Y-92246344D01*
X230664938Y-92474586D01*
X230664936Y-92474596D01*
X230644341Y-92709999D01*
X230644341Y-92710000D01*
X230664936Y-92945403D01*
X230664938Y-92945413D01*
X230726094Y-93173655D01*
X230726096Y-93173659D01*
X230726097Y-93173663D01*
X230805994Y-93345002D01*
X230825965Y-93387830D01*
X230825967Y-93387834D01*
X230929696Y-93535973D01*
X230961505Y-93581401D01*
X230963174Y-93583070D01*
X230963674Y-93583985D01*
X230964982Y-93585544D01*
X230964668Y-93585806D01*
X230996664Y-93644388D01*
X230999500Y-93670757D01*
X230999500Y-94827283D01*
X230997243Y-94916362D01*
X230997243Y-94916370D01*
X231008064Y-94976739D01*
X231008718Y-94981404D01*
X231014925Y-95042430D01*
X231014927Y-95042444D01*
X231025208Y-95075213D01*
X231027079Y-95082837D01*
X231033142Y-95116652D01*
X231033142Y-95116655D01*
X231055894Y-95173612D01*
X231057474Y-95178051D01*
X231075841Y-95236588D01*
X231075844Y-95236595D01*
X231092509Y-95266619D01*
X231095879Y-95273714D01*
X231108622Y-95305614D01*
X231108627Y-95305624D01*
X231142377Y-95356833D01*
X231144818Y-95360863D01*
X231174588Y-95414498D01*
X231174589Y-95414499D01*
X231174591Y-95414502D01*
X231196968Y-95440567D01*
X231201693Y-95446835D01*
X231214263Y-95465906D01*
X231220598Y-95475519D01*
X231263978Y-95518899D01*
X231267169Y-95522343D01*
X231307131Y-95568892D01*
X231307134Y-95568895D01*
X231334293Y-95589918D01*
X231340185Y-95595107D01*
X231362402Y-95617322D01*
X231373180Y-95628101D01*
X231406666Y-95689423D01*
X231409500Y-95715783D01*
X231409500Y-96277410D01*
X231389815Y-96344449D01*
X231387076Y-96348532D01*
X231279431Y-96502267D01*
X231183261Y-96708502D01*
X231183258Y-96708511D01*
X231124366Y-96928302D01*
X231124364Y-96928313D01*
X231104532Y-97154998D01*
X231104532Y-97155001D01*
X231124364Y-97381686D01*
X231124366Y-97381697D01*
X231183258Y-97601488D01*
X231183261Y-97601497D01*
X231279431Y-97807732D01*
X231279432Y-97807734D01*
X231409954Y-97994141D01*
X231570858Y-98155045D01*
X231570861Y-98155047D01*
X231757266Y-98285568D01*
X231963504Y-98381739D01*
X232183308Y-98440635D01*
X232345230Y-98454801D01*
X232409998Y-98460468D01*
X232410000Y-98460468D01*
X232410002Y-98460468D01*
X232466673Y-98455509D01*
X232636692Y-98440635D01*
X232856496Y-98381739D01*
X233062734Y-98285568D01*
X233249139Y-98155047D01*
X233410047Y-97994139D01*
X233540568Y-97807734D01*
X233636739Y-97601496D01*
X233695635Y-97381692D01*
X233715468Y-97155000D01*
X233713916Y-97137266D01*
X233698760Y-96964026D01*
X233695635Y-96928308D01*
X233636739Y-96708504D01*
X233540568Y-96502266D01*
X233432924Y-96348532D01*
X233410597Y-96282326D01*
X233410500Y-96277410D01*
X233410500Y-95262715D01*
X233412757Y-95173642D01*
X233412756Y-95173641D01*
X233412757Y-95173637D01*
X233401930Y-95113234D01*
X233401280Y-95108599D01*
X233395074Y-95047562D01*
X233384790Y-95014786D01*
X233382920Y-95007168D01*
X233376859Y-94973348D01*
X233376858Y-94973346D01*
X233376858Y-94973344D01*
X233354098Y-94916366D01*
X233352517Y-94911925D01*
X233334160Y-94853415D01*
X233334159Y-94853414D01*
X233334159Y-94853412D01*
X233317482Y-94823366D01*
X233314122Y-94816288D01*
X233310002Y-94805973D01*
X233301378Y-94784383D01*
X233301375Y-94784378D01*
X233301374Y-94784376D01*
X233287062Y-94762661D01*
X233267605Y-94733139D01*
X233265183Y-94729142D01*
X233235409Y-94675498D01*
X233213034Y-94649434D01*
X233208306Y-94643163D01*
X233189404Y-94614484D01*
X233189399Y-94614478D01*
X233167715Y-94592795D01*
X233146019Y-94571099D01*
X233142828Y-94567655D01*
X233102865Y-94521104D01*
X233075694Y-94500072D01*
X233069807Y-94494887D01*
X233036819Y-94461899D01*
X233003334Y-94400576D01*
X233000500Y-94374218D01*
X233000500Y-93670758D01*
X233020185Y-93603719D01*
X233036827Y-93583069D01*
X233036897Y-93582998D01*
X233038495Y-93581401D01*
X233174035Y-93387830D01*
X233273903Y-93173663D01*
X233335063Y-92945408D01*
X233355659Y-92710000D01*
X233335063Y-92474592D01*
X233273903Y-92246337D01*
X233174035Y-92032171D01*
X233164191Y-92018111D01*
X233038494Y-91838597D01*
X232871402Y-91671506D01*
X232871396Y-91671501D01*
X232685842Y-91541575D01*
X232642217Y-91486998D01*
X232635023Y-91417500D01*
X232666546Y-91355145D01*
X232685842Y-91338425D01*
X232803368Y-91256132D01*
X232871401Y-91208495D01*
X233038495Y-91041401D01*
X233174035Y-90847830D01*
X233273903Y-90633663D01*
X233335063Y-90405408D01*
X233355659Y-90170000D01*
X233335063Y-89934592D01*
X233281087Y-89733149D01*
X233273905Y-89706344D01*
X233273904Y-89706343D01*
X233273903Y-89706337D01*
X233174035Y-89492171D01*
X233173403Y-89491269D01*
X233038496Y-89298600D01*
X232988944Y-89249048D01*
X232916567Y-89176671D01*
X232883084Y-89115351D01*
X232888068Y-89045659D01*
X232929939Y-88989725D01*
X232960915Y-88972810D01*
X233092331Y-88923796D01*
X233207546Y-88837546D01*
X233293796Y-88722331D01*
X233344091Y-88587483D01*
X233350500Y-88527873D01*
X233350499Y-86732128D01*
X233344091Y-86672517D01*
X233299701Y-86553502D01*
X233293797Y-86537671D01*
X233293793Y-86537664D01*
X233207547Y-86422455D01*
X233207544Y-86422452D01*
X233092335Y-86336206D01*
X233092328Y-86336202D01*
X232957482Y-86285908D01*
X232957483Y-86285908D01*
X232897883Y-86279501D01*
X232897881Y-86279500D01*
X232897873Y-86279500D01*
X232897864Y-86279500D01*
X231102129Y-86279500D01*
X231102123Y-86279501D01*
X231042516Y-86285908D01*
X230907671Y-86336202D01*
X230907664Y-86336206D01*
X230792455Y-86422452D01*
X230792452Y-86422455D01*
X230706203Y-86537668D01*
X230703585Y-86542463D01*
X230654175Y-86591865D01*
X230585901Y-86606711D01*
X230520439Y-86582289D01*
X230507087Y-86570719D01*
X230417386Y-86481018D01*
X230414928Y-86478412D01*
X230372327Y-86430541D01*
X230372325Y-86430540D01*
X230322236Y-86395468D01*
X230319825Y-86393779D01*
X230316959Y-86391646D01*
X230266677Y-86351889D01*
X230266676Y-86351888D01*
X230256509Y-86347147D01*
X230237799Y-86336344D01*
X230228616Y-86329915D01*
X230228610Y-86329911D01*
X230169058Y-86306252D01*
X230165747Y-86304823D01*
X230107673Y-86277742D01*
X230096686Y-86275474D01*
X230075983Y-86269275D01*
X230065572Y-86265139D01*
X230065568Y-86265138D01*
X230065567Y-86265138D01*
X230041386Y-86261596D01*
X230002167Y-86255851D01*
X229998624Y-86255226D01*
X229935856Y-86242266D01*
X229924634Y-86242592D01*
X229903068Y-86241335D01*
X229891980Y-86239711D01*
X229891970Y-86239710D01*
X229828155Y-86245293D01*
X229824557Y-86245503D01*
X229760487Y-86247368D01*
X229754874Y-86248191D01*
X229736906Y-86249500D01*
X229716663Y-86249500D01*
X229649624Y-86229815D01*
X229615088Y-86196623D01*
X229590045Y-86160858D01*
X229429141Y-85999954D01*
X229242734Y-85869432D01*
X229242728Y-85869429D01*
X229200530Y-85849752D01*
X229184724Y-85842381D01*
X229132285Y-85796210D01*
X229113133Y-85729017D01*
X229133348Y-85662135D01*
X229184725Y-85617618D01*
X229242734Y-85590568D01*
X229429139Y-85460047D01*
X229590047Y-85299139D01*
X229720568Y-85112734D01*
X229816739Y-84906496D01*
X229875635Y-84686692D01*
X229895468Y-84460000D01*
X229895030Y-84454999D01*
X229889457Y-84391294D01*
X229875635Y-84233308D01*
X229816739Y-84013504D01*
X229720568Y-83807266D01*
X229590047Y-83620861D01*
X229590045Y-83620858D01*
X229429141Y-83459954D01*
X229242734Y-83329432D01*
X229242732Y-83329431D01*
X229184725Y-83302382D01*
X229184132Y-83302105D01*
X229131694Y-83255934D01*
X229112542Y-83188740D01*
X229132758Y-83121859D01*
X229184134Y-83077341D01*
X229242484Y-83050132D01*
X229428820Y-82919657D01*
X229589657Y-82758820D01*
X229720134Y-82572482D01*
X229816265Y-82366326D01*
X229816269Y-82366317D01*
X229868872Y-82170000D01*
X229100576Y-82170000D01*
X229033537Y-82150315D01*
X228987782Y-82097511D01*
X228977838Y-82028353D01*
X228978103Y-82026603D01*
X228994986Y-81920003D01*
X228994986Y-81919996D01*
X228978103Y-81813397D01*
X228987058Y-81744104D01*
X229032054Y-81690652D01*
X229098806Y-81670013D01*
X229100576Y-81670000D01*
X229868872Y-81670000D01*
X229868872Y-81669999D01*
X229816269Y-81473682D01*
X229816265Y-81473673D01*
X229720134Y-81267517D01*
X229589657Y-81081179D01*
X229428820Y-80920342D01*
X229242482Y-80789865D01*
X229184133Y-80762657D01*
X229131694Y-80716484D01*
X229112542Y-80649291D01*
X229132758Y-80582410D01*
X229184129Y-80537895D01*
X229242734Y-80510568D01*
X229429139Y-80380047D01*
X229533729Y-80275456D01*
X229595050Y-80241973D01*
X229664742Y-80246957D01*
X229709090Y-80275458D01*
X229929268Y-80495635D01*
X229941049Y-80509267D01*
X229955390Y-80528530D01*
X229995420Y-80562119D01*
X229999392Y-80565759D01*
X230005224Y-80571591D01*
X230005227Y-80571594D01*
X230030947Y-80591931D01*
X230089788Y-80641304D01*
X230095818Y-80645270D01*
X230095785Y-80645319D01*
X230102143Y-80649369D01*
X230102175Y-80649319D01*
X230108320Y-80653109D01*
X230108323Y-80653111D01*
X230177936Y-80685572D01*
X230246567Y-80720040D01*
X230246572Y-80720041D01*
X230253361Y-80722513D01*
X230253340Y-80722570D01*
X230260455Y-80725043D01*
X230260475Y-80724986D01*
X230267330Y-80727258D01*
X230342558Y-80742790D01*
X230417279Y-80760500D01*
X230417289Y-80760500D01*
X230424452Y-80761338D01*
X230424444Y-80761397D01*
X230431945Y-80762164D01*
X230431951Y-80762105D01*
X230439140Y-80762734D01*
X230439144Y-80762733D01*
X230439145Y-80762734D01*
X230515918Y-80760500D01*
X230812299Y-80760500D01*
X230879338Y-80780185D01*
X230913873Y-80813376D01*
X230961505Y-80881401D01*
X231128599Y-81048495D01*
X231175277Y-81081179D01*
X231322165Y-81184032D01*
X231322167Y-81184033D01*
X231322170Y-81184035D01*
X231536337Y-81283903D01*
X231764592Y-81345063D01*
X231952918Y-81361539D01*
X231999999Y-81365659D01*
X232000000Y-81365659D01*
X232000001Y-81365659D01*
X232039234Y-81362226D01*
X232235408Y-81345063D01*
X232463663Y-81283903D01*
X232677830Y-81184035D01*
X232871401Y-81048495D01*
X233038495Y-80881401D01*
X233174035Y-80687830D01*
X233273903Y-80473663D01*
X233335063Y-80245408D01*
X233355659Y-80010000D01*
X233335063Y-79774592D01*
X233273903Y-79546337D01*
X233174035Y-79332171D01*
X233123151Y-79259500D01*
X233038494Y-79138597D01*
X232871402Y-78971506D01*
X232871396Y-78971501D01*
X232685842Y-78841575D01*
X232642217Y-78786998D01*
X232635023Y-78717500D01*
X232666546Y-78655145D01*
X232685842Y-78638425D01*
X232809675Y-78551716D01*
X232871401Y-78508495D01*
X233038495Y-78341401D01*
X233174035Y-78147830D01*
X233273903Y-77933663D01*
X233335063Y-77705408D01*
X233355659Y-77470000D01*
X233335063Y-77234592D01*
X233273903Y-77006337D01*
X233174035Y-76792171D01*
X233144233Y-76749608D01*
X233038494Y-76598597D01*
X232871402Y-76431506D01*
X232871396Y-76431501D01*
X232685842Y-76301575D01*
X232642217Y-76246998D01*
X232635023Y-76177500D01*
X232666546Y-76115145D01*
X232685842Y-76098425D01*
X232774104Y-76036623D01*
X232871401Y-75968495D01*
X233038495Y-75801401D01*
X233174035Y-75607830D01*
X233273903Y-75393663D01*
X233335063Y-75165408D01*
X233355659Y-74930000D01*
X233335063Y-74694592D01*
X233273903Y-74466337D01*
X233174035Y-74252171D01*
X233123151Y-74179500D01*
X233038494Y-74058597D01*
X232871402Y-73891506D01*
X232871396Y-73891501D01*
X232685842Y-73761575D01*
X232642217Y-73706998D01*
X232635023Y-73637500D01*
X232666546Y-73575145D01*
X232685842Y-73558425D01*
X232825176Y-73460862D01*
X232871401Y-73428495D01*
X233038495Y-73261401D01*
X233174035Y-73067830D01*
X233273903Y-72853663D01*
X233335063Y-72625408D01*
X233355659Y-72390000D01*
X233335063Y-72154592D01*
X233273903Y-71926337D01*
X233174035Y-71712171D01*
X233123150Y-71639500D01*
X233038496Y-71518600D01*
X233003921Y-71484025D01*
X232916567Y-71396671D01*
X232883084Y-71335351D01*
X232888068Y-71265659D01*
X232929939Y-71209725D01*
X232960915Y-71192810D01*
X233092331Y-71143796D01*
X233207546Y-71057546D01*
X233293796Y-70942331D01*
X233344091Y-70807483D01*
X233350500Y-70747873D01*
X233350499Y-68952128D01*
X233344091Y-68892517D01*
X233318875Y-68824910D01*
X233293797Y-68757671D01*
X233293793Y-68757664D01*
X233221544Y-68661153D01*
X233207546Y-68642454D01*
X233192952Y-68631529D01*
X233150188Y-68599515D01*
X233108318Y-68543581D01*
X233100500Y-68500249D01*
X233100500Y-67166662D01*
X233120185Y-67099623D01*
X233153379Y-67065086D01*
X233189140Y-67040046D01*
X233350045Y-66879141D01*
X233350047Y-66879139D01*
X233480568Y-66692734D01*
X233576739Y-66486496D01*
X233635635Y-66266692D01*
X233653916Y-66057736D01*
X233655468Y-66040001D01*
X233655468Y-66039998D01*
X233645510Y-65926184D01*
X233635635Y-65813308D01*
X233586949Y-65631610D01*
X233576741Y-65593511D01*
X233576738Y-65593502D01*
X233488838Y-65405001D01*
X233480568Y-65387266D01*
X233373811Y-65234800D01*
X233350045Y-65200858D01*
X233189141Y-65039954D01*
X233002734Y-64909432D01*
X233002732Y-64909431D01*
X232796497Y-64813261D01*
X232796488Y-64813258D01*
X232576697Y-64754366D01*
X232576693Y-64754365D01*
X232576692Y-64754365D01*
X232576691Y-64754364D01*
X232576686Y-64754364D01*
X232350002Y-64734532D01*
X232349998Y-64734532D01*
X232123313Y-64754364D01*
X232123302Y-64754366D01*
X231903511Y-64813258D01*
X231903502Y-64813261D01*
X231697267Y-64909431D01*
X231697265Y-64909432D01*
X231510858Y-65039954D01*
X231349954Y-65200858D01*
X231219432Y-65387265D01*
X231219431Y-65387267D01*
X231123261Y-65593502D01*
X231123258Y-65593511D01*
X231064366Y-65813302D01*
X231064364Y-65813313D01*
X231044532Y-66039998D01*
X231044532Y-66040001D01*
X231064364Y-66266686D01*
X231064366Y-66266697D01*
X231123258Y-66486488D01*
X231123261Y-66486497D01*
X231219431Y-66692732D01*
X231219432Y-66692734D01*
X231349954Y-66879141D01*
X231510859Y-67040046D01*
X231546621Y-67065086D01*
X231590247Y-67119662D01*
X231599500Y-67166662D01*
X231599500Y-68375500D01*
X231579815Y-68442539D01*
X231527011Y-68488294D01*
X231475500Y-68499500D01*
X231102130Y-68499500D01*
X231102123Y-68499501D01*
X231042516Y-68505908D01*
X230907671Y-68556202D01*
X230907664Y-68556206D01*
X230792455Y-68642452D01*
X230792452Y-68642455D01*
X230706206Y-68757664D01*
X230706202Y-68757671D01*
X230655908Y-68892517D01*
X230649501Y-68952116D01*
X230649501Y-68952123D01*
X230649500Y-68952135D01*
X230649500Y-70747870D01*
X230649501Y-70747876D01*
X230655908Y-70807483D01*
X230706202Y-70942328D01*
X230706206Y-70942335D01*
X230792452Y-71057544D01*
X230792455Y-71057547D01*
X230907664Y-71143793D01*
X230907671Y-71143797D01*
X231039081Y-71192810D01*
X231095015Y-71234681D01*
X231119432Y-71300145D01*
X231104580Y-71368418D01*
X231083430Y-71396673D01*
X230961503Y-71518600D01*
X230913874Y-71586623D01*
X230859297Y-71630248D01*
X230812299Y-71639500D01*
X229584049Y-71639500D01*
X229517010Y-71619815D01*
X229471255Y-71567011D01*
X229461311Y-71497853D01*
X229490336Y-71434297D01*
X229496368Y-71427819D01*
X229600045Y-71324141D01*
X229600047Y-71324139D01*
X229730568Y-71137734D01*
X229826739Y-70931496D01*
X229885635Y-70711692D01*
X229902634Y-70517384D01*
X229905468Y-70485001D01*
X229905468Y-70484998D01*
X229891252Y-70322511D01*
X229885635Y-70258308D01*
X229826739Y-70038504D01*
X229730568Y-69832266D01*
X229600047Y-69645861D01*
X229439139Y-69484953D01*
X229439134Y-69484950D01*
X229439131Y-69484947D01*
X229403375Y-69459910D01*
X229359750Y-69405333D01*
X229350499Y-69358341D01*
X229350499Y-64034321D01*
X229367112Y-63972321D01*
X229384307Y-63942539D01*
X229427179Y-63868284D01*
X229485674Y-63688256D01*
X229505460Y-63500000D01*
X229485674Y-63311744D01*
X229427179Y-63131716D01*
X229332533Y-62967784D01*
X229205871Y-62827112D01*
X229205870Y-62827111D01*
X229052734Y-62715851D01*
X229052729Y-62715848D01*
X228879807Y-62638857D01*
X228879802Y-62638855D01*
X228734000Y-62607865D01*
X228694646Y-62599500D01*
X228505354Y-62599500D01*
X228472897Y-62606398D01*
X228320197Y-62638855D01*
X228320192Y-62638857D01*
X228147270Y-62715848D01*
X228147265Y-62715851D01*
X228133548Y-62725818D01*
X228067742Y-62749298D01*
X228060663Y-62749500D01*
X223583705Y-62749500D01*
X223565735Y-62748191D01*
X223541972Y-62744710D01*
X223496533Y-62748686D01*
X223489931Y-62749264D01*
X223484530Y-62749500D01*
X223476289Y-62749500D01*
X223454579Y-62752037D01*
X223443724Y-62753306D01*
X223428419Y-62754645D01*
X223367199Y-62760001D01*
X223360132Y-62761460D01*
X223360120Y-62761404D01*
X223352763Y-62763035D01*
X223352777Y-62763092D01*
X223345743Y-62764759D01*
X223273575Y-62791025D01*
X223200675Y-62815181D01*
X223194126Y-62818236D01*
X223194101Y-62818183D01*
X223187308Y-62821471D01*
X223187334Y-62821523D01*
X223180880Y-62824764D01*
X223116708Y-62866971D01*
X223051347Y-62907285D01*
X223045683Y-62911765D01*
X223045647Y-62911719D01*
X223039798Y-62916484D01*
X223039835Y-62916528D01*
X223034310Y-62921164D01*
X222981597Y-62977035D01*
X221880348Y-64078282D01*
X221819025Y-64111767D01*
X221781861Y-64114129D01*
X221615003Y-64099532D01*
X221614998Y-64099532D01*
X221388313Y-64119364D01*
X221388302Y-64119366D01*
X221168511Y-64178258D01*
X221168502Y-64178261D01*
X220962267Y-64274431D01*
X220962265Y-64274432D01*
X220775858Y-64404954D01*
X220614954Y-64565858D01*
X220484432Y-64752265D01*
X220484431Y-64752267D01*
X220388261Y-64958502D01*
X220388258Y-64958511D01*
X220329366Y-65178302D01*
X220329364Y-65178313D01*
X220309532Y-65404998D01*
X220309532Y-65405001D01*
X220329364Y-65631686D01*
X220329366Y-65631697D01*
X220388258Y-65851488D01*
X220388261Y-65851497D01*
X220484431Y-66057732D01*
X220484432Y-66057734D01*
X220614954Y-66244141D01*
X220775858Y-66405045D01*
X220775861Y-66405047D01*
X220962266Y-66535568D01*
X221168504Y-66631739D01*
X221388308Y-66690635D01*
X221550230Y-66704801D01*
X221614998Y-66710468D01*
X221615000Y-66710468D01*
X221615002Y-66710468D01*
X221671673Y-66705509D01*
X221841692Y-66690635D01*
X222061496Y-66631739D01*
X222267734Y-66535568D01*
X222454139Y-66405047D01*
X222615047Y-66244139D01*
X222745568Y-66057734D01*
X222841739Y-65851496D01*
X222900635Y-65631692D01*
X222920468Y-65405000D01*
X222905869Y-65238137D01*
X222919635Y-65169639D01*
X222941713Y-65139653D01*
X223794548Y-64286819D01*
X223855872Y-64253334D01*
X223882230Y-64250500D01*
X227725500Y-64250500D01*
X227792539Y-64270185D01*
X227838294Y-64322989D01*
X227849500Y-64374500D01*
X227849500Y-69358336D01*
X227829815Y-69425375D01*
X227796625Y-69459910D01*
X227760863Y-69484951D01*
X227599951Y-69645862D01*
X227469432Y-69832265D01*
X227469431Y-69832267D01*
X227442382Y-69890275D01*
X227396209Y-69942714D01*
X227329016Y-69961866D01*
X227262135Y-69941650D01*
X227217618Y-69890275D01*
X227210919Y-69875909D01*
X227190568Y-69832266D01*
X227060047Y-69645861D01*
X226899139Y-69484953D01*
X226899134Y-69484950D01*
X226899131Y-69484947D01*
X226863375Y-69459910D01*
X226819750Y-69405333D01*
X226810499Y-69358340D01*
X226810499Y-67313703D01*
X226811809Y-67295729D01*
X226815289Y-67271975D01*
X226810736Y-67219939D01*
X226810500Y-67214532D01*
X226810500Y-67206297D01*
X226810500Y-67206296D01*
X226810500Y-67206291D01*
X226806691Y-67173707D01*
X226799998Y-67097202D01*
X226799996Y-67097197D01*
X226798538Y-67090133D01*
X226798597Y-67090120D01*
X226796967Y-67082764D01*
X226796908Y-67082779D01*
X226795242Y-67075753D01*
X226795241Y-67075745D01*
X226768973Y-67003573D01*
X226768972Y-67003572D01*
X226744815Y-66930666D01*
X226741763Y-66924121D01*
X226741817Y-66924095D01*
X226738533Y-66917312D01*
X226738480Y-66917340D01*
X226735238Y-66910885D01*
X226735237Y-66910883D01*
X226693029Y-66846709D01*
X226652711Y-66781344D01*
X226652710Y-66781343D01*
X226652709Y-66781341D01*
X226648233Y-66775681D01*
X226648280Y-66775643D01*
X226643519Y-66769799D01*
X226643474Y-66769838D01*
X226638834Y-66764309D01*
X226638832Y-66764307D01*
X226638830Y-66764304D01*
X226608061Y-66735275D01*
X226582965Y-66711597D01*
X226176716Y-66305348D01*
X226143231Y-66244025D01*
X226140869Y-66206863D01*
X226155468Y-66040000D01*
X226152529Y-66006412D01*
X226145510Y-65926184D01*
X226135635Y-65813308D01*
X226086949Y-65631610D01*
X226076741Y-65593511D01*
X226076738Y-65593502D01*
X225988838Y-65405001D01*
X225980568Y-65387266D01*
X225873811Y-65234800D01*
X225850045Y-65200858D01*
X225689141Y-65039954D01*
X225502734Y-64909432D01*
X225502732Y-64909431D01*
X225296497Y-64813261D01*
X225296488Y-64813258D01*
X225076697Y-64754366D01*
X225076693Y-64754365D01*
X225076692Y-64754365D01*
X225076691Y-64754364D01*
X225076686Y-64754364D01*
X224850002Y-64734532D01*
X224849998Y-64734532D01*
X224623313Y-64754364D01*
X224623302Y-64754366D01*
X224403511Y-64813258D01*
X224403502Y-64813261D01*
X224197267Y-64909431D01*
X224197265Y-64909432D01*
X224010858Y-65039954D01*
X223849954Y-65200858D01*
X223719432Y-65387265D01*
X223719431Y-65387267D01*
X223623261Y-65593502D01*
X223623258Y-65593511D01*
X223564366Y-65813302D01*
X223564364Y-65813313D01*
X223544532Y-66039998D01*
X223544532Y-66040001D01*
X223564364Y-66266686D01*
X223564366Y-66266697D01*
X223623258Y-66486488D01*
X223623261Y-66486497D01*
X223719431Y-66692732D01*
X223719432Y-66692734D01*
X223849954Y-66879141D01*
X224010858Y-67040045D01*
X224010861Y-67040047D01*
X224197266Y-67170568D01*
X224403504Y-67266739D01*
X224403509Y-67266740D01*
X224403511Y-67266741D01*
X224456415Y-67280916D01*
X224623308Y-67325635D01*
X224785230Y-67339801D01*
X224849998Y-67345468D01*
X224850000Y-67345468D01*
X224850001Y-67345468D01*
X224870062Y-67343712D01*
X225016861Y-67330869D01*
X225085359Y-67344635D01*
X225115344Y-67366712D01*
X225273182Y-67524549D01*
X225306666Y-67585871D01*
X225309500Y-67612229D01*
X225309500Y-69358336D01*
X225289815Y-69425375D01*
X225256625Y-69459910D01*
X225220863Y-69484951D01*
X225059951Y-69645862D01*
X224929432Y-69832265D01*
X224929431Y-69832267D01*
X224833261Y-70038502D01*
X224833258Y-70038511D01*
X224774366Y-70258302D01*
X224774364Y-70258313D01*
X224754532Y-70484998D01*
X224754532Y-70485001D01*
X224774364Y-70711686D01*
X224774366Y-70711697D01*
X224833258Y-70931488D01*
X224833261Y-70931497D01*
X224929431Y-71137732D01*
X224929432Y-71137734D01*
X225059954Y-71324141D01*
X225163632Y-71427819D01*
X225197117Y-71489142D01*
X225192133Y-71558834D01*
X225150261Y-71614767D01*
X225084797Y-71639184D01*
X225075951Y-71639500D01*
X222908641Y-71639500D01*
X222905040Y-71639395D01*
X222841065Y-71635669D01*
X222841064Y-71635669D01*
X222830023Y-71637616D01*
X222808491Y-71639500D01*
X222462192Y-71639500D01*
X222395153Y-71619815D01*
X222349398Y-71567011D01*
X222338664Y-71504692D01*
X222340472Y-71484025D01*
X221798866Y-70942419D01*
X221765381Y-70881096D01*
X221770365Y-70811404D01*
X221812237Y-70755471D01*
X221830245Y-70744258D01*
X221853045Y-70732641D01*
X221942641Y-70643045D01*
X221954254Y-70620252D01*
X222002225Y-70569458D01*
X222070046Y-70552661D01*
X222136181Y-70575197D01*
X222152419Y-70588866D01*
X222694025Y-71130472D01*
X222745136Y-71057478D01*
X222841264Y-70851331D01*
X222841269Y-70851317D01*
X222900139Y-70631610D01*
X222900141Y-70631599D01*
X222919966Y-70405002D01*
X222919966Y-70404997D01*
X222900141Y-70178400D01*
X222900139Y-70178389D01*
X222841269Y-69958682D01*
X222841265Y-69958673D01*
X222745133Y-69752516D01*
X222745131Y-69752512D01*
X222694026Y-69679526D01*
X222694025Y-69679526D01*
X222152419Y-70221132D01*
X222091096Y-70254617D01*
X222021404Y-70249633D01*
X221965471Y-70207761D01*
X221954256Y-70189751D01*
X221942641Y-70166955D01*
X221942637Y-70166951D01*
X221942636Y-70166949D01*
X221853050Y-70077363D01*
X221853044Y-70077358D01*
X221843109Y-70072296D01*
X221830250Y-70065744D01*
X221779456Y-70017773D01*
X221762660Y-69949952D01*
X221785197Y-69883817D01*
X221798865Y-69867580D01*
X222340472Y-69325973D01*
X222267483Y-69274866D01*
X222267481Y-69274865D01*
X222061326Y-69178734D01*
X222061317Y-69178730D01*
X221841610Y-69119860D01*
X221841599Y-69119858D01*
X221615002Y-69100034D01*
X221614998Y-69100034D01*
X221388400Y-69119858D01*
X221388389Y-69119860D01*
X221168682Y-69178730D01*
X221168673Y-69178734D01*
X220962513Y-69274868D01*
X220889526Y-69325973D01*
X221431133Y-69867580D01*
X221464618Y-69928903D01*
X221459634Y-69998595D01*
X221417762Y-70054528D01*
X221399748Y-70065745D01*
X221376956Y-70077358D01*
X221376949Y-70077363D01*
X221287363Y-70166949D01*
X221287358Y-70166956D01*
X221275745Y-70189748D01*
X221227770Y-70240544D01*
X221159949Y-70257338D01*
X221093814Y-70234800D01*
X221077580Y-70221133D01*
X220535973Y-69679526D01*
X220484868Y-69752513D01*
X220388734Y-69958673D01*
X220388730Y-69958682D01*
X220329860Y-70178389D01*
X220329858Y-70178400D01*
X220310034Y-70404997D01*
X220310034Y-70405002D01*
X220329858Y-70631599D01*
X220329860Y-70631610D01*
X220388730Y-70851317D01*
X220388734Y-70851326D01*
X220484865Y-71057481D01*
X220484866Y-71057483D01*
X220535973Y-71130471D01*
X220535973Y-71130472D01*
X221077580Y-70588865D01*
X221138903Y-70555380D01*
X221208594Y-70560364D01*
X221264528Y-70602235D01*
X221275742Y-70620246D01*
X221281527Y-70631599D01*
X221287358Y-70643044D01*
X221287363Y-70643050D01*
X221376949Y-70732636D01*
X221376951Y-70732637D01*
X221376955Y-70732641D01*
X221399747Y-70744254D01*
X221450542Y-70792228D01*
X221467337Y-70860049D01*
X221444799Y-70926184D01*
X221431132Y-70942419D01*
X220889526Y-71484025D01*
X220891335Y-71504692D01*
X220877569Y-71573192D01*
X220828954Y-71623375D01*
X220767807Y-71639500D01*
X220627229Y-71639500D01*
X220560190Y-71619815D01*
X220539548Y-71603181D01*
X219051716Y-70115348D01*
X219018231Y-70054025D01*
X219015869Y-70016863D01*
X219030468Y-69850000D01*
X219028916Y-69832266D01*
X219023408Y-69769307D01*
X219010635Y-69623308D01*
X218962766Y-69444658D01*
X218951741Y-69403511D01*
X218951738Y-69403502D01*
X218923282Y-69342478D01*
X218855568Y-69197266D01*
X218725047Y-69010861D01*
X218725045Y-69010858D01*
X218564141Y-68849954D01*
X218377734Y-68719432D01*
X218377732Y-68719431D01*
X218171497Y-68623261D01*
X218171488Y-68623258D01*
X217951697Y-68564366D01*
X217951693Y-68564365D01*
X217951692Y-68564365D01*
X217951691Y-68564364D01*
X217951686Y-68564364D01*
X217725002Y-68544532D01*
X217724998Y-68544532D01*
X217498313Y-68564364D01*
X217498302Y-68564366D01*
X217278511Y-68623258D01*
X217278502Y-68623261D01*
X217072267Y-68719431D01*
X217072265Y-68719432D01*
X216885858Y-68849954D01*
X216724954Y-69010858D01*
X216594432Y-69197265D01*
X216594431Y-69197267D01*
X216498261Y-69403502D01*
X216498258Y-69403511D01*
X216439366Y-69623302D01*
X216439364Y-69623313D01*
X216419532Y-69849998D01*
X216419532Y-69850001D01*
X216439364Y-70076686D01*
X216439366Y-70076697D01*
X216498258Y-70296488D01*
X216498261Y-70296497D01*
X216594431Y-70502732D01*
X216594432Y-70502734D01*
X216724954Y-70689141D01*
X216885858Y-70850045D01*
X216887695Y-70851331D01*
X217072266Y-70980568D01*
X217278504Y-71076739D01*
X217278509Y-71076740D01*
X217278511Y-71076741D01*
X217331415Y-71090916D01*
X217498308Y-71135635D01*
X217660230Y-71149801D01*
X217724998Y-71155468D01*
X217725000Y-71155468D01*
X217725001Y-71155468D01*
X217745062Y-71153712D01*
X217891861Y-71140869D01*
X217960359Y-71154635D01*
X217990348Y-71176716D01*
X219689267Y-72875634D01*
X219701048Y-72889266D01*
X219715390Y-72908530D01*
X219755420Y-72942119D01*
X219759392Y-72945759D01*
X219765223Y-72951590D01*
X219790939Y-72971923D01*
X219849786Y-73021302D01*
X219849788Y-73021303D01*
X219855823Y-73025272D01*
X219855789Y-73025322D01*
X219862144Y-73029370D01*
X219862177Y-73029318D01*
X219868319Y-73033107D01*
X219868323Y-73033110D01*
X219937914Y-73065560D01*
X219937914Y-73065561D01*
X220006558Y-73100036D01*
X220006561Y-73100037D01*
X220006567Y-73100040D01*
X220006572Y-73100041D01*
X220013355Y-73102510D01*
X220013334Y-73102567D01*
X220020451Y-73105040D01*
X220020470Y-73104984D01*
X220027330Y-73107257D01*
X220047636Y-73111450D01*
X220109310Y-73144284D01*
X220143442Y-73205249D01*
X220139196Y-73274990D01*
X220110244Y-73320569D01*
X219969951Y-73460862D01*
X219948413Y-73491623D01*
X219893836Y-73535248D01*
X219846838Y-73544500D01*
X219566663Y-73544500D01*
X219499624Y-73524815D01*
X219465088Y-73491623D01*
X219440045Y-73455858D01*
X219279141Y-73294954D01*
X219092734Y-73164432D01*
X219092732Y-73164431D01*
X218886497Y-73068261D01*
X218886488Y-73068258D01*
X218666697Y-73009366D01*
X218666693Y-73009365D01*
X218666692Y-73009365D01*
X218666691Y-73009364D01*
X218666686Y-73009364D01*
X218440002Y-72989532D01*
X218439998Y-72989532D01*
X218213313Y-73009364D01*
X218213302Y-73009366D01*
X217993511Y-73068258D01*
X217993502Y-73068261D01*
X217787267Y-73164431D01*
X217787265Y-73164432D01*
X217600858Y-73294954D01*
X217439954Y-73455858D01*
X217309432Y-73642265D01*
X217309431Y-73642267D01*
X217213261Y-73848502D01*
X217213258Y-73848511D01*
X217154366Y-74068302D01*
X217154364Y-74068313D01*
X217134532Y-74294998D01*
X217134532Y-74295003D01*
X217149129Y-74461861D01*
X217135362Y-74530360D01*
X217113282Y-74560348D01*
X213509358Y-78164272D01*
X213495729Y-78176051D01*
X213476468Y-78190390D01*
X213442898Y-78230397D01*
X213439253Y-78234376D01*
X213433409Y-78240222D01*
X213413059Y-78265959D01*
X213363695Y-78324789D01*
X213359729Y-78330819D01*
X213359682Y-78330788D01*
X213355630Y-78337147D01*
X213355679Y-78337177D01*
X213351889Y-78343321D01*
X213319424Y-78412941D01*
X213284960Y-78481566D01*
X213282488Y-78488357D01*
X213282432Y-78488336D01*
X213279960Y-78495450D01*
X213280015Y-78495469D01*
X213277742Y-78502327D01*
X213262207Y-78577566D01*
X213244501Y-78652270D01*
X213243663Y-78659443D01*
X213243605Y-78659436D01*
X213242837Y-78666950D01*
X213242894Y-78666955D01*
X213242265Y-78674137D01*
X213244500Y-78750916D01*
X213244500Y-78840677D01*
X213227887Y-78902677D01*
X213167821Y-79006714D01*
X213109406Y-79186497D01*
X213109326Y-79186744D01*
X213089540Y-79375000D01*
X213109326Y-79563256D01*
X213109327Y-79563259D01*
X213167818Y-79743277D01*
X213167821Y-79743284D01*
X213262467Y-79907216D01*
X213375484Y-80032734D01*
X213389129Y-80047888D01*
X213542265Y-80159148D01*
X213542270Y-80159151D01*
X213715192Y-80236142D01*
X213715197Y-80236144D01*
X213900354Y-80275500D01*
X213900355Y-80275500D01*
X214089644Y-80275500D01*
X214089646Y-80275500D01*
X214274803Y-80236144D01*
X214447730Y-80159151D01*
X214600871Y-80047888D01*
X214727533Y-79907216D01*
X214822179Y-79743284D01*
X214880674Y-79563256D01*
X214900460Y-79375000D01*
X214880674Y-79186744D01*
X214837683Y-79054432D01*
X214835688Y-78984591D01*
X214867931Y-78928435D01*
X218174652Y-75621714D01*
X218235973Y-75588231D01*
X218273135Y-75585869D01*
X218416366Y-75598400D01*
X218439999Y-75600468D01*
X218440000Y-75600468D01*
X218440002Y-75600468D01*
X218496673Y-75595509D01*
X218666692Y-75580635D01*
X218886496Y-75521739D01*
X219092734Y-75425568D01*
X219279139Y-75295047D01*
X219440047Y-75134139D01*
X219454232Y-75113880D01*
X219465088Y-75098377D01*
X219519665Y-75054752D01*
X219566663Y-75045500D01*
X219839836Y-75045500D01*
X219906875Y-75065185D01*
X219941411Y-75098377D01*
X219969954Y-75139141D01*
X220130858Y-75300045D01*
X220130861Y-75300047D01*
X220317266Y-75430568D01*
X220375275Y-75457618D01*
X220427714Y-75503791D01*
X220446866Y-75570984D01*
X220426650Y-75637865D01*
X220375275Y-75682382D01*
X220317267Y-75709431D01*
X220317265Y-75709432D01*
X220130858Y-75839954D01*
X219969954Y-76000858D01*
X219839432Y-76187265D01*
X219839431Y-76187267D01*
X219743261Y-76393502D01*
X219743258Y-76393511D01*
X219684366Y-76613302D01*
X219684364Y-76613313D01*
X219664532Y-76839998D01*
X219664532Y-76840001D01*
X219684364Y-77066686D01*
X219684366Y-77066697D01*
X219743258Y-77286488D01*
X219743261Y-77286497D01*
X219839431Y-77492732D01*
X219839432Y-77492734D01*
X219969954Y-77679141D01*
X220068632Y-77777819D01*
X220102117Y-77839142D01*
X220097133Y-77908834D01*
X220055261Y-77964767D01*
X219989797Y-77989184D01*
X219980951Y-77989500D01*
X219566663Y-77989500D01*
X219499624Y-77969815D01*
X219465088Y-77936623D01*
X219440045Y-77900858D01*
X219279141Y-77739954D01*
X219092734Y-77609432D01*
X219092732Y-77609431D01*
X218886497Y-77513261D01*
X218886488Y-77513258D01*
X218666697Y-77454366D01*
X218666693Y-77454365D01*
X218666692Y-77454365D01*
X218666691Y-77454364D01*
X218666686Y-77454364D01*
X218440002Y-77434532D01*
X218439998Y-77434532D01*
X218213313Y-77454364D01*
X218213302Y-77454366D01*
X217993511Y-77513258D01*
X217993502Y-77513261D01*
X217787267Y-77609431D01*
X217787265Y-77609432D01*
X217600858Y-77739954D01*
X217439954Y-77900858D01*
X217309432Y-78087265D01*
X217309431Y-78087267D01*
X217213261Y-78293502D01*
X217213258Y-78293511D01*
X217154366Y-78513302D01*
X217154364Y-78513313D01*
X217134532Y-78739998D01*
X217134532Y-78740001D01*
X217154364Y-78966686D01*
X217154366Y-78966697D01*
X217213258Y-79186488D01*
X217213261Y-79186497D01*
X217309431Y-79392732D01*
X217309432Y-79392734D01*
X217439954Y-79579141D01*
X217600858Y-79740045D01*
X217600861Y-79740047D01*
X217787266Y-79870568D01*
X217993504Y-79966739D01*
X218213308Y-80025635D01*
X218375230Y-80039801D01*
X218439998Y-80045468D01*
X218440000Y-80045468D01*
X218440002Y-80045468D01*
X218496673Y-80040509D01*
X218666692Y-80025635D01*
X218886496Y-79966739D01*
X219092734Y-79870568D01*
X219279139Y-79740047D01*
X219440047Y-79579139D01*
X219459675Y-79551106D01*
X219514247Y-79507482D01*
X219583745Y-79500286D01*
X219646101Y-79531805D01*
X219681518Y-79592034D01*
X219683102Y-79601420D01*
X219683426Y-79601364D01*
X219684365Y-79606694D01*
X219743258Y-79826488D01*
X219743261Y-79826497D01*
X219839431Y-80032732D01*
X219839432Y-80032734D01*
X219969954Y-80219141D01*
X220130858Y-80380045D01*
X220130861Y-80380047D01*
X220317266Y-80510568D01*
X220375275Y-80537618D01*
X220427714Y-80583791D01*
X220446866Y-80650984D01*
X220426650Y-80717865D01*
X220375275Y-80762382D01*
X220317267Y-80789431D01*
X220317265Y-80789432D01*
X220130858Y-80919954D01*
X219969954Y-81080858D01*
X219839432Y-81267265D01*
X219839431Y-81267267D01*
X219743261Y-81473502D01*
X219743258Y-81473511D01*
X219684366Y-81693302D01*
X219684364Y-81693313D01*
X219664532Y-81919998D01*
X219664532Y-81920001D01*
X219684364Y-82146686D01*
X219684366Y-82146697D01*
X219743258Y-82366488D01*
X219743261Y-82366497D01*
X219839431Y-82572732D01*
X219839432Y-82572734D01*
X219969954Y-82759141D01*
X220130858Y-82920045D01*
X220130861Y-82920047D01*
X220317266Y-83050568D01*
X220357866Y-83069500D01*
X220375275Y-83077618D01*
X220427714Y-83123791D01*
X220446866Y-83190984D01*
X220426650Y-83257865D01*
X220375275Y-83302382D01*
X220317267Y-83329431D01*
X220317265Y-83329432D01*
X220130858Y-83459954D01*
X219969954Y-83620858D01*
X219944912Y-83656623D01*
X219890335Y-83700248D01*
X219843337Y-83709500D01*
X219823558Y-83709500D01*
X219798485Y-83706938D01*
X219781551Y-83703442D01*
X219775857Y-83702266D01*
X219775856Y-83702266D01*
X219764634Y-83702592D01*
X219743068Y-83701335D01*
X219731980Y-83699711D01*
X219731970Y-83699710D01*
X219668155Y-83705293D01*
X219664557Y-83705503D01*
X219600492Y-83707368D01*
X219600483Y-83707369D01*
X219589654Y-83710271D01*
X219568382Y-83714022D01*
X219557204Y-83715000D01*
X219557199Y-83715001D01*
X219496369Y-83735158D01*
X219492927Y-83736189D01*
X219463993Y-83743942D01*
X219431026Y-83752776D01*
X219431020Y-83752779D01*
X219421149Y-83758101D01*
X219401310Y-83766658D01*
X219390669Y-83770184D01*
X219336126Y-83803824D01*
X219333006Y-83805626D01*
X219276599Y-83836041D01*
X219276594Y-83836045D01*
X219268220Y-83843497D01*
X219250892Y-83856398D01*
X219241345Y-83862286D01*
X219196041Y-83907590D01*
X219193420Y-83910064D01*
X219145540Y-83952674D01*
X219145537Y-83952678D01*
X219139104Y-83961865D01*
X219125215Y-83978416D01*
X218916590Y-84187041D01*
X218855267Y-84220526D01*
X218785575Y-84215542D01*
X218741228Y-84187041D01*
X218644141Y-84089954D01*
X218457734Y-83959432D01*
X218457728Y-83959429D01*
X218399725Y-83932382D01*
X218347285Y-83886210D01*
X218328133Y-83819017D01*
X218348348Y-83752135D01*
X218399725Y-83707618D01*
X218400259Y-83707369D01*
X218457734Y-83680568D01*
X218644139Y-83550047D01*
X218805047Y-83389139D01*
X218935568Y-83202734D01*
X219031739Y-82996496D01*
X219090635Y-82776692D01*
X219110468Y-82550000D01*
X219110422Y-82549478D01*
X219099959Y-82429882D01*
X219090635Y-82323308D01*
X219031739Y-82103504D01*
X218935568Y-81897266D01*
X218805047Y-81710861D01*
X218805045Y-81710858D01*
X218644141Y-81549954D01*
X218457734Y-81419432D01*
X218457732Y-81419431D01*
X218251497Y-81323261D01*
X218251488Y-81323258D01*
X218031697Y-81264366D01*
X218031693Y-81264365D01*
X218031692Y-81264365D01*
X218031691Y-81264364D01*
X218031686Y-81264364D01*
X217805002Y-81244532D01*
X217804998Y-81244532D01*
X217578313Y-81264364D01*
X217578302Y-81264366D01*
X217358511Y-81323258D01*
X217358502Y-81323261D01*
X217152267Y-81419431D01*
X217152265Y-81419432D01*
X216965858Y-81549954D01*
X216804954Y-81710858D01*
X216674432Y-81897265D01*
X216674431Y-81897267D01*
X216578261Y-82103502D01*
X216578258Y-82103511D01*
X216519366Y-82323302D01*
X216519364Y-82323313D01*
X216499532Y-82549998D01*
X216499532Y-82550001D01*
X216519364Y-82776686D01*
X216519366Y-82776697D01*
X216578258Y-82996488D01*
X216578261Y-82996497D01*
X216674431Y-83202732D01*
X216674432Y-83202734D01*
X216804954Y-83389141D01*
X216965858Y-83550045D01*
X216965861Y-83550047D01*
X217152266Y-83680568D01*
X217209741Y-83707369D01*
X217210275Y-83707618D01*
X217262714Y-83753791D01*
X217281866Y-83820984D01*
X217261650Y-83887865D01*
X217210275Y-83932382D01*
X217152267Y-83959431D01*
X217152265Y-83959432D01*
X216965862Y-84089951D01*
X216868771Y-84187042D01*
X216807447Y-84220526D01*
X216737756Y-84215542D01*
X216693409Y-84187041D01*
X215840729Y-83334361D01*
X215828949Y-83320730D01*
X215815289Y-83302382D01*
X215814612Y-83301472D01*
X215814610Y-83301470D01*
X215774587Y-83267886D01*
X215770612Y-83264244D01*
X215767690Y-83261322D01*
X215764780Y-83258411D01*
X215739040Y-83238059D01*
X215682608Y-83190707D01*
X215680214Y-83188698D01*
X215680213Y-83188697D01*
X215680209Y-83188694D01*
X215674180Y-83184729D01*
X215674212Y-83184680D01*
X215667853Y-83180628D01*
X215667822Y-83180679D01*
X215661680Y-83176891D01*
X215661678Y-83176890D01*
X215661677Y-83176889D01*
X215622474Y-83158608D01*
X215592058Y-83144424D01*
X215548390Y-83122494D01*
X215523433Y-83109960D01*
X215523431Y-83109959D01*
X215523430Y-83109959D01*
X215516645Y-83107489D01*
X215516665Y-83107433D01*
X215509549Y-83104959D01*
X215509531Y-83105015D01*
X215502671Y-83102742D01*
X215474841Y-83096996D01*
X215427434Y-83087207D01*
X215378472Y-83075603D01*
X215352719Y-83069499D01*
X215345547Y-83068661D01*
X215345553Y-83068601D01*
X215338055Y-83067835D01*
X215338050Y-83067895D01*
X215330860Y-83067265D01*
X215309564Y-83067885D01*
X215305293Y-83068009D01*
X215237710Y-83050283D01*
X215190439Y-82998833D01*
X215178488Y-82929993D01*
X215183024Y-82908072D01*
X215230662Y-82751033D01*
X215250462Y-82550000D01*
X215230662Y-82348967D01*
X215172023Y-82155659D01*
X215172021Y-82155656D01*
X215172021Y-82155654D01*
X215076801Y-81977511D01*
X215076799Y-81977509D01*
X215076798Y-81977506D01*
X215029601Y-81919996D01*
X214948647Y-81821352D01*
X214792495Y-81693203D01*
X214792488Y-81693198D01*
X214614345Y-81597978D01*
X214421031Y-81539337D01*
X214310900Y-81528490D01*
X214270380Y-81524500D01*
X213719620Y-81524500D01*
X213682433Y-81528162D01*
X213568968Y-81539337D01*
X213375654Y-81597978D01*
X213197511Y-81693198D01*
X213197504Y-81693203D01*
X213041352Y-81821352D01*
X212913203Y-81977504D01*
X212913198Y-81977511D01*
X212817978Y-82155654D01*
X212759337Y-82348968D01*
X212739538Y-82549999D01*
X212759337Y-82751031D01*
X212788430Y-82846938D01*
X212817977Y-82944341D01*
X212913202Y-83122494D01*
X212913203Y-83122496D01*
X212915368Y-83126545D01*
X212929610Y-83194948D01*
X212915368Y-83243452D01*
X212817978Y-83425654D01*
X212759337Y-83618968D01*
X212739538Y-83820000D01*
X212759337Y-84021031D01*
X212807410Y-84179505D01*
X212808033Y-84249372D01*
X212770785Y-84308485D01*
X212707491Y-84338075D01*
X212688749Y-84339500D01*
X211817230Y-84339500D01*
X211750191Y-84319815D01*
X211729549Y-84303181D01*
X210760729Y-83334361D01*
X210748949Y-83320730D01*
X210735289Y-83302382D01*
X210734612Y-83301472D01*
X210734610Y-83301470D01*
X210694587Y-83267886D01*
X210690612Y-83264244D01*
X210687690Y-83261322D01*
X210684780Y-83258411D01*
X210659040Y-83238059D01*
X210602608Y-83190707D01*
X210600214Y-83188698D01*
X210600213Y-83188697D01*
X210600209Y-83188694D01*
X210594180Y-83184729D01*
X210594212Y-83184680D01*
X210587853Y-83180628D01*
X210587822Y-83180679D01*
X210581680Y-83176891D01*
X210581678Y-83176890D01*
X210581677Y-83176889D01*
X210542474Y-83158608D01*
X210512058Y-83144424D01*
X210468390Y-83122494D01*
X210443433Y-83109960D01*
X210443431Y-83109959D01*
X210443430Y-83109959D01*
X210436645Y-83107489D01*
X210436665Y-83107433D01*
X210429549Y-83104959D01*
X210429531Y-83105015D01*
X210422671Y-83102742D01*
X210394841Y-83096996D01*
X210347434Y-83087207D01*
X210298472Y-83075603D01*
X210272719Y-83069499D01*
X210265547Y-83068661D01*
X210265553Y-83068601D01*
X210258055Y-83067835D01*
X210258050Y-83067895D01*
X210250860Y-83067265D01*
X210174083Y-83069500D01*
X209654500Y-83069500D01*
X209587461Y-83049815D01*
X209541706Y-82997011D01*
X209530500Y-82945500D01*
X209530499Y-81977129D01*
X209530498Y-81977123D01*
X209524091Y-81917516D01*
X209473797Y-81782671D01*
X209473793Y-81782664D01*
X209387547Y-81667455D01*
X209387544Y-81667452D01*
X209272336Y-81581207D01*
X209264549Y-81576955D01*
X209265249Y-81575672D01*
X209217009Y-81539555D01*
X209207788Y-81523592D01*
X209207213Y-81523912D01*
X209193262Y-81498780D01*
X209187485Y-81488371D01*
X209184117Y-81481278D01*
X209171378Y-81449386D01*
X209171377Y-81449383D01*
X209137620Y-81398163D01*
X209135180Y-81394134D01*
X209124379Y-81374675D01*
X209105409Y-81340498D01*
X209105407Y-81340495D01*
X209083033Y-81314434D01*
X209078302Y-81308159D01*
X209059402Y-81279481D01*
X209016012Y-81236091D01*
X209012822Y-81232648D01*
X208972867Y-81186106D01*
X208972863Y-81186102D01*
X208945698Y-81165074D01*
X208939811Y-81159890D01*
X207387702Y-79607782D01*
X207354218Y-79546460D01*
X207359202Y-79476768D01*
X207401074Y-79420835D01*
X207466538Y-79396418D01*
X207486191Y-79396574D01*
X207644998Y-79410468D01*
X207645000Y-79410468D01*
X207645002Y-79410468D01*
X207701673Y-79405509D01*
X207871692Y-79390635D01*
X208091496Y-79331739D01*
X208297734Y-79235568D01*
X208484139Y-79105047D01*
X208645047Y-78944139D01*
X208775568Y-78757734D01*
X208871739Y-78551496D01*
X208930635Y-78331692D01*
X208949759Y-78113109D01*
X208950468Y-78105001D01*
X208950468Y-78104998D01*
X208938707Y-77970568D01*
X208930635Y-77878308D01*
X208871739Y-77658504D01*
X208775568Y-77452266D01*
X208667923Y-77298532D01*
X208645048Y-77265862D01*
X208606596Y-77227410D01*
X208484139Y-77104953D01*
X208479373Y-77101615D01*
X208448375Y-77079910D01*
X208404751Y-77025332D01*
X208395500Y-76978336D01*
X208395500Y-76042658D01*
X208415185Y-75975619D01*
X208448378Y-75941082D01*
X208464139Y-75930047D01*
X208625047Y-75769139D01*
X208755568Y-75582734D01*
X208851739Y-75376496D01*
X208910635Y-75156692D01*
X208930468Y-74930000D01*
X208915869Y-74763137D01*
X208929635Y-74694639D01*
X208951713Y-74664653D01*
X209310959Y-74305406D01*
X209372282Y-74271922D01*
X209441974Y-74276906D01*
X209497907Y-74318778D01*
X209522168Y-74382281D01*
X209534364Y-74521686D01*
X209534366Y-74521697D01*
X209593258Y-74741488D01*
X209593261Y-74741497D01*
X209689431Y-74947732D01*
X209689432Y-74947734D01*
X209819954Y-75134141D01*
X209980858Y-75295045D01*
X210136622Y-75404111D01*
X210180247Y-75458687D01*
X210189499Y-75505686D01*
X210189499Y-77613337D01*
X210169814Y-77680376D01*
X210136624Y-77714911D01*
X210100863Y-77739951D01*
X209939951Y-77900862D01*
X209809432Y-78087265D01*
X209809431Y-78087267D01*
X209713261Y-78293502D01*
X209713258Y-78293511D01*
X209654366Y-78513302D01*
X209654364Y-78513313D01*
X209634532Y-78739998D01*
X209634532Y-78740001D01*
X209654364Y-78966686D01*
X209654366Y-78966697D01*
X209713258Y-79186488D01*
X209713261Y-79186497D01*
X209809431Y-79392732D01*
X209809432Y-79392734D01*
X209939954Y-79579141D01*
X210100858Y-79740045D01*
X210100861Y-79740047D01*
X210287266Y-79870568D01*
X210493504Y-79966739D01*
X210713308Y-80025635D01*
X210875230Y-80039801D01*
X210939998Y-80045468D01*
X210940000Y-80045468D01*
X210940002Y-80045468D01*
X210996673Y-80040509D01*
X211166692Y-80025635D01*
X211386496Y-79966739D01*
X211592734Y-79870568D01*
X211779139Y-79740047D01*
X211940047Y-79579139D01*
X212070568Y-79392734D01*
X212166739Y-79186496D01*
X212225635Y-78966692D01*
X212243500Y-78762500D01*
X212245468Y-78740001D01*
X212245468Y-78739998D01*
X212235196Y-78622592D01*
X212225635Y-78513308D01*
X212176970Y-78331686D01*
X212166741Y-78293511D01*
X212166738Y-78293502D01*
X212138282Y-78232478D01*
X212070568Y-78087266D01*
X211984794Y-77964767D01*
X211940048Y-77900862D01*
X211878328Y-77839142D01*
X211779139Y-77739953D01*
X211772718Y-77735457D01*
X211743375Y-77714910D01*
X211699751Y-77660332D01*
X211690500Y-77613336D01*
X211690500Y-75315047D01*
X211710185Y-75248008D01*
X211726813Y-75227371D01*
X211820047Y-75134139D01*
X211950568Y-74947734D01*
X212046739Y-74741496D01*
X212105635Y-74521692D01*
X212124558Y-74305407D01*
X212125468Y-74295001D01*
X212125468Y-74294998D01*
X212117974Y-74209343D01*
X212105635Y-74068308D01*
X212046739Y-73848504D01*
X211950568Y-73642266D01*
X211820047Y-73455861D01*
X211820045Y-73455858D01*
X211659141Y-73294954D01*
X211472734Y-73164432D01*
X211472732Y-73164431D01*
X211266497Y-73068261D01*
X211266488Y-73068258D01*
X211046697Y-73009366D01*
X211046693Y-73009365D01*
X211046692Y-73009365D01*
X211046691Y-73009364D01*
X211046686Y-73009364D01*
X210820002Y-72989532D01*
X210819998Y-72989532D01*
X210593313Y-73009364D01*
X210593302Y-73009366D01*
X210373511Y-73068258D01*
X210373502Y-73068261D01*
X210167267Y-73164431D01*
X210167265Y-73164432D01*
X209980858Y-73294954D01*
X209877181Y-73398632D01*
X209815858Y-73432117D01*
X209746166Y-73427133D01*
X209690233Y-73385261D01*
X209665816Y-73319797D01*
X209665500Y-73310951D01*
X209665500Y-72091386D01*
X209685185Y-72024347D01*
X209693647Y-72012721D01*
X209771797Y-71917495D01*
X209771801Y-71917488D01*
X209867021Y-71739345D01*
X209867021Y-71739344D01*
X209867023Y-71739341D01*
X209925662Y-71546033D01*
X209940500Y-71395380D01*
X209940500Y-70844620D01*
X209925662Y-70693967D01*
X209867023Y-70500659D01*
X209867021Y-70500656D01*
X209867021Y-70500654D01*
X209771801Y-70322511D01*
X209771797Y-70322505D01*
X209771493Y-70322135D01*
X209736793Y-70279852D01*
X209645134Y-70168164D01*
X209617822Y-70103854D01*
X209629613Y-70034987D01*
X209676766Y-69983427D01*
X209740988Y-69965500D01*
X209822770Y-69965500D01*
X209889809Y-69985185D01*
X209910451Y-70001819D01*
X210244268Y-70335635D01*
X210256049Y-70349267D01*
X210270390Y-70368530D01*
X210310420Y-70402119D01*
X210314392Y-70405759D01*
X210320224Y-70411591D01*
X210320227Y-70411594D01*
X210345947Y-70431931D01*
X210404788Y-70481304D01*
X210410818Y-70485270D01*
X210410785Y-70485319D01*
X210417143Y-70489369D01*
X210417175Y-70489319D01*
X210423320Y-70493109D01*
X210423323Y-70493111D01*
X210492936Y-70525572D01*
X210561567Y-70560040D01*
X210561572Y-70560041D01*
X210568361Y-70562513D01*
X210568340Y-70562570D01*
X210575455Y-70565043D01*
X210575475Y-70564986D01*
X210582330Y-70567258D01*
X210657558Y-70582790D01*
X210732279Y-70600500D01*
X210732289Y-70600500D01*
X210739452Y-70601338D01*
X210739444Y-70601397D01*
X210746945Y-70602164D01*
X210746951Y-70602105D01*
X210754140Y-70602734D01*
X210754144Y-70602733D01*
X210754145Y-70602734D01*
X210830918Y-70600500D01*
X211598337Y-70600500D01*
X211665376Y-70620185D01*
X211699912Y-70653377D01*
X211724954Y-70689141D01*
X211885858Y-70850045D01*
X211887695Y-70851331D01*
X212072266Y-70980568D01*
X212278504Y-71076739D01*
X212278509Y-71076740D01*
X212278511Y-71076741D01*
X212331415Y-71090916D01*
X212498308Y-71135635D01*
X212660230Y-71149801D01*
X212724998Y-71155468D01*
X212725000Y-71155468D01*
X212725002Y-71155468D01*
X212781672Y-71150509D01*
X212951692Y-71135635D01*
X213171496Y-71076739D01*
X213377734Y-70980568D01*
X213564139Y-70850047D01*
X213725047Y-70689139D01*
X213855568Y-70502734D01*
X213951739Y-70296496D01*
X214010635Y-70076692D01*
X214030468Y-69850000D01*
X214028916Y-69832266D01*
X214023408Y-69769307D01*
X214010635Y-69623308D01*
X213962766Y-69444658D01*
X213951741Y-69403511D01*
X213951738Y-69403502D01*
X213923282Y-69342478D01*
X213855568Y-69197266D01*
X213725047Y-69010861D01*
X213564139Y-68849953D01*
X213559373Y-68846615D01*
X213528375Y-68824910D01*
X213484751Y-68770332D01*
X213475500Y-68723336D01*
X213475500Y-66531662D01*
X213495185Y-66464623D01*
X213528379Y-66430086D01*
X213564140Y-66405046D01*
X213725045Y-66244141D01*
X213725045Y-66244140D01*
X213725047Y-66244139D01*
X213750086Y-66208377D01*
X213804665Y-66164752D01*
X213851663Y-66155500D01*
X213913337Y-66155500D01*
X213980376Y-66175185D01*
X214014912Y-66208377D01*
X214039954Y-66244141D01*
X214200858Y-66405045D01*
X214200861Y-66405047D01*
X214387266Y-66535568D01*
X214593504Y-66631739D01*
X214813308Y-66690635D01*
X214975230Y-66704801D01*
X215039998Y-66710468D01*
X215040000Y-66710468D01*
X215040002Y-66710468D01*
X215096672Y-66705509D01*
X215266692Y-66690635D01*
X215486496Y-66631739D01*
X215692734Y-66535568D01*
X215879139Y-66405047D01*
X216040047Y-66244139D01*
X216170568Y-66057734D01*
X216197895Y-65999129D01*
X216244064Y-65946695D01*
X216311257Y-65927542D01*
X216378139Y-65947757D01*
X216422657Y-65999133D01*
X216449865Y-66057481D01*
X216449866Y-66057483D01*
X216500973Y-66130471D01*
X216500973Y-66130472D01*
X217042580Y-65588865D01*
X217103903Y-65555380D01*
X217173594Y-65560364D01*
X217229528Y-65602235D01*
X217240742Y-65620246D01*
X217246527Y-65631599D01*
X217252358Y-65643044D01*
X217252363Y-65643050D01*
X217341949Y-65732636D01*
X217341951Y-65732637D01*
X217341955Y-65732641D01*
X217364747Y-65744254D01*
X217415542Y-65792228D01*
X217432337Y-65860049D01*
X217409799Y-65926184D01*
X217396132Y-65942419D01*
X216854526Y-66484025D01*
X216854526Y-66484026D01*
X216927512Y-66535131D01*
X216927516Y-66535133D01*
X217133673Y-66631265D01*
X217133682Y-66631269D01*
X217353389Y-66690139D01*
X217353400Y-66690141D01*
X217579998Y-66709966D01*
X217580002Y-66709966D01*
X217806599Y-66690141D01*
X217806610Y-66690139D01*
X218026317Y-66631269D01*
X218026331Y-66631264D01*
X218232478Y-66535136D01*
X218305472Y-66484025D01*
X217763866Y-65942419D01*
X217730381Y-65881096D01*
X217735365Y-65811404D01*
X217777237Y-65755471D01*
X217795245Y-65744258D01*
X217818045Y-65732641D01*
X217907641Y-65643045D01*
X217919254Y-65620252D01*
X217967225Y-65569458D01*
X218035046Y-65552661D01*
X218101181Y-65575197D01*
X218117419Y-65588866D01*
X218659025Y-66130472D01*
X218710136Y-66057478D01*
X218806264Y-65851331D01*
X218806269Y-65851317D01*
X218865139Y-65631610D01*
X218865141Y-65631599D01*
X218884966Y-65405002D01*
X218884966Y-65404997D01*
X218865141Y-65178400D01*
X218865139Y-65178389D01*
X218806269Y-64958682D01*
X218806265Y-64958673D01*
X218710133Y-64752516D01*
X218710131Y-64752512D01*
X218659026Y-64679526D01*
X218659025Y-64679526D01*
X218117419Y-65221132D01*
X218056096Y-65254617D01*
X217986404Y-65249633D01*
X217930471Y-65207761D01*
X217919256Y-65189751D01*
X217907641Y-65166955D01*
X217907637Y-65166951D01*
X217907636Y-65166949D01*
X217818050Y-65077363D01*
X217818044Y-65077358D01*
X217808109Y-65072296D01*
X217795250Y-65065744D01*
X217744456Y-65017773D01*
X217727660Y-64949952D01*
X217750197Y-64883817D01*
X217763865Y-64867580D01*
X218305472Y-64325973D01*
X218232483Y-64274866D01*
X218232481Y-64274865D01*
X218026326Y-64178734D01*
X218026317Y-64178730D01*
X217806610Y-64119860D01*
X217806599Y-64119858D01*
X217580002Y-64100034D01*
X217579998Y-64100034D01*
X217353400Y-64119858D01*
X217353389Y-64119860D01*
X217133682Y-64178730D01*
X217133673Y-64178734D01*
X216927513Y-64274868D01*
X216854526Y-64325973D01*
X217396133Y-64867580D01*
X217429618Y-64928903D01*
X217424634Y-64998595D01*
X217382762Y-65054528D01*
X217364748Y-65065745D01*
X217341956Y-65077358D01*
X217341949Y-65077363D01*
X217252363Y-65166949D01*
X217252358Y-65166956D01*
X217240745Y-65189748D01*
X217192770Y-65240544D01*
X217124949Y-65257338D01*
X217058814Y-65234800D01*
X217042580Y-65221133D01*
X216500973Y-64679526D01*
X216449869Y-64752511D01*
X216422657Y-64810867D01*
X216376484Y-64863306D01*
X216309290Y-64882457D01*
X216242409Y-64862241D01*
X216197893Y-64810865D01*
X216194499Y-64803587D01*
X216170568Y-64752266D01*
X216040047Y-64565861D01*
X216040045Y-64565858D01*
X215879141Y-64404954D01*
X215692734Y-64274432D01*
X215692732Y-64274431D01*
X215486497Y-64178261D01*
X215486488Y-64178258D01*
X215266697Y-64119366D01*
X215266693Y-64119365D01*
X215266692Y-64119365D01*
X215266691Y-64119364D01*
X215266686Y-64119364D01*
X215040002Y-64099532D01*
X215039998Y-64099532D01*
X214813313Y-64119364D01*
X214813302Y-64119366D01*
X214593511Y-64178258D01*
X214593502Y-64178261D01*
X214387267Y-64274431D01*
X214387265Y-64274432D01*
X214200858Y-64404954D01*
X214039954Y-64565858D01*
X214014912Y-64601623D01*
X213960335Y-64645248D01*
X213913337Y-64654500D01*
X213851663Y-64654500D01*
X213784624Y-64634815D01*
X213750088Y-64601623D01*
X213725045Y-64565858D01*
X213564141Y-64404954D01*
X213377734Y-64274432D01*
X213377732Y-64274431D01*
X213171497Y-64178261D01*
X213171488Y-64178258D01*
X212951697Y-64119366D01*
X212951693Y-64119365D01*
X212951692Y-64119365D01*
X212951691Y-64119364D01*
X212951686Y-64119364D01*
X212725002Y-64099532D01*
X212724998Y-64099532D01*
X212498313Y-64119364D01*
X212498302Y-64119366D01*
X212278511Y-64178258D01*
X212278502Y-64178261D01*
X212072267Y-64274431D01*
X212072265Y-64274432D01*
X211885858Y-64404954D01*
X211724954Y-64565858D01*
X211594432Y-64752265D01*
X211594431Y-64752267D01*
X211498261Y-64958502D01*
X211498258Y-64958511D01*
X211439366Y-65178302D01*
X211439364Y-65178313D01*
X211419532Y-65404998D01*
X211419532Y-65405001D01*
X211439364Y-65631686D01*
X211439366Y-65631697D01*
X211498258Y-65851488D01*
X211498261Y-65851497D01*
X211594431Y-66057732D01*
X211594432Y-66057734D01*
X211724954Y-66244141D01*
X211885859Y-66405046D01*
X211921621Y-66430086D01*
X211965247Y-66484662D01*
X211974500Y-66531662D01*
X211974500Y-68723336D01*
X211954815Y-68790375D01*
X211921625Y-68824910D01*
X211885863Y-68849951D01*
X211724951Y-69010862D01*
X211699912Y-69046623D01*
X211645335Y-69090248D01*
X211598337Y-69099500D01*
X211182229Y-69099500D01*
X211115190Y-69079815D01*
X211094548Y-69063181D01*
X210760729Y-68729361D01*
X210748949Y-68715730D01*
X210741482Y-68705701D01*
X210734612Y-68696472D01*
X210729322Y-68692033D01*
X210694587Y-68662886D01*
X210690612Y-68659244D01*
X210687690Y-68656322D01*
X210684780Y-68653411D01*
X210659040Y-68633059D01*
X210600209Y-68583694D01*
X210594180Y-68579729D01*
X210594212Y-68579680D01*
X210587853Y-68575628D01*
X210587822Y-68575679D01*
X210581680Y-68571891D01*
X210581678Y-68571890D01*
X210581677Y-68571889D01*
X210542474Y-68553608D01*
X210512058Y-68539424D01*
X210477894Y-68522267D01*
X210443433Y-68504960D01*
X210443431Y-68504959D01*
X210443430Y-68504959D01*
X210436645Y-68502489D01*
X210436665Y-68502433D01*
X210429549Y-68499959D01*
X210429531Y-68500015D01*
X210422671Y-68497742D01*
X210394841Y-68491996D01*
X210347434Y-68482207D01*
X210298472Y-68470603D01*
X210272719Y-68464499D01*
X210265547Y-68463661D01*
X210265553Y-68463601D01*
X210258055Y-68462835D01*
X210258050Y-68462895D01*
X210250860Y-68462265D01*
X210174083Y-68464500D01*
X208343705Y-68464500D01*
X208325735Y-68463191D01*
X208301972Y-68459710D01*
X208257512Y-68463601D01*
X208249931Y-68464264D01*
X208244530Y-68464500D01*
X208236289Y-68464500D01*
X208214579Y-68467037D01*
X208203724Y-68468306D01*
X208188419Y-68469645D01*
X208127199Y-68475001D01*
X208120132Y-68476460D01*
X208120120Y-68476404D01*
X208112763Y-68478035D01*
X208112777Y-68478092D01*
X208105743Y-68479759D01*
X208033575Y-68506025D01*
X207960675Y-68530181D01*
X207954126Y-68533236D01*
X207954101Y-68533183D01*
X207947308Y-68536471D01*
X207947334Y-68536523D01*
X207940880Y-68539764D01*
X207876708Y-68581971D01*
X207811347Y-68622285D01*
X207805683Y-68626765D01*
X207805647Y-68626719D01*
X207799797Y-68631485D01*
X207799834Y-68631529D01*
X207794305Y-68636168D01*
X207741598Y-68692033D01*
X207159358Y-69274272D01*
X207145729Y-69286051D01*
X207126468Y-69300390D01*
X207092898Y-69340397D01*
X207089253Y-69344376D01*
X207083409Y-69350222D01*
X207063059Y-69375959D01*
X207013695Y-69434789D01*
X207009729Y-69440819D01*
X207009682Y-69440788D01*
X207005630Y-69447147D01*
X207005679Y-69447177D01*
X207001889Y-69453321D01*
X206969424Y-69522941D01*
X206934960Y-69591566D01*
X206932488Y-69598357D01*
X206932432Y-69598336D01*
X206929960Y-69605450D01*
X206930015Y-69605469D01*
X206927742Y-69612327D01*
X206920818Y-69645862D01*
X206912207Y-69687565D01*
X206894500Y-69762279D01*
X206894499Y-69762281D01*
X206892835Y-69769307D01*
X206890967Y-69768864D01*
X206867440Y-69824201D01*
X206809680Y-69863514D01*
X206771617Y-69869500D01*
X205802129Y-69869500D01*
X205802123Y-69869501D01*
X205742516Y-69875908D01*
X205607671Y-69926202D01*
X205607664Y-69926206D01*
X205492455Y-70012452D01*
X205492452Y-70012455D01*
X205406206Y-70127664D01*
X205406202Y-70127671D01*
X205355908Y-70262517D01*
X205349501Y-70322116D01*
X205349500Y-70322135D01*
X205349500Y-71917870D01*
X205349501Y-71917876D01*
X205355908Y-71977483D01*
X205406202Y-72112328D01*
X205406206Y-72112335D01*
X205492452Y-72227544D01*
X205492455Y-72227547D01*
X205607664Y-72313793D01*
X205607671Y-72313797D01*
X205742517Y-72364091D01*
X205742516Y-72364091D01*
X205749444Y-72364835D01*
X205802127Y-72370500D01*
X206947872Y-72370499D01*
X207007483Y-72364091D01*
X207142331Y-72313796D01*
X207142335Y-72313792D01*
X207150118Y-72309544D01*
X207151252Y-72311621D01*
X207204715Y-72291671D01*
X207249576Y-72296694D01*
X207250656Y-72297021D01*
X207250659Y-72297023D01*
X207443967Y-72355662D01*
X207645000Y-72375462D01*
X207846033Y-72355662D01*
X208004506Y-72307589D01*
X208074371Y-72306966D01*
X208133484Y-72344214D01*
X208163075Y-72407508D01*
X208164500Y-72426250D01*
X208164500Y-73277769D01*
X208144815Y-73344808D01*
X208128181Y-73365450D01*
X207890348Y-73603282D01*
X207829025Y-73636767D01*
X207791861Y-73639129D01*
X207625003Y-73624532D01*
X207624998Y-73624532D01*
X207398313Y-73644364D01*
X207398302Y-73644366D01*
X207178511Y-73703258D01*
X207178502Y-73703261D01*
X206972267Y-73799431D01*
X206972265Y-73799432D01*
X206785858Y-73929954D01*
X206624954Y-74090858D01*
X206494684Y-74276906D01*
X206494432Y-74277266D01*
X206487380Y-74292387D01*
X206441209Y-74344825D01*
X206374015Y-74363976D01*
X206307134Y-74343760D01*
X206262619Y-74292387D01*
X206255568Y-74277266D01*
X206139059Y-74110873D01*
X206125045Y-74090858D01*
X205964141Y-73929954D01*
X205777734Y-73799432D01*
X205777732Y-73799431D01*
X205571497Y-73703261D01*
X205571488Y-73703258D01*
X205351697Y-73644366D01*
X205351693Y-73644365D01*
X205351692Y-73644365D01*
X205351691Y-73644364D01*
X205351686Y-73644364D01*
X205125002Y-73624532D01*
X205124998Y-73624532D01*
X204898313Y-73644364D01*
X204898302Y-73644366D01*
X204678511Y-73703258D01*
X204678502Y-73703261D01*
X204472267Y-73799431D01*
X204472265Y-73799432D01*
X204285858Y-73929954D01*
X204162181Y-74053632D01*
X204100858Y-74087117D01*
X204031166Y-74082133D01*
X203975233Y-74040261D01*
X203950816Y-73974797D01*
X203950500Y-73965951D01*
X203950500Y-66389049D01*
X203970185Y-66322010D01*
X204022989Y-66276255D01*
X204092147Y-66266311D01*
X204155703Y-66295336D01*
X204162181Y-66301368D01*
X204265858Y-66405045D01*
X204265861Y-66405047D01*
X204452266Y-66535568D01*
X204658504Y-66631739D01*
X204878308Y-66690635D01*
X205040230Y-66704801D01*
X205104998Y-66710468D01*
X205105000Y-66710468D01*
X205105002Y-66710468D01*
X205161672Y-66705509D01*
X205331692Y-66690635D01*
X205551496Y-66631739D01*
X205757734Y-66535568D01*
X205944139Y-66405047D01*
X206105047Y-66244139D01*
X206235568Y-66057734D01*
X206331739Y-65851496D01*
X206390635Y-65631692D01*
X206410468Y-65405000D01*
X206408916Y-65387266D01*
X206396080Y-65240544D01*
X206390635Y-65178308D01*
X206344198Y-65005000D01*
X206331741Y-64958511D01*
X206331738Y-64958502D01*
X206308856Y-64909431D01*
X206235568Y-64752266D01*
X206105047Y-64565861D01*
X206105045Y-64565858D01*
X205944141Y-64404954D01*
X205757734Y-64274432D01*
X205757732Y-64274431D01*
X205551497Y-64178261D01*
X205551488Y-64178258D01*
X205331697Y-64119366D01*
X205331693Y-64119365D01*
X205331692Y-64119365D01*
X205331691Y-64119364D01*
X205331686Y-64119364D01*
X205105002Y-64099532D01*
X205104998Y-64099532D01*
X204878313Y-64119364D01*
X204878302Y-64119366D01*
X204658511Y-64178258D01*
X204658502Y-64178261D01*
X204452267Y-64274431D01*
X204452265Y-64274432D01*
X204265862Y-64404951D01*
X204162181Y-64508632D01*
X204100858Y-64542116D01*
X204031166Y-64537132D01*
X203975233Y-64495260D01*
X203950816Y-64429795D01*
X203950500Y-64420950D01*
X203950500Y-54337228D01*
X203970185Y-54270189D01*
X203986810Y-54249556D01*
X204109550Y-54126816D01*
X204170871Y-54093334D01*
X204197229Y-54090500D01*
X205697957Y-54090500D01*
X205764996Y-54110185D01*
X205810751Y-54162989D01*
X205820695Y-54232147D01*
X205791670Y-54295703D01*
X205750362Y-54326882D01*
X205722513Y-54339868D01*
X205649526Y-54390973D01*
X206191133Y-54932580D01*
X206224618Y-54993903D01*
X206219634Y-55063595D01*
X206177762Y-55119528D01*
X206159748Y-55130745D01*
X206136956Y-55142358D01*
X206136949Y-55142363D01*
X206047363Y-55231949D01*
X206047358Y-55231956D01*
X206035745Y-55254748D01*
X205987770Y-55305544D01*
X205919949Y-55322338D01*
X205853814Y-55299800D01*
X205837580Y-55286133D01*
X205295973Y-54744526D01*
X205244868Y-54817513D01*
X205148734Y-55023673D01*
X205148730Y-55023682D01*
X205089860Y-55243389D01*
X205089858Y-55243400D01*
X205070034Y-55469997D01*
X205070034Y-55470002D01*
X205089858Y-55696599D01*
X205089860Y-55696610D01*
X205148730Y-55916317D01*
X205148734Y-55916326D01*
X205244865Y-56122481D01*
X205244866Y-56122483D01*
X205295973Y-56195471D01*
X205295973Y-56195472D01*
X205837580Y-55653865D01*
X205898903Y-55620380D01*
X205968594Y-55625364D01*
X206024528Y-55667235D01*
X206035742Y-55685246D01*
X206041179Y-55695916D01*
X206047358Y-55708044D01*
X206047363Y-55708050D01*
X206136949Y-55797636D01*
X206136951Y-55797637D01*
X206136955Y-55797641D01*
X206159747Y-55809254D01*
X206210542Y-55857228D01*
X206227337Y-55925049D01*
X206204799Y-55991184D01*
X206191132Y-56007419D01*
X205649526Y-56549025D01*
X205649526Y-56549026D01*
X205722512Y-56600131D01*
X205722520Y-56600135D01*
X205780865Y-56627342D01*
X205833305Y-56673514D01*
X205852457Y-56740707D01*
X205832242Y-56807589D01*
X205780867Y-56852105D01*
X205722266Y-56879432D01*
X205722264Y-56879433D01*
X205535858Y-57009954D01*
X205374954Y-57170858D01*
X205244432Y-57357265D01*
X205244431Y-57357267D01*
X205148261Y-57563502D01*
X205148258Y-57563511D01*
X205089366Y-57783302D01*
X205089364Y-57783313D01*
X205069532Y-58009998D01*
X205069532Y-58010001D01*
X205089364Y-58236686D01*
X205089366Y-58236697D01*
X205148258Y-58456488D01*
X205148261Y-58456497D01*
X205244431Y-58662732D01*
X205244432Y-58662734D01*
X205374954Y-58849141D01*
X205535858Y-59010045D01*
X205535861Y-59010047D01*
X205722266Y-59140568D01*
X205928504Y-59236739D01*
X206148308Y-59295635D01*
X206310230Y-59309801D01*
X206374998Y-59315468D01*
X206375000Y-59315468D01*
X206375001Y-59315468D01*
X206398260Y-59313433D01*
X206541861Y-59300869D01*
X206610359Y-59314635D01*
X206640348Y-59336716D01*
X206858181Y-59554548D01*
X206891666Y-59615871D01*
X206894500Y-59642229D01*
X206894500Y-60580500D01*
X206874815Y-60647539D01*
X206822011Y-60693294D01*
X206770500Y-60704500D01*
X205802129Y-60704500D01*
X205802123Y-60704501D01*
X205742516Y-60710908D01*
X205607671Y-60761202D01*
X205607664Y-60761206D01*
X205492455Y-60847452D01*
X205492452Y-60847455D01*
X205406206Y-60962664D01*
X205406202Y-60962671D01*
X205355908Y-61097517D01*
X205349501Y-61157116D01*
X205349500Y-61157135D01*
X205349500Y-62752870D01*
X205349501Y-62752876D01*
X205355908Y-62812483D01*
X205406202Y-62947328D01*
X205406206Y-62947335D01*
X205492452Y-63062544D01*
X205492455Y-63062547D01*
X205607664Y-63148793D01*
X205607671Y-63148797D01*
X205742517Y-63199091D01*
X205742516Y-63199091D01*
X205749444Y-63199835D01*
X205802127Y-63205500D01*
X206947872Y-63205499D01*
X207007483Y-63199091D01*
X207142331Y-63148796D01*
X207142335Y-63148792D01*
X207150118Y-63144544D01*
X207151252Y-63146621D01*
X207204715Y-63126671D01*
X207249576Y-63131694D01*
X207250656Y-63132021D01*
X207250659Y-63132023D01*
X207443967Y-63190662D01*
X207645000Y-63210462D01*
X207846033Y-63190662D01*
X208039341Y-63132023D01*
X208217494Y-63036798D01*
X208217498Y-63036794D01*
X208221546Y-63034631D01*
X208289949Y-63020389D01*
X208338454Y-63034631D01*
X208342502Y-63036794D01*
X208342506Y-63036798D01*
X208520659Y-63132023D01*
X208713967Y-63190662D01*
X208915000Y-63210462D01*
X209116033Y-63190662D01*
X209309341Y-63132023D01*
X209309916Y-63131716D01*
X209487488Y-63036801D01*
X209487486Y-63036801D01*
X209487494Y-63036798D01*
X209643647Y-62908647D01*
X209771798Y-62752494D01*
X209867023Y-62574341D01*
X209925662Y-62381033D01*
X209940500Y-62230380D01*
X209940500Y-61679620D01*
X209925662Y-61528967D01*
X209867023Y-61335659D01*
X209867021Y-61335656D01*
X209867021Y-61335654D01*
X209771801Y-61157511D01*
X209771799Y-61157509D01*
X209771798Y-61157506D01*
X209728640Y-61104918D01*
X209693647Y-61062278D01*
X209666334Y-60997968D01*
X209665500Y-60983613D01*
X209665500Y-60687228D01*
X209685185Y-60620189D01*
X209701815Y-60599551D01*
X210035641Y-60265724D01*
X210049260Y-60253954D01*
X210068530Y-60239610D01*
X210102123Y-60199574D01*
X210105757Y-60195608D01*
X210111591Y-60189776D01*
X210131930Y-60164052D01*
X210181302Y-60105214D01*
X210181306Y-60105205D01*
X210185274Y-60099175D01*
X210185325Y-60099208D01*
X210189369Y-60092860D01*
X210189317Y-60092828D01*
X210193104Y-60086685D01*
X210193111Y-60086677D01*
X210225572Y-60017063D01*
X210260040Y-59948433D01*
X210260041Y-59948427D01*
X210262508Y-59941650D01*
X210262566Y-59941671D01*
X210265043Y-59934544D01*
X210264986Y-59934526D01*
X210267255Y-59927679D01*
X210267256Y-59927674D01*
X210267257Y-59927672D01*
X210282790Y-59852441D01*
X210300500Y-59777721D01*
X210300500Y-59777719D01*
X210301339Y-59770548D01*
X210301398Y-59770554D01*
X210302164Y-59763054D01*
X210302105Y-59763049D01*
X210302734Y-59755859D01*
X210300500Y-59679082D01*
X210300500Y-59136662D01*
X210320185Y-59069623D01*
X210353379Y-59035086D01*
X210389140Y-59010046D01*
X210550045Y-58849141D01*
X210550044Y-58849141D01*
X210550047Y-58849139D01*
X210575086Y-58813377D01*
X210629665Y-58769752D01*
X210676663Y-58760500D01*
X211952770Y-58760500D01*
X212019809Y-58780185D01*
X212040451Y-58796819D01*
X212784269Y-59540637D01*
X212796049Y-59554268D01*
X212810389Y-59573530D01*
X212810391Y-59573532D01*
X212850409Y-59607110D01*
X212854399Y-59610766D01*
X212860220Y-59616587D01*
X212860222Y-59616590D01*
X212878111Y-59630734D01*
X212885944Y-59636927D01*
X212944786Y-59686302D01*
X212944794Y-59686306D01*
X212950824Y-59690273D01*
X212950790Y-59690323D01*
X212957137Y-59694366D01*
X212957169Y-59694316D01*
X212963318Y-59698108D01*
X212963320Y-59698109D01*
X212963323Y-59698111D01*
X213032930Y-59730569D01*
X213101567Y-59765040D01*
X213101576Y-59765042D01*
X213108355Y-59767510D01*
X213108334Y-59767567D01*
X213115451Y-59770040D01*
X213115470Y-59769984D01*
X213122330Y-59772257D01*
X213197532Y-59787784D01*
X213272279Y-59805500D01*
X213272288Y-59805500D01*
X213279452Y-59806338D01*
X213279445Y-59806397D01*
X213286946Y-59807163D01*
X213286952Y-59807104D01*
X213294140Y-59807733D01*
X213294143Y-59807732D01*
X213294144Y-59807733D01*
X213370898Y-59805500D01*
X215633337Y-59805500D01*
X215700376Y-59825185D01*
X215734912Y-59858377D01*
X215759954Y-59894141D01*
X215920858Y-60055045D01*
X215920861Y-60055047D01*
X216107266Y-60185568D01*
X216313504Y-60281739D01*
X216533308Y-60340635D01*
X216695230Y-60354801D01*
X216759998Y-60360468D01*
X216760000Y-60360468D01*
X216760002Y-60360468D01*
X216816672Y-60355509D01*
X216986692Y-60340635D01*
X217206496Y-60281739D01*
X217412734Y-60185568D01*
X217599139Y-60055047D01*
X217760047Y-59894139D01*
X217890568Y-59707734D01*
X217917618Y-59649724D01*
X217963790Y-59597285D01*
X218030983Y-59578133D01*
X218097865Y-59598348D01*
X218142382Y-59649725D01*
X218169429Y-59707728D01*
X218169432Y-59707734D01*
X218299954Y-59894141D01*
X218460858Y-60055045D01*
X218460861Y-60055047D01*
X218647266Y-60185568D01*
X218853504Y-60281739D01*
X219073308Y-60340635D01*
X219235230Y-60354801D01*
X219299998Y-60360468D01*
X219300000Y-60360468D01*
X219300001Y-60360468D01*
X219320062Y-60358712D01*
X219466861Y-60345869D01*
X219535359Y-60359635D01*
X219565348Y-60381716D01*
X219994267Y-60810634D01*
X220006048Y-60824266D01*
X220020390Y-60843530D01*
X220060420Y-60877119D01*
X220064392Y-60880759D01*
X220070223Y-60886590D01*
X220070222Y-60886590D01*
X220092027Y-60903830D01*
X220095944Y-60906927D01*
X220154786Y-60956302D01*
X220154794Y-60956306D01*
X220160824Y-60960273D01*
X220160790Y-60960323D01*
X220167137Y-60964366D01*
X220167169Y-60964316D01*
X220173318Y-60968108D01*
X220173320Y-60968109D01*
X220173323Y-60968111D01*
X220242930Y-61000569D01*
X220311567Y-61035040D01*
X220311576Y-61035042D01*
X220318355Y-61037510D01*
X220318334Y-61037567D01*
X220325451Y-61040040D01*
X220325470Y-61039984D01*
X220332330Y-61042257D01*
X220407532Y-61057784D01*
X220482279Y-61075500D01*
X220482288Y-61075500D01*
X220489452Y-61076338D01*
X220489445Y-61076397D01*
X220496946Y-61077163D01*
X220496952Y-61077104D01*
X220504140Y-61077733D01*
X220504143Y-61077732D01*
X220504144Y-61077733D01*
X220580898Y-61075500D01*
X232981295Y-61075500D01*
X232999265Y-61076809D01*
X233023023Y-61080289D01*
X233075068Y-61075735D01*
X233080470Y-61075500D01*
X233088704Y-61075500D01*
X233088709Y-61075500D01*
X233100327Y-61074141D01*
X233121276Y-61071693D01*
X233134028Y-61070577D01*
X233197797Y-61064999D01*
X233197805Y-61064996D01*
X233204866Y-61063539D01*
X233204878Y-61063598D01*
X233212243Y-61061965D01*
X233212229Y-61061906D01*
X233219246Y-61060241D01*
X233219255Y-61060241D01*
X233291423Y-61033974D01*
X233364334Y-61009814D01*
X233364343Y-61009807D01*
X233370882Y-61006760D01*
X233370908Y-61006816D01*
X233377690Y-61003532D01*
X233377663Y-61003478D01*
X233384106Y-61000240D01*
X233384117Y-61000237D01*
X233448283Y-60958034D01*
X233513656Y-60917712D01*
X233513662Y-60917705D01*
X233519325Y-60913229D01*
X233519362Y-60913277D01*
X233525204Y-60908518D01*
X233525164Y-60908471D01*
X233530686Y-60903836D01*
X233530696Y-60903830D01*
X233555904Y-60877111D01*
X233583386Y-60847982D01*
X234578925Y-59852441D01*
X234800638Y-59630727D01*
X234814267Y-59618950D01*
X234817437Y-59616590D01*
X234833530Y-59604610D01*
X234833532Y-59604606D01*
X234833534Y-59604606D01*
X234851663Y-59582999D01*
X234867113Y-59564585D01*
X234870767Y-59560599D01*
X234873288Y-59558079D01*
X234876590Y-59554777D01*
X234896927Y-59529055D01*
X234946302Y-59470214D01*
X234946304Y-59470209D01*
X234950272Y-59464179D01*
X234950323Y-59464212D01*
X234954369Y-59457860D01*
X234954317Y-59457828D01*
X234958109Y-59451679D01*
X234958111Y-59451677D01*
X234990569Y-59382069D01*
X235025040Y-59313433D01*
X235025043Y-59313417D01*
X235027510Y-59306644D01*
X235027568Y-59306665D01*
X235030043Y-59299546D01*
X235029985Y-59299527D01*
X235032255Y-59292677D01*
X235034586Y-59281388D01*
X235067419Y-59219713D01*
X235128384Y-59185580D01*
X235198124Y-59189825D01*
X235232187Y-59208607D01*
X235426762Y-59360051D01*
X235426771Y-59360057D01*
X235645385Y-59478364D01*
X235645396Y-59478369D01*
X235880507Y-59559083D01*
X235999999Y-59579023D01*
X236000000Y-59579022D01*
X236000000Y-58713346D01*
X236019685Y-58646307D01*
X236072489Y-58600552D01*
X236141647Y-58590608D01*
X236158937Y-58594370D01*
X236178108Y-58599999D01*
X236178110Y-58600000D01*
X236178111Y-58600000D01*
X236321890Y-58600000D01*
X236321890Y-58599999D01*
X236341063Y-58594369D01*
X236410932Y-58594368D01*
X236469711Y-58632141D01*
X236498737Y-58695696D01*
X236500000Y-58713346D01*
X236500000Y-59579023D01*
X236619492Y-59559083D01*
X236854603Y-59478369D01*
X236854614Y-59478364D01*
X237073228Y-59360057D01*
X237073237Y-59360051D01*
X237269397Y-59207373D01*
X237269407Y-59207364D01*
X237437767Y-59024478D01*
X237573732Y-58816367D01*
X237673587Y-58588717D01*
X237734612Y-58347738D01*
X237734614Y-58347730D01*
X237750000Y-58162041D01*
X237750000Y-57600000D01*
X236874000Y-57600000D01*
X236806961Y-57580315D01*
X236761206Y-57527511D01*
X236750000Y-57476000D01*
X236750000Y-57224000D01*
X236769685Y-57156961D01*
X236822489Y-57111206D01*
X236874000Y-57100000D01*
X237750000Y-57100000D01*
X237750000Y-56537959D01*
X237734614Y-56352269D01*
X237734612Y-56352261D01*
X237673587Y-56111282D01*
X237573732Y-55883632D01*
X237437767Y-55675521D01*
X237269407Y-55492635D01*
X237269397Y-55492626D01*
X237073237Y-55339948D01*
X237073228Y-55339942D01*
X236854614Y-55221635D01*
X236854603Y-55221630D01*
X236619492Y-55140916D01*
X236500000Y-55120976D01*
X236500000Y-55986653D01*
X236480315Y-56053692D01*
X236427511Y-56099447D01*
X236358353Y-56109391D01*
X236341067Y-56105631D01*
X236321889Y-56100000D01*
X236178111Y-56100000D01*
X236158933Y-56105631D01*
X236089064Y-56105630D01*
X236030286Y-56067855D01*
X236001262Y-56004299D01*
X236000000Y-55986653D01*
X235999999Y-55120976D01*
X235880507Y-55140916D01*
X235664763Y-55214981D01*
X235594964Y-55218131D01*
X235534543Y-55183045D01*
X235502682Y-55120862D01*
X235500500Y-55097700D01*
X235500500Y-53763705D01*
X235501809Y-53745735D01*
X235502223Y-53742905D01*
X235505289Y-53721977D01*
X235500735Y-53669933D01*
X235500500Y-53664532D01*
X235500500Y-53656296D01*
X235500500Y-53656291D01*
X235496691Y-53623705D01*
X235489998Y-53547203D01*
X235489995Y-53547194D01*
X235488538Y-53540135D01*
X235488598Y-53540122D01*
X235486966Y-53532764D01*
X235486908Y-53532778D01*
X235485241Y-53525747D01*
X235485241Y-53525745D01*
X235458969Y-53453563D01*
X235455667Y-53443598D01*
X235434815Y-53380668D01*
X235431762Y-53374121D01*
X235431815Y-53374095D01*
X235428531Y-53367311D01*
X235428479Y-53367338D01*
X235425236Y-53360882D01*
X235418681Y-53350916D01*
X235383034Y-53296716D01*
X235360862Y-53260770D01*
X235342714Y-53231347D01*
X235338234Y-53225681D01*
X235338280Y-53225643D01*
X235333519Y-53219799D01*
X235333474Y-53219838D01*
X235328834Y-53214308D01*
X235272982Y-53161613D01*
X234226716Y-52115348D01*
X234193231Y-52054025D01*
X234190869Y-52016863D01*
X234205468Y-51850000D01*
X234185635Y-51623308D01*
X234126739Y-51403504D01*
X234030568Y-51197266D01*
X233900047Y-51010861D01*
X233900045Y-51010858D01*
X233739141Y-50849954D01*
X233552734Y-50719432D01*
X233552732Y-50719431D01*
X233346497Y-50623261D01*
X233346488Y-50623258D01*
X233126697Y-50564366D01*
X233126693Y-50564365D01*
X233126692Y-50564365D01*
X233126691Y-50564364D01*
X233126686Y-50564364D01*
X232900002Y-50544532D01*
X232899998Y-50544532D01*
X232673313Y-50564364D01*
X232673302Y-50564366D01*
X232453511Y-50623258D01*
X232453502Y-50623261D01*
X232247267Y-50719431D01*
X232247265Y-50719432D01*
X232060858Y-50849954D01*
X231899954Y-51010858D01*
X231769432Y-51197265D01*
X231769431Y-51197267D01*
X231673261Y-51403502D01*
X231673258Y-51403511D01*
X231614366Y-51623302D01*
X231614364Y-51623313D01*
X231594532Y-51849998D01*
X231594532Y-51850001D01*
X231614364Y-52076686D01*
X231614366Y-52076697D01*
X231673258Y-52296488D01*
X231673261Y-52296497D01*
X231769431Y-52502732D01*
X231769432Y-52502734D01*
X231899954Y-52689141D01*
X232060858Y-52850045D01*
X232060861Y-52850047D01*
X232247266Y-52980568D01*
X232262975Y-52987893D01*
X232315414Y-53034064D01*
X232334567Y-53101257D01*
X232314352Y-53168138D01*
X232262979Y-53212656D01*
X232247514Y-53219867D01*
X232247512Y-53219869D01*
X232169133Y-53274750D01*
X232102927Y-53297077D01*
X232035159Y-53280067D01*
X231998744Y-53247487D01*
X231982391Y-53225643D01*
X231957546Y-53192454D01*
X231957544Y-53192453D01*
X231957544Y-53192452D01*
X231842335Y-53106206D01*
X231842328Y-53106202D01*
X231707482Y-53055908D01*
X231707483Y-53055908D01*
X231647883Y-53049501D01*
X231647881Y-53049500D01*
X231647873Y-53049500D01*
X231647864Y-53049500D01*
X229952129Y-53049500D01*
X229952123Y-53049501D01*
X229892516Y-53055908D01*
X229757671Y-53106202D01*
X229757664Y-53106206D01*
X229642455Y-53192452D01*
X229642452Y-53192455D01*
X229556206Y-53307664D01*
X229556202Y-53307671D01*
X229505908Y-53442517D01*
X229499501Y-53502116D01*
X229499500Y-53502135D01*
X229499500Y-53545247D01*
X229479815Y-53612286D01*
X229427011Y-53658041D01*
X229357853Y-53667985D01*
X229294297Y-53638960D01*
X229273925Y-53616370D01*
X229200045Y-53510858D01*
X229039141Y-53349954D01*
X228852734Y-53219432D01*
X228852732Y-53219431D01*
X228646497Y-53123261D01*
X228646488Y-53123258D01*
X228426697Y-53064366D01*
X228426693Y-53064365D01*
X228426692Y-53064365D01*
X228426691Y-53064364D01*
X228426686Y-53064364D01*
X228200002Y-53044532D01*
X228199998Y-53044532D01*
X227973313Y-53064364D01*
X227973302Y-53064366D01*
X227753511Y-53123258D01*
X227753502Y-53123261D01*
X227547267Y-53219431D01*
X227547265Y-53219432D01*
X227360858Y-53349954D01*
X227199954Y-53510858D01*
X227069432Y-53697264D01*
X227069430Y-53697268D01*
X227046467Y-53746511D01*
X227021767Y-53781785D01*
X226637419Y-54166132D01*
X226576096Y-54199617D01*
X226506404Y-54194633D01*
X226450471Y-54152761D01*
X226439256Y-54134751D01*
X226427641Y-54111955D01*
X226427637Y-54111951D01*
X226427636Y-54111949D01*
X226338050Y-54022363D01*
X226338044Y-54022358D01*
X226328087Y-54017285D01*
X226315250Y-54010744D01*
X226264456Y-53962773D01*
X226247660Y-53894952D01*
X226270197Y-53828817D01*
X226283865Y-53812580D01*
X226825472Y-53270973D01*
X226752483Y-53219866D01*
X226752481Y-53219865D01*
X226737023Y-53212657D01*
X226684584Y-53166484D01*
X226665432Y-53099290D01*
X226685648Y-53032409D01*
X226737023Y-52987893D01*
X226752734Y-52980568D01*
X226939139Y-52850047D01*
X227100047Y-52689139D01*
X227230568Y-52502734D01*
X227326739Y-52296496D01*
X227385635Y-52076692D01*
X227405468Y-51850000D01*
X227385635Y-51623308D01*
X227326739Y-51403504D01*
X227230568Y-51197266D01*
X227100047Y-51010861D01*
X227100045Y-51010858D01*
X226939141Y-50849954D01*
X226752734Y-50719432D01*
X226752732Y-50719431D01*
X226546497Y-50623261D01*
X226546488Y-50623258D01*
X226326697Y-50564366D01*
X226326693Y-50564365D01*
X226326692Y-50564365D01*
X226326691Y-50564364D01*
X226326686Y-50564364D01*
X226100002Y-50544532D01*
X226099998Y-50544532D01*
X225873313Y-50564364D01*
X225873302Y-50564366D01*
X225653511Y-50623258D01*
X225653502Y-50623261D01*
X225447267Y-50719431D01*
X225447265Y-50719432D01*
X225260858Y-50849954D01*
X225099954Y-51010858D01*
X225074912Y-51046623D01*
X225020335Y-51090248D01*
X224973337Y-51099500D01*
X223803705Y-51099500D01*
X223785735Y-51098191D01*
X223761972Y-51094710D01*
X223716533Y-51098686D01*
X223709931Y-51099264D01*
X223704530Y-51099500D01*
X223696289Y-51099500D01*
X223674579Y-51102037D01*
X223663724Y-51103306D01*
X223648419Y-51104645D01*
X223587199Y-51110001D01*
X223580132Y-51111460D01*
X223580120Y-51111404D01*
X223572763Y-51113035D01*
X223572777Y-51113092D01*
X223565743Y-51114759D01*
X223493575Y-51141025D01*
X223420675Y-51165181D01*
X223414126Y-51168236D01*
X223414101Y-51168183D01*
X223407308Y-51171471D01*
X223407334Y-51171523D01*
X223400880Y-51174764D01*
X223336708Y-51216971D01*
X223271347Y-51257285D01*
X223265683Y-51261765D01*
X223265647Y-51261719D01*
X223259798Y-51266484D01*
X223259835Y-51266528D01*
X223254310Y-51271164D01*
X223201598Y-51327034D01*
X222610451Y-51918181D01*
X222549128Y-51951666D01*
X222522770Y-51954500D01*
X220426663Y-51954500D01*
X220359624Y-51934815D01*
X220325088Y-51901623D01*
X220300045Y-51865858D01*
X220139141Y-51704954D01*
X219952734Y-51574432D01*
X219952732Y-51574431D01*
X219746497Y-51478261D01*
X219746488Y-51478258D01*
X219526697Y-51419366D01*
X219526693Y-51419365D01*
X219526692Y-51419365D01*
X219526691Y-51419364D01*
X219526686Y-51419364D01*
X219300002Y-51399532D01*
X219299998Y-51399532D01*
X219073313Y-51419364D01*
X219073302Y-51419366D01*
X218853511Y-51478258D01*
X218853502Y-51478261D01*
X218647267Y-51574431D01*
X218647265Y-51574432D01*
X218460858Y-51704954D01*
X218299954Y-51865858D01*
X218169432Y-52052265D01*
X218169431Y-52052267D01*
X218142382Y-52110275D01*
X218096209Y-52162714D01*
X218029016Y-52181866D01*
X217962135Y-52161650D01*
X217917618Y-52110275D01*
X217890568Y-52052267D01*
X217890567Y-52052265D01*
X217760045Y-51865858D01*
X217599141Y-51704954D01*
X217412734Y-51574432D01*
X217412732Y-51574431D01*
X217206497Y-51478261D01*
X217206488Y-51478258D01*
X216986697Y-51419366D01*
X216986693Y-51419365D01*
X216986692Y-51419365D01*
X216986691Y-51419364D01*
X216986686Y-51419364D01*
X216760002Y-51399532D01*
X216759998Y-51399532D01*
X216533313Y-51419364D01*
X216533302Y-51419366D01*
X216313511Y-51478258D01*
X216313502Y-51478261D01*
X216107267Y-51574431D01*
X216107265Y-51574432D01*
X215920858Y-51704954D01*
X215759954Y-51865858D01*
X215734912Y-51901623D01*
X215680335Y-51945248D01*
X215633337Y-51954500D01*
X214992230Y-51954500D01*
X214925191Y-51934815D01*
X214904549Y-51918181D01*
X213935729Y-50949361D01*
X213923949Y-50935730D01*
X213916482Y-50925701D01*
X213909612Y-50916472D01*
X213909610Y-50916470D01*
X213869587Y-50882886D01*
X213865612Y-50879244D01*
X213862690Y-50876322D01*
X213859780Y-50873411D01*
X213834040Y-50853059D01*
X213775209Y-50803694D01*
X213769180Y-50799729D01*
X213769212Y-50799680D01*
X213762853Y-50795628D01*
X213762822Y-50795679D01*
X213756680Y-50791891D01*
X213756678Y-50791890D01*
X213756677Y-50791889D01*
X213717474Y-50773608D01*
X213687058Y-50759424D01*
X213652894Y-50742267D01*
X213618433Y-50724960D01*
X213618431Y-50724959D01*
X213618430Y-50724959D01*
X213611645Y-50722489D01*
X213611665Y-50722433D01*
X213604549Y-50719959D01*
X213604531Y-50720015D01*
X213597671Y-50717742D01*
X213569841Y-50711996D01*
X213522434Y-50702207D01*
X213473472Y-50690603D01*
X213447719Y-50684499D01*
X213440547Y-50683661D01*
X213440553Y-50683601D01*
X213433055Y-50682835D01*
X213433050Y-50682895D01*
X213425860Y-50682265D01*
X213349083Y-50684500D01*
X203263705Y-50684500D01*
X203245735Y-50683191D01*
X203221972Y-50679710D01*
X203177512Y-50683601D01*
X203169931Y-50684264D01*
X203164530Y-50684500D01*
X203156289Y-50684500D01*
X203134579Y-50687037D01*
X203123724Y-50688306D01*
X203108419Y-50689645D01*
X203047199Y-50695001D01*
X203040132Y-50696460D01*
X203040120Y-50696404D01*
X203032763Y-50698035D01*
X203032777Y-50698092D01*
X203025743Y-50699759D01*
X202953575Y-50726025D01*
X202880675Y-50750181D01*
X202874126Y-50753236D01*
X202874101Y-50753183D01*
X202867308Y-50756471D01*
X202867334Y-50756523D01*
X202860880Y-50759764D01*
X202796708Y-50801971D01*
X202731347Y-50842285D01*
X202725683Y-50846765D01*
X202725647Y-50846719D01*
X202719798Y-50851484D01*
X202719835Y-50851528D01*
X202714310Y-50856164D01*
X202661597Y-50912035D01*
X200809358Y-52764272D01*
X200795729Y-52776051D01*
X200776468Y-52790390D01*
X200742898Y-52830397D01*
X200739253Y-52834376D01*
X200733409Y-52840222D01*
X200713059Y-52865959D01*
X200663695Y-52924789D01*
X200659729Y-52930819D01*
X200659682Y-52930788D01*
X200655630Y-52937147D01*
X200655679Y-52937177D01*
X200651889Y-52943321D01*
X200619424Y-53012941D01*
X200584960Y-53081566D01*
X200582488Y-53088357D01*
X200582432Y-53088336D01*
X200579960Y-53095450D01*
X200580015Y-53095469D01*
X200577742Y-53102327D01*
X200573420Y-53123261D01*
X200562207Y-53177565D01*
X200550813Y-53225643D01*
X200544498Y-53252286D01*
X200543661Y-53259454D01*
X200543601Y-53259447D01*
X200542835Y-53266945D01*
X200542895Y-53266951D01*
X200542265Y-53274140D01*
X200544500Y-53350916D01*
X200544500Y-84391294D01*
X200543191Y-84409263D01*
X200539710Y-84433025D01*
X200000500Y-84433025D01*
X200000500Y-50124500D01*
X200020185Y-50057461D01*
X200072989Y-50011706D01*
X200124500Y-50000500D01*
X237875500Y-50000500D01*
X237942539Y-50020185D01*
G37*
%TD.AperFunction*%
%TD*%
M02*
